<?xml version="1.0" encoding="UTF-8"?><svg id="Ebene_2" xmlns="http://www.w3.org/2000/svg" viewBox="0 0 32 32"><defs><style>.cls-1{fill:#5481a9;}</style></defs><g id="Ebene_1-2"><g><path class="cls-1" d="M24.435,16.993v1.331H0v-1.331c0-2.196,1.798-3.993,3.996-3.993H20.439c2.198,0,3.996,1.797,3.996,3.993Z"/><path class="cls-1" d="M22.264,20.26v7.747c0,2.196-1.798,3.993-3.996,3.993H6.167c-2.198,0-3.996-1.797-3.996-3.993v-7.747H22.264Z"/></g><polygon class="cls-1" points="32 4 28 4 28 0 24 0 24 4 20 4 20 8 24 8 24 12 28 12 28 8 32 8 32 4"/></g></svg>