<?xml version="1.0" encoding="UTF-8"?><svg id="Ebene_2" xmlns="http://www.w3.org/2000/svg" viewBox="0 0 28.695 28.47"><defs><style>.cls-1{fill:#f8c296;}.cls-2{fill:#f48939;}</style></defs><g id="Ebene_1-2"><g><path class="cls-1" d="M25.056,16.034l-7.563,7.665c-.395,.401-.921,.62-1.48,.621h-4.708c-1.098,0-2.132,.433-2.909,1.22l-2.775,2.812c-.155,.157-.406,.158-.561,0L.116,23.341c-.155-.157-.155-.412,0-.569l4.963-5.651c.927-.939,2.159-1.457,3.47-1.456h7.582c.225,0,.436,.087,.594,.247,.33,.334,.33,.878,.002,1.211l-1.255,1.272c-.16,.162-.371,.249-.596,.25h-3.406c-.092,0-.177,.036-.242,.101-.065,.066-.101,.773-.101,.866,0,.185,.16,.347,.343,.348h3.942c.346,0,.673-.138,.919-.386l4.055-4.11c1.288-1.305,3.382-1.306,4.671,0,.154,.158,.154,.414-.001,.57Z"/><g><path class="cls-2" d="M28.695,2.755v.918H11.838v-.918c0-1.515,1.24-2.755,2.756-2.755h11.344c1.516,0,2.757,1.24,2.757,2.755Z"/><path class="cls-2" d="M27.197,5.008v5.345c0,1.515-1.241,2.755-2.757,2.755h-8.348c-1.516,0-2.757-1.24-2.757-2.755V5.008h13.862Z"/></g></g></g></svg>