<svg xmlns="http://www.w3.org/2000/svg" id="Ebene_2" viewBox="0 0 28.695 28.47"><defs><style>.cls-2{fill:#f48939}</style></defs><g id="Ebene_1-2"><path d="m25.056 16.034-7.563 7.665c-.395.401-.921.62-1.48.621h-4.708a4.062 4.062 0 0 0-2.909 1.22l-2.775 2.812a.392.392 0 0 1-.561 0L.116 23.341a.406.406 0 0 1 0-.569l4.963-5.651a4.84 4.84 0 0 1 3.47-1.456h7.582c.225 0 .436.087.594.247.33.334.33.878.002 1.211l-1.255 1.272a.835.835 0 0 1-.596.25H11.47a.339.339 0 0 0-.242.101c-.065.066-.101.773-.101.866 0 .185.16.347.343.348h3.942c.346 0 .673-.138.919-.386l4.055-4.11a3.275 3.275 0 0 1 4.671 0 .408.408 0 0 1-.001.57Z" style="fill:#f8c296"/><path d="M28.695 2.755v.918H11.838v-.918A2.764 2.764 0 0 1 14.594 0h11.344a2.764 2.764 0 0 1 2.757 2.755ZM27.197 5.008v5.345a2.764 2.764 0 0 1-2.757 2.755h-8.348a2.764 2.764 0 0 1-2.757-2.755V5.008h13.862Z" class="cls-2"/></g></svg>