<?xml version="1.0" encoding="UTF-8"?><svg id="Ebene_2" xmlns="http://www.w3.org/2000/svg" viewBox="0 0 14 12.78"><defs><style>.cls-1{fill:#61c620;fill-rule:evenodd;}</style></defs><g id="Ebene_1-2"><g id="Ebene_2-2"><g id="Ebene_2-2"><path class="cls-1" d="M7,7.07c1-1.4,2-2.6,3.35-2.6h.58v1.82l3.07-3.18L10.91,0V2h-.58c-2.59,0-4,1.9-5.29,3.58l-.17,.22c-1,1.34-1.88,2.5-3.19,2.5H0v2.45H1.68c2.52,0,4-1.95,5.18-3.53l.14-.15ZM.87,4.48h.8c.779,.031,1.508,.395,2,1l.23,.23,.64-.85c.22-.29,.45-.59,.7-.89l.17-.21-.2-.18c-.924-.964-2.195-1.519-3.53-1.54H0v2.46H.87v-.02Zm10,3.85h-.58c-.812-.05-1.564-.443-2.07-1.08l-.22-.25-.2,.27-.2,.27c-.29,.39-.6,.8-1,1.21l-.17,.2,.19,.19c.942,1.039,2.278,1.634,3.68,1.64h.58v2l3.12-3.09-3.09-3.18-.04,1.82Z"/></g></g></g></svg>