<svg xmlns="http://www.w3.org/2000/svg" viewBox="0 0 14 12.78"><path d="M7 7.07c1-1.4 2-2.6 3.35-2.6h.58v1.82L14 3.11 10.91 0v2h-.58c-2.59 0-4 1.9-5.29 3.58l-.17.22c-1 1.34-1.88 2.5-3.19 2.5H0v2.45h1.68c2.52 0 4-1.95 5.18-3.53L7 7.07ZM.87 4.48h.8a2.717 2.717 0 0 1 2 1l.23.23.64-.85c.22-.29.45-.59.7-.89l.17-.21-.2-.18a5 5 0 0 0-3.53-1.54H0V4.5h.87v-.02Zm10 3.85h-.58a2.87 2.87 0 0 1-2.07-1.08L8 7l-.2.27-.2.27c-.29.39-.6.8-1 1.21l-.17.2.19.19a4.997 4.997 0 0 0 3.68 1.64h.58v2L14 9.69l-3.09-3.18-.04 1.82Z" style="fill:#61c620;fill-rule:evenodd"/></svg>