<svg xmlns="http://www.w3.org/2000/svg" viewBox="0 0 23.48 30"><path d="M11.74 6a5.34 5.34 0 1 0 5.34 5.34A5.34 5.34 0 0 0 11.74 6Zm8 13a1.81 1.81 0 0 0 1.17-.62c.65-.92-.33-2.74 0-3.85s2.15-2 2.15-3.13-1.82-2.06-2.15-3.13.63-2.92 0-3.85-2.62-.54-3.5-1.21S16.29.46 15.23.1a1.125 1.125 0 0 0-.33-.1c-.98 0-2.16 1.23-3.16 1.23S9.5 0 8.53 0a1.268 1.268 0 0 0-.33.05C7.14.41 6.92 2.49 6.03 3.16c-.89.67-2.86.28-3.5 1.21s.33 2.74 0 3.85S.38 10.17.38 11.35s1.82 2.06 2.15 3.13-.63 2.92 0 3.85c.3.373.735.614 1.21.67L0 26.74l4.12.16L6.83 30l4.56-8.49a1.9 1.9 0 0 1 .32 0c.131.002.262.019.39.05L16.65 30l2.71-3.1 4.12-.16L19.74 19Zm-8-.87a6.78 6.78 0 1 1 .001-13.561 6.78 6.78 0 0 1-.001 13.561Z" style="fill:#5281a9"/></svg>