<?xml version="1.0" encoding="UTF-8"?><svg id="Ebene_2" xmlns="http://www.w3.org/2000/svg" viewBox="0 0 23.48 30"><defs><style>.cls-1{fill:#5281a9;}</style></defs><g id="Ebene_1-2"><g id="Ebene_2-2"><g id="Icons"><path class="cls-1" d="M11.74,6c-2.949,0-5.34,2.391-5.34,5.34s2.391,5.34,5.34,5.34,5.34-2.391,5.34-5.34h0c0-2.949-2.391-5.34-5.34-5.34Zm8,13h0c.454-.051,.872-.273,1.17-.62,.65-.92-.33-2.74,0-3.85s2.15-2,2.15-3.13-1.82-2.06-2.15-3.13,.63-2.92,0-3.85-2.62-.54-3.5-1.21S16.29,.46,15.23,.1c-.104-.05-.216-.084-.33-.1h0c-.98,0-2.16,1.23-3.16,1.23s-2.24-1.23-3.21-1.23c-.112,.002-.223,.019-.33,.05-1.06,.36-1.28,2.44-2.17,3.11-.89,.67-2.86,.28-3.5,1.21s.33,2.74,0,3.85S.38,10.17,.38,11.35s1.82,2.06,2.15,3.13-.63,2.92,0,3.85c.3,.373,.735,.614,1.21,.67h0L0,26.74l4.12,.16,2.71,3.1,4.56-8.49c.106-.009,.214-.009,.32,0,.131,.002,.262,.019,.39,.05l4.55,8.44,2.71-3.1,4.12-.16-3.74-7.74Zm-8-.87c-3.744,0-6.78-3.036-6.78-6.78s3.036-6.78,6.78-6.78,6.78,3.036,6.78,6.78-3.036,6.78-6.78,6.78h0Z"/></g></g></g></svg>