<?xml version="1.0" encoding="UTF-8"?><svg id="Ebene_2" xmlns="http://www.w3.org/2000/svg" viewBox="0 0 32 32"><defs><style>.cls-1{fill:#fff;}.cls-2{fill:#2a8fd2;}</style></defs><g id="Ebene_1-2"><g id="Ebene_2-2"><g id="Icons"><circle class="cls-2" cx="16" cy="16" r="16"/><path class="cls-1" d="M17.71,10.67c0-1.37-1.07-2.09-2.46-2.09-1.297,.05-2.523,.602-3.42,1.54l-2.71-2.49c1.619-1.886,3.975-2.979,6.46-3,3.82,0,6.82,1.77,6.82,5.44,0,4.38-5.43,4.93-5,8.77h-4.31c-.7-4.45,4.62-5.69,4.62-8.17Zm-5.71,13.67c-.074-1.771,1.302-3.267,3.073-3.341,.099-.004,.198-.004,.297,.001,1.766-.073,3.257,1.299,3.33,3.064,.004,.088,.004,.177,0,.266,.078,1.793-1.313,3.31-3.106,3.388-.075,.003-.149,.004-.224,.002-1.794,.068-3.303-1.331-3.37-3.125-.003-.085-.003-.17,0-.255Z"/></g></g></g></svg>