<?xml version="1.0" encoding="UTF-8"?><svg id="Ebene_2" xmlns="http://www.w3.org/2000/svg" viewBox="0 0 14 14"><defs><style>.cls-1{fill:#fff;}.cls-2{fill:#5887b7;}</style></defs><g id="Ebene_1-2"><g id="Ebene_2-2"><g id="Ebene_2-2"><circle class="cls-2" cx="7" cy="7" r="7"/><path class="cls-2" d="M8.92,11.19h-3.7v-.43h.3c.086-.007,.17-.027,.25-.06,.111-.032,.207-.103,.27-.2,.052-.109,.076-.229,.07-.35v-3.44c-.003-.128-.041-.253-.11-.36-.058-.102-.141-.187-.24-.25-.095-.042-.196-.069-.3-.08-.122-.046-.25-.076-.38-.09v-.47l2.92-.16v4.72c-.005,.123,.026,.245,.09,.35,.058,.098,.146,.175,.25,.22l.26,.09c.094,.03,.192,.05,.29,.06l.03,.45Zm-.85-8c.003,.291-.122,.568-.34,.76-.46,.426-1.17,.426-1.63,0-.222-.19-.35-.468-.35-.76,0-.292,.128-.57,.35-.76,.465-.412,1.165-.412,1.63,0,.218,.192,.343,.469,.34,.76Z"/><path class="cls-1" d="M8.92,11.19h-3.7v-.43h.3c.086-.007,.17-.027,.25-.06,.111-.032,.207-.103,.27-.2,.052-.109,.076-.229,.07-.35v-3.44c-.003-.128-.041-.253-.11-.36-.058-.102-.141-.187-.24-.25-.095-.042-.196-.069-.3-.08-.122-.046-.25-.076-.38-.09v-.47l2.92-.16v4.72c-.005,.123,.026,.245,.09,.35,.058,.098,.146,.175,.25,.22l.26,.09c.094,.03,.192,.05,.29,.06l.03,.45Zm-.85-8c.003,.291-.122,.568-.34,.76-.46,.426-1.17,.426-1.63,0-.222-.19-.35-.468-.35-.76,0-.292,.128-.57,.35-.76,.465-.412,1.165-.412,1.63,0,.218,.192,.343,.469,.34,.76Z"/></g></g></g></svg>