<svg xmlns="http://www.w3.org/2000/svg" id="Ebene_2" viewBox="0 0 14 14"><defs><style>.cls-2{fill:#5887b7}</style></defs><g id="Ebene_1-2"><g id="Ebene_2-2"><circle cx="7" cy="7" r="7" class="cls-2"/><path d="M8.92 11.19h-3.7v-.43h.3a.83.83 0 0 0 .25-.06.48.48 0 0 0 .27-.2.728.728 0 0 0 .07-.35V6.71A.695.695 0 0 0 6 6.35a.718.718 0 0 0-.24-.25 1.002 1.002 0 0 0-.3-.08 1.547 1.547 0 0 0-.38-.09v-.47L8 5.3v4.72a.624.624 0 0 0 .09.35.54.54 0 0 0 .25.22l.26.09c.094.03.192.05.29.06l.03.45Zm-.85-8a1 1 0 0 1-.34.76 1.2 1.2 0 0 1-1.63 0 1.001 1.001 0 0 1 0-1.52 1.23 1.23 0 0 1 1.63 0 1 1 0 0 1 .34.76Z" class="cls-2"/><path d="M8.92 11.19h-3.7v-.43h.3a.83.83 0 0 0 .25-.06.48.48 0 0 0 .27-.2.728.728 0 0 0 .07-.35V6.71A.695.695 0 0 0 6 6.35a.718.718 0 0 0-.24-.25 1.002 1.002 0 0 0-.3-.08 1.547 1.547 0 0 0-.38-.09v-.47L8 5.3v4.72a.624.624 0 0 0 .09.35.54.54 0 0 0 .25.22l.26.09c.094.03.192.05.29.06l.03.45Zm-.85-8a1 1 0 0 1-.34.76 1.2 1.2 0 0 1-1.63 0 1.001 1.001 0 0 1 0-1.52 1.23 1.23 0 0 1 1.63 0 1 1 0 0 1 .34.76Z" style="fill:#fff"/></g></g></svg>