<?xml version="1.0" encoding="UTF-8"?><svg id="Ebene_2" xmlns="http://www.w3.org/2000/svg" viewBox="0 0 15 15"><defs><style>.cls-1{fill:#fff;}.cls-2{fill:#043eb2;}</style></defs><g id="Ebene_1-2"><g><circle class="cls-2" cx="7.5" cy="7.5" r="7.5"/><g><path class="cls-1" d="M1.409,7.441c0-.936,.261-1.666,.783-2.187,.522-.522,1.249-.783,2.18-.783,.955,0,1.691,.256,2.207,.769s.774,1.23,.774,2.154c0,.67-.113,1.221-.338,1.65-.226,.429-.552,.763-.978,1.002-.427,.239-.958,.358-1.595,.358-.647,0-1.183-.103-1.607-.309-.424-.207-.767-.533-1.031-.98-.264-.445-.395-1.004-.395-1.674Zm1.772,.007c0,.579,.108,.995,.323,1.248,.215,.254,.508,.38,.879,.38,.381,0,.676-.124,.884-.371,.209-.248,.313-.693,.313-1.335,0-.54-.109-.935-.327-1.184-.217-.249-.513-.373-.886-.373-.357,0-.644,.127-.861,.38-.216,.252-.325,.671-.325,1.255Z"/><path class="cls-1" d="M12.127,7.957l1.553,.47c-.104,.435-.268,.799-.493,1.091-.224,.292-.503,.513-.835,.662-.333,.149-.756,.223-1.27,.223-.624,0-1.133-.091-1.529-.272-.395-.181-.736-.5-1.023-.956s-.43-1.041-.43-1.752c0-.949,.252-1.678,.757-2.188,.505-.51,1.22-.764,2.143-.764,.723,0,1.291,.146,1.704,.438,.413,.292,.721,.741,.922,1.346l-1.565,.348c-.055-.175-.112-.302-.173-.383-.099-.135-.22-.24-.364-.313-.144-.073-.304-.109-.481-.109-.402,0-.71,.161-.924,.485-.162,.24-.242,.616-.242,1.129,0,.636,.096,1.072,.289,1.308,.193,.235,.465,.354,.814,.354,.339,0,.595-.095,.769-.286,.174-.192,.3-.468,.378-.831Z"/></g></g></g></svg>