<?xml version="1.0" encoding="UTF-8"?><svg id="Ebene_2" xmlns="http://www.w3.org/2000/svg" viewBox="0 0 14 14"><defs><style>.cls-1{fill:#64bfd2;fill-rule:evenodd;}</style></defs><g id="Ebene_1-2"><g id="Ebene_2-2"><g id="Ebene_2-2"><path class="cls-1" d="M7,0C3.134,0,0,3.134,0,7s3.134,7,7,7,7-3.134,7-7S10.866,0,7,0Zm3.25,9.77c-.133,.27-.409,.441-.71,.44-.125,.003-.248-.024-.36-.08l-3-1.5c-.27-.133-.441-.409-.44-.71V2.68c0-.442,.358-.8,.8-.8,.442,0,.8,.358,.8,.8h0V7.42l2.56,1.28c.39,.2,.546,.678,.35,1.07Z"/></g></g></g></svg>