<svg xmlns="http://www.w3.org/2000/svg" id="Ebene_2" viewBox="0 0 29 29"><defs><style>.cls-1{fill:#585e62}</style></defs><g id="Ebene_1-2"><g id="Ebene_2-2"><g id="Icons"><circle cx="14.5" cy="14.5" r="2.5" class="cls-1"/><path d="m28.41 12-3.49-.65a10.571 10.571 0 0 0-.84-2l2-3a.75.75 0 0 0-.08-.88L23.52 3a.75.75 0 0 0-.91-.09l-3 2a10.88 10.88 0 0 0-2.08-.86L16.88.58A.761.761 0 0 0 16.2 0h-3.52a.75.75 0 0 0-.71.59l-.66 3.51c-.693.208-1.363.486-2 .83l-2.92-2a.75.75 0 0 0-.92.07L3 5.52a.74.74 0 0 0-.08.91l2 2.94a11.375 11.375 0 0 0-.82 2L.59 12a.75.75 0 0 0-.59.71v3.53a.75.75 0 0 0 .59.71l3.49.65c.208.695.489 1.365.84 2l-2 2.91a.761.761 0 0 0 .09.92L5.51 26a.75.75 0 0 0 .92.08l2.9-2c.639.336 1.309.61 2 .82l.67 3.51a.75.75 0 0 0 .71.59h3.53a.75.75 0 0 0 .71-.59l.65-3.48a10.63 10.63 0 0 0 2.06-.84l2.94 2a.77.77 0 0 0 .92-.09L26 23.53a.761.761 0 0 0 .09-.92l-2-2.92c.352-.66.637-1.353.85-2.07l3.47-.62a.75.75 0 0 0 .59-.71v-3.56a.75.75 0 0 0-.59-.73ZM14.5 20.55a6.05 6.05 0 1 1 6.05-6.05 6.05 6.05 0 0 1-6.05 6.05Z" class="cls-1"/></g></g></g></svg>