<?xml version="1.0" encoding="UTF-8"?><svg id="Ebene_2" xmlns="http://www.w3.org/2000/svg" viewBox="0 0 29 29"><defs><style>.cls-1{fill:#585e62;}</style></defs><g id="Ebene_1-2"><g id="Ebene_2-2"><g id="Icons"><circle class="cls-1" cx="14.5" cy="14.5" r="2.5"/><path class="cls-1" d="M28.41,12l-3.49-.65c-.211-.694-.492-1.364-.84-2l2-3c.167-.28,.135-.635-.08-.88l-2.48-2.47c-.248-.233-.621-.27-.91-.09l-3,2c-.662-.358-1.359-.646-2.08-.86l-.65-3.47c-.077-.32-.352-.554-.68-.58h-3.52c-.344,.01-.637,.254-.71,.59l-.66,3.51c-.693,.208-1.363,.486-2,.83l-2.92-2c-.286-.19-.666-.162-.92,.07l-2.47,2.52c-.233,.249-.266,.624-.08,.91l2,2.94c-.336,.639-.611,1.309-.82,2l-3.51,.63c-.336,.073-.58,.366-.59,.71v3.53c.01,.344,.254,.637,.59,.71l3.49,.65c.208,.695,.489,1.365,.84,2l-2,2.91c-.181,.292-.144,.669,.09,.92l2.5,2.57c.252,.235,.631,.268,.92,.08l2.9-2c.639,.336,1.309,.61,2,.82l.67,3.51c.073,.336,.366,.58,.71,.59h3.53c.344-.01,.637-.254,.71-.59l.65-3.48c.714-.207,1.405-.489,2.06-.84l2.94,2c.293,.178,.667,.141,.92-.09l2.48-2.47c.234-.251,.271-.628,.09-.92l-2-2.92c.352-.66,.637-1.353,.85-2.07l3.47-.62c.336-.073,.58-.366,.59-.71v-3.56c-.001-.352-.247-.655-.59-.73Zm-13.91,8.55c-3.341,0-6.05-2.709-6.05-6.05,0-3.341,2.709-6.05,6.05-6.05,3.341,0,6.05,2.709,6.05,6.05h0c0,3.341-2.709,6.05-6.05,6.05Z"/></g></g></g></svg>