<?xml version="1.0" encoding="UTF-8"?><svg id="Ebene_2" xmlns="http://www.w3.org/2000/svg" viewBox="0 0 14.003 14"><defs><style>.cls-1{fill:#f66f65;}.cls-2{fill:#c6d4e4;}</style></defs><g id="Ebene_1-2"><g id="Ebene_2-2"><g id="Ebene_2-2"><path class="cls-1" d="M13.57,2.11h-1.68V.53C11.885,.236,11.644,0,11.35,0h-1.08c-.294,0-.535,.236-.54,.53v1.58H4.62V.53C4.615,.236,4.374,0,4.08,0h-1.08c-.294,0-.535,.236-.54,.53v1.58H.65c-.325-.029-.613,.206-.65,.53v2.36H14V2.64c.029-.264-.161-.501-.425-.529-.002,0-.003,0-.005,0Z"/><path class="cls-2" d="M12.21,6H0v6.25c.005,.949,.761,1.723,1.71,1.75H12.21c.972,.017,1.773-.758,1.79-1.73,0-.007,0-.014,0-.02V6h-1.79Z"/></g></g></g></svg>