<?xml version="1.0" encoding="UTF-8"?><svg id="Ebene_2" xmlns="http://www.w3.org/2000/svg" viewBox="0 0 16 20"><defs><style>.cls-1{fill:#5381a9;}</style></defs><g id="Ebene_1-2"><g id="Ebene_2-2"><g id="Ebene_2-2"><path class="cls-1" d="M4.75,5c-.828,0-1.5,.672-1.5,1.5s.672,1.5,1.5,1.5,1.5-.672,1.5-1.5-.672-1.5-1.5-1.5Zm6.5,7c-.828,0-1.5,.672-1.5,1.5s.672,1.5,1.5,1.5,1.5-.672,1.5-1.5h0c0-.828-.672-1.5-1.5-1.5ZM14,0H2C.895,0,0,.895,0,2V18c0,1.105,.895,2,2,2H14c1.105,0,2-.895,2-2V2c0-1.105-.895-2-2-2Zm-2.25,4h1v5h-1V4Zm-3,0h1v5h-1V4Zm-4.5,12h-1v-5h1v5Zm3,0h-1v-5h1v5Zm-2.5-7c-1.381,0-2.5-1.119-2.5-2.5s1.119-2.5,2.5-2.5,2.5,1.119,2.5,2.5c-.005,1.378-1.122,2.495-2.5,2.5Zm6.5,7c-1.381,0-2.5-1.119-2.5-2.5s1.119-2.5,2.5-2.5,2.5,1.119,2.5,2.5c-.005,1.378-1.122,2.495-2.5,2.5Z"/></g></g></g></svg>