<?xml version="1.0" encoding="UTF-8"?><svg id="Ebene_2" xmlns="http://www.w3.org/2000/svg" viewBox="0 0 24.43 25.81"><defs><style>.cls-1{fill:#5281a9;}</style></defs><g id="svg16"><g id="Icons"><path id="path9" class="cls-1" d="M0,10.12c0,4.61,3.75,8.49,8.86,9.69l5.25,6-.21-5.72c5.94-.68,10.53-4.88,10.53-10,0-5.57-5.47-10.09-12.22-10.09S0,4.55,0,10.12Zm10.37-1.26c0,.552-.448,1-1,1s-1-.448-1-1v-2.63c0-.552,.448-1,1-1s1,.448,1,1v2.63Zm6,0c0,.552-.448,1-1,1s-1-.448-1-1v-2.63c0-.552,.448-1,1-1s1,.448,1,1v2.63Zm-9,3.16c.506-.222,1.096,.008,1.317,.514,0,.002,.002,.004,.003,.006,.5,1.14,1.68,1.72,3.53,1.72s3-.58,3.52-1.72c.194-.517,.771-.779,1.288-.584s.779,.771,.584,1.288c-.012,.033-.026,.065-.042,.097-.58,1.33-2,2.92-5.35,2.92s-4.78-1.58-5.37-2.92c-.222-.506,.008-1.096,.514-1.317,.002,0,.004-.002,.006-.003Z"/></g></g></svg>