<svg xmlns="http://www.w3.org/2000/svg" viewBox="0 0 24.43 25.81"><path d="M0 10.12c0 4.61 3.75 8.49 8.86 9.69l5.25 6-.21-5.72c5.94-.68 10.53-4.88 10.53-10C24.43 4.52 18.96 0 12.21 0S0 4.55 0 10.12Zm10.37-1.26a1 1 0 0 1-2 0V6.23a1 1 0 0 1 2 0v2.63Zm6 0a1 1 0 0 1-2 0V6.23a1 1 0 0 1 2 0v2.63Zm-9 3.16a.999.999 0 0 1 1.317.514l.003.006c.5 1.14 1.68 1.72 3.53 1.72s3-.58 3.52-1.72a1 1 0 1 1 1.83.801c-.58 1.33-2 2.92-5.35 2.92s-4.78-1.58-5.37-2.92a.999.999 0 0 1 .514-1.317l.006-.003Z" style="fill:#5281a9"/></svg>