<?xml version="1.0" encoding="UTF-8"?><svg id="Ebene_2" xmlns="http://www.w3.org/2000/svg" viewBox="0 0 13.664 16"><defs><style>.cls-1{fill:#5887b7;}</style></defs><g id="Ebene_1-2"><g><path class="cls-1" d="M8.037,8.908c-.031,.114-.056,.199-.071,.25-.013,.041-.024,.081-.033,.122-.649,2.803,1.12,3.098,1.12,3.098,1.428,.228,2.126-1.035,2.377-1.647,.086-.209,.174-.417,.265-.623l-3.658-1.2Z"/><g><path class="cls-1" d="M8.584,6.377c-.008,.482-.061,.955-.13,1.372l3.892,1.275c2.432-5.706,.965-7.862-.173-8.649-.726-.502-1.695-.504-2.408,.017-1.066,.78-1.312,2.306-1.312,2.306-.179,1.117-.033,2.244,.056,2.761,.053,.303,.08,.61,.075,.918Z"/><path class="cls-1" d="M5.08,9.972c.008,.482,.061,.955,.13,1.372l-3.892,1.275C-1.115,6.914,.353,4.758,1.49,3.97c.726-.502,1.695-.504,2.408,.017,1.067,.78,1.313,2.306,1.313,2.306,.179,1.117,.033,2.245-.056,2.761-.053,.303-.08,.61-.075,.918Z"/><path class="cls-1" d="M5.46,12.503c.031,.113,.056,.199,.071,.25,.012,.04,.023,.081,.033,.122,.649,2.803-1.12,3.098-1.12,3.098-1.428,.228-2.126-1.035-2.377-1.647-.086-.209-.174-.417-.265-.623l3.658-1.2Z"/></g></g></g></svg>