<?xml version="1.0" encoding="UTF-8"?><svg id="Ebene_2" xmlns="http://www.w3.org/2000/svg" viewBox="0 0 22.5 30"><defs><style>.cls-1{fill:#5281a9;}</style></defs><g id="Ebene_1-2"><g id="Ebene_2-2"><g id="Icons"><g id="Layer_2"><g id="Green_pacman_ghost"><path class="cls-1" d="M11.25,0C5.037,0,0,5.037,0,11.25V30l2.81-2.81,2.82,2.81,2.81-2.81,2.81,2.81,2.81-2.81,2.81,2.81,2.82-2.81,2.81,2.81V11.25C22.5,5.037,17.463,0,11.25,0Zm1.24,14c-.972,1.217-2.746,1.415-3.963,.443-1.217-.972-1.415-2.746-.443-3.963,.972-1.217,2.746-1.415,3.963-.443,.164,.131,.313,.28,.443,.443-.972,.349-1.477,1.42-1.128,2.392,.189,.526,.602,.939,1.128,1.128Zm7.5,0c-.972,1.217-2.746,1.415-3.963,.443-1.217-.972-1.415-2.746-.443-3.963s2.746-1.415,3.963-.443c.164,.131,.313,.28,.443,.443-.972,.349-1.477,1.42-1.128,2.392,.189,.526,.602,.939,1.128,1.128Z"/><path id="Right_eyeball" class="cls-1" d="M20.63,12.19c-.004-.643-.23-1.265-.64-1.76-.972,.349-1.477,1.42-1.128,2.392,.189,.526,.602,.939,1.128,1.128,.408-.496,.634-1.117,.64-1.76Z"/><path id="Left_eyeball" class="cls-1" d="M13.13,12.19c-.004-.643-.23-1.265-.64-1.76-.972,.349-1.477,1.42-1.128,2.392,.189,.526,.602,.939,1.128,1.128,.408-.496,.634-1.117,.64-1.76Z"/></g></g></g></g></g></svg>