<svg xmlns="http://www.w3.org/2000/svg" id="Ebene_2" viewBox="0 0 22.5 30"><defs><style>.cls-1{fill:#5281a9}</style></defs><g id="Ebene_1-2"><g id="Ebene_2-2"><g id="Icons"><g id="Layer_2"><g id="Green_pacman_ghost"><path d="M11.25 0C5.037 0 0 5.037 0 11.25V30l2.81-2.81L5.63 30l2.81-2.81L11.25 30l2.81-2.81L16.87 30l2.82-2.81L22.5 30V11.25C22.5 5.037 17.463 0 11.25 0Zm1.24 14a2.82 2.82 0 1 1 0-3.52 1.87 1.87 0 0 0 0 3.52Zm7.5 0a2.82 2.82 0 1 1 0-3.52 1.87 1.87 0 0 0 0 3.52Z" class="cls-1"/><path id="Right_eyeball" d="M20.63 12.19a2.786 2.786 0 0 0-.64-1.76 1.87 1.87 0 0 0 0 3.52 2.812 2.812 0 0 0 .64-1.76Z" class="cls-1"/><path id="Left_eyeball" d="M13.13 12.19a2.786 2.786 0 0 0-.64-1.76 1.87 1.87 0 0 0 0 3.52 2.812 2.812 0 0 0 .64-1.76Z" class="cls-1"/></g></g></g></g></g></svg>