<?xml version="1.0" encoding="UTF-8"?><svg id="Ebene_2" xmlns="http://www.w3.org/2000/svg" viewBox="0 0 9.185 15.669"><defs><style>.cls-1{fill:#fff;}.cls-2{fill:#5887b7;}</style></defs><g id="Ebene_1-2"><g id="Ebene_2-2"><g id="Ebene_2-2"><path class="cls-2" d="M8.92,2.08C8.58,.18,5.79,.08,4.99,0h-.21C3.98,0,1.2,.18,.86,2.08c-.39,2.17-.24,11-.24,11-.012,1.251,.927,2.306,2.17,2.44l1.59,.14h0c.17,.012,.34,.012,.51,0,.17,.012,.34,.012,.51,0h0l1.58-.14c1.247-.129,2.192-1.186,2.18-2.44,0,0,.14-8.83-.24-11Z"/><path class="cls-1" d="M7.97,3.79c-.26-1.46-2.39-1.57-3-1.59h-.16c-.62,0-2.75,.13-3,1.59-.3,1.66-.17,8.43-.17,8.43-.01,.956,.709,1.762,1.66,1.86,.54,.06,.92,.09,1.22,.11h0c.13,.014,.26,.014,.39,0,.13,.013,.26,.013,.39,0h0c.29,0,.68-.05,1.21-.11,.951-.098,1.67-.904,1.66-1.86,0,0,.1-6.77-.2-8.43Z"/><circle class="cls-2" cx="6.6" cy="4.13" r=".86"/><rect class="cls-2" x="2.51" y="6.15" width="4.75" height="6.28"/><path class="cls-2" d="M.92,3.1s-.72,.3-.77,.5C.047,4.177-.004,4.763,0,5.35,0,6.23,.22,6.72,.67,6.96s.25-3.86,.25-3.86Z"/><path class="cls-2" d="M.92,7.69s-.72,.3-.77,.5C.047,8.767-.004,9.353,0,9.94,0,10.82,.22,11.31,.67,11.54s.25-3.85,.25-3.85Z"/></g></g></g></svg>