<svg xmlns="http://www.w3.org/2000/svg" id="Ebene_2" viewBox="0 0 9.185 15.669"><defs><style>.cls-2{fill:#5887b7}</style></defs><g id="Ebene_1-2"><g id="Ebene_2-2"><path d="M8.92 2.08C8.58.18 5.79.08 4.99 0h-.21C3.98 0 1.2.18.86 2.08c-.39 2.17-.24 11-.24 11a2.43 2.43 0 0 0 2.17 2.44l1.59.14c.17.012.34.012.51 0 .17.012.34.012.51 0l1.58-.14a2.43 2.43 0 0 0 2.18-2.44s.14-8.83-.24-11Z" class="cls-2"/><path d="M7.97 3.79c-.26-1.46-2.39-1.57-3-1.59h-.16c-.62 0-2.75.13-3 1.59-.3 1.66-.17 8.43-.17 8.43a1.85 1.85 0 0 0 1.66 1.86c.54.06.92.09 1.22.11.13.014.26.014.39 0 .13.013.26.013.39 0 .29 0 .68-.05 1.21-.11a1.85 1.85 0 0 0 1.66-1.86s.1-6.77-.2-8.43Z" style="fill:#fff"/><circle cx="6.6" cy="4.13" r=".86" class="cls-2"/><path d="M2.51 6.15h4.75v6.28H2.51zM.92 3.1s-.72.3-.77.5A9.59 9.59 0 0 0 0 5.35c0 .88.22 1.37.67 1.61S.92 3.1.92 3.1ZM.92 7.69s-.72.3-.77.5A9.59 9.59 0 0 0 0 9.94c0 .88.22 1.37.67 1.6s.25-3.85.25-3.85Z" class="cls-2"/></g></g></svg>