<?xml version="1.0" encoding="UTF-8"?><svg id="Ebene_2" xmlns="http://www.w3.org/2000/svg" viewBox="0 0 29 29"><defs><style>.cls-1{fill:#fff;}.cls-2{fill:#585e62;}.cls-3{fill:#e7e9ea;}</style></defs><g id="Ebene_1-2"><g id="Ebene_2-2"><g id="Icons"><rect class="cls-3" x="6" width="17" height="13"/><path class="cls-2" d="M19.94,1.81h-3.63V10h3.63V1.81Zm3.62-1.81h-1.81V11.78H7.25V0H0V29H29V5.44L23.56,0Z"/><path class="cls-1" d="M6.53,24.38c-.458-.16-.875-.419-1.22-.76-.353-.357-.629-.782-.81-1.25-.206-.556-.305-1.147-.29-1.74-.009-.59,.093-1.177,.3-1.73,.181-.482,.46-.922,.82-1.29,.343-.348,.755-.621,1.21-.8,.464-.186,.96-.281,1.46-.28,.504-.011,1.004,.095,1.46,.31,.368,.183,.706,.423,1,.71l-.92,1.13c-.197-.172-.411-.323-.64-.45-.261-.129-.549-.191-.84-.18-.287-.003-.57,.058-.83,.18-.256,.112-.482,.284-.66,.5-.191,.233-.333,.502-.42,.79-.104,.34-.155,.694-.15,1.05-.043,.67,.148,1.335,.54,1.88,.415,.469,1.025,.717,1.65,.67,.159,0,.317-.02,.47-.06,.135-.031,.262-.093,.37-.18v-1.35h-1.27v-1.44h2.85v3.6c-.311,.294-.678,.522-1.08,.67-.476,.193-.986,.288-1.5,.28-.511,.002-1.019-.086-1.5-.26Z"/><path class="cls-1" d="M12.23,16.68h2.69c.406-.003,.812,.037,1.21,.12,.357,.076,.696,.219,1,.42,.284,.201,.514,.469,.67,.78,.157,.376,.226,.783,.2,1.19,.008,.41-.078,.817-.25,1.19-.155,.326-.384,.61-.67,.83-.301,.221-.64,.384-1,.48-.382,.102-.775,.153-1.17,.15h-.91v2.66h-1.77v-7.82Zm2.63,3.76c1,0,1.44-.41,1.44-1.25,.024-.332-.118-.654-.38-.86-.338-.189-.724-.276-1.11-.25h-.81v2.36h.86Z"/><path class="cls-1" d="M20.43,20.48l-2-3.8h2l.57,1.47c.09,.18,.18,.38,.26,.58l.3,.68h0c.09-.25,.18-.47,.26-.68s.17-.4,.25-.58l.62-1.47h1.88l-2,3.88,2.15,3.94h-2l-.78-1.6c-.1-.21-.19-.41-.28-.62s-.2-.42-.31-.66h-.05c-.09,.24-.17,.46-.26,.66l-.27,.62-.73,1.6h-1.78l2.17-4.02Z"/></g></g></g></svg>