<svg xmlns="http://www.w3.org/2000/svg" id="Ebene_2" viewBox="0 0 29 29"><defs><style>.cls-1{fill:#fff}</style></defs><g id="Ebene_1-2"><g id="Ebene_2-2"><g id="Icons"><path d="M6 0h17v13H6z" style="fill:#e7e9ea"/><path d="M19.94 1.81h-3.63V10h3.63V1.81ZM23.56 0h-1.81v11.78H7.25V0H0v29h29V5.44L23.56 0Z" style="fill:#b2b5b7"/><path d="M6.53 24.38a3.267 3.267 0 0 1-1.22-.76 3.651 3.651 0 0 1-.81-1.25 4.671 4.671 0 0 1-.29-1.74 4.73 4.73 0 0 1 .3-1.73 3.71 3.71 0 0 1 .82-1.29 3.497 3.497 0 0 1 1.21-.8c.464-.186.96-.281 1.46-.28a3.257 3.257 0 0 1 1.46.31c.368.183.706.423 1 .71l-.92 1.13a3.705 3.705 0 0 0-.64-.45 1.745 1.745 0 0 0-.84-.18 1.904 1.904 0 0 0-.83.18 1.782 1.782 0 0 0-.66.5 2.29 2.29 0 0 0-.42.79c-.104.34-.155.694-.15 1.05-.043.67.148 1.335.54 1.88a2.002 2.002 0 0 0 1.65.67c.159 0 .317-.02.47-.06a.92.92 0 0 0 .37-.18v-1.35H7.76v-1.44h2.85v3.6a3.162 3.162 0 0 1-1.08.67 3.833 3.833 0 0 1-1.5.28 4.36 4.36 0 0 1-1.5-.26ZM12.23 16.68h2.69c.406-.003.812.037 1.21.12.357.076.696.219 1 .42.284.201.514.469.67.78.157.376.226.783.2 1.19.008.41-.078.817-.25 1.19-.155.326-.384.61-.67.83-.301.221-.64.384-1 .48a4.404 4.404 0 0 1-1.17.15H14v2.66h-1.77v-7.82Zm2.63 3.76c1 0 1.44-.41 1.44-1.25a1.001 1.001 0 0 0-.38-.86 2 2 0 0 0-1.11-.25H14v2.36h.86ZM20.43 20.48l-2-3.8h2l.57 1.47c.09.18.18.38.26.58l.3.68c.09-.25.18-.47.26-.68s.17-.4.25-.58l.62-1.47h1.88l-2 3.88 2.15 3.94h-2l-.78-1.6c-.1-.21-.19-.41-.28-.62s-.2-.42-.31-.66h-.05c-.09.24-.17.46-.26.66l-.27.62-.73 1.6h-1.78l2.17-4.02Z" class="cls-1"/></g></g></g></svg>