<svg xmlns="http://www.w3.org/2000/svg" viewBox="0 0 18 9.999"><path d="m17.917 1.106-5.408 5.481c-.278.285-.66.445-1.058.444H8.084A2.898 2.898 0 0 0 6 7.904L4.02 9.915a.28.28 0 0 1-.396.004l-.004-.004L.083 6.332a.29.29 0 0 1 0-.407l3.549-4.041A3.46 3.46 0 0 1 6.114.842h5.421c.16 0 .313.063.425.177a.618.618 0 0 1 0 .866l-.9.91a.6.6 0 0 1-.427.179H8.2a.245.245 0 0 0-.173.073 2.694 2.694 0 0 0-.072.62c.003.135.11.244.245.248h2.82a.918.918 0 0 0 .657-.276L14.577.7A2.343 2.343 0 0 1 17.89.673l.027.027a.29.29 0 0 1 0 .406Z" style="fill:#5281a9"/></svg>