<?xml version="1.0" encoding="UTF-8"?><svg id="Ebene_2" xmlns="http://www.w3.org/2000/svg" viewBox="0 0 18.462 20"><defs><style>.cls-1{fill:#5381a9;}</style></defs><g id="Ebene_1-2"><path class="cls-1" d="M0,14.231s.001-.007,.001-.01h-.001v.01ZM16.923,7.692c-.615,0-1.142,.364-1.388,.885-.103-.069-.15-.116-.15-.116,0-.85-.689-1.539-1.539-1.539s-1.538,.689-1.538,1.539v-.769c0-.85-.688-1.539-1.538-1.539-.851,0-1.539,.689-1.539,1.539V1.538c0-.85-.688-1.538-1.538-1.538s-1.538,.688-1.538,1.538V13.461c-1.963-.999-2.855-1.154-3.846-1.154C1.158,12.307,.008,12.751,.002,14.22l3.461,1.549,2.428,2.428c1.153,1.155,2.718,1.803,4.351,1.803h5.143c1.699,0,3.077-1.378,3.077-3.077v-7.692c0-.85-.689-1.539-1.539-1.539Z"/></g></svg>