<?xml version="1.0" encoding="UTF-8"?><svg id="Ebene_2" xmlns="http://www.w3.org/2000/svg" viewBox="0 0 18 9.999"><defs><style>.cls-1{fill:#5281a9;}</style></defs><g id="Ebene_1-2"><g id="Ebene_2-2"><g id="Icons"><path class="cls-1" d="M17.917,1.106l-5.408,5.481c-.278,.285-.66,.445-1.058,.444h-3.367c-.784-.003-1.536,.312-2.084,.873l-1.98,2.011c-.108,.11-.286,.112-.396,.004-.001-.001-.003-.003-.004-.004L.083,6.332c-.111-.113-.111-.294,0-.407L3.632,1.884c.653-.668,1.548-1.044,2.482-1.042h5.421c.16,0,.313,.063,.425,.177,.236,.241,.236,.625,0,.866l-.9,.91c-.113,.114-.266,.179-.427,.179h-2.433c-.065,0-.127,.027-.173,.073-.048,.203-.072,.411-.072,.62,.003,.135,.11,.244,.245,.248h2.82c.247,0,.484-.099,.657-.276L14.577,.7c.908-.922,2.391-.934,3.313-.027,.009,.009,.018,.018,.027,.027,.111,.113,.111,.293,0,.406Z"/></g></g></g></svg>