<?xml version="1.0" encoding="UTF-8"?><svg id="Ebene_2" xmlns="http://www.w3.org/2000/svg" viewBox="0 0 11 11"><defs><style>.cls-1{fill:#666;}</style></defs><g id="Ebene_1-2"><g id="Ebene_2-2"><g id="Icons"><path class="cls-1" d="M0,0V11H11V0H0ZM10,10H1V1H10V10Z"/><path id="path1312" class="cls-1" d="M8.23,4.85v2.07l-.66,.66c-.36,.36-.66,.65-.67,.65s0-.7,0-1.54v-1.55c-.572,.468-1.107,.98-1.6,1.53l-1.55,1.54-.49-.49-.48-.48,1.54-1.55c.541-.486,1.048-1.007,1.52-1.56H2.77s.29-.31,.65-.67l.66-.65h4.14s.01,.91,.01,2.04Z"/></g></g></g></svg>