<?xml version="1.0" encoding="UTF-8"?><svg id="Ebene_2" xmlns="http://www.w3.org/2000/svg" viewBox="0 0 31.973 30.687"><defs><style>.cls-1{fill:#5281a9;}</style></defs><g id="Ebene_1-2"><g id="Ebene_2-2"><g id="Icons"><path class="cls-1" d="M31.691,15.307L16.691,.307c-.416-.409-1.084-.409-1.5,0L.311,15.077c-.414,.414-.415,1.085-.001,1.499,.197,.197,.463,.309,.741,.311H3.311v12.2c0,.884,.716,1.6,1.6,1.6h6.24v-9.2c0-1.243,1.007-2.25,2.25-2.25h5c1.243,0,2.25,1.007,2.25,2.25v9.2h6.24c.884,0,1.6-.716,1.6-1.6h0v-12h2.44c.585-.01,1.052-.492,1.042-1.078-.004-.261-.105-.511-.282-.702Z"/></g></g></g></svg>