<?xml version="1.0" encoding="UTF-8"?><svg id="Ebene_2" xmlns="http://www.w3.org/2000/svg" viewBox="0 0 18 18"><defs><style>.cls-1{fill:#5281a9;}</style></defs><g id="Ebene_1-2"><path class="cls-1" d="M15.539,0H2.461C1.102,0,0,1.102,0,2.461V15.539c0,1.359,1.102,2.461,2.461,2.461H15.539c1.359,0,2.461-1.102,2.461-2.461V2.461c0-1.359-1.102-2.461-2.461-2.461Zm-2.662,2.896c1,0,1.811,.811,1.811,1.811s-.811,1.811-1.811,1.811-1.811-.811-1.811-1.811,.81-1.811,1.811-1.811ZM2.281,14.86L6.248,4.877l3.015,7.418,2.301-3.094,4.284,5.66H2.281Z"/></g></svg>