<?xml version="1.0" encoding="UTF-8"?><svg id="Ebene_2" xmlns="http://www.w3.org/2000/svg" viewBox="0 0 32 28.01"><defs><style>.cls-1{fill:#5281a9;}</style></defs><g id="svg17"><path id="path6" class="cls-1" d="M16,0c-.37-.004-.715,.186-.91,.5L.119,26.44c-.077,.156-.118,.326-.119,.5,0,.316,.14,.616,.381,.82,.19,.161,.431,.249,.68,.25H31c.187,0,.37-.052,.529-.15,.289-.191,.465-.513,.471-.859-.002-.195-.051-.387-.141-.561L16.9,.5c-.052-.085-.116-.163-.189-.23-.177-.154-.397-.249-.631-.27h-.08Zm-1.689,8.33h3.379l-.109,3-.48,7h-2.199l-.48-7-.109-3Zm1.689,11.867c.548,0,1.072,.226,1.449,.623,.759,.856,.759,2.144,0,3-.8,.8-2.098,.8-2.898,0-.759-.856-.759-2.144,0-3,.377-.397,.901-.623,1.449-.623Z"/></g></svg>