<?xml version="1.0" encoding="UTF-8"?><svg id="Ebene_2" xmlns="http://www.w3.org/2000/svg" viewBox="0 0 32 28.01"><defs><style>.cls-1{fill:#ffc900;}</style></defs><g id="Ebene_1-2"><g id="Ebene_2-2"><g id="Icons"><path class="cls-1" d="M31.86,26.44L16.9,.5h0c-.052-.085-.116-.163-.19-.23-.176-.154-.397-.249-.63-.27h-.08c-.37-.003-.715,.186-.91,.5L.12,26.44c-.077,.155-.118,.326-.12,.5,0,.316,.14,.615,.38,.82,.19,.161,.431,.249,.68,.25H31c.187,0,.371-.051,.53-.15,.289-.191,.465-.513,.47-.86-.002-.195-.05-.387-.14-.56Z"/><path d="M14.42,11.33l-.11-3h3.38l-.11,3-.48,7h-2.2l-.48-7Z"/><path d="M14.55,23.82c-.759-.856-.759-2.144,0-3,.761-.801,2.027-.833,2.827-.073,.025,.024,.049,.048,.073,.073,.759,.856,.759,2.144,0,3-.8,.801-2.098,.801-2.899,0,0,0,0,0,0,0Z"/></g></g></g></svg>