<svg xmlns="http://www.w3.org/2000/svg" viewBox="0 0 32 28.01"><path d="M16 0a1.058 1.058 0 0 0-.91.5L.119 26.44a1.142 1.142 0 0 0-.119.5c0 .316.14.616.381.82.19.161.431.249.68.25H31c.187 0 .37-.052.529-.15.289-.191.465-.513.471-.859a1.25 1.25 0 0 0-.141-.561L16.9.5a1.073 1.073 0 0 0-.189-.23A1.112 1.112 0 0 0 16.08 0H16Zm-1.689 8.33h3.379l-.109 3-.48 7h-2.199l-.48-7-.109-3ZM16 20.197a2 2 0 0 1 1.449.623 2.26 2.26 0 0 1 0 3c-.8.8-2.098.8-2.898 0a2.26 2.26 0 0 1 0-3A2 2 0 0 1 16 20.197Z" style="fill:#5281a9"/></svg>