<?xml version="1.0" encoding="UTF-8"?><svg id="Ebene_2" xmlns="http://www.w3.org/2000/svg" viewBox="0 0 17.931 8.302"><defs><style>.cls-1{fill:#5887b7;}</style></defs><g id="Ebene_1-2"><g id="Ebene_2-2"><g id="Ebene_2-2"><path class="cls-1" d="M1.157,2.886C.459,2.948-.057,3.565,.005,4.264c.055,.612,.54,1.098,1.152,1.152h.5v2.1c0,.359,.291,.65,.65,.65h3.13c.359,0,.65-.291,.65-.65v-2.1h3.74c.699,2.183,3.035,3.386,5.218,2.688,2.183-.699,3.386-3.035,2.688-5.218C17.034,.703,14.698-.5,12.515,.199c-1.278,.409-2.279,1.41-2.688,2.688H1.157Zm11.48,.14c.621-.621,1.628-.62,2.249,.001,.621,.621,.62,1.628-.001,2.249-.621,.62-1.626,.62-2.247,0-.621-.621-.622-1.627-.001-2.249,0,0,0,0,.001-.001Z"/></g></g></g></svg>