<?xml version="1.0" encoding="UTF-8"?><svg id="Ebene_2" xmlns="http://www.w3.org/2000/svg" viewBox="0 0 28.027 27.997"><defs><style>.cls-1{fill:#5281a9;}</style></defs><g id="Ebene_1-2"><g id="Ebene_2-2"><g id="Icons"><path class="cls-1" d="M27.62,23.94l-7.17-7.17c1.072-1.716,1.644-3.697,1.65-5.72C22.1,4.947,17.153,0,11.05,0,4.947,0,0,4.947,0,11.05c0,6.103,4.947,11.05,11.05,11.05,.017,0,.033,0,.05,0,2.022-.008,4.001-.575,5.72-1.64l7.17,7.16c.51,.503,1.33,.503,1.84,0l1.84-1.84c.494-.521,.473-1.344-.048-1.838,0,0-.002-.001-.002-.002Zm-16.57-5.79c-3.921,0-7.1-3.179-7.1-7.1,0-3.921,3.179-7.1,7.1-7.1,3.921,0,7.1,3.179,7.1,7.1h0c-.006,3.919-3.181,7.094-7.1,7.1Z"/><polygon class="cls-1" points="15.266 13.32 12.995 11.048 15.264 8.779 13.32 6.834 11.05 9.104 8.782 6.836 6.837 8.78 9.105 11.048 6.836 13.318 8.78 15.263 11.05 12.993 13.321 15.264 15.266 13.32"/></g></g></g></svg>