<?xml version="1.0" encoding="UTF-8"?><svg id="Ebene_2" xmlns="http://www.w3.org/2000/svg" viewBox="0 0 14.089 14.087"><defs><style>.cls-1{fill:#5281a9;}</style></defs><g id="Ebene_1-2"><g id="Ebene_2-2"><g id="Icons"><path class="cls-1" d="M13.9,12.09l-3.58-3.61c1.607-2.623,.783-6.052-1.84-7.659C5.857-.786,2.428,.038,.821,2.661-.786,5.284,.038,8.713,2.661,10.32c1.786,1.094,4.034,1.094,5.819,0l3.61,3.58c.256,.249,.664,.249,.92,0l.92-.92c.222-.26,.209-.646-.03-.89Zm-8.29-3.47c-1.657,0-3-1.343-3-3s1.343-3,3-3,3,1.343,3,3-1.343,3-3,3h0Z"/></g></g></g></svg>