<svg xmlns="http://www.w3.org/2000/svg" viewBox="0 0 28.027 27.997"><path d="m27.62 23.94-7.17-7.17a10.857 10.857 0 0 0 1.65-5.72C22.1 4.947 17.153 0 11.05 0 4.947 0 0 4.947 0 11.05 0 17.153 4.947 22.1 11.05 22.1h.05a10.94 10.94 0 0 0 5.72-1.64l7.17 7.16a1.31 1.31 0 0 0 1.84 0l1.84-1.84a1.3 1.3 0 0 0-.048-1.838l-.002-.002Zm-16.57-5.79a7.1 7.1 0 1 1 7.1-7.1 7.11 7.11 0 0 1-7.1 7.1Z" style="fill:#5281a9"/><path d="m15.266 13.32-2.271-2.272 2.269-2.269-1.944-1.945-2.27 2.27-2.268-2.268L6.837 8.78l2.268 2.268-2.269 2.27 1.944 1.945 2.27-2.27 2.271 2.271 1.945-1.944z" style="fill:#ff332e"/></svg>