<?xml version="1.0" encoding="UTF-8"?><svg id="Ebene_2" xmlns="http://www.w3.org/2000/svg" viewBox="0 0 14.027 14.027"><defs><style>.cls-1{fill:#5281a9;}.cls-2{fill:#61c620;fill-rule:evenodd;}</style></defs><g id="Ebene_1-2"><g><path class="cls-2" d="M5.551,2.5c1.683,0,3.051,1.369,3.051,3.051s-1.369,3.051-3.051,3.051-3.052-1.368-3.052-3.051,1.369-3.051,3.052-3.051m0-2.5C2.485,0,0,2.485,0,5.551s2.485,5.551,5.551,5.551,5.551-2.485,5.551-5.551c0-3.066-2.485-5.551-5.551-5.551h0Z"/><path class="cls-1" d="M13.838,11.997l-3.092-3.092c-.477,.737-1.105,1.365-1.843,1.842l3.093,3.092c.252,.252,.669,.25,.921,0l.921-.921c.252-.252,.252-.67,0-.921Z"/></g></g></svg>