<?xml version="1.0" encoding="UTF-8"?><svg id="Ebene_2" xmlns="http://www.w3.org/2000/svg" viewBox="0 0 12 12"><defs><style>.cls-1{fill:#4e6ab5;}</style></defs><g id="Ebene_1-2"><polygon class="cls-1" points="8.182 7 8.182 11.182 .818 11.182 .818 3.818 5 3.818 5 3 0 3 0 12 9 12 9 7 8.182 7"/><path id="path1312" class="cls-1" d="M11.999,4.146s-1.318,1.31-1.323,1.305,.004-3.129,.004-3.129c0,0-.136,.106-1.605,1.569L3.988,8.973l-.486-.487-.487-.486L8.09,2.919c1.457-1.463,1.576-1.575,1.576-1.575,0,0-3.113,.014-3.118,.009-.005-.005,1.305-1.352,1.305-1.352C7.853,.001,11.995-.002,11.998,.001c.004,.004,0,4.145,0,4.145Z"/></g></svg>