<svg xmlns="http://www.w3.org/2000/svg" viewBox="0 0 14.002 5.883"><path d="M12.351 1.672a.668.668 0 0 0-.51-.22h-2.21a.698.698 0 0 0-.51.22.719.719 0 0 0-.21.55h.2a.806.806 0 0 1 .23 0 .678.678 0 0 1 .38.06.73.73 0 0 1 0 1.28.678.678 0 0 1-.38.06h-.43a.762.762 0 0 0 .21.57.732.732 0 0 0 .51.21h2.2a.692.692 0 0 0 .5-.21.768.768 0 0 0 .23-.5v-1.52a.661.661 0 0 0-.21-.5Zm-7.47 0a.732.732 0 0 0-.51-.21h-2.2a.688.688 0 0 0-.51.21.743.743 0 0 0-.22.5v1.54a.661.661 0 0 0 .21.5c.13.144.316.224.51.22h2.21a.701.701 0 0 0 .5-.22.741.741 0 0 0 .22-.55h-.43a.678.678 0 0 1-.38-.06.73.73 0 0 1 0-1.28.678.678 0 0 1 .38-.06.806.806 0 0 1 .23 0h.2a.761.761 0 0 0-.21-.61v.02Zm8.49-1c.416.39.645.94.63 1.51v1.55a2.08 2.08 0 0 1-.63 1.52c-.397.424-.96.654-1.54.63h-2.2a2.19 2.19 0 0 1-2.16-2.22s-.94 0-.94 0a2.17 2.17 0 0 1-2.13 2.21H2.161a2.05 2.05 0 0 1-1.53-.64 2.002 2.002 0 0 1-.63-1.53v-1.55a2.078 2.078 0 0 1 .63-1.52 2 2 0 0 1 1.54-.63h2.2a2.09 2.09 0 0 1 1.52.64c.428.412.661.986.64 1.58h.94a2.17 2.17 0 0 1 2.13-2.21H11.841a2.05 2.05 0 0 1 1.53.64v.02Z" style="fill:#838181"/></svg>