<svg xmlns="http://www.w3.org/2000/svg" id="Ebene_2" viewBox="0 0 12 12"><defs><style>.cls-1{fill:#4e6ab5}</style></defs><g id="Ebene_1-2"><path d="M8.182 7v4.182H.818V3.818H5V3H0v9h9V7h-.818z" class="cls-1"/><path id="path1312" d="M11.999 4.146s-1.318 1.31-1.323 1.305.004-3.129.004-3.129-.136.106-1.605 1.569L3.988 8.973l-.486-.487L3.015 8 8.09 2.919c1.457-1.463 1.576-1.575 1.576-1.575s-3.113.014-3.118.009C6.543 1.348 7.853.001 7.853.001s4.142-.003 4.145 0c.004.004 0 4.145 0 4.145Z" class="cls-1"/></g></svg>