<?xml version="1.0" encoding="UTF-8"?><svg id="Ebene_2" xmlns="http://www.w3.org/2000/svg" viewBox="0 0 12 16"><defs><style>.cls-1{fill:#60c51f;}</style></defs><g id="Ebene_1-2"><path class="cls-1" d="M7.053,0H0V11.324l1.303-1.32c-.241-1.187,.09-2.468,.998-3.389,1.066-1.081,2.625-1.359,3.944-.835l-2.158,2.188c-.2,.202-.323,.482-.323,.791s.123,.589,.323,.791l.52,.527c.2,.203,.476,.328,.781,.328s.58-.125,.78-.328l2.159-2.188c.517,1.338,.243,2.917-.823,3.998-.908,.921-2.173,1.256-3.344,1.012l-3.061,3.101H12V5.014L7.053,0Z"/></g></svg>