<?xml version="1.0" encoding="UTF-8"?><svg id="Ebene_2" xmlns="http://www.w3.org/2000/svg" viewBox="0 0 16.2 20.019"><defs><style>.cls-1{fill:#5381a9;}</style></defs><g id="Ebene_1-2"><g id="Ebene_2-2"><g id="Ebene_2-2"><path class="cls-1" d="M14.4,7.429H4.85c-.881-1.494-.384-3.419,1.11-4.3,1.245-.734,2.83-.524,3.84,.51l1,1,1.91-1.91-1-1c-2.265-2.288-5.956-2.307-8.245-.042-1.512,1.496-2.088,3.697-1.505,5.742h-.16c-.99,0-1.794,.8-1.8,1.79v9c.005,.992,.808,1.795,1.8,1.8H14.4c.992-.005,1.795-.808,1.8-1.8V9.219c-.006-.99-.81-1.79-1.8-1.79Zm-5.44,6.39h0v3.5h-1.7v-3.5c-1.13-.475-1.662-1.776-1.187-2.907,.475-1.13,1.776-1.662,2.907-1.187s1.662,1.776,1.187,2.907c-.225,.536-.651,.962-1.187,1.187h-.02Z"/></g></g></g></svg>