<?xml version="1.0" encoding="UTF-8"?><svg id="Ebene_2" xmlns="http://www.w3.org/2000/svg" viewBox="0 0 32 30.999"><defs><style>.cls-1{fill:#5381a9;}</style></defs><g id="Ebene_1-2"><g id="Ebene_2-2"><g id="Icons"><path class="cls-1" d="M25.55,10.909h-.69v-2.05C24.859,3.965,20.892,0,15.999,0,11.106,0,7.141,3.966,7.14,8.859v2.05h-.69c-1.502,0-2.72,1.218-2.72,2.72,0,.003,0,.007,0,.01v13.63c-.006,1.502,1.208,2.724,2.71,2.73,.003,0,.007,0,.01,0H25.55c1.502,0,2.72-1.218,2.72-2.72,0-.003,0-.007,0-.01V13.639c.006-1.502-1.208-2.724-2.71-2.73-.003,0-.007,0-.01,0Zm-8.25,9.69h0v5.31h-2.6v-5.31c-1.717-.718-2.527-2.692-1.809-4.409,.718-1.717,2.692-2.527,4.409-1.809,1.717,.718,2.527,2.692,1.809,4.409-.342,.817-.992,1.467-1.809,1.809Zm3.47-9.69H11.23v-2.05c0-2.634,2.136-4.77,4.77-4.77s4.77,2.136,4.77,4.77v2.05Z"/></g></g></g></svg>