<?xml version="1.0" encoding="UTF-8"?><svg id="Ebene_2" xmlns="http://www.w3.org/2000/svg" viewBox="0 0 14 14"><defs><style>.cls-1{fill:#b7ed58;}.cls-2{fill:#53ad18;}</style></defs><g id="Ebene_1-2"><g id="Ebene_2-2"><g id="Ebene_2-2"><rect class="cls-1" width="14" height="14"/><path class="cls-2" d="M7,5c-1.105,0-2,.895-2,2s.895,2,2,2,2-.895,2-2-.895-2-2-2Zm4.9,1c-.401-1.964-1.936-3.499-3.9-3.9V0h-2V2.1c-1.964,.401-3.499,1.936-3.9,3.9H0v2H2.1c.401,1.964,1.936,3.499,3.9,3.9v2.1h2v-2.1c1.964-.401,3.499-1.936,3.9-3.9h2.1v-2h-2.1Zm-4.9,5c-2.209,0-4-1.791-4-4S4.791,3,7,3s4,1.791,4,4-1.791,4-4,4Z"/><path class="cls-2" d="M13,1V13H1V1H13m1-1H0V14H14V0Z"/></g></g></g></svg>