<?xml version="1.0" encoding="UTF-8"?><svg id="Ebene_2" xmlns="http://www.w3.org/2000/svg" viewBox="0 0 19.481 27.997"><defs><style>.cls-1{fill:#5381a9;}</style></defs><g id="Ebene_1-2"><g id="Ebene_2-2"><g id="Ebene_1-2"><path class="cls-1" d="M9.72,0C4.352,0,0,4.352,0,9.72H0c0,2.66,1.62,6.69,5.14,12.13,.77,1.23,2.09,3.24,4,5.83,.246,.338,.716,.417,1.06,.18,.065-.055,.125-.115,.18-.18,1.87-2.66,3.21-4.62,4-5.86,3.4-5.42,5.1-9.42,5.1-12C19.535,4.452,15.228,.056,9.861,0c-.03,0-.06,0-.091,0h-.05Zm0,15.84c-3.314,0-6-2.686-6-6S6.406,3.84,9.72,3.84s6,2.686,6,6-2.686,6-6,6Zm0-9.84c-2.077,0-3.76,1.683-3.76,3.76s1.683,3.76,3.76,3.76,3.76-1.683,3.76-3.76h0c0-2.077-1.683-3.76-3.76-3.76h0Z"/></g></g></g></svg>