<?xml version="1.0" encoding="UTF-8"?><svg id="Ebene_2" xmlns="http://www.w3.org/2000/svg" viewBox="0 0 30.032 27.995"><defs><style>.cls-1{fill:#5381a9;}</style></defs><g id="Ebene_1-2"><g id="Ebene_2-2"><g id="Icons"><path class="cls-1" d="M23.418,.845c-1.31,1.26-6.28,5.45-10.73,5.45-5.94,0-6.72,0-7.7,.11s-1.26,.7-1.14,1C1.641,7.489-.081,9.347,.003,11.554c.004,.107,.012,.214,.025,.321-.245,2.196,1.337,4.174,3.532,4.418,.096,.011,.192,.018,.288,.022-.12,.32,.16,1,1.14,1s1.76,.11,7.7,.11c4.45,0,9.42,4.19,10.73,5.45,.618,.72,1.597,1.016,2.51,.76V.095c-.911-.264-1.893,.03-2.51,.75Zm-6.98,23.75c-2-1.45-2.55-1.57-2.05-3.1,.43-1.31-.06-2.61-.46-2.61H6.088l3.71,9.11h6.71s1.89-1.99-.07-3.4ZM27.218,7.925v7.9c2.182-.755,3.338-3.136,2.583-5.317-.419-1.211-1.371-2.163-2.583-2.583Z"/></g></g></g></svg>