<svg xmlns="http://www.w3.org/2000/svg" viewBox="0 0 27.991 24.479"><path d="m2.875 1.75 11.12 19.26 11.12-19.26H2.875z" style="fill-rule:evenodd;fill:#fff"/><path d="M.855 0a.86.86 0 0 0-.74 1.29l13.13 22.76a.87.87 0 0 0 1.5 0l13.13-22.76a.86.86 0 0 0-.74-1.29H.855Zm3 2.59 10.14 17.58 10.15-17.58H3.855Z" style="fill:#009b4f;fill-rule:evenodd"/><path d="M17.195 10.74a9.085 9.085 0 0 0-1.51-1 6.259 6.259 0 0 0-1.52-.5 2.657 2.657 0 0 1-1.23-.5l-.21-.16-.09.08-.68.63c-.37.36-.39.37-.51.41a6.68 6.68 0 0 1-1 .2c-.13 0-.15 0-.22-.07a.816.816 0 0 1-.15-.42 2.116 2.116 0 0 0-.06-.25c-.14-.49 0-.62.65-.88a2.27 2.27 0 0 0 .54-.24 5.971 5.971 0 0 0-.76-.74 6.992 6.992 0 0 0-2.03-1.16 2.71 2.71 0 0 0-.62-.1c-.14 0-.11-.05.06-.09a.302.302 0 0 0 .14-.06h-.09c-.31-.06-.54-.18-.33-.18h.18-.12a1.655 1.655 0 0 1-.52-.2.657.657 0 0 1 .25 0h.25a4.042 4.042 0 0 1-.78-.5c.173.005.344.031.51.08h.16s0-.05-.11-.1l-.18-.13-.22-.32-.16-.15c.137.036.271.083.4.14.126.055.256.098.39.13a6.533 6.533 0 0 0-.68-.64c-.07 0-.09-.11 0-.09l.24.1c.25.139.526.227.81.26a3.514 3.514 0 0 1-.71-.6l.29.08.3.1-.08-.1a1.395 1.395 0 0 1-.34-.39h.06c.06 0 .46.27.69.39.42.21 1.8.76 2.28.91l.53.17a1.9 1.9 0 0 1 .88.57c.327.317.698.586 1.1.8.311.202.693.26 1.05.16l.52-.08a.649.649 0 0 1 .39 0c.107.035.218.058.33.07a.816.816 0 0 1 .27.07.584.584 0 0 1 .18.22.846.846 0 0 1-.21.05c-.36.05-.5.12-.59.3a.229.229 0 0 0 0 .29c.07.06.21.09.68.13.263.013.522.077.76.19l.43.29c.291.215.595.412.91.59l1.19.59c.18.07-.16.07-.49 0s-.25 0-.17 0c.272.186.53.394.77.62l-.37-.1a2.045 2.045 0 0 0-.36-.1c.103.112.221.209.35.29a.559.559 0 0 1 .14.13 1.27 1.27 0 0 1-.32-.09 1.106 1.106 0 0 0-.31-.08c.105.122.222.232.35.33l.06.06a1.26 1.26 0 0 1-.29-.08.986.986 0 0 0-.28-.09s.19.24.31.33.11.12-.19 0l-.28-.1.09.16c.09.16.17.25.06.18a3.26 3.26 0 0 0-.4-.18s0 .07.1.18c.04.045.074.095.1.15a1.08 1.08 0 0 1-.35-.16c-.1-.07-.1 0 0 .16s.08.15.07.15a2.11 2.11 0 0 1-.3-.11Zm-6.36-1 .42-.1a.838.838 0 0 0 .54-.4c.111-.11.228-.213.35-.31l.15-.15c0-.07-.05-.06-.17 0a2.229 2.229 0 0 1-.54.33l-.19.13c-.13.05-.17.05-.16 0s0-.06 0 0-.15 0-.14 0 0-.05-.1 0-.1 0-.06-.06a.268.268 0 0 0 0-.08 1.002 1.002 0 0 0-.3.08c.149-.261.319-.508.51-.74.08-.1.14-.18.13-.19l-.28-.01-.39.15c-.3.11-.41.18-.46.3s-.06.23.1.83c.06.23.15.25.58.14l.01.08Zm4.16-2.96c.109-.05.223-.09.34-.12.09 0 .15 0 .14-.05s0-.06-.08-.08a.447.447 0 0 0-.26-.06.52.52 0 0 1-.28-.05c-.11-.06-.14 0-.74 0h-.47c-.13 0-.16 0-.06.06s.09 0 0 .1-.13.1-.05.1.06 0 0 .13-.09.09 0 .08h.31c.07 0 .05 0 0 .12s-.07.08-.06.09a.406.406 0 0 0 .17 0h.17v.16h.3s0 .05.21-.12c.126-.108.264-.202.41-.28l-.05-.08Zm-.52-.22a.06.06 0 0 1 0-.08h.12a.06.06 0 0 1 0 .08h-.12Z"/></svg>