<?xml version="1.0" encoding="UTF-8"?><svg id="Ebene_2" xmlns="http://www.w3.org/2000/svg" viewBox="0 0 27.991 24.479"><defs><style>.cls-1{fill:#fff;}.cls-1,.cls-2{fill-rule:evenodd;}.cls-2{fill:#009b4f;}</style></defs><g id="Ebene_1-2"><g id="Ebene_2-2"><g id="Ebene_2-2"><polygon class="cls-1" points="2.875 1.75 13.995 21.01 25.115 1.75 2.875 1.75"/><path id="path1882" class="cls-2" d="M.855,0C.38,.003-.003,.39,0,.865c0,.149,.041,.296,.115,.425L13.245,24.05c.244,.414,.777,.553,1.191,.309,.128-.075,.234-.181,.309-.309L27.875,1.29c.237-.411,.097-.937-.315-1.175C27.431,.041,27.285,0,27.135,0H.855ZM3.855,2.59L13.995,20.17,24.145,2.59H3.855Z"/><path id="path2869" d="M17.195,10.74c-.469-.383-.975-.718-1.51-1-.483-.231-.994-.399-1.52-.5-.446-.06-.869-.232-1.23-.5l-.21-.16-.09,.08-.68,.63c-.37,.36-.39,.37-.51,.41-.328,.092-.662,.159-1,.2-.13,0-.15,0-.22-.07-.088-.123-.14-.269-.15-.42-.015-.085-.035-.168-.06-.25-.14-.49,0-.62,.65-.88,.19-.056,.371-.137,.54-.24-.231-.269-.485-.516-.76-.74-.607-.498-1.293-.89-2.03-1.16-.202-.057-.41-.091-.62-.1-.14,0-.11-.05,.06-.09,.051-.008,.099-.028,.14-.06h-.09c-.31-.06-.54-.18-.33-.18s.18,0,.18,0h-.12c-.183-.037-.359-.104-.52-.2,.083-.016,.167-.016,.25,0h.25c-.278-.136-.54-.304-.78-.5,.173,.005,.344,.031,.51,.08h.16s0-.05-.11-.1l-.18-.13-.22-.32-.16-.15c.137,.036,.271,.083,.4,.14,.126,.055,.256,.098,.39,.13-.211-.229-.438-.443-.68-.64-.07,0-.09-.11,0-.09l.24,.1c.25,.139,.526,.227,.81,.26h0c-.262-.168-.501-.369-.71-.6l.29,.08,.3,.1-.08-.1c-.137-.108-.252-.24-.34-.39h.06c.06,0,.46,.27,.69,.39,.42,.21,1.8,.76,2.28,.91l.53,.17c.341,.104,.646,.301,.88,.57,.327,.317,.698,.586,1.1,.8,.311,.202,.693,.26,1.05,.16l.52-.08c.127-.04,.263-.04,.39,0,.107,.035,.218,.058,.33,.07,.093,.008,.185,.031,.27,.07,.077,.057,.139,.133,.18,.22-.068,.026-.138,.042-.21,.05-.36,.05-.5,.12-.59,.3-.069,.084-.069,.206,0,.29,.07,.06,.21,.09,.68,.13,.263,.013,.522,.077,.76,.19l.43,.29c.291,.215,.595,.412,.91,.59l1.19,.59c.18,.07-.16,.07-.49,0s-.25,0-.17,0c.272,.186,.53,.394,.77,.62l-.37-.1c-.117-.044-.237-.078-.36-.1,.103,.112,.221,.209,.35,.29,.054,.035,.101,.079,.14,.13-.11-.016-.218-.046-.32-.09-.099-.042-.203-.068-.31-.08,.105,.122,.222,.232,.35,.33l.06,.06c-.1-.015-.197-.042-.29-.08-.088-.044-.183-.074-.28-.09,0,0,.19,.24,.31,.33s.11,.12-.19,0l-.28-.1,.09,.16c.09,.16,.17,.25,.06,.18-.129-.069-.263-.129-.4-.18,0,0,0,.07,.1,.18,.04,.045,.074,.095,.1,.15-.125-.032-.244-.086-.35-.16-.1-.07-.1,0,0,.16s.08,.15,.07,.15c-.103-.029-.203-.066-.3-.11Zm-6.36-1l.42-.1c.228-.052,.423-.197,.54-.4,.111-.11,.228-.213,.35-.31l.15-.15c0-.07-.05-.06-.17,0-.163,.135-.345,.246-.54,.33l-.19,.13c-.13,.05-.17,.05-.16,0s0-.06,0,0-.15,0-.14,0,0-.05-.1,0-.1,0-.06-.06c.004-.027,.004-.053,0-.08-.104,.011-.205,.038-.3,.08h0c.149-.261,.319-.508,.51-.74,.08-.1,.14-.18,.13-.19l-.28-.01-.39,.15c-.3,.11-.41,.18-.46,.3s-.06,.23,.1,.83c.06,.23,.15,.25,.58,.14l.01,.08Zm4.16-2.96c.109-.05,.223-.09,.34-.12,.09,0,.15,0,.14-.05s0-.06-.08-.08c-.079-.046-.169-.067-.26-.06-.096,.01-.193-.008-.28-.05-.11-.06-.14,0-.74,0h-.47c-.13,0-.16,0-.06,.06s.09,0,0,.1-.13,.1-.05,.1,.06,0,0,.13-.09,.09,0,.08h.31c.07,0,.05,0,0,.12s-.07,.08-.06,.09c.056,.012,.114,.012,.17,0h.17v.09c0,.09,0,.08,0,.07h.3s0,.05,.21-.12c.126-.108,.264-.202,.41-.28l-.05-.08Zm-.52-.22c-.02-.023-.02-.057,0-.08h.12c.02,.023,.02,.057,0,.08h-.12Z"/></g></g></g></svg>