<?xml version="1.0" encoding="UTF-8"?><svg id="Ebene_2" xmlns="http://www.w3.org/2000/svg" viewBox="0 0 20 28"><defs><style>.cls-1{fill:#5281a9;}</style></defs><g id="Ebene_1-2"><g id="Ebene_2-2"><g id="Icons"><path class="cls-1" d="M0,0V28H20V0H0ZM13.12,24.41H3.12v-1.49H13.12v1.49Zm.05-3.1H3.2v-1.49H13.2l-.03,1.49Zm4.12-3.94l-1,1c-.263,.276-.699,.287-.976,.024-.008-.008-.017-.016-.024-.024l-3.84-3.83c-2.829,1.725-6.521,.829-8.246-2-1.725-2.829-.829-6.521,2-8.246,2.829-1.725,6.521-.829,8.246,2,1.169,1.918,1.169,4.328,0,6.246l3.84,3.83c.275,.277,.275,.723,0,1Z"/><path class="cls-1" d="M8.42,5.7c-2.099,0-3.8,1.701-3.8,3.8,0,2.099,1.701,3.8,3.8,3.8,2.099,0,3.8-1.701,3.8-3.8,0-.003,0-.007,0-.01-.006-2.095-1.705-3.79-3.8-3.79Z"/></g></g></g></svg>