<?xml version="1.0" encoding="UTF-8"?><svg id="Ebene_2" xmlns="http://www.w3.org/2000/svg" viewBox="0 0 29.992 27.977"><defs><style>.cls-1{fill:#5381a9;}</style></defs><g id="Ebene_1-2"><g><path class="cls-1" d="M29.52,4.474v-.03l-4.1,4.1c-.82,.828-2.156,.836-2.984,.016-.005-.005-.011-.011-.016-.016l-1-1c-.393-.392-.612-.925-.61-1.48-.003-.558,.217-1.094,.61-1.49L25.52,.474c-3.605-1.396-7.659,.395-9.055,4-1.396,3.605,.395,7.659,4,9.055,3.605,1.396,7.659-.395,9.055-4,.63-1.626,.63-3.429,0-5.055Z"/><path class="cls-1" d="M3.26,21.004c-1.586,1.457-1.691,3.924-.235,5.51,.041,.044,.082,.087,.125,.13l.18,.18c1.523,1.531,3.999,1.537,5.53,.014,.038-.037,.074-.076,.11-.114l3.95-4.26-5.41-5.38-4.25,3.92Z"/><path class="cls-1" d="M14.86,10.654c-.184-.182-.431-.286-.69-.29-.259,.004-.506,.108-.69,.29l-1.511,1.511L5.44,5.674v-1.11c.002-.199-.101-.385-.27-.49L1.48,1.724,0,3.204l2.35,3.73c.052,.083,.124,.152,.21,.2,.085,.048,.183,.069,.28,.06l1.16-.03,6.49,6.48-1.56,1.56c-.182,.184-.286,.431-.29,.69,.004,.259,.108,.506,.29,.69l10.18,10.18c1.755,1.508,4.401,1.307,5.909-.449,1.356-1.578,1.348-3.912-.019-5.481L14.86,10.654Z"/></g></g></svg>