<?xml version="1.0" encoding="UTF-8"?><svg id="Ebene_2" xmlns="http://www.w3.org/2000/svg" viewBox="0 0 11.25 13.86"><defs><style>.cls-1{fill:#5281a9;}</style></defs><g id="Ebene_1-2"><g id="Ebene_2-2"><g id="Icons"><path class="cls-1" d="M10.63,2.24h-2.18v-.65C8.445,.71,7.73,0,6.85,0h-2.44c-.88,0-1.595,.71-1.6,1.59v.65H.63c-.348,0-.63,.282-.63,.63H0c0,.348,.282,.63,.63,.63H10.63c.344-.005,.62-.286,.62-.63,0-.344-.276-.625-.62-.63Z"/><path class="cls-1" d="M.94,4.6v7.19c.006,1.145,.935,2.07,2.08,2.07h5.22c1.145,0,2.074-.925,2.08-2.07V4.6H.94Z"/></g></g></g></svg>