<svg xmlns="http://www.w3.org/2000/svg" viewBox="0 0 16 14.05"><path d="M-.96 6.05h17.92v1.949H-.96z" style="fill:#ff332e" transform="rotate(-45 8 7.024)"/><path d="M13.709 4.079 11.25 6.538c.025.16.05.32.05.487 0 1.9-1.4 3.4-3.3 3.4-.197 0-.389-.025-.577-.06l-1.65 1.65A8.576 8.576 0 0 0 8 12.324c5.4 0 8-5.3 8-5.3s-.758-1.53-2.291-2.946ZM8 3.725c.164 0 .323.026.481.05l1.726-1.726A7.797 7.797 0 0 0 8 1.725c-5.3 0-8 5.3-8 5.3a8.955 8.955 0 0 0 2.186 3.044L4.74 7.515c-.016-.13-.04-.257-.04-.39 0-1.9 1.5-3.4 3.3-3.4Z" style="fill:#5281a9;fill-rule:evenodd"/></svg>