<?xml version="1.0" encoding="UTF-8"?><svg id="Ebene_2" xmlns="http://www.w3.org/2000/svg" viewBox="0 0 16 14.05"><defs><style>.cls-1{fill:#5281a9;fill-rule:evenodd;}.cls-2{fill:#ff332e;}</style></defs><g id="Ebene_2-2"><g id="Ebene_1-2"><rect class="cls-2" x="-.96" y="6.05" width="17.92" height="1.949" transform="translate(-2.624 7.714) rotate(-45)"/></g><path class="cls-1" d="M13.709,4.079l-2.459,2.459c.025,.16,.05,.32,.05,.487,0,1.9-1.4,3.4-3.3,3.4-.197,0-.389-.025-.577-.06l-1.65,1.65c.716,.192,1.459,.309,2.227,.309,5.4,0,8-5.3,8-5.3,0,0-.758-1.53-2.291-2.946Zm-5.709-.354c.164,0,.323,.026,.481,.05l1.726-1.726c-.677-.198-1.408-.324-2.207-.324C2.7,1.725,0,7.025,0,7.025c.518,1.183,1.27,2.213,2.186,3.044l2.554-2.554c-.016-.13-.04-.257-.04-.39,0-1.9,1.5-3.4,3.3-3.4Z"/></g></svg>