<?xml version="1.0" encoding="utf-8"?>
<!-- Generator: Adobe Illustrator 26.5.0, SVG Export Plug-In . SVG Version: 6.00 Build 0)  -->
<svg version="1.1" id="Ebene_2_00000052808539252961304360000002496073358421729727_"
	 xmlns="http://www.w3.org/2000/svg" xmlns:xlink="http://www.w3.org/1999/xlink" x="0px" y="0px" viewBox="0 0 16 10.7"
	 style="enable-background:new 0 0 16 10.7;" xml:space="preserve">
<style type="text/css">
	.st0{fill-rule:evenodd;clip-rule:evenodd;fill:#5281A9;}
</style>
<path class="st0" d="M8,0C2.7,0,0,5.3,0,5.3c1.4,3.2,4.5,5.3,8,5.3c5.4,0,8-5.3,8-5.3S13.4,0,8,0z M8,8.7c-1.8,0-3.3-1.5-3.3-3.3
	C4.7,3.5,6.2,2,8,2c1.8,0,3.3,1.5,3.3,3.3C11.3,7.2,9.9,8.7,8,8.7z M8,3.3c-1.1,0-2,0.9-2,2s0.9,2,2,2c1.1,0,2-0.9,2-2
	S9.1,3.3,8,3.3z"/>
</svg>
