<?xml version="1.0" encoding="UTF-8"?><svg id="Ebene_2" xmlns="http://www.w3.org/2000/svg" viewBox="0 0 24.961 24.958"><defs><style>.cls-1{fill:#5281a9;}</style></defs><g id="Ebene_1-2"><g id="Ebene_2-2"><g id="Ebene_2-2"><path class="cls-1" d="M21.292,3.67c-.563-.571-1.183-1.084-1.85-1.53-.669-.446-1.379-.827-2.12-1.14C15.785,.346,14.132,.006,12.462,0c-.4,0-.8,.02-1.2,.06l-.39,.05c-.26,0-.52,.07-.77,.12l-.46,.11c-.23,0-.45,.1-.67,.17s-.32,.1-.48,.15l-.6,.22-.48,.2c-.19,.08-.38,.18-.56,.27l-.47,.24c-.182,.1-.359,.211-.53,.33-.15,.09-.29,.17-.43,.27-.3,.2-.58,.41-.86,.63C1.903,4.997,.257,8.172,.012,11.6c-.015,.3-.015,.6,0,.9,.029,6.909,5.653,12.486,12.562,12.457,1.63-.007,3.243-.332,4.748-.957,.742-.319,1.451-.707,2.12-1.16,.667-.446,1.287-.959,1.85-1.53,4.877-4.855,4.894-12.744,.039-17.621-.013-.013-.026-.026-.039-.039v.02Zm-3.76,3.49l.68-.16,.47,.14,.1-.29-.23-.21,.15-.47,.66-.06,.6-.77h.24c.404,.423,.769,.881,1.09,1.37l-.33-.11v.27l.84,.74-.14,.62-.29-.23,.07-.2-.95-.51-.05-.37-.48,.31-.23-.1-.7,1.1-.5,.14-1-.19-.14-.61,.14-.41Zm-3.91,12.15l-1.16,.1-1.74,2.74-.34,.69c-.482-.106-.956-.243-1.42-.41v-.5l-.39-1.48,.17-2.45-1.49-.71-.93-1.24,.19-1.18,.93-.9-1.12-.86-.55,.26-1.32-1.3-1.56-.16-.15-1.28-.53-.63C3.218,5.85,6.623,2.713,10.842,2.05h0l1.59,.5,.36,.8-1,.44h-.69l.35-.79-.22-.17-.63,.08-1.16,1.09-.48-.48-1.26,.48v1l1.45,.89,1.5-2,1.81,1.6,.07,1.17h-2.43l-3,3h-2.32l-.8,.93,.27,1,1.3-.59,.67,1.46,1,.81,.74-.7,3.15,.84,.85,1.59,1.68,.27,1,.71-1.02,3.33Zm7.56-.89l-.22-.28,.37-1.46-1-2.57-.85-.1-2.14,.32-1.38-1.63-.12-2,1.3-.95,.46-1,.91-.16,1.94-.27v.78l1.63,.38h.52c.92,3.035,.413,6.324-1.38,8.94h-.04Z"/></g></g></g></svg>