<svg xmlns="http://www.w3.org/2000/svg" viewBox="0 0 24.961 24.958"><path d="M21.292 3.67a11.845 11.845 0 0 0-1.85-1.53A12.799 12.799 0 0 0 17.322 1a12.53 12.53 0 0 0-4.86-1c-.4 0-.8.02-1.2.06l-.39.05c-.26 0-.52.07-.77.12l-.46.11c-.23 0-.45.1-.67.17s-.32.1-.48.15l-.6.22-.48.2c-.19.08-.38.18-.56.27l-.47.24c-.182.1-.359.211-.53.33-.15.09-.29.17-.43.27-.3.2-.58.41-.86.63a12.499 12.499 0 0 0-4.55 8.78c-.015.3-.015.6 0 .9.029 6.909 5.653 12.486 12.562 12.457A12.52 12.52 0 0 0 17.322 24a12.786 12.786 0 0 0 2.12-1.16 11.845 11.845 0 0 0 1.85-1.53c4.877-4.855 4.894-12.744.039-17.621l-.039-.039v.02Zm-3.76 3.49.68-.16.47.14.1-.29-.23-.21.15-.47.66-.06.6-.77h.24c.404.423.769.881 1.09 1.37l-.33-.11v.27l.84.74-.14.62-.29-.23.07-.2-.95-.51-.05-.37-.48.31-.23-.1-.7 1.1-.5.14-1-.19-.14-.61.14-.41Zm-3.91 12.15-1.16.1-1.74 2.74-.34.69a11.461 11.461 0 0 1-1.42-.41v-.5l-.39-1.48.17-2.45-1.49-.71-.93-1.24.19-1.18.93-.9-1.12-.86-.55.26-1.32-1.3-1.56-.16-.15-1.28-.53-.63a10.568 10.568 0 0 1 8.63-7.95l1.59.5.36.8-1 .44h-.69l.35-.79-.22-.17-.63.08L9.442 4l-.48-.48-1.26.48v1l1.45.89 1.5-2 1.81 1.6.07 1.17h-2.43l-3 3h-2.32l-.8.93.27 1 1.3-.59.67 1.46 1 .81.74-.7 3.15.84.85 1.59 1.68.27 1 .71-1.02 3.33Zm7.56-.89-.22-.28.37-1.46-1-2.57-.85-.1-2.14.32-1.38-1.63-.12-2 1.3-.95.46-1 .91-.16 1.94-.27v.78l1.63.38h.52a10.45 10.45 0 0 1-1.38 8.94h-.04Z" style="fill:#5281a9"/></svg>