<svg xmlns="http://www.w3.org/2000/svg" viewBox="0 0 13.759 13.759"><path d="M12.565 6.722a4.079 4.079 0 0 0 .913-4.374l-2.394 2.394a1.224 1.224 0 0 1-1.731 0l-.048-.048-.24-.24-.048-.048c-.222-.222-.358-.528-.358-.866s.137-.644.358-.865L11.411.281a4.08 4.08 0 0 0-4.374.913C5.941 2.29 5.617 3.849 6.029 5.237L.73 9.478A2.277 2.277 0 0 0 0 11.11a2.278 2.278 0 0 0 .668 1.658l.323.323a2.272 2.272 0 0 0 1.658.668 2.277 2.277 0 0 0 1.632-.73L8.522 7.73c1.388.412 2.947.088 4.043-1.008Z" style="fill:#5281a9"/></svg>