<?xml version="1.0" encoding="UTF-8"?><svg id="Ebene_2" xmlns="http://www.w3.org/2000/svg" viewBox="0 0 13.759 13.759"><defs><style>.cls-1{fill:#5281a9;}</style></defs><g id="Ebene_1-2"><path class="cls-1" d="M12.565,6.722c1.183-1.182,1.486-2.911,.913-4.374l-2.394,2.394c-.221,.222-.527,.358-.865,.358s-.644-.137-.866-.358l-.048-.048h0l-.24-.24h0l-.048-.048c-.222-.222-.358-.528-.358-.866s.137-.644,.358-.865L11.411,.281C9.947-.292,8.219,.012,7.037,1.194c-1.096,1.096-1.42,2.655-1.008,4.043L.73,9.478C.291,9.885,.012,10.464,0,11.11c-.012,.646,.245,1.235,.668,1.658l.323,.323c.424,.424,1.012,.681,1.658,.668,.646-.012,1.225-.291,1.632-.73l4.241-5.299c1.388,.412,2.947,.088,4.043-1.008Z"/></g></svg>