<?xml version="1.0" encoding="utf-8"?>
<!-- Generator: Adobe Illustrator 26.0.1, SVG Export Plug-In . SVG Version: 6.00 Build 0)  -->
<svg version="1.1" id="Ebene_1" xmlns="http://www.w3.org/2000/svg" xmlns:xlink="http://www.w3.org/1999/xlink" x="0px" y="0px"
	 viewBox="0 0 23 15" style="enable-background:new 0 0 23 15;" xml:space="preserve">
<style type="text/css">
	.st0{fill:#C60B1E;}
	.st1{fill:#FFC400;}
	.st2{fill:#AD1519;stroke:#000000;stroke-width:0.0079;stroke-linejoin:round;}
	.st3{fill:#C8B100;stroke:#000000;stroke-width:0.0079;}
	.st4{fill:#C8B100;}
	.st5{fill:#C8B100;stroke:#000000;stroke-width:0.0091;}
	.st6{fill:none;stroke:#000000;stroke-width:0.0079;}
	.st7{fill:#C8B100;stroke:#000000;stroke-width:0.0079;stroke-linejoin:round;}
	.st8{fill:#AD1519;stroke:#000000;stroke-width:0.0079;}
	.st9{fill:#058E6E;stroke:#000000;stroke-width:0.0079;}
	.st10{fill:#FFFFFF;stroke:#000000;stroke-width:0.0079;}
	.st11{fill:none;stroke:#000000;stroke-width:3.033150e-04;}
	.st12{fill:none;stroke:#000000;stroke-width:6.066300e-04;}
	.st13{fill:none;stroke:#000000;stroke-width:9.099451e-04;}
	.st14{fill:none;stroke:#000000;stroke-width:0.0012;}
	.st15{fill:none;stroke:#000000;stroke-width:0.0015;}
	.st16{fill:none;stroke:#000000;stroke-width:0.0018;}
	.st17{fill:none;stroke:#000000;stroke-width:0.0021;}
	.st18{fill:none;stroke:#000000;stroke-width:0.0024;}
	.st19{fill:none;stroke:#000000;stroke-width:0.0027;}
	.st20{fill:none;stroke:#000000;stroke-width:0.003;}
	.st21{fill:none;stroke:#000000;stroke-width:0.0033;}
	.st22{fill:none;stroke:#000000;stroke-width:0.0036;}
	.st23{fill:none;stroke:#000000;stroke-width:0.0039;}
	.st24{fill:none;stroke:#000000;stroke-width:0.0042;}
	.st25{fill:none;stroke:#000000;stroke-width:0.0045;}
	.st26{fill:none;stroke:#000000;stroke-width:0.0055;}
	.st27{fill:#005BBF;stroke:#000000;stroke-width:0.0118;}
	.st28{fill:#CCCCCC;stroke:#000000;stroke-width:0.0118;}
	.st29{fill:#C8B100;stroke:#000000;stroke-width:0.0118;stroke-linejoin:round;}
	.st30{fill:#C8B100;stroke:#000000;stroke-width:0.0118;}
	.st31{fill:none;stroke:#000000;stroke-width:0.0118;}
	.st32{fill:#AD1519;stroke:#000000;stroke-width:0.0118;}
	.st33{fill:#AD1519;stroke:#000000;stroke-width:0.0118;stroke-linejoin:round;}
	.st34{fill:#AD1519;stroke:#000000;stroke-width:0.0082;}
	.st35{fill:none;stroke:#000000;stroke-width:0.0079;stroke-linecap:round;}
	.st36{fill:none;stroke:#000000;stroke-width:0.0064;}
	.st37{fill:#FFFFFF;stroke:#000000;stroke-width:0.0064;}
	.st38{fill:#005BBF;stroke:#000000;stroke-width:0.0079;}
	.st39{fill:#FFFFFF;stroke:#000000;stroke-width:0.0118;}
	.st40{fill:none;stroke:#000000;stroke-width:0.007;}
	.st41{fill:none;stroke:#000000;stroke-width:0.0085;}
	.st42{fill:none;stroke:#000000;stroke-width:0.01;}
	.st43{fill:none;stroke:#000000;stroke-width:0.0112;}
	.st44{fill:none;stroke:#000000;stroke-width:0.0127;}
	.st45{fill:none;stroke:#000000;stroke-width:0.014;}
	.st46{fill:none;stroke:#000000;stroke-width:0.0155;}
	.st47{fill:none;stroke:#000000;stroke-width:0.017;}
	.st48{fill:none;stroke:#000000;stroke-width:0.0182;}
	.st49{fill:none;stroke:#000000;stroke-width:0.0191;}
	.st50{fill:none;stroke:#000000;stroke-width:0.0206;}
	.st51{fill:none;stroke:#000000;stroke-width:0.0221;}
	.st52{fill:none;stroke:#000000;stroke-width:0.0234;}
	.st53{fill:none;stroke:#000000;stroke-width:0.0276;}
	.st54{fill:#058E6E;stroke:#000000;stroke-width:0.0118;}
	.st55{fill:#CCCCCC;stroke:#000000;stroke-width:0.0158;}
	.st56{fill:#FFD691;stroke:#000000;stroke-width:0.0158;}
	.st57{fill:#058E6E;stroke:#000000;stroke-width:0.0158;}
	.st58{fill:#AD1519;stroke:#000000;stroke-width:0.0158;}
	.st59{fill:#C8B100;stroke:#000000;stroke-width:0.0158;}
	.st60{fill:#C8B100;stroke:#C8B100;stroke-width:0.0079;}
	.st61{fill:#058E6E;}
	.st62{fill:#C8B100;stroke:#000000;stroke-width:0.014;}
	.st63{fill:#0039F0;}
	.st64{fill:#DB4446;stroke:#000000;stroke-width:0.0118;}
	.st65{fill:#ED72AA;stroke:#000000;stroke-width:0.0118;}
	.st66{stroke:#000000;stroke-width:0.0079;}
	.st67{stroke:#000000;stroke-width:0.0015;}
	.st68{fill:#AD1519;stroke:#000000;stroke-width:0.0185;}
	.st69{fill:#005BBF;stroke:#000000;stroke-width:0.0185;}
	.st70{fill:#C8B100;stroke:#000000;stroke-width:0.0103;stroke-linejoin:round;}
	.st71{fill:#C8B100;stroke:#000000;stroke-width:0.0103;}
</style>
<g>
	<rect class="st0" width="23" height="15"/>
	<rect y="3.75" class="st1" width="23" height="7.5"/>
	<g id="coa">
		<g id="supporters">
			<g id="crown_left">
				<path class="st2" d="M5.152,6.667c0,0-0.016,0-0.024-0.005C5.119,6.658,5.093,6.634,5.093,6.634L5.072,6.619L5.053,6.593
					c0,0-0.022-0.035-0.012-0.063c0.01-0.027,0.028-0.037,0.044-0.045C5.1,6.478,5.133,6.468,5.133,6.468s0.026-0.011,0.035-0.013
					c0.009-0.002,0.04-0.01,0.04-0.01s0.009-0.005,0.017-0.008c0.009-0.003,0.021-0.003,0.028-0.005
					c0.007-0.002,0.024-0.007,0.035-0.008c0.016-0.001,0.042,0.003,0.05,0.003c0.009,0,0.038,0.002,0.05,0.002
					c0.012,0,0.055-0.003,0.067-0.003c0.012,0,0.021-0.002,0.035,0c0.014,0.002,0.038,0.01,0.045,0.013
					c0.007,0.003,0.048,0.018,0.064,0.023C5.614,6.466,5.652,6.473,5.67,6.481c0.017,0.008,0.028,0.022,0.036,0.033
					c0.009,0.011,0.01,0.023,0.014,0.031c0.003,0.008,0.003,0.025,0,0.033C5.717,6.586,5.705,6.603,5.705,6.603L5.686,6.634
					L5.661,6.653c0,0-0.017,0.016-0.031,0.014C5.616,6.666,5.476,6.641,5.386,6.641C5.296,6.641,5.151,6.667,5.152,6.667
					L5.152,6.667L5.152,6.667z"/>
				<g>
					<ellipse class="st3" cx="5.387" cy="6.47" rx="0.042" ry="0.075"/>
					<ellipse class="st3" cx="5.388" cy="6.47" rx="0.02" ry="0.069"/>
					<ellipse class="st4" cx="5.388" cy="6.391" rx="0.029" ry="0.026"/>
					<path class="st5" d="M5.427,6.382V6.4H5.349V6.382h0.029v-0.04H5.359V6.325h0.019V6.308h0.018v0.017h0.019v0.017H5.396v0.04
						H5.427"/>
					<path class="st6" d="M5.395,6.366C5.411,6.37,5.42,6.384,5.415,6.398C5.411,6.412,5.395,6.42,5.38,6.416
						C5.365,6.412,5.356,6.398,5.36,6.384c0.003-0.009,0.01-0.016,0.02-0.018"/>
					<path class="st3" d="M5.388,6.662H5.24L5.237,6.627L5.23,6.59L5.223,6.544C5.182,6.492,5.144,6.457,5.132,6.465
						c0.003-0.01,0.007-0.017,0.014-0.021c0.036-0.021,0.111,0.029,0.167,0.112c0.005,0.008,0.01,0.015,0.014,0.023h0.122
						c0.004-0.008,0.009-0.015,0.014-0.023c0.056-0.083,0.131-0.133,0.167-0.112c0.008,0.004,0.011,0.012,0.014,0.021
						c-0.013-0.007-0.05,0.027-0.091,0.079L5.546,6.59L5.539,6.627L5.536,6.662H5.388L5.388,6.662z"/>
					<path class="st6" d="M5.138,6.463c0.028-0.016,0.093,0.034,0.145,0.112 M5.637,6.463C5.61,6.447,5.545,6.497,5.492,6.575"/>
				</g>
				<g id="crown_pt1">
					<path class="st3" d="M5.17,6.727C5.164,6.71,5.152,6.695,5.152,6.695c0.06-0.017,0.143-0.028,0.235-0.028
						c0.092,0,0.176,0.011,0.236,0.028c0,0-0.007,0.011-0.016,0.027C5.602,6.731,5.595,6.747,5.595,6.747
						C5.542,6.731,5.472,6.722,5.387,6.722c-0.086,0-0.167,0.01-0.21,0.026C5.177,6.748,5.173,6.738,5.17,6.727L5.17,6.727"/>
					<path class="st3" d="M5.387,6.802c0.075,0,0.157-0.011,0.187-0.019c0.02-0.006,0.032-0.015,0.03-0.025
						C5.603,6.753,5.599,6.749,5.593,6.746C5.548,6.732,5.468,6.722,5.387,6.722c-0.081,0-0.162,0.01-0.206,0.024
						C5.175,6.749,5.171,6.753,5.17,6.758C5.168,6.768,5.18,6.777,5.2,6.783C5.23,6.79,5.313,6.802,5.387,6.802z"/>
					<path class="st3" d="M5.627,6.662L5.609,6.647c0,0-0.017,0.01-0.039,0.007C5.548,6.65,5.541,6.625,5.541,6.625
						s-0.024,0.02-0.044,0.019c-0.02-0.002-0.033-0.019-0.033-0.019S5.442,6.64,5.423,6.638C5.404,6.637,5.386,6.614,5.386,6.614
						S5.367,6.638,5.348,6.639C5.329,6.641,5.313,6.623,5.313,6.623S5.304,6.641,5.28,6.645C5.256,6.649,5.235,6.626,5.235,6.626
						s-0.014,0.022-0.03,0.028C5.188,6.659,5.167,6.646,5.167,6.646S5.163,6.654,5.161,6.659c-0.002,0.005-0.01,0.006-0.01,0.006
						l0.006,0.014c0.059-0.017,0.14-0.027,0.231-0.027s0.174,0.01,0.233,0.028L5.627,6.662L5.627,6.662L5.627,6.662z"/>
					<path class="st3" d="M5.388,6.585l0.009,0.002C5.395,6.59,5.395,6.593,5.395,6.598c0,0.017,0.015,0.031,0.034,0.031
						c0.015,0,0.028-0.009,0.033-0.022c0,0,0.003-0.011,0.005-0.011c0.001,0,0.001,0.012,0.002,0.012
						C5.47,6.624,5.484,6.635,5.501,6.635c0.019,0,0.034-0.014,0.034-0.032c0-0.001,0-0.002,0-0.004l0.011-0.011l0.006,0.013
						C5.549,6.606,5.549,6.611,5.549,6.616c0,0.017,0.014,0.03,0.033,0.03c0.011,0,0.021-0.005,0.027-0.013l0.007-0.009v0.011
						c0,0.01,0.004,0.02,0.015,0.021c0,0,0.012,0.001,0.028-0.011c0.016-0.012,0.025-0.023,0.025-0.023l0.001,0.013
						c0,0-0.016,0.025-0.03,0.033c-0.008,0.004-0.02,0.009-0.029,0.007c-0.01-0.002-0.017-0.009-0.021-0.018
						C5.597,6.661,5.588,6.664,5.579,6.664c-0.019,0-0.037-0.011-0.044-0.026C5.527,6.647,5.515,6.653,5.5,6.653
						c-0.016,0-0.03-0.007-0.039-0.017C5.453,6.644,5.441,6.648,5.428,6.648c-0.017,0-0.032-0.008-0.041-0.021
						C5.379,6.64,5.364,6.648,5.346,6.648c-0.013,0-0.025-0.005-0.033-0.013C5.304,6.646,5.29,6.653,5.275,6.653
						c-0.015,0-0.027-0.006-0.036-0.015C5.232,6.653,5.215,6.664,5.195,6.664c-0.009,0-0.017-0.002-0.024-0.007
						C5.167,6.666,5.16,6.674,5.15,6.675C5.141,6.677,5.129,6.672,5.121,6.668C5.107,6.66,5.09,6.635,5.09,6.635l0.002-0.013
						c0,0,0.009,0.01,0.025,0.023s0.028,0.011,0.028,0.011C5.155,6.655,5.16,6.645,5.16,6.635V6.624l0.007,0.009
						c0.006,0.008,0.016,0.013,0.027,0.013c0.018,0,0.033-0.013,0.033-0.03c0-0.005-0.001-0.01-0.003-0.014l0.006-0.013L5.24,6.599
						c0,0.001,0,0.002,0,0.004c0,0.018,0.015,0.032,0.034,0.032c0.017,0,0.032-0.011,0.034-0.027c0,0,0-0.012,0.001-0.012
						c0.002,0,0.004,0.012,0.005,0.011C5.318,6.62,5.331,6.629,5.346,6.629c0.019,0,0.034-0.014,0.034-0.031
						c0-0.004,0-0.008-0.002-0.011L5.388,6.585L5.388,6.585L5.388,6.585z"/>
					<path class="st7" d="M5.387,6.667c-0.092,0-0.175,0.011-0.235,0.028C5.148,6.696,5.143,6.693,5.142,6.69
						C5.141,6.686,5.143,6.682,5.147,6.68c0.06-0.018,0.145-0.029,0.24-0.029s0.18,0.011,0.24,0.029
						c0.004,0.001,0.007,0.006,0.006,0.01c-0.001,0.003-0.006,0.006-0.01,0.005C5.563,6.678,5.48,6.667,5.387,6.667z"/>
					<path class="st3" d="M5.073,6.63c0,0-0.012-0.014-0.02-0.022c-0.006-0.005-0.021-0.01-0.021-0.01
						c0-0.002,0.009-0.008,0.018-0.008c0.006,0,0.011,0.002,0.014,0.006L5.065,6.59c0,0,0.007,0.002,0.011,0.01
						C5.08,6.608,5.077,6.621,5.077,6.621S5.076,6.627,5.073,6.63L5.073,6.63z"/>
					<path class="st3" d="M5.131,6.607l-0.003,0.02L5.085,6.631L5.078,6.627L5.08,6.62l0.033-0.026L5.131,6.607"/>
					<path class="st3" d="M5.074,6.622C5.077,6.619,5.085,6.62,5.09,6.624c0.006,0.004,0.007,0.011,0.004,0.015
						C5.09,6.643,5.083,6.642,5.077,6.637C5.072,6.633,5.07,6.626,5.074,6.622z"/>
					<path class="st3" d="M5.153,6.626c-0.002-0.005,0-0.011,0.004-0.013c0.004-0.001,0.009,0.003,0.011,0.008
						c0.002,0.006,0,0.011-0.004,0.013C5.16,6.636,5.155,6.632,5.153,6.626z"/>
					<path class="st3" d="M5.173,6.601l0.016,0.014l0.037-0.02l0.003-0.006L5.223,6.584L5.18,6.581L5.173,6.601"/>
					<path class="st3" d="M5.216,6.533L5.195,6.552l0.026,0.034l0.007,0.003l0.005-0.005l0.009-0.041L5.216,6.533"/>
					<path class="st3" d="M5.286,6.579L5.278,6.598L5.235,6.594L5.229,6.589l0.003-0.007L5.27,6.563L5.286,6.579"/>
					<ellipse class="st3" cx="5.229" cy="6.589" rx="0.015" ry="0.014"/>
					<path class="st3" d="M5.301,6.598C5.3,6.593,5.303,6.587,5.308,6.587c0.004-0.001,0.009,0.004,0.009,0.01
						c0.001,0.006-0.002,0.011-0.006,0.011C5.306,6.609,5.302,6.604,5.301,6.598z"/>
					<path class="st3" d="M5.329,6.577l0.012,0.017l0.041-0.013l0.004-0.005L5.382,6.57L5.342,6.559L5.329,6.577"/>
					<path class="st3" d="M5.387,6.514L5.361,6.53l0.02,0.041l0.007,0.004l0.007-0.004l0.02-0.041L5.387,6.514"/>
					<path class="st3" d="M5.445,6.577L5.433,6.594L5.392,6.582L5.388,6.576L5.392,6.57l0.041-0.012L5.445,6.577"/>
					<ellipse class="st3" cx="5.387" cy="6.576" rx="0.015" ry="0.014"/>
					<path class="st3" d="M5.474,6.598c0.001-0.006-0.002-0.011-0.007-0.012c-0.004-0.001-0.009,0.004-0.009,0.01
						C5.457,6.602,5.46,6.608,5.464,6.608C5.469,6.609,5.473,6.604,5.474,6.598z"/>
					<path class="st3" d="M5.489,6.579l0.008,0.019L5.54,6.594l0.006-0.005L5.542,6.583L5.505,6.563L5.489,6.579"/>
					<path class="st3" d="M5.559,6.533l0.021,0.019L5.553,6.586L5.546,6.589L5.541,6.583L5.532,6.542L5.559,6.533"/>
					<path class="st3" d="M5.602,6.601L5.587,6.616l-0.037-0.02L5.546,6.589l0.006-0.005l0.043-0.004L5.602,6.601"/>
					<ellipse class="st3" cx="5.546" cy="6.589" rx="0.015" ry="0.014"/>
					<path class="st3" d="M5.622,6.626c0.002-0.005,0-0.011-0.004-0.013C5.614,6.613,5.609,6.616,5.607,6.622
						c-0.002,0.006,0,0.011,0.004,0.013C5.615,6.636,5.62,6.632,5.622,6.626z"/>
					<path class="st3" d="M5.696,6.63c0,0,0.012-0.014,0.02-0.022c0.006-0.005,0.021-0.01,0.021-0.01
						c0-0.002-0.009-0.008-0.018-0.008c-0.006,0-0.011,0.002-0.014,0.006L5.704,6.59c0,0-0.007,0.002-0.011,0.01
						C5.689,6.608,5.692,6.621,5.692,6.621S5.693,6.627,5.696,6.63L5.696,6.63z"/>
					<path class="st3" d="M5.638,6.607l0.003,0.02l0.043,0.004l0.006-0.004L5.689,6.62L5.657,6.594L5.638,6.607"/>
					<path class="st3" d="M5.696,6.622C5.693,6.619,5.685,6.62,5.68,6.624C5.674,6.629,5.672,6.636,5.676,6.639
						C5.68,6.643,5.687,6.642,5.693,6.637C5.698,6.633,5.7,6.626,5.696,6.622z"/>
				</g>
				<g id="crown_pt2">
					<path class="st8" d="M5.154,6.729l0.01-0.015l0.02,0.004L5.171,6.735L5.154,6.729"/>
					<path class="st9" d="M5.239,6.714L5.218,6.718C5.213,6.718,5.208,6.715,5.207,6.71C5.206,6.705,5.21,6.7,5.215,6.699
						l0.021-0.003l0.022-0.003C5.264,6.692,5.269,6.696,5.269,6.7C5.27,6.706,5.266,6.71,5.261,6.711L5.239,6.714"/>
					<ellipse class="st10" cx="5.311" cy="6.699" rx="0.013" ry="0.012"/>
					<path class="st8" d="M5.388,6.704H5.359c-0.006,0-0.01-0.004-0.01-0.009c0-0.005,0.004-0.009,0.01-0.009h0.06
						c0.006,0,0.01,0.004,0.01,0.009c0,0.005-0.005,0.009-0.01,0.009H5.388"/>
					<ellipse class="st10" cx="5.464" cy="6.699" rx="0.013" ry="0.012"/>
					<path class="st9" d="M5.535,6.714l0.021,0.003C5.562,6.718,5.567,6.715,5.568,6.71C5.569,6.705,5.565,6.7,5.56,6.699
						L5.538,6.696L5.517,6.693C5.511,6.692,5.506,6.696,5.505,6.7C5.504,6.706,5.508,6.71,5.514,6.711L5.535,6.714"/>
					<path class="st8" d="M5.619,6.73L5.612,6.714L5.591,6.716l0.01,0.018L5.619,6.73"/>
					<path class="st2" d="M5.387,6.785c-0.075,0-0.142-0.007-0.193-0.019c0.051-0.013,0.119-0.021,0.193-0.021
						c0.075,0,0.143,0.008,0.194,0.021C5.53,6.778,5.462,6.785,5.387,6.785z"/>
					<path class="st11" d="M5.422,6.782V6.748 M5.404,6.784l0-0.037 M5.391,6.784V6.746"/>
					<path class="st12" d="M5.38,6.784V6.746"/>
					<path class="st13" d="M5.369,6.784V6.746"/>
					<path class="st14" d="M5.36,6.784V6.746"/>
					<path class="st14" d="M5.349,6.784V6.746"/>
					<path class="st15" d="M5.341,6.784V6.746"/>
					<path class="st16" d="M5.324,6.782l0-0.035 M5.332,6.783V6.747"/>
					<path class="st17" d="M5.308,6.781V6.749 M5.316,6.782l0-0.034"/>
					<path class="st18" d="M5.288,6.779V6.751 M5.295,6.779V6.75 M5.302,6.781V6.75"/>
					<path class="st19" d="M5.28,6.779V6.752"/>
					<path class="st20" d="M5.274,6.778V6.752"/>
					<path class="st21" d="M5.266,6.777V6.753"/>
					<path class="st22" d="M5.251,6.775l0-0.019 M5.259,6.776V6.755"/>
					<path class="st22" d="M5.244,6.773V6.757"/>
					<path class="st23" d="M5.237,6.772V6.758"/>
					<path class="st24" d="M5.229,6.77V6.759"/>
					<path class="st25" d="M5.221,6.769V6.761"/>
					<path class="st26" d="M5.213,6.767V6.763"/>
				</g>
			</g>
			<g id="pillar_left">
				<g>
					<path class="st27" d="M5.866,9.92c-0.047,0-0.089-0.01-0.121-0.026C5.715,9.879,5.673,9.87,5.627,9.87
						c-0.046,0-0.089,0.01-0.12,0.025C5.476,9.91,5.434,9.92,5.387,9.92c-0.047,0-0.09-0.011-0.121-0.027
						C5.236,9.879,5.195,9.87,5.15,9.87c-0.047,0-0.088,0.009-0.118,0.024C5.001,9.91,4.958,9.92,4.911,9.92v0.072
						c0.047,0,0.09-0.01,0.121-0.026C5.062,9.951,5.104,9.942,5.15,9.942c0.044,0,0.086,0.009,0.116,0.024
						C5.297,9.982,5.34,9.993,5.387,9.993c0.047,0,0.089-0.01,0.12-0.026c0.031-0.016,0.074-0.025,0.12-0.025
						c0.046,0,0.088,0.01,0.118,0.025c0.031,0.016,0.073,0.026,0.12,0.026L5.866,9.92L5.866,9.92z"/>
					<path class="st28" d="M5.866,9.993c-0.047,0-0.089-0.01-0.121-0.026C5.715,9.951,5.673,9.942,5.627,9.942
						c-0.046,0-0.089,0.01-0.12,0.025c-0.031,0.016-0.074,0.026-0.12,0.026c-0.047,0-0.09-0.011-0.121-0.027
						C5.236,9.951,5.195,9.942,5.15,9.942c-0.047,0-0.088,0.009-0.118,0.025C5.001,9.982,4.958,9.993,4.911,9.993v0.072
						c0.047,0,0.09-0.01,0.121-0.026c0.031-0.016,0.072-0.025,0.118-0.025c0.044,0,0.086,0.009,0.116,0.024
						c0.031,0.016,0.073,0.027,0.121,0.027c0.047,0,0.089-0.01,0.12-0.026c0.031-0.016,0.074-0.025,0.12-0.025
						c0.046,0,0.088,0.01,0.118,0.025c0.031,0.016,0.073,0.026,0.12,0.026L5.866,9.993"/>
					<path class="st27" d="M5.866,10.065c-0.047,0-0.089-0.01-0.121-0.026c-0.031-0.016-0.072-0.025-0.118-0.025
						c-0.046,0-0.089,0.01-0.12,0.025c-0.031,0.016-0.074,0.026-0.12,0.026c-0.047,0-0.09-0.011-0.121-0.027
						c-0.031-0.015-0.071-0.024-0.116-0.024c-0.047,0-0.088,0.009-0.118,0.025c-0.031,0.016-0.074,0.026-0.121,0.026v0.072
						c0.047,0,0.09-0.01,0.121-0.026c0.031-0.015,0.072-0.024,0.118-0.024c0.044,0,0.086,0.009,0.116,0.024
						c0.031,0.016,0.073,0.027,0.121,0.027c0.047,0,0.089-0.01,0.12-0.026c0.031-0.016,0.074-0.025,0.12-0.025
						c0.046,0,0.088,0.009,0.118,0.025c0.031,0.016,0.073,0.026,0.12,0.026L5.866,10.065"/>
					<path class="st28" d="M5.865,10.21c-0.047,0-0.089-0.01-0.12-0.026c-0.031-0.015-0.072-0.025-0.118-0.025
						c-0.046,0-0.089,0.009-0.12,0.025c-0.031,0.016-0.074,0.026-0.12,0.026c-0.047,0-0.09-0.011-0.121-0.027
						c-0.031-0.015-0.071-0.024-0.116-0.024c-0.047,0-0.088,0.009-0.118,0.024c-0.031,0.016-0.074,0.026-0.121,0.026v-0.072
						c0.047,0,0.09-0.011,0.121-0.027c0.031-0.015,0.072-0.024,0.118-0.024c0.044,0,0.086,0.009,0.116,0.024
						c0.031,0.016,0.073,0.027,0.121,0.027c0.047,0,0.089-0.01,0.12-0.026c0.031-0.016,0.074-0.025,0.12-0.025
						c0.046,0,0.088,0.009,0.118,0.025c0.031,0.016,0.073,0.026,0.121,0.026L5.865,10.21"/>
					<path class="st27" d="M5.865,10.282c-0.047,0-0.089-0.01-0.12-0.026c-0.031-0.016-0.072-0.025-0.118-0.025
						c-0.046,0-0.089,0.01-0.12,0.025c-0.031,0.016-0.074,0.026-0.12,0.026c-0.047,0-0.09-0.011-0.121-0.027
						c-0.031-0.015-0.071-0.024-0.116-0.024c-0.047,0-0.088,0.009-0.118,0.025c-0.031,0.016-0.074,0.026-0.121,0.026V10.21
						c0.047,0,0.09-0.011,0.121-0.027c0.031-0.016,0.072-0.024,0.118-0.024c0.044,0,0.086,0.009,0.116,0.024
						c0.031,0.016,0.073,0.027,0.121,0.027c0.047,0,0.089-0.01,0.12-0.026c0.031-0.016,0.074-0.025,0.12-0.025
						c0.046,0,0.088,0.009,0.118,0.025C5.777,10.2,5.818,10.21,5.866,10.21L5.865,10.282L5.865,10.282z"/>
				</g>
				<g>
					<path class="st29" d="M5.119,9.623C5.12,9.63,5.123,9.635,5.123,9.642c0,0.044-0.039,0.079-0.086,0.079H5.74
						c-0.048,0-0.086-0.035-0.086-0.079c0-0.006,0.001-0.012,0.003-0.019C5.653,9.625,5.648,9.625,5.643,9.625H5.131
						C5.127,9.625,5.123,9.625,5.119,9.623z"/>
					<path class="st30" d="M5.131,9.578h0.512c0.017,0,0.031,0.011,0.031,0.023S5.661,9.625,5.643,9.625H5.131
						C5.114,9.625,5.1,9.614,5.1,9.601S5.114,9.578,5.131,9.578z"/>
					<path class="st30" d="M5.038,9.896h0.701V9.721H5.038V9.896z"/>
				</g>
				<path class="st28" d="M5.138,9.55h0.498V7.161H5.138V9.55z"/>
				<path class="st31" d="M5.493,7.164v2.384 M5.549,7.164v2.384"/>
				<g>
					<path class="st30" d="M5.047,6.971h0.684V6.796H5.047L5.047,6.971L5.047,6.971z"/>
					<path class="st29" d="M5.119,7.088c0.004-0.002,0.007-0.002,0.013-0.002h0.512c0.005,0,0.01,0.001,0.014,0.002
						c-0.018-0.006-0.03-0.021-0.03-0.04s0.014-0.034,0.032-0.04C5.654,7.01,5.648,7.011,5.644,7.011H5.131
						c-0.005,0-0.01,0-0.014-0.002L5.12,7.01c0.018,0.005,0.029,0.021,0.029,0.039C5.149,7.065,5.137,7.082,5.119,7.088L5.119,7.088
						z"/>
					<path class="st30" d="M5.131,7.086h0.512c0.017,0,0.031,0.011,0.031,0.023c0,0.013-0.014,0.024-0.031,0.024H5.131
						c-0.017,0-0.031-0.01-0.031-0.024C5.1,7.096,5.114,7.086,5.131,7.086z"/>
					<path class="st30" d="M5.131,6.971h0.512c0.017,0,0.032,0.009,0.032,0.02c0,0.011-0.014,0.02-0.032,0.02H5.131
						c-0.017,0-0.031-0.009-0.031-0.02C5.1,6.98,5.114,6.971,5.131,6.971z"/>
				</g>
			</g>
			<g id="ribbon_left">
				<path class="st32" d="M4.983,8.959C4.913,8.998,4.866,9.038,4.874,9.058C4.878,9.076,4.9,9.09,4.931,9.11
					c0.05,0.034,0.08,0.094,0.056,0.122C5.028,9.2,5.054,9.152,5.054,9.098C5.054,9.042,5.027,8.991,4.983,8.959z"/>
				<path class="st33" d="M6.146,8.054C6.037,8.01,5.852,7.978,5.64,7.971C5.567,7.971,5.485,7.978,5.401,7.992
					c-0.298,0.049-0.525,0.165-0.507,0.26c0,0.002,0.001,0.006,0.002,0.008c0,0-0.112-0.246-0.113-0.256
					c-0.02-0.105,0.232-0.235,0.563-0.289C5.449,7.698,5.55,7.692,5.638,7.693c0.212,0,0.396,0.027,0.507,0.067L6.146,8.054"/>
				<path class="st32" d="M5.137,8.354c-0.138-0.01-0.232-0.046-0.243-0.102c-0.009-0.045,0.038-0.095,0.122-0.14
					C5.053,8.116,5.095,8.12,5.138,8.12L5.137,8.354"/>
				<path class="st32" d="M5.637,8.171c0.086,0.013,0.151,0.034,0.183,0.06l0.003,0.005c0.015,0.031-0.06,0.097-0.187,0.17
					L5.637,8.171"/>
				<path class="st33" d="M4.828,8.815C4.814,8.776,4.949,8.699,5.14,8.631C5.227,8.6,5.299,8.569,5.388,8.53
					c0.265-0.115,0.46-0.246,0.436-0.294L5.821,8.231c0.014,0.011,0.036,0.247,0.036,0.247c0.024,0.044-0.155,0.173-0.399,0.287
					c-0.078,0.037-0.243,0.096-0.32,0.123C4.999,8.936,4.861,9.025,4.874,9.058L4.828,8.815L4.828,8.815L4.828,8.815z"/>
			</g>
			<g id="crown_right">
				<path class="st34" d="M9.962,6.613c0,0-0.023,0.023-0.039,0.027C9.907,6.642,9.886,6.625,9.886,6.625S9.871,6.64,9.853,6.644
					c-0.018,0.004-0.043-0.02-0.043-0.02s-0.017,0.024-0.033,0.03C9.761,6.659,9.742,6.646,9.742,6.646s-0.007,0.012-0.02,0.018
					C9.716,6.667,9.707,6.663,9.707,6.663L9.689,6.652L9.668,6.63L9.649,6.623c0,0-0.009-0.027-0.01-0.032
					C9.639,6.586,9.637,6.574,9.637,6.574C9.633,6.554,9.664,6.532,9.708,6.522c0.025-0.006,0.047-0.005,0.063-0.001
					c0.017-0.014,0.055-0.025,0.098-0.025c0.04,0,0.074,0.008,0.093,0.021c0.019-0.013,0.053-0.021,0.093-0.021
					c0.044,0,0.08,0.01,0.098,0.025c0.016-0.005,0.038-0.005,0.063,0.001c0.044,0.01,0.075,0.032,0.071,0.052
					c0,0-0.002,0.012-0.002,0.017c-0.001,0.005-0.01,0.032-0.01,0.032L10.256,6.63l-0.021,0.022l-0.018,0.011
					c0,0-0.009,0.004-0.015,0.002c-0.013-0.006-0.02-0.018-0.02-0.018s-0.019,0.013-0.035,0.007c-0.016-0.006-0.033-0.03-0.033-0.03
					s-0.025,0.024-0.044,0.02c-0.018-0.004-0.033-0.019-0.033-0.019s-0.021,0.018-0.037,0.015C9.984,6.636,9.962,6.613,9.962,6.613
					L9.962,6.613z"/>
				<g>
					<ellipse class="st3" cx="9.961" cy="6.486" rx="0.042" ry="0.059"/>
					<ellipse class="st3" cx="9.962" cy="6.486" rx="0.019" ry="0.054"/>
					<ellipse class="st4" cx="9.962" cy="6.418" rx="0.029" ry="0.026"/>
					<path class="st5" d="M10.001,6.409v0.017H9.924V6.409h0.029V6.37H9.934V6.353h0.019V6.335h0.019v0.017H9.99V6.37H9.971v0.039
						H10.001"/>
					<path class="st6" d="M9.97,6.394c0.015,0.004,0.024,0.019,0.019,0.033C9.984,6.441,9.968,6.448,9.953,6.444
						S9.93,6.425,9.934,6.411c0.003-0.009,0.01-0.015,0.02-0.018"/>
				</g>
				<g>
					<path class="st35" d="M9.642,6.6C9.638,6.59,9.635,6.579,9.635,6.567c0-0.048,0.039-0.086,0.087-0.086
						c0.015,0,0.029,0.004,0.042,0.011"/>
					<path class="st6" d="M9.797,6.538C9.793,6.53,9.788,6.522,9.788,6.513c0-0.035,0.036-0.062,0.081-0.062
						c0.019,0,0.037,0.005,0.051,0.014"/>
					<path class="st6" d="M10.125,6.539c0.005-0.008,0.008-0.017,0.008-0.026c0-0.035-0.036-0.062-0.081-0.062
						c-0.019,0-0.036,0.005-0.05,0.014"/>
					<path class="st35" d="M10.28,6.6c0.004-0.01,0.006-0.021,0.006-0.032c0-0.048-0.039-0.086-0.086-0.086
						c-0.015,0-0.03,0.004-0.042,0.011"/>
					<ellipse class="st36" cx="9.616" cy="6.56" rx="0.014" ry="0.013"/>
					<ellipse class="st36" cx="9.621" cy="6.513" rx="0.014" ry="0.013"/>
					<ellipse class="st36" cx="9.653" cy="6.477" rx="0.014" ry="0.013"/>
					<ellipse class="st36" cx="9.694" cy="6.457" rx="0.014" ry="0.013"/>
					<ellipse class="st36" cx="9.738" cy="6.459" rx="0.014" ry="0.013"/>
					<ellipse class="st37" cx="9.765" cy="6.512" rx="0.014" ry="0.013"/>
					<ellipse class="st36" cx="9.773" cy="6.467" rx="0.014" ry="0.013"/>
					<ellipse class="st36" cx="9.808" cy="6.439" rx="0.014" ry="0.013"/>
					<ellipse class="st36" cx="9.851" cy="6.426" rx="0.014" ry="0.013"/>
					<ellipse class="st36" cx="9.895" cy="6.427" rx="0.014" ry="0.013"/>
					<ellipse class="st36" cx="10.026" cy="6.427" rx="0.014" ry="0.013"/>
					<ellipse class="st36" cx="10.071" cy="6.426" rx="0.014" ry="0.013"/>
					<ellipse class="st36" cx="10.114" cy="6.439" rx="0.014" ry="0.013"/>
					<ellipse class="st36" cx="10.149" cy="6.467" rx="0.014" ry="0.013"/>
					<ellipse class="st37" cx="10.156" cy="6.512" rx="0.014" ry="0.013"/>
					<ellipse class="st36" cx="10.183" cy="6.459" rx="0.014" ry="0.013"/>
					<ellipse class="st36" cx="10.228" cy="6.457" rx="0.014" ry="0.013"/>
					<ellipse class="st36" cx="10.269" cy="6.477" rx="0.014" ry="0.013"/>
					<ellipse class="st36" cx="10.3" cy="6.513" rx="0.014" ry="0.013"/>
					<ellipse class="st36" cx="10.306" cy="6.56" rx="0.014" ry="0.013"/>
				</g>
				<g>
					<g id="crown_pt1_00000031928761592169423450000011693385218190406290_">
						<path class="st3" d="M9.744,6.727C9.738,6.71,9.727,6.695,9.727,6.695c0.06-0.017,0.143-0.028,0.235-0.028
							c0.092,0,0.176,0.011,0.236,0.028c0,0-0.007,0.011-0.016,0.027c-0.005,0.009-0.012,0.024-0.012,0.024
							c-0.054-0.016-0.123-0.024-0.209-0.025c-0.086,0-0.167,0.01-0.21,0.026C9.752,6.748,9.748,6.738,9.744,6.727L9.744,6.727"/>
						<path class="st3" d="M9.962,6.802c0.075,0,0.157-0.011,0.187-0.019c0.02-0.006,0.032-0.015,0.03-0.025
							c-0.001-0.005-0.006-0.009-0.011-0.011c-0.045-0.014-0.125-0.024-0.206-0.024c-0.081,0-0.162,0.01-0.206,0.024
							C9.75,6.749,9.746,6.753,9.744,6.758c-0.002,0.011,0.01,0.019,0.03,0.025C9.805,6.79,9.887,6.802,9.962,6.802z"/>
						<path class="st3" d="M10.201,6.662l-0.018-0.016c0,0-0.017,0.01-0.039,0.007c-0.021-0.003-0.029-0.029-0.029-0.029
							s-0.024,0.02-0.044,0.019c-0.02-0.002-0.033-0.019-0.033-0.019S10.017,6.64,9.998,6.638C9.979,6.637,9.961,6.614,9.961,6.614
							S9.941,6.638,9.922,6.639C9.903,6.641,9.888,6.623,9.888,6.623S9.879,6.641,9.855,6.645S9.81,6.626,9.81,6.626
							s-0.014,0.022-0.03,0.028C9.763,6.659,9.741,6.646,9.741,6.646S9.738,6.654,9.735,6.659c-0.002,0.005-0.01,0.006-0.01,0.006
							l0.006,0.014c0.059-0.017,0.14-0.027,0.231-0.027c0.091,0,0.174,0.01,0.233,0.028L10.201,6.662L10.201,6.662L10.201,6.662z"/>
						<path class="st3" d="M9.962,6.585l0.009,0.002C9.969,6.59,9.969,6.593,9.969,6.598c0,0.017,0.015,0.031,0.034,0.031
							c0.015,0,0.028-0.009,0.033-0.022c0,0,0.003-0.011,0.005-0.011c0.001,0,0.001,0.012,0.002,0.012
							c0.002,0.016,0.017,0.027,0.034,0.027c0.019,0,0.034-0.014,0.034-0.032c0-0.001,0-0.002,0-0.004l0.011-0.011l0.006,0.013
							c-0.002,0.004-0.003,0.009-0.003,0.014c0,0.017,0.014,0.03,0.033,0.03c0.011,0,0.021-0.005,0.027-0.013l0.007-0.009v0.011
							c0,0.01,0.004,0.02,0.015,0.021c0,0,0.012,0.001,0.028-0.011c0.016-0.012,0.025-0.023,0.025-0.023l0.001,0.013
							c0,0-0.016,0.025-0.03,0.033c-0.008,0.004-0.02,0.009-0.029,0.007c-0.01-0.002-0.017-0.009-0.021-0.018
							c-0.007,0.004-0.016,0.007-0.025,0.007c-0.019,0-0.037-0.011-0.044-0.026c-0.009,0.009-0.021,0.015-0.036,0.015
							c-0.016,0-0.03-0.007-0.039-0.017c-0.009,0.008-0.021,0.013-0.033,0.013c-0.017,0-0.032-0.008-0.041-0.021
							C9.953,6.64,9.938,6.648,9.921,6.648c-0.013,0-0.025-0.005-0.033-0.013c-0.009,0.01-0.023,0.017-0.038,0.017
							c-0.015,0-0.027-0.006-0.036-0.015C9.807,6.653,9.789,6.664,9.77,6.664c-0.009,0-0.017-0.002-0.024-0.007
							C9.742,6.666,9.735,6.674,9.725,6.675C9.716,6.677,9.704,6.672,9.696,6.668C9.681,6.66,9.665,6.635,9.665,6.635l0.002-0.013
							c0,0,0.009,0.01,0.025,0.023c0.016,0.012,0.028,0.011,0.028,0.011c0.01-0.002,0.015-0.011,0.015-0.021V6.624l0.007,0.009
							c0.006,0.008,0.016,0.013,0.027,0.013c0.018,0,0.033-0.013,0.033-0.03c0-0.005-0.001-0.01-0.003-0.014l0.006-0.013
							l0.011,0.011c0,0.001,0,0.002,0,0.004c0,0.018,0.015,0.032,0.034,0.032c0.017,0,0.032-0.011,0.034-0.027
							c0,0,0-0.012,0.001-0.012c0.002,0,0.004,0.012,0.005,0.011C9.892,6.62,9.905,6.629,9.921,6.629
							c0.019,0,0.034-0.014,0.034-0.031c0-0.004,0-0.008-0.002-0.011L9.962,6.585L9.962,6.585L9.962,6.585z"/>
						<path class="st7" d="M9.962,6.667c-0.092,0-0.175,0.011-0.235,0.028C9.723,6.696,9.718,6.693,9.716,6.69
							C9.715,6.686,9.718,6.682,9.722,6.68c0.06-0.018,0.145-0.029,0.24-0.029c0.095,0,0.18,0.011,0.24,0.029
							c0.004,0.001,0.007,0.006,0.006,0.01c-0.001,0.003-0.006,0.006-0.01,0.005C10.137,6.678,10.054,6.667,9.962,6.667z"/>
						<path class="st3" d="M9.648,6.63c0,0-0.012-0.014-0.02-0.022c-0.006-0.005-0.021-0.01-0.021-0.01
							c0-0.002,0.009-0.008,0.018-0.008c0.006,0,0.011,0.002,0.014,0.006L9.64,6.59c0,0,0.007,0.002,0.011,0.01
							c0.004,0.009,0.002,0.022,0.002,0.022S9.65,6.627,9.648,6.63L9.648,6.63z"/>
						<path class="st3" d="M9.706,6.607l-0.003,0.02L9.659,6.631L9.653,6.627L9.654,6.62l0.033-0.026L9.706,6.607"/>
						<path class="st3" d="M9.648,6.622C9.652,6.619,9.659,6.62,9.665,6.624C9.67,6.629,9.672,6.636,9.668,6.639
							C9.665,6.643,9.657,6.642,9.652,6.637C9.647,6.633,9.645,6.626,9.648,6.622z"/>
						<path class="st3" d="M9.727,6.626c-0.002-0.005,0-0.011,0.004-0.013C9.735,6.613,9.74,6.616,9.742,6.622
							c0.002,0.006,0,0.011-0.004,0.013C9.734,6.636,9.729,6.632,9.727,6.626z"/>
						<path class="st3" d="M9.747,6.601l0.016,0.014L9.8,6.596l0.003-0.006L9.798,6.584L9.755,6.581L9.747,6.601"/>
						<path class="st3" d="M9.79,6.533L9.77,6.552l0.026,0.034l0.007,0.003l0.005-0.005l0.009-0.041L9.79,6.533"/>
						<path class="st3" d="M9.86,6.579L9.852,6.598L9.809,6.594L9.804,6.589l0.003-0.007l0.037-0.019L9.86,6.579"/>
						<ellipse class="st3" cx="9.804" cy="6.589" rx="0.015" ry="0.014"/>
						<path class="st3" d="M9.876,6.598C9.875,6.593,9.878,6.587,9.882,6.587c0.004-0.001,0.009,0.004,0.009,0.01
							c0.001,0.006-0.002,0.011-0.006,0.011C9.881,6.609,9.877,6.604,9.876,6.598z"/>
						<path class="st3" d="M9.904,6.577l0.012,0.017l0.041-0.013l0.004-0.005L9.957,6.57L9.916,6.559L9.904,6.577"/>
						<path class="st3" d="M9.961,6.514L9.935,6.53l0.02,0.041l0.007,0.004l0.007-0.004l0.02-0.041L9.961,6.514"/>
						<path class="st3" d="M10.019,6.577l-0.012,0.017L9.966,6.582L9.962,6.576L9.966,6.57l0.041-0.012L10.019,6.577"/>
						<ellipse class="st3" cx="9.962" cy="6.576" rx="0.015" ry="0.014"/>
						<path class="st3" d="M10.049,6.598c0.001-0.006-0.002-0.011-0.007-0.012c-0.004-0.001-0.009,0.004-0.009,0.01
							c-0.001,0.006,0.002,0.011,0.006,0.011C10.043,6.609,10.048,6.604,10.049,6.598z"/>
						<path class="st3" d="M10.064,6.579l0.008,0.019l0.043-0.004l0.006-0.005l-0.003-0.007L10.08,6.563L10.064,6.579"/>
						<path class="st3" d="M10.133,6.533l0.021,0.019l-0.026,0.034l-0.007,0.003l-0.005-0.005l-0.009-0.041L10.133,6.533"/>
						<path class="st3" d="M10.177,6.601l-0.016,0.014l-0.037-0.02l-0.003-0.006l0.006-0.005l0.043-0.004L10.177,6.601"/>
						<ellipse class="st3" cx="10.121" cy="6.589" rx="0.015" ry="0.014"/>
						<path class="st3" d="M10.197,6.626c0.002-0.005,0-0.011-0.004-0.013c-0.004-0.001-0.009,0.003-0.011,0.008
							c-0.002,0.006,0,0.011,0.004,0.013C10.19,6.636,10.195,6.632,10.197,6.626z"/>
						<path class="st3" d="M10.27,6.63c0,0,0.012-0.014,0.02-0.022c0.006-0.005,0.021-0.01,0.021-0.01
							c0-0.002-0.009-0.008-0.018-0.008c-0.006,0-0.011,0.002-0.014,0.006L10.278,6.59c0,0-0.007,0.002-0.011,0.01
							c-0.003,0.009-0.001,0.022-0.001,0.022S10.268,6.627,10.27,6.63L10.27,6.63z"/>
						<path class="st3" d="M10.212,6.607l0.003,0.02l0.043,0.004l0.006-0.004L10.264,6.62l-0.032-0.026L10.212,6.607"/>
						<path class="st3" d="M10.271,6.622c-0.003-0.004-0.011-0.003-0.016,0.002s-0.007,0.011-0.004,0.015
							c0.004,0.004,0.011,0.003,0.017-0.002C10.273,6.633,10.274,6.626,10.271,6.622z"/>
					</g>
				</g>
				<g>
					<g id="crown_pt2_00000083780295906191286630000007384985739967746688_">
						<path class="st8" d="M9.728,6.729l0.01-0.015l0.02,0.004L9.746,6.735L9.728,6.729"/>
						<path class="st9" d="M9.814,6.714L9.793,6.718C9.787,6.718,9.782,6.715,9.781,6.71C9.781,6.705,9.784,6.7,9.789,6.699
							l0.021-0.003l0.022-0.003C9.838,6.692,9.843,6.696,9.844,6.7c0.001,0.005-0.003,0.01-0.008,0.011L9.814,6.714"/>
						<ellipse class="st10" cx="9.886" cy="6.699" rx="0.013" ry="0.012"/>
						<path class="st8" d="M9.963,6.704H9.933c-0.006,0-0.01-0.004-0.01-0.009c0-0.005,0.004-0.009,0.01-0.009h0.06
							c0.006,0,0.01,0.004,0.01,0.009c0,0.005-0.005,0.009-0.01,0.009H9.963"/>
						<ellipse class="st10" cx="10.038" cy="6.699" rx="0.013" ry="0.012"/>
						<path class="st9" d="M10.11,6.714l0.021,0.003c0.006,0.001,0.011-0.003,0.012-0.008c0.001-0.005-0.003-0.01-0.008-0.011
							l-0.021-0.003l-0.022-0.003C10.086,6.692,10.08,6.696,10.08,6.7c-0.001,0.005,0.003,0.01,0.008,0.011L10.11,6.714"/>
						<path class="st8" d="M10.194,6.73l-0.008-0.016l-0.021,0.002l0.01,0.018L10.194,6.73"/>
						<path class="st2" d="M9.961,6.785c-0.075,0-0.142-0.007-0.193-0.019c0.051-0.013,0.119-0.021,0.193-0.021
							c0.075,0,0.143,0.008,0.194,0.021C10.104,6.778,10.036,6.785,9.961,6.785z"/>
						<path class="st11" d="M9.996,6.782V6.748 M9.979,6.784l0-0.037 M9.966,6.784V6.746"/>
						<path class="st12" d="M9.955,6.784V6.746"/>
						<path class="st13" d="M9.944,6.784V6.746"/>
						<path class="st14" d="M9.934,6.784V6.746"/>
						<path class="st14" d="M9.924,6.784V6.746"/>
						<path class="st15" d="M9.915,6.784V6.746"/>
						<path class="st16" d="M9.899,6.782l0-0.035 M9.907,6.783V6.747"/>
						<path class="st17" d="M9.883,6.781V6.749 M9.891,6.782l0-0.034"/>
						<path class="st18" d="M9.862,6.779V6.751 M9.869,6.779V6.75 M9.876,6.781V6.75"/>
						<path class="st19" d="M9.855,6.779V6.752"/>
						<path class="st20" d="M9.848,6.778V6.752"/>
						<path class="st21" d="M9.841,6.777V6.753"/>
						<path class="st22" d="M9.826,6.775l0-0.019 M9.834,6.776V6.755"/>
						<path class="st22" d="M9.818,6.773V6.757"/>
						<path class="st23" d="M9.811,6.772V6.758"/>
						<path class="st24" d="M9.804,6.77V6.759"/>
						<path class="st25" d="M9.796,6.769V6.761"/>
						<path class="st26" d="M9.788,6.767V6.763"/>
					</g>
				</g>
			</g>
			<g id="pillar_right">
				<g id="pillar_left_00000141452342707004284600000001670763413657153201_">
					<g>
						<path class="st27" d="M10.44,9.92c-0.047,0-0.089-0.01-0.121-0.026c-0.031-0.015-0.072-0.025-0.118-0.025
							c-0.046,0-0.089,0.01-0.12,0.025C10.051,9.91,10.008,9.92,9.961,9.92c-0.047,0-0.09-0.011-0.121-0.027
							C9.81,9.879,9.769,9.87,9.725,9.87c-0.047,0-0.088,0.009-0.118,0.024C9.575,9.91,9.532,9.92,9.485,9.92v0.072
							c0.047,0,0.09-0.01,0.121-0.026c0.031-0.016,0.072-0.025,0.118-0.025c0.044,0,0.086,0.009,0.116,0.024
							c0.031,0.016,0.073,0.027,0.121,0.027c0.047,0,0.089-0.01,0.12-0.026c0.031-0.016,0.074-0.025,0.12-0.025
							c0.046,0,0.088,0.01,0.118,0.025c0.031,0.016,0.073,0.026,0.12,0.026L10.44,9.92L10.44,9.92z"/>
						<path class="st28" d="M10.44,9.993c-0.047,0-0.089-0.01-0.121-0.026c-0.031-0.015-0.072-0.025-0.118-0.025
							c-0.046,0-0.089,0.01-0.12,0.025c-0.031,0.016-0.074,0.026-0.12,0.026c-0.047,0-0.09-0.011-0.121-0.027
							C9.81,9.951,9.769,9.942,9.725,9.942c-0.047,0-0.088,0.009-0.118,0.025C9.575,9.982,9.532,9.993,9.485,9.993v0.072
							c0.047,0,0.09-0.01,0.121-0.026c0.031-0.016,0.072-0.025,0.118-0.025c0.044,0,0.086,0.009,0.116,0.024
							c0.031,0.016,0.073,0.027,0.121,0.027c0.047,0,0.089-0.01,0.12-0.026c0.031-0.016,0.074-0.025,0.12-0.025
							c0.046,0,0.088,0.01,0.118,0.025c0.031,0.016,0.073,0.026,0.12,0.026L10.44,9.993"/>
						<path class="st27" d="M10.44,10.065c-0.047,0-0.089-0.01-0.121-0.026c-0.031-0.016-0.072-0.025-0.118-0.025
							c-0.046,0-0.089,0.01-0.12,0.025c-0.031,0.016-0.074,0.026-0.12,0.026c-0.047,0-0.09-0.011-0.121-0.027
							c-0.031-0.015-0.071-0.024-0.116-0.024c-0.047,0-0.088,0.009-0.118,0.025c-0.031,0.016-0.074,0.026-0.121,0.026v0.072
							c0.047,0,0.09-0.01,0.121-0.026c0.031-0.015,0.072-0.024,0.118-0.024c0.044,0,0.086,0.009,0.116,0.024
							c0.031,0.016,0.073,0.027,0.121,0.027c0.047,0,0.089-0.01,0.12-0.026c0.031-0.016,0.074-0.025,0.12-0.025
							c0.046,0,0.088,0.009,0.118,0.025c0.031,0.016,0.073,0.026,0.12,0.026L10.44,10.065"/>
						<path class="st28" d="M10.44,10.21c-0.047,0-0.089-0.01-0.12-0.026c-0.031-0.015-0.072-0.025-0.118-0.025
							c-0.046,0-0.089,0.009-0.12,0.025s-0.074,0.026-0.12,0.026c-0.047,0-0.09-0.011-0.121-0.027
							c-0.031-0.015-0.071-0.024-0.116-0.024c-0.047,0-0.088,0.009-0.118,0.024c-0.031,0.016-0.074,0.026-0.121,0.026v-0.072
							c0.047,0,0.09-0.011,0.121-0.027c0.031-0.015,0.072-0.024,0.118-0.024c0.044,0,0.086,0.009,0.116,0.024
							c0.031,0.016,0.073,0.027,0.121,0.027c0.047,0,0.089-0.01,0.12-0.026c0.031-0.016,0.074-0.025,0.12-0.025
							c0.046,0,0.088,0.009,0.118,0.025c0.031,0.016,0.073,0.026,0.121,0.026L10.44,10.21"/>
						<path class="st27" d="M10.44,10.282c-0.047,0-0.089-0.01-0.12-0.026c-0.031-0.016-0.072-0.025-0.118-0.025
							c-0.046,0-0.089,0.01-0.12,0.025c-0.031,0.016-0.074,0.026-0.12,0.026c-0.047,0-0.09-0.011-0.121-0.027
							c-0.031-0.015-0.071-0.024-0.116-0.024c-0.047,0-0.088,0.009-0.118,0.025c-0.031,0.016-0.074,0.026-0.121,0.026V10.21
							c0.047,0,0.09-0.011,0.121-0.027c0.031-0.016,0.072-0.024,0.118-0.024c0.044,0,0.086,0.009,0.116,0.024
							c0.031,0.016,0.073,0.027,0.121,0.027c0.047,0,0.089-0.01,0.12-0.026c0.031-0.016,0.074-0.025,0.12-0.025
							c0.046,0,0.088,0.009,0.118,0.025c0.031,0.016,0.073,0.026,0.121,0.026L10.44,10.282L10.44,10.282z"/>
					</g>
					<g>
						<path class="st29" d="M9.693,9.623C9.695,9.63,9.697,9.635,9.697,9.642c0,0.044-0.039,0.079-0.086,0.079h0.703
							c-0.048,0-0.086-0.035-0.086-0.079c0-0.006,0.001-0.012,0.003-0.019c-0.004,0.002-0.009,0.002-0.013,0.002H9.706
							C9.702,9.625,9.697,9.625,9.693,9.623z"/>
						<path class="st30" d="M9.706,9.578h0.512c0.017,0,0.031,0.011,0.031,0.023s-0.014,0.024-0.031,0.024H9.706
							c-0.017,0-0.031-0.011-0.031-0.024S9.689,9.578,9.706,9.578z"/>
						<path class="st30" d="M9.612,9.896h0.701V9.721H9.612V9.896z"/>
					</g>
					<path class="st28" d="M9.713,9.55h0.498V7.161H9.713V9.55z"/>
					<path class="st31" d="M10.068,7.164v2.384 M10.124,7.164v2.384"/>
					<g>
						<path class="st30" d="M9.622,6.971h0.684V6.796H9.622L9.622,6.971L9.622,6.971z"/>
						<path class="st29" d="M9.693,7.088c0.004-0.002,0.007-0.002,0.013-0.002h0.512c0.005,0,0.01,0.001,0.014,0.002
							c-0.018-0.006-0.03-0.021-0.03-0.04s0.014-0.034,0.032-0.04c-0.004,0.001-0.01,0.002-0.015,0.002H9.706
							c-0.005,0-0.01,0-0.014-0.002L9.694,7.01c0.018,0.005,0.029,0.021,0.029,0.039C9.723,7.065,9.712,7.082,9.693,7.088
							L9.693,7.088z"/>
						<path class="st30" d="M9.706,7.086h0.512c0.017,0,0.031,0.011,0.031,0.023c0,0.013-0.014,0.024-0.031,0.024H9.706
							c-0.017,0-0.031-0.01-0.031-0.024C9.675,7.096,9.689,7.086,9.706,7.086z"/>
						<path class="st30" d="M9.706,6.971h0.512c0.017,0,0.032,0.009,0.032,0.02c0,0.011-0.014,0.02-0.032,0.02H9.706
							c-0.017,0-0.031-0.009-0.031-0.02C9.675,6.98,9.689,6.971,9.706,6.971z"/>
					</g>
				</g>
			</g>
			<g id="ribbon_right" transform="matrix(-1,0,0,1,500.57,0)">
				<g id="ribbon_left_00000168086334531542689410000005228132764747454375_">
					<path class="st32" d="M10.368,8.959c0.069,0.039,0.117,0.079,0.109,0.099C10.473,9.076,10.451,9.09,10.42,9.11
						c-0.05,0.034-0.08,0.094-0.056,0.122c-0.041-0.032-0.067-0.081-0.067-0.135C10.296,9.042,10.324,8.991,10.368,8.959z"/>
					<path class="st33" d="M9.205,8.054C9.314,8.01,9.499,7.978,9.711,7.971C9.784,7.971,9.865,7.978,9.95,7.992
						c0.298,0.049,0.525,0.165,0.507,0.26c0,0.002-0.001,0.006-0.002,0.008c0,0,0.112-0.246,0.113-0.256
						c0.02-0.105-0.232-0.235-0.563-0.289C9.902,7.698,9.801,7.692,9.713,7.693c-0.212,0-0.396,0.027-0.507,0.067L9.205,8.054"/>
					<path class="st32" d="M10.214,8.354c0.138-0.01,0.232-0.046,0.243-0.102c0.009-0.045-0.038-0.095-0.122-0.14
						c-0.037,0.004-0.079,0.009-0.123,0.009L10.214,8.354"/>
					<path class="st32" d="M9.713,8.171C9.627,8.184,9.562,8.205,9.53,8.231L9.527,8.236c-0.015,0.031,0.06,0.097,0.187,0.17
						L9.713,8.171"/>
					<path class="st33" d="M10.523,8.815c0.013-0.038-0.122-0.116-0.312-0.184C10.124,8.6,10.052,8.569,9.963,8.53
						c-0.265-0.115-0.46-0.246-0.436-0.294L9.53,8.231C9.516,8.243,9.493,8.479,9.493,8.479C9.47,8.522,9.648,8.652,9.892,8.766
						c0.078,0.037,0.243,0.096,0.32,0.123c0.139,0.047,0.277,0.136,0.265,0.169L10.523,8.815L10.523,8.815L10.523,8.815z"/>
				</g>
			</g>
			<g id="plus_ultra">
				<path class="st4" d="M5.104,7.939c0.061-0.022,0.101-0.047,0.082-0.094C5.173,7.815,5.141,7.81,5.094,7.826l-0.083,0.03
					l0.075,0.181c0.008-0.004,0.017-0.007,0.025-0.01c0.009-0.003,0.017-0.005,0.026-0.008L5.104,7.939L5.104,7.939L5.104,7.939z
					 M5.067,7.852l0.021-0.007c0.017-0.006,0.037,0.003,0.046,0.024c0.006,0.016,0.005,0.034-0.015,0.046
					c-0.006,0.004-0.014,0.007-0.021,0.01L5.067,7.852"/>
				<path class="st4" d="M5.299,7.777C5.29,7.779,5.281,7.781,5.272,7.783C5.263,7.785,5.254,7.786,5.245,7.787l0.043,0.188
					l0.134-0.026C5.421,7.945,5.419,7.941,5.418,7.937C5.418,7.933,5.418,7.929,5.417,7.925c-0.024,0.007-0.049,0.014-0.08,0.02
					L5.299,7.777"/>
				<path class="st4" d="M5.568,7.939c0.025-0.068,0.056-0.134,0.086-0.2C5.648,7.74,5.643,7.741,5.637,7.741
					c-0.006,0-0.011,0-0.017,0C5.605,7.789,5.585,7.837,5.564,7.885C5.538,7.84,5.51,7.795,5.489,7.75
					c-0.01,0.001-0.021,0.003-0.032,0.004c-0.01,0.001-0.021,0-0.032,0.001c0.039,0.062,0.076,0.123,0.112,0.187
					c0.005-0.001,0.01-0.002,0.015-0.002C5.557,7.938,5.563,7.939,5.568,7.939"/>
				<path class="st4" d="M5.849,7.794c0.005-0.009,0.01-0.018,0.015-0.027C5.856,7.761,5.834,7.751,5.808,7.748
					c-0.055-0.005-0.086,0.018-0.09,0.051C5.71,7.867,5.82,7.861,5.814,7.906C5.812,7.925,5.791,7.933,5.769,7.931
					C5.744,7.929,5.726,7.915,5.723,7.895L5.716,7.895C5.712,7.906,5.707,7.918,5.701,7.929c0.016,0.01,0.037,0.016,0.057,0.018
					c0.056,0.006,0.099-0.016,0.103-0.052C5.868,7.83,5.757,7.827,5.762,7.789c0.002-0.016,0.014-0.026,0.043-0.024
					c0.021,0.002,0.033,0.013,0.039,0.029L5.849,7.794"/>
				<path class="st4" d="M9.516,7.949c0.019-0.07,0.043-0.137,0.067-0.206C9.578,7.745,9.572,7.746,9.567,7.747
					C9.562,7.747,9.556,7.748,9.55,7.748C9.539,7.797,9.523,7.847,9.507,7.896C9.477,7.853,9.445,7.811,9.42,7.767
					c-0.01,0.002-0.021,0.004-0.031,0.006S9.367,7.775,9.357,7.777c0.044,0.058,0.087,0.117,0.129,0.177
					C9.49,7.953,9.495,7.951,9.501,7.95C9.506,7.95,9.511,7.95,9.516,7.949"/>
				<path class="st4" d="M9.705,7.745c-0.009,0-0.018,0.001-0.027,0.001c-0.009,0-0.018-0.001-0.027-0.002L9.647,7.936l0.138,0.002
					C9.784,7.935,9.783,7.93,9.783,7.926c0-0.004,0.001-0.008,0.002-0.012C9.761,7.916,9.734,7.917,9.702,7.917L9.705,7.745"/>
				<path class="st4" d="M9.921,7.776c0.022,0.002,0.043,0.006,0.064,0.009c0-0.004-0.001-0.008-0.001-0.012
					c0-0.004,0.002-0.008,0.003-0.012L9.802,7.747c0,0.004,0.001,0.008,0.001,0.012c0,0.004-0.002,0.008-0.003,0.012
					C9.819,7.77,9.842,7.77,9.867,7.772L9.851,7.945c0.009,0,0.018,0,0.027,0.001c0.009,0.001,0.018,0.002,0.027,0.003L9.921,7.776"
					/>
				<path class="st4" d="M9.998,7.966c0.009,0.001,0.018,0.003,0.027,0.004c0.009,0.002,0.017,0.004,0.026,0.007l0.022-0.088
					l0.002,0c0.005,0.012,0.012,0.027,0.015,0.036l0.028,0.067c0.011,0.002,0.022,0.003,0.032,0.005
					c0.011,0.002,0.021,0.005,0.032,0.008l-0.01-0.02c-0.015-0.03-0.03-0.06-0.043-0.091c0.034,0.001,0.061-0.011,0.067-0.038
					c0.005-0.019-0.003-0.033-0.021-0.046c-0.013-0.009-0.039-0.014-0.056-0.018l-0.075-0.016L9.998,7.966 M10.094,7.803
					c0.022,0.005,0.049,0.008,0.049,0.032c0,0.006-0.001,0.011-0.002,0.014c-0.007,0.028-0.029,0.038-0.065,0.027L10.094,7.803"/>
				<path class="st4" d="M10.352,8.024c-0.002,0.021-0.006,0.041-0.01,0.063c0.009,0.004,0.019,0.008,0.028,0.013
					c0.009,0.005,0.017,0.01,0.026,0.016l0.018-0.217c-0.004-0.002-0.008-0.004-0.013-0.006c-0.004-0.002-0.008-0.004-0.011-0.007
					l-0.196,0.122c0.005,0.002,0.011,0.005,0.016,0.007c0.005,0.003,0.01,0.006,0.014,0.008c0.017-0.014,0.034-0.025,0.053-0.039
					L10.352,8.024L10.352,8.024z M10.297,7.974l0.065-0.041l-0.008,0.072L10.297,7.974"/>
			</g>
		</g>
		<g id="crown_crest">
			<path class="st8" d="M7.656,5.482c0.204,0,0.385,0.03,0.503,0.075c0.067,0.03,0.158,0.052,0.258,0.065
				c0.076,0.01,0.148,0.012,0.21,0.007c0.084-0.002,0.205,0.022,0.326,0.074c0.1,0.043,0.184,0.096,0.239,0.147L9.144,5.893
				L9.13,6.012L8.998,6.159L8.932,6.214L8.776,6.336l-0.08,0.006L8.672,6.41L7.663,6.294L6.65,6.41L6.626,6.343l-0.08-0.006
				L6.39,6.214L6.324,6.159L6.192,6.012L6.179,5.893L6.13,5.851C6.186,5.8,6.269,5.747,6.369,5.704
				c0.121-0.052,0.242-0.076,0.326-0.074c0.063,0.004,0.134,0.003,0.21-0.007c0.099-0.013,0.19-0.035,0.258-0.065
				C7.281,5.511,7.452,5.482,7.656,5.482L7.656,5.482z"/>
			<g>
				<path class="st30" d="M6.91,5.743l0.042,0.033l0.064-0.102C6.948,5.633,6.9,5.561,6.9,5.479c0-0.009,0.001-0.018,0.002-0.027
					c0.006-0.13,0.169-0.238,0.374-0.238c0.107,0,0.203,0.029,0.271,0.074c0.002-0.02,0.004-0.037,0.006-0.056
					C7.479,5.19,7.382,5.164,7.276,5.164c-0.236,0-0.421,0.132-0.43,0.287C6.845,5.46,6.844,5.469,6.844,5.479
					c0,0.083,0.039,0.158,0.1,0.21L6.91,5.743"/>
				<path class="st30" d="M6.913,5.744C6.833,5.685,6.782,5.605,6.782,5.516c0-0.101,0.068-0.192,0.171-0.252
					C6.89,5.314,6.851,5.379,6.846,5.451C6.845,5.46,6.844,5.469,6.844,5.479c0,0.083,0.039,0.158,0.1,0.21L6.913,5.744"/>
				<path class="st30" d="M6.201,5.847C6.156,5.797,6.128,5.733,6.128,5.663c0-0.042,0.01-0.082,0.028-0.119
					c0.065-0.131,0.27-0.227,0.514-0.227c0.066,0,0.13,0.007,0.188,0.02C6.845,5.351,6.835,5.367,6.825,5.382
					C6.776,5.373,6.724,5.368,6.67,5.368c-0.223,0-0.41,0.085-0.464,0.199C6.192,5.596,6.184,5.629,6.184,5.663
					c0,0.07,0.033,0.132,0.086,0.175L6.189,5.967L6.146,5.933L6.201,5.847L6.201,5.847z"/>
				<path class="st30" d="M6.284,5.414c-0.059,0.036-0.103,0.081-0.128,0.13C6.138,5.581,6.128,5.621,6.128,5.663
					c0,0.07,0.028,0.134,0.073,0.184L6.152,5.924C6.105,5.866,6.078,5.797,6.078,5.723C6.078,5.597,6.16,5.487,6.284,5.414
					L6.284,5.414z"/>
				<path class="st30" d="M7.668,5.138c0.054,0,0.101,0.035,0.112,0.082c0.007,0.041,0.012,0.089,0.013,0.139
					c0,0.005,0,0.011,0,0.016c0,0.006,0.001,0.012,0.002,0.018C7.795,5.498,7.81,5.591,7.832,5.648L7.668,5.802L7.501,5.648
					c0.022-0.057,0.037-0.15,0.04-0.256c0-0.006,0.001-0.012,0.001-0.018c0-0.005,0-0.01,0-0.016
					c0.001-0.05,0.006-0.097,0.013-0.139C7.565,5.173,7.614,5.138,7.668,5.138L7.668,5.138z"/>
				<path class="st30" d="M7.668,5.188c0.028,0,0.052,0.017,0.057,0.042c0.007,0.039,0.011,0.084,0.012,0.131
					c0,0.005,0,0.01,0,0.014c0,0.006,0.001,0.012,0.001,0.018c0.002,0.1,0.016,0.188,0.037,0.241L7.667,5.735L7.558,5.635
					c0.021-0.054,0.035-0.142,0.037-0.241c0-0.006,0.001-0.012,0.001-0.018c0-0.005,0-0.01,0-0.014
					C7.597,5.314,7.602,5.269,7.609,5.23C7.614,5.206,7.64,5.188,7.668,5.188z"/>
				<path class="st30" d="M8.424,5.743L8.382,5.776L8.318,5.674c0.069-0.041,0.117-0.113,0.117-0.195
					c0-0.009-0.001-0.018-0.002-0.027c-0.006-0.13-0.169-0.238-0.374-0.238c-0.107,0-0.203,0.029-0.271,0.074
					c-0.002-0.02-0.004-0.037-0.007-0.056C7.856,5.19,7.952,5.164,8.059,5.164c0.236,0,0.421,0.132,0.43,0.287
					C8.49,5.46,8.49,5.469,8.49,5.479c0,0.083-0.039,0.158-0.1,0.21L8.424,5.743"/>
				<path class="st30" d="M8.421,5.744c0.081-0.059,0.131-0.139,0.131-0.227c0-0.101-0.068-0.192-0.171-0.252
					c0.063,0.05,0.102,0.115,0.108,0.187C8.49,5.46,8.49,5.469,8.49,5.479c0,0.083-0.039,0.158-0.1,0.21L8.421,5.744"/>
				<path class="st30" d="M9.133,5.847c0.045-0.049,0.073-0.114,0.073-0.184c0-0.042-0.01-0.082-0.028-0.119
					c-0.066-0.131-0.27-0.227-0.514-0.227c-0.066,0-0.13,0.007-0.189,0.02c0.013,0.014,0.023,0.029,0.033,0.044
					C8.558,5.373,8.61,5.368,8.665,5.368c0.223,0,0.409,0.085,0.463,0.199C9.142,5.596,9.15,5.629,9.15,5.663
					c0,0.07-0.033,0.132-0.086,0.175l0.081,0.129l0.044-0.034L9.133,5.847z"/>
				<path class="st30" d="M9.051,5.414c0.059,0.036,0.103,0.081,0.128,0.13c0.018,0.036,0.028,0.076,0.028,0.119
					c0,0.07-0.028,0.134-0.073,0.184l0.049,0.078c0.047-0.059,0.074-0.128,0.074-0.201C9.256,5.597,9.175,5.487,9.051,5.414
					L9.051,5.414z"/>
				<ellipse class="st38" cx="7.668" cy="5.019" rx="0.136" ry="0.126"/>
				<path class="st3" d="M7.633,4.666v0.068H7.558v0.069h0.074v0.095v0.104H7.539C7.538,5.008,7.532,5.012,7.532,5.019
					c0,0.017,0.004,0.034,0.011,0.049c0,0.001,0.001,0.001,0.001,0.001h0.249c0,0,0.001,0,0.001-0.001
					c0.007-0.015,0.011-0.032,0.011-0.049c0-0.007-0.006-0.011-0.007-0.018H7.707V4.898V4.803h0.074V4.734H7.707V4.666L7.633,4.666
					L7.633,4.666z"/>
			</g>
			<g>
				<ellipse class="st39" cx="7.668" cy="5.668" rx="0.059" ry="0.054"/>
				<ellipse class="st39" cx="7.668" cy="5.562" rx="0.059" ry="0.054"/>
				<ellipse class="st39" cx="7.668" cy="5.448" rx="0.047" ry="0.043"/>
				<ellipse class="st39" cx="7.668" cy="5.345" rx="0.034" ry="0.031"/>
				<ellipse class="st39" cx="7.668" cy="5.255" rx="0.027" ry="0.025"/>
				<ellipse class="st39" cx="6.101" cy="5.96" rx="0.034" ry="0.031"/>
				<ellipse class="st39" cx="6.055" cy="5.881" rx="0.034" ry="0.031"/>
				<ellipse class="st39" cx="6.024" cy="5.788" rx="0.034" ry="0.031"/>
				<ellipse class="st39" cx="6.02" cy="5.689" rx="0.034" ry="0.031"/>
				<ellipse class="st39" cx="6.045" cy="5.592" rx="0.034" ry="0.031"/>
				<ellipse class="st39" cx="6.097" cy="5.503" rx="0.034" ry="0.031"/>
				<ellipse class="st39" cx="6.166" cy="5.431" rx="0.034" ry="0.031"/>
				<ellipse class="st39" cx="6.246" cy="5.37" rx="0.034" ry="0.031"/>
				<ellipse class="st39" cx="6.342" cy="5.321" rx="0.034" ry="0.031"/>
				<ellipse class="st39" cx="6.441" cy="5.286" rx="0.034" ry="0.031"/>
				<ellipse class="st39" cx="6.552" cy="5.266" rx="0.034" ry="0.031"/>
				<ellipse class="st39" cx="6.658" cy="5.261" rx="0.034" ry="0.031"/>
				<ellipse class="st39" cx="6.761" cy="5.264" rx="0.034" ry="0.031"/>
				<ellipse class="st39" cx="6.876" cy="5.71" rx="0.034" ry="0.031"/>
				<ellipse class="st39" cx="6.818" cy="5.629" rx="0.034" ry="0.031"/>
				<ellipse class="st39" cx="6.788" cy="5.543" rx="0.034" ry="0.031"/>
				<ellipse class="st39" cx="6.792" cy="5.447" rx="0.034" ry="0.031"/>
				<ellipse class="st39" cx="6.813" cy="5.351" rx="0.034" ry="0.031"/>
				<ellipse class="st39" cx="6.864" cy="5.264" rx="0.034" ry="0.031"/>
				<ellipse class="st39" cx="6.943" cy="5.204" rx="0.034" ry="0.031"/>
				<ellipse class="st39" cx="7.035" cy="5.154" rx="0.034" ry="0.031"/>
				<ellipse class="st39" cx="7.136" cy="5.125" rx="0.034" ry="0.031"/>
				<ellipse class="st39" cx="7.241" cy="5.107" rx="0.034" ry="0.031"/>
				<ellipse class="st39" cx="7.345" cy="5.108" rx="0.034" ry="0.031"/>
				<ellipse class="st39" cx="7.452" cy="5.126" rx="0.034" ry="0.031"/>
				<ellipse class="st39" cx="7.551" cy="5.16" rx="0.034" ry="0.031"/>
				<ellipse class="st39" cx="7.783" cy="5.16" rx="0.034" ry="0.031"/>
				<ellipse class="st39" cx="7.883" cy="5.126" rx="0.034" ry="0.031"/>
				<ellipse class="st39" cx="7.99" cy="5.108" rx="0.034" ry="0.031"/>
				<ellipse class="st39" cx="8.093" cy="5.107" rx="0.034" ry="0.031"/>
				<ellipse class="st39" cx="8.198" cy="5.125" rx="0.034" ry="0.031"/>
				<ellipse class="st39" cx="8.3" cy="5.154" rx="0.034" ry="0.031"/>
				<ellipse class="st39" cx="8.392" cy="5.204" rx="0.034" ry="0.031"/>
				<ellipse class="st39" cx="8.47" cy="5.264" rx="0.034" ry="0.031"/>
				<ellipse class="st39" cx="8.522" cy="5.351" rx="0.034" ry="0.031"/>
				<ellipse class="st39" cx="8.543" cy="5.447" rx="0.034" ry="0.031"/>
				<ellipse class="st39" cx="8.546" cy="5.543" rx="0.034" ry="0.031"/>
				<ellipse class="st39" cx="8.516" cy="5.629" rx="0.034" ry="0.031"/>
				<ellipse class="st39" cx="8.459" cy="5.71" rx="0.034" ry="0.031"/>
				<ellipse class="st39" cx="8.573" cy="5.264" rx="0.034" ry="0.031"/>
				<ellipse class="st39" cx="8.677" cy="5.261" rx="0.034" ry="0.031"/>
				<ellipse class="st39" cx="8.782" cy="5.266" rx="0.034" ry="0.031"/>
				<ellipse class="st39" cx="8.893" cy="5.286" rx="0.034" ry="0.031"/>
				<ellipse class="st39" cx="8.993" cy="5.321" rx="0.034" ry="0.031"/>
				<ellipse class="st39" cx="9.088" cy="5.37" rx="0.034" ry="0.031"/>
				<ellipse class="st39" cx="9.168" cy="5.431" rx="0.034" ry="0.031"/>
				<ellipse class="st39" cx="9.237" cy="5.503" rx="0.034" ry="0.031"/>
				<ellipse class="st39" cx="9.289" cy="5.592" rx="0.034" ry="0.031"/>
				<ellipse class="st39" cx="9.314" cy="5.689" rx="0.034" ry="0.031"/>
				<ellipse class="st39" cx="9.31" cy="5.788" rx="0.034" ry="0.031"/>
				<ellipse class="st39" cx="9.28" cy="5.881" rx="0.034" ry="0.031"/>
				<ellipse class="st39" cx="9.234" cy="5.96" rx="0.034" ry="0.031"/>
			</g>
			<g>
				<path class="st30" d="M7.671,6.785C7.295,6.785,6.958,6.741,6.718,6.67C6.7,6.665,6.691,6.649,6.692,6.633
					c0-0.016,0.009-0.03,0.026-0.035c0.24-0.071,0.577-0.114,0.953-0.115c0.376,0.001,0.713,0.044,0.953,0.115
					C8.642,6.603,8.65,6.617,8.65,6.633C8.651,6.649,8.642,6.665,8.625,6.67C8.384,6.741,8.048,6.785,7.671,6.785"/>
				<path class="st30" d="M7.669,6.483C7.288,6.484,6.947,6.53,6.706,6.603c0.02-0.009,0.018-0.034-0.007-0.096
					c-0.03-0.076-0.077-0.073-0.077-0.073C6.888,6.357,7.258,6.309,7.67,6.309c0.412,0.001,0.785,0.049,1.051,0.125
					c0,0-0.047-0.003-0.077,0.073C8.619,6.569,8.618,6.593,8.638,6.603C8.397,6.53,8.049,6.484,7.669,6.483"/>
				<path class="st30" d="M7.67,6.309C7.258,6.31,6.888,6.358,6.623,6.434C6.605,6.439,6.586,6.433,6.58,6.416
					C6.575,6.4,6.584,6.381,6.602,6.376c0.267-0.08,0.646-0.13,1.068-0.131c0.422,0.001,0.803,0.051,1.07,0.131
					C8.758,6.381,8.768,6.4,8.762,6.416C8.756,6.433,8.738,6.439,8.72,6.434C8.454,6.358,8.083,6.31,7.67,6.309"/>
				<path class="st30" d="M7.673,5.993L7.711,6C7.705,6.015,7.703,6.031,7.703,6.049c0,0.077,0.068,0.139,0.151,0.139
					c0.067,0,0.124-0.041,0.143-0.096C8,6.094,8.012,6.042,8.018,6.042c0.005,0.001,0.005,0.054,0.007,0.053
					c0.01,0.07,0.075,0.118,0.149,0.118c0.083,0,0.151-0.062,0.151-0.14c0-0.006,0-0.011-0.001-0.017l0.047-0.046l0.025,0.058
					C8.386,6.088,8.382,6.108,8.382,6.13c0,0.074,0.064,0.133,0.144,0.133c0.05,0,0.094-0.023,0.12-0.059l0.03-0.037l0,0.046
					c0,0.047,0.02,0.088,0.066,0.095c0,0,0.053,0.003,0.124-0.051c0.07-0.054,0.109-0.099,0.109-0.099L8.98,6.212
					c0,0-0.058,0.089-0.122,0.124c-0.035,0.02-0.088,0.041-0.13,0.034C8.685,6.364,8.653,6.329,8.637,6.289
					C8.605,6.307,8.568,6.318,8.528,6.318c-0.086,0-0.163-0.046-0.194-0.116c-0.04,0.042-0.095,0.068-0.159,0.068
					c-0.069,0-0.132-0.03-0.171-0.077c-0.039,0.035-0.091,0.056-0.15,0.056c-0.076,0-0.144-0.037-0.182-0.091
					C7.634,6.212,7.566,6.249,7.49,6.249c-0.058,0-0.111-0.021-0.149-0.056C7.301,6.239,7.238,6.269,7.169,6.269
					c-0.065,0-0.12-0.026-0.159-0.068c-0.031,0.07-0.108,0.116-0.194,0.116c-0.04,0-0.077-0.011-0.109-0.029
					c-0.017,0.04-0.048,0.075-0.093,0.082C6.573,6.377,6.52,6.357,6.485,6.337C6.422,6.301,6.363,6.212,6.363,6.212l0.006-0.054
					c0,0,0.039,0.045,0.109,0.099c0.07,0.054,0.123,0.051,0.123,0.051c0.046-0.008,0.066-0.049,0.066-0.095l0-0.046l0.03,0.037
					c0.026,0.036,0.07,0.059,0.12,0.059c0.079,0,0.144-0.059,0.144-0.133c0-0.022-0.004-0.043-0.014-0.061l0.025-0.058L7.02,6.057
					C7.02,6.062,7.019,6.068,7.019,6.074c0,0.077,0.067,0.14,0.151,0.14c0.074,0,0.14-0.048,0.15-0.118
					c0.002,0.001,0.002-0.053,0.007-0.053c0.006-0.001,0.018,0.051,0.021,0.05c0.02,0.056,0.076,0.096,0.144,0.096
					c0.083,0,0.151-0.062,0.151-0.139C7.641,6.031,7.64,6.015,7.633,6L7.673,5.993"/>
				<path class="st30" d="M6.39,6.19C6.387,6.179,6.379,6.167,6.368,6.158C6.344,6.137,6.312,6.134,6.296,6.15
					C6.293,6.152,6.292,6.155,6.29,6.158c0,0-0.034-0.062-0.074-0.083c-0.04-0.021-0.107-0.016-0.107-0.016
					c0-0.048,0.04-0.087,0.092-0.087c0.03,0,0.059,0.012,0.076,0.033l0.007-0.032c0,0,0.042,0.008,0.061,0.055
					c0.019,0.047-0.002,0.114-0.002,0.114s0.01-0.029,0.026-0.048c0.016-0.019,0.056-0.04,0.076-0.05
					C6.466,6.035,6.488,6.02,6.488,6.02s0.001,0.005,0.002,0.018c0.001,0.015,0,0.025,0,0.025c0.038-0.005,0.082,0.001,0.117,0.014
					c-0.015,0.029-0.043,0.055-0.08,0.069c0,0,0.013,0.011,0.025,0.023c0.01,0.01,0.013,0.015,0.013,0.015S6.539,6.188,6.526,6.19
					C6.513,6.191,6.469,6.198,6.443,6.196C6.424,6.195,6.403,6.192,6.39,6.19"/>
				<path class="st32" d="M6.296,6.15c0.016-0.016,0.048-0.013,0.072,0.007c0.025,0.02,0.031,0.05,0.016,0.066
					C6.368,6.24,6.335,6.236,6.311,6.216C6.287,6.196,6.28,6.166,6.296,6.15"/>
				<path class="st39" d="M6.636,6.177C6.627,6.152,6.635,6.128,6.653,6.122c0.018-0.006,0.04,0.01,0.049,0.035
					c0.009,0.025,0.001,0.049-0.017,0.055C6.667,6.218,6.645,6.202,6.636,6.177"/>
				<path class="st30" d="M6.934,6.056c-0.01-0.008-0.018-0.019-0.021-0.032c-0.002-0.013,0-0.026,0.007-0.037
					c0,0-0.027-0.013-0.056-0.021C6.843,5.96,6.804,5.96,6.792,5.96C6.78,5.959,6.757,5.959,6.757,5.959s0.002,0.005,0.009,0.017
					c0.008,0.014,0.015,0.022,0.015,0.022C6.742,6.007,6.709,6.031,6.688,6.061c0.03,0.02,0.071,0.033,0.11,0.029
					c0,0-0.004,0.01-0.006,0.026C6.79,6.128,6.79,6.134,6.79,6.134s0.022-0.008,0.033-0.012C6.834,6.118,6.87,6.106,6.889,6.093
					C6.913,6.077,6.934,6.056,6.934,6.056"/>
				<path class="st30" d="M6.921,5.749C6.953,5.77,6.982,5.803,6.991,5.84c0,0,0.004-0.008,0.022-0.018
					c0.018-0.01,0.033-0.01,0.033-0.01s-0.005,0.029-0.008,0.04c-0.003,0.01-0.003,0.041-0.01,0.07
					C7.022,5.95,7.01,5.973,7.01,5.973c-0.013-0.01-0.03-0.015-0.048-0.012c-0.018,0.003-0.033,0.013-0.04,0.027
					c0,0-0.02-0.017-0.037-0.041C6.867,5.922,6.855,5.893,6.849,5.884C6.843,5.875,6.827,5.849,6.827,5.849s0.014-0.005,0.035-0.002
					c0.021,0.004,0.027,0.01,0.027,0.01C6.885,5.819,6.898,5.779,6.921,5.749"/>
				<path class="st30" d="M7.022,6.041c0.007-0.01,0.01-0.024,0.007-0.037c-0.002-0.013-0.01-0.024-0.02-0.032
					c0,0,0.021-0.021,0.045-0.038C7.072,5.922,7.109,5.91,7.12,5.906c0.011-0.004,0.033-0.012,0.033-0.012s0,0.005-0.002,0.018
					C7.148,5.928,7.145,5.939,7.145,5.939c0.04-0.004,0.08,0.009,0.111,0.029C7.234,5.997,7.201,6.022,7.162,6.03
					c0,0,0.007,0.008,0.015,0.022c0.006,0.012,0.009,0.017,0.009,0.017S7.163,6.069,7.151,6.068c-0.012,0-0.051,0-0.073-0.006
					C7.049,6.055,7.022,6.042,7.022,6.041"/>
				<ellipse class="st32" cx="6.973" cy="6.013" rx="0.067" ry="0.062"/>
				<path class="st39" d="M7.291,6.053C7.288,6.027,7.301,6.004,7.32,6.002C7.339,6,7.358,6.019,7.361,6.045
					c0.003,0.026-0.009,0.049-0.029,0.051C7.313,6.098,7.295,6.079,7.291,6.053"/>
				<path class="st30" d="M7.621,5.995c-0.01-0.011-0.016-0.025-0.016-0.04c0-0.015,0.006-0.029,0.016-0.04
					c0,0-0.027-0.02-0.058-0.034c-0.024-0.01-0.067-0.018-0.08-0.02C7.469,5.859,7.443,5.854,7.443,5.854s0.001,0.006,0.006,0.02
					c0.006,0.017,0.012,0.028,0.012,0.028C7.416,5.905,7.374,5.927,7.345,5.955c0.029,0.028,0.072,0.05,0.117,0.052
					c0,0-0.006,0.011-0.012,0.028c-0.005,0.014-0.006,0.02-0.006,0.02s0.026-0.005,0.039-0.007c0.013-0.002,0.056-0.01,0.08-0.02
					C7.593,6.015,7.621,5.995,7.621,5.995"/>
				<path class="st30" d="M7.67,5.651c0.032,0.028,0.057,0.071,0.06,0.115c0,0,0.006-0.008,0.028-0.016
					C7.78,5.742,7.797,5.745,7.797,5.745S7.785,5.776,7.78,5.787C7.775,5.798,7.768,5.833,7.754,5.863
					c-0.013,0.03-0.032,0.053-0.032,0.053C7.71,5.903,7.692,5.893,7.671,5.893c-0.021,0-0.039,0.009-0.051,0.023
					c0,0-0.019-0.023-0.032-0.053c-0.014-0.03-0.021-0.065-0.026-0.076S7.545,5.745,7.545,5.745S7.562,5.742,7.584,5.75
					c0.022,0.008,0.028,0.016,0.028,0.016C7.615,5.722,7.638,5.679,7.67,5.651"/>
				<path class="st30" d="M7.721,5.995c0.01-0.011,0.016-0.025,0.016-0.04c0-0.015-0.006-0.029-0.016-0.04
					c0,0,0.027-0.02,0.058-0.034c0.023-0.01,0.067-0.018,0.08-0.02c0.013-0.002,0.039-0.007,0.039-0.007S7.897,5.86,7.892,5.875
					C7.886,5.891,7.88,5.902,7.88,5.902c0.045,0.002,0.088,0.024,0.117,0.053C7.968,5.983,7.925,6.005,7.88,6.008
					c0,0,0.006,0.011,0.012,0.028c0.005,0.014,0.006,0.02,0.006,0.02L7.859,6.049c-0.013-0.002-0.056-0.01-0.08-0.02
					C7.749,6.015,7.721,5.995,7.721,5.995"/>
				<ellipse class="st32" cx="7.671" cy="5.955" rx="0.067" ry="0.062"/>
				<path class="st39" d="M8.052,6.053c0.003-0.026-0.009-0.049-0.029-0.051C8.005,6,7.986,6.019,7.983,6.045
					c-0.003,0.026,0.01,0.049,0.029,0.051C8.031,6.098,8.049,6.079,8.052,6.053"/>
				<path class="st30" d="M8.322,6.041c-0.007-0.01-0.01-0.024-0.008-0.037c0.003-0.013,0.01-0.024,0.021-0.032
					c0,0-0.021-0.021-0.045-0.038C8.271,5.922,8.235,5.91,8.224,5.906C8.213,5.902,8.191,5.894,8.191,5.894s0,0.005,0.002,0.018
					c0.002,0.016,0.006,0.026,0.006,0.026c-0.04-0.004-0.08,0.009-0.11,0.029C8.109,5.997,8.143,6.022,8.182,6.03
					c0,0-0.007,0.008-0.015,0.022C8.16,6.064,8.158,6.069,8.158,6.069l0.035-0.001c0.012,0,0.051,0,0.073-0.006
					C8.295,6.055,8.322,6.042,8.322,6.041"/>
				<path class="st30" d="M8.423,5.749C8.391,5.77,8.362,5.803,8.352,5.84c0,0-0.004-0.008-0.022-0.018
					c-0.018-0.01-0.033-0.01-0.033-0.01s0.005,0.029,0.008,0.04c0.003,0.01,0.003,0.041,0.01,0.07c0.007,0.028,0.02,0.05,0.02,0.05
					c0.013-0.01,0.03-0.015,0.048-0.012c0.018,0.003,0.033,0.013,0.041,0.027c0,0,0.02-0.017,0.037-0.041
					c0.017-0.024,0.028-0.053,0.034-0.062c0.006-0.009,0.022-0.034,0.022-0.034S8.502,5.844,8.482,5.848
					c-0.021,0.004-0.027,0.01-0.027,0.01C8.459,5.819,8.446,5.779,8.423,5.749"/>
				<path class="st30" d="M8.409,6.056C8.42,6.048,8.428,6.037,8.43,6.023c0.003-0.013,0-0.026-0.007-0.037
					c0,0,0.027-0.013,0.056-0.021C8.501,5.96,8.54,5.96,8.552,5.96c0.012-0.001,0.035-0.001,0.035-0.001S8.585,5.964,8.578,5.975
					C8.57,5.989,8.563,5.998,8.563,5.998c0.039,0.009,0.072,0.034,0.093,0.063c-0.03,0.02-0.071,0.033-0.11,0.029
					c0,0,0.003,0.01,0.006,0.026c0.002,0.013,0.002,0.018,0.002,0.018S8.532,6.126,8.521,6.122C8.51,6.118,8.474,6.106,8.455,6.093
					C8.431,6.077,8.409,6.056,8.409,6.056"/>
				<ellipse class="st32" cx="8.371" cy="6.013" rx="0.067" ry="0.062"/>
				<path class="st39" d="M8.708,6.177c0.009-0.025,0.001-0.049-0.017-0.055c-0.018-0.006-0.04,0.01-0.049,0.035
					C8.633,6.182,8.64,6.207,8.659,6.212C8.677,6.218,8.699,6.202,8.708,6.177"/>
				<path class="st30" d="M8.954,6.19c0.003-0.011,0.011-0.022,0.022-0.032C9,6.137,9.033,6.134,9.048,6.15
					C9.05,6.152,9.052,6.155,9.054,6.158c0,0,0.034-0.062,0.074-0.083s0.107-0.016,0.107-0.016c0-0.048-0.04-0.087-0.092-0.087
					c-0.03,0-0.059,0.012-0.076,0.033L9.06,5.973c0,0-0.042,0.008-0.061,0.055C8.98,6.074,9.001,6.142,9.001,6.142
					s-0.01-0.029-0.026-0.048c-0.016-0.019-0.056-0.04-0.076-0.05C8.878,6.035,8.857,6.02,8.857,6.02S8.856,6.026,8.855,6.038
					C8.854,6.054,8.855,6.063,8.855,6.063C8.817,6.058,8.773,6.065,8.738,6.078c0.015,0.029,0.043,0.055,0.08,0.069
					c0,0-0.013,0.011-0.025,0.023c-0.01,0.01-0.013,0.015-0.013,0.015S8.805,6.188,8.818,6.19C8.831,6.191,8.875,6.198,8.9,6.196
					C8.92,6.195,8.941,6.192,8.954,6.19"/>
				<path class="st32" d="M9.048,6.15C9.033,6.134,9,6.137,8.976,6.158c-0.024,0.02-0.031,0.05-0.016,0.066
					C8.976,6.24,9.008,6.236,9.033,6.216C9.057,6.196,9.064,6.166,9.048,6.15"/>
			</g>
			<g>
				<path class="st33" d="M7.67,6.737c-0.339,0-0.646-0.039-0.88-0.098c0.233-0.059,0.54-0.095,0.88-0.096
					C8.01,6.544,8.318,6.58,8.552,6.639C8.318,6.698,8.01,6.737,7.67,6.737L7.67,6.737z"/>
				<path class="st15" d="M7.913,6.728v-0.18 M7.821,6.734l0.001-0.191 M7.753,6.737V6.542"/>
				<path class="st19" d="M7.696,6.739V6.542"/>
				<path class="st24" d="M7.641,6.739V6.542"/>
				<path class="st26" d="M7.589,6.739V6.542"/>
				<path class="st40" d="M7.538,6.739V6.542"/>
				<path class="st41" d="M7.492,6.739V6.542"/>
				<path class="st42" d="M7.405,6.728L7.404,6.549 M7.447,6.731V6.543"/>
				<path class="st43" d="M7.325,6.72V6.555 M7.366,6.725L7.365,6.549"/>
				<path class="st44" d="M7.217,6.711V6.566 M7.253,6.713V6.561 M7.289,6.718V6.56"/>
				<path class="st45" d="M7.18,6.71v-0.14"/>
				<path class="st46" d="M7.144,6.703V6.572"/>
				<path class="st47" d="M7.107,6.699V6.577"/>
				<path class="st48" d="M7.029,6.688L7.028,6.592 M7.069,6.693V6.585"/>
				<path class="st49" d="M6.99,6.68V6.595"/>
				<path class="st50" d="M6.953,6.674V6.603"/>
				<path class="st51" d="M6.914,6.664V6.608"/>
				<path class="st52" d="M6.873,6.659V6.618"/>
				<path class="st53" d="M6.83,6.65V6.63"/>
				<path class="st31" d="M6.75,6.65c0.238-0.065,0.561-0.106,0.92-0.106C8.03,6.544,8.355,6.584,8.592,6.65"/>
				<path class="st32" d="M6.646,6.515l0.037-0.048L6.787,6.48L6.704,6.539L6.646,6.515"/>
				<path class="st39" d="M6.87,6.458c0-0.017,0.015-0.031,0.034-0.031s0.034,0.014,0.034,0.031c0,0.017-0.015,0.031-0.034,0.031
					S6.87,6.475,6.87,6.458"/>
				<path class="st54" d="M7.165,6.452L7.093,6.46C7.074,6.462,7.057,6.45,7.055,6.433C7.052,6.416,7.065,6.401,7.084,6.399
					L7.157,6.39l0.074-0.008c0.018-0.002,0.035,0.01,0.037,0.027C7.27,6.426,7.257,6.442,7.239,6.444L7.165,6.452"/>
				<path class="st39" d="M7.377,6.401c0-0.017,0.015-0.031,0.034-0.031c0.018,0,0.034,0.014,0.034,0.031
					c0,0.017-0.015,0.031-0.034,0.031C7.392,6.432,7.377,6.418,7.377,6.401"/>
				<path class="st32" d="M7.671,6.425H7.57c-0.018,0-0.034-0.014-0.034-0.031c0-0.017,0.015-0.031,0.034-0.031h0.204
					c0.019,0,0.034,0.014,0.034,0.031c0,0.017-0.016,0.031-0.034,0.031H7.671"/>
				<path class="st39" d="M7.899,6.401c0-0.017,0.015-0.031,0.034-0.031c0.019,0,0.034,0.014,0.034,0.031
					c0,0.017-0.015,0.031-0.034,0.031C7.914,6.432,7.899,6.418,7.899,6.401"/>
				<path class="st54" d="M8.178,6.452L8.25,6.46c0.018,0.002,0.036-0.01,0.038-0.027C8.29,6.416,8.277,6.401,8.259,6.399
					L8.186,6.39L8.112,6.382C8.093,6.38,8.076,6.392,8.074,6.409C8.072,6.426,8.085,6.442,8.104,6.444L8.178,6.452"/>
				<path class="st39" d="M8.405,6.458c0-0.017,0.015-0.031,0.034-0.031s0.034,0.014,0.034,0.031c0,0.017-0.015,0.031-0.034,0.031
					S8.405,6.475,8.405,6.458"/>
				<path class="st32" d="M8.696,6.515L8.659,6.467L8.556,6.48l0.082,0.059L8.696,6.515"/>
			</g>
		</g>
		<g id="shield">
			<g id="Granada">
				<path class="st55" d="M7.682,10.33c-0.401,0-0.799-0.096-1.133-0.256c-0.246-0.119-0.41-0.36-0.41-0.636V8.439h3.08v0.999
					c0,0.276-0.163,0.516-0.41,0.636C8.474,10.234,8.083,10.33,7.682,10.33L7.682,10.33z"/>
				<path class="st56" d="M7.756,9.886c0.064,0.019,0.097,0.066,0.097,0.12c0,0.071-0.071,0.125-0.163,0.125
					c-0.092,0-0.166-0.054-0.166-0.125c0-0.054,0.031-0.114,0.094-0.118c0,0-0.002-0.006-0.007-0.015
					c-0.007-0.007-0.02-0.02-0.02-0.02S7.615,9.849,7.63,9.854C7.644,9.86,7.653,9.868,7.653,9.868S7.66,9.856,7.669,9.846
					C7.678,9.836,7.691,9.83,7.691,9.83s0.014,0.011,0.019,0.019c0.005,0.008,0.008,0.018,0.008,0.018s0.013-0.01,0.024-0.015
					c0.011-0.005,0.026-0.008,0.026-0.008S7.763,9.858,7.76,9.865C7.757,9.872,7.756,9.886,7.756,9.886"/>
				<path class="st57" d="M7.676,10.21c0,0-0.122-0.08-0.175-0.091c-0.068-0.014-0.144-0.003-0.177-0.004
					c0.001,0.001,0.04,0.028,0.056,0.044c0.017,0.017,0.073,0.049,0.105,0.057C7.585,10.24,7.676,10.21,7.676,10.21"/>
				<path class="st57" d="M7.711,10.217c0,0,0.078-0.08,0.16-0.091c0.097-0.013,0.16,0.008,0.197,0.017
					c0.001,0-0.031,0.015-0.048,0.026c-0.017,0.011-0.06,0.047-0.127,0.048c-0.067,0.001-0.14-0.007-0.152-0.005
					C7.729,10.214,7.711,10.217,7.711,10.217"/>
				<path class="st58" d="M7.688,10.118c-0.031-0.028-0.05-0.068-0.05-0.112c0-0.044,0.019-0.083,0.05-0.111
					c0.03,0.028,0.049,0.068,0.049,0.111C7.738,10.051,7.718,10.09,7.688,10.118"/>
				<path class="st57" d="M7.657,10.281c0,0,0.019-0.046,0.021-0.085c0.002-0.033-0.005-0.065-0.005-0.065h0.016h0.009
					c0,0,0.012,0.035,0.012,0.065c0,0.031-0.006,0.071-0.006,0.071s-0.017,0.002-0.022,0.005
					C7.676,10.275,7.657,10.281,7.657,10.281"/>
			</g>
			<g id="Aragon">
				<path class="st58" d="M7.676,9.437c0,0.395-0.342,0.715-0.768,0.715c-0.426,0-0.771-0.32-0.771-0.715V8.437h1.539V9.437"/>
				<path class="st59" d="M6.134,9.424c0.005,0.211,0.09,0.367,0.176,0.47V8.41H6.136L6.134,9.424L6.134,9.424z"/>
				<path class="st59" d="M6.473,10.027c0.048,0.025,0.114,0.067,0.185,0.083L6.653,8.401h-0.18V10.027z"/>
				<path class="st59" d="M6.817,10.148c0.071,0.007,0.123,0.006,0.18,0V8.401h-0.18V10.148z"/>
				<path class="st59" d="M7.155,10.11c0.071-0.014,0.15-0.057,0.185-0.079v-1.63H7.16L7.155,10.11L7.155,10.11z"/>
				<path class="st59" d="M7.508,9.877c0.075-0.065,0.146-0.214,0.171-0.383l0.004-1.093h-0.18L7.508,9.877z"/>
			</g>
			<g id="Navarre">
				<path class="st58" d="M9.22,8.437v1.001c0,0.395-0.346,0.715-0.772,0.715c-0.426,0-0.772-0.32-0.772-0.715V8.437H9.22"/>
				<path id="chains_half" class="st60" d="M8.363,9.184C8.365,9.18,8.367,9.176,8.369,9.172L8.238,9.03L8.187,9.052L8.093,8.95
					l0.031-0.044L7.96,8.726C7.958,8.727,7.954,8.727,7.952,8.728l0.001,0.121l0.054,0.015v0.134L7.953,9.011L7.952,9.134
					c0.026,0.008,0.045,0.026,0.053,0.05l0.098,0l0.016-0.05h0.145l0.015,0.05L8.363,9.184z M8.149,8.629v0.048h0.085V8.629H8.149z
					 M7.925,9.24c0.02,0,0.036-0.015,0.036-0.033c0-0.018-0.016-0.033-0.036-0.033c-0.02,0-0.036,0.015-0.036,0.033
					C7.889,9.226,7.905,9.24,7.925,9.24z M8.416,8.948L8.362,8.934V8.8l0.054-0.015l0-0.058C8.389,8.72,8.369,8.701,8.36,8.677
					H8.278l-0.016,0.05H8.118l-0.016-0.05H8.008C8.005,8.684,8.002,8.69,7.999,8.696l0.165,0.179l0.051-0.021l0.094,0.102
					L8.278,8.999l0.128,0.139c0.003-0.001,0.006-0.002,0.009-0.004L8.416,8.948z M8.193,8.907l-0.04,0.031l0.054,0.059l0.04-0.031
					L8.193,8.907z M8.439,9.992C8.401,9.99,8.37,9.965,8.362,9.932c-0.051-0.007-0.1-0.02-0.145-0.039L8.242,9.85
					c0.04,0.016,0.082,0.027,0.125,0.033c0.01-0.02,0.026-0.035,0.048-0.042l0-0.169L8.362,9.658V9.524L8.416,9.51V9.28
					C8.414,9.28,8.412,9.279,8.41,9.278L8.288,9.41l0.031,0.043L8.225,9.556L8.174,9.534l-0.101,0.11
					C8.09,9.67,8.089,9.704,8.069,9.73c0.029,0.031,0.062,0.059,0.099,0.083L8.143,9.856C8.099,9.829,8.06,9.796,8.026,9.759
					C8,9.767,7.969,9.762,7.947,9.744c-0.035-0.028-0.04-0.077-0.009-0.109L7.942,9.63c-0.021-0.047-0.036-0.097-0.04-0.15l0.052,0
					c0.004,0.045,0.016,0.088,0.033,0.128c0.015-0.002,0.031,0,0.045,0.005l0.102-0.11L8.103,9.459l0.094-0.102l0.051,0.022
					L8.37,9.246C8.368,9.242,8.366,9.237,8.364,9.232l-0.085,0l-0.015,0.05H8.119l-0.016-0.05l-0.099,0
					C7.996,9.255,7.977,9.273,7.952,9.281l0,0.121l-0.052,0v-0.12c-0.034-0.01-0.059-0.039-0.059-0.074
					c0-0.035,0.025-0.064,0.059-0.074l0-0.122L7.846,8.997V8.863L7.9,8.848V8.727c-0.033-0.011-0.056-0.04-0.056-0.074
					c0-0.043,0.037-0.077,0.084-0.077c0.037,0,0.069,0.022,0.08,0.053h0.095l0.016-0.05h0.144l0.016,0.05H8.36
					c0.011-0.031,0.042-0.053,0.078-0.053l0.002,0.251H8.415v0.078h0.026L8.44,9.553H8.416v0.078H8.44L8.439,9.992z M8.257,9.443
					l-0.04-0.031L8.163,9.471l0.04,0.031L8.257,9.443z M7.952,8.89H7.9l0,0.078h0.052V8.89z M8.233,9.232V9.184H8.145v0.048H8.233z
					 M7.908,9.523L7.854,9.511L7.846,9.378L7.9,9.36v0.077C7.9,9.467,7.903,9.495,7.908,9.523L7.908,9.523z M7.952,9.357L8.006,9.37
					c0,0,0.003,0.086,0.002,0.067C8.006,9.414,8.014,9.503,8.014,9.503L7.96,9.521C7.954,9.494,7.952,9.466,7.952,9.437L7.952,9.357
					z M8.284,9.865l0.012-0.051C8.249,9.8,8.206,9.779,8.168,9.751L8.129,9.785C8.175,9.819,8.227,9.847,8.284,9.865L8.284,9.865z
					 M8.258,9.908l-0.04,0.037C8.173,9.929,8.13,9.907,8.092,9.882l0.012-0.053C8.149,9.862,8.202,9.889,8.258,9.908L8.258,9.908z"
					/>
				<g transform="matrix(-1,0,0,1,550.43,0)">
					<path id="chains_half_00000110444906512320635750000005360529437521614271_" class="st60" d="M8.517,9.184
						C8.515,9.18,8.513,9.176,8.511,9.172L8.642,9.03l0.051,0.022L8.787,8.95L8.756,8.906l0.164-0.18
						c0.002,0.001,0.006,0.001,0.008,0.001L8.927,8.848L8.873,8.863v0.134l0.054,0.014l0.001,0.122
						C8.902,9.142,8.883,9.16,8.875,9.184l-0.098,0l-0.016-0.05H8.616L8.6,9.184L8.517,9.184z M8.731,8.629v0.048H8.646V8.629H8.731
						z M8.955,9.24c-0.02,0-0.036-0.015-0.036-0.033c0-0.018,0.016-0.033,0.036-0.033c0.02,0,0.036,0.015,0.036,0.033
						C8.991,9.226,8.975,9.24,8.955,9.24z M8.464,8.948l0.054-0.014V8.8L8.464,8.785l0-0.058C8.491,8.72,8.511,8.701,8.52,8.677
						h0.082l0.016,0.05h0.144l0.016-0.05h0.095C8.875,8.684,8.877,8.69,8.881,8.696L8.716,8.875L8.665,8.853L8.571,8.955
						l0.031,0.043L8.474,9.138C8.471,9.137,8.468,9.136,8.465,9.134L8.464,8.948z M8.687,8.907l0.04,0.031L8.672,8.997l-0.04-0.031
						L8.687,8.907z M8.441,9.992C8.479,9.99,8.51,9.965,8.518,9.932c0.051-0.007,0.1-0.02,0.145-0.039L8.638,9.85
						c-0.04,0.016-0.082,0.027-0.125,0.033c-0.01-0.02-0.026-0.035-0.048-0.042l0-0.169l0.054-0.015V9.524L8.464,9.51V9.28
						C8.466,9.28,8.468,9.279,8.47,9.278L8.592,9.41L8.561,9.454l0.094,0.102l0.051-0.021l0.101,0.11
						C8.79,9.67,8.791,9.704,8.811,9.73C8.782,9.761,8.749,9.789,8.711,9.812l0.026,0.043c0.044-0.027,0.083-0.06,0.116-0.097
						c0.027,0.008,0.057,0.003,0.08-0.015c0.035-0.028,0.04-0.077,0.009-0.109L8.938,9.63c0.021-0.047,0.036-0.097,0.04-0.15
						l-0.052,0C8.922,9.525,8.911,9.568,8.893,9.608c-0.015-0.002-0.031,0-0.045,0.005l-0.102-0.11l0.031-0.043L8.683,9.357
						L8.632,9.379L8.509,9.246c0.003-0.004,0.005-0.009,0.006-0.014l0.085,0l0.015,0.05h0.145l0.016-0.05l0.099,0
						c0.008,0.023,0.028,0.041,0.052,0.049l0,0.121l0.052,0v-0.12c0.034-0.01,0.059-0.039,0.059-0.074
						c0-0.035-0.025-0.064-0.059-0.074l0-0.122l0.054-0.014V8.863L8.98,8.848V8.727c0.033-0.011,0.056-0.04,0.056-0.074
						c0-0.043-0.037-0.077-0.084-0.077c-0.037,0-0.069,0.022-0.08,0.053H8.777l-0.016-0.05H8.617l-0.016,0.05H8.52
						C8.509,8.598,8.478,8.576,8.441,8.576L8.439,8.827h0.026v0.078H8.439L8.44,9.553h0.024v0.078H8.44L8.441,9.992z M8.623,9.443
						l0.04-0.031l0.055,0.059l-0.04,0.031L8.623,9.443z M8.928,8.89H8.98l0,0.078H8.928V8.89z M8.647,9.232V9.184h0.087v0.048H8.647
						z M8.972,9.523l0.054-0.012l0.008-0.134L8.98,9.36v0.077C8.98,9.467,8.977,9.495,8.972,9.523L8.972,9.523z M8.927,9.357
						L8.874,9.37c0,0-0.003,0.086-0.002,0.067c0.001-0.022-0.006,0.067-0.006,0.067L8.92,9.521c0.006-0.027,0.007-0.055,0.007-0.084
						L8.927,9.357z M8.596,9.865L8.584,9.814C8.631,9.8,8.674,9.779,8.712,9.751L8.75,9.785C8.705,9.819,8.653,9.847,8.596,9.865
						L8.596,9.865z M8.622,9.908l0.04,0.037c0.045-0.016,0.088-0.038,0.126-0.063L8.776,9.829C8.73,9.862,8.678,9.889,8.622,9.908
						L8.622,9.908z"/>
				</g>
				<path class="st61" d="M8.359,9.208c0-0.043,0.038-0.078,0.084-0.078s0.084,0.035,0.084,0.078c0,0.043-0.037,0.077-0.084,0.077
					S8.359,9.251,8.359,9.208"/>
			</g>
			<g id="Castile">
				<path class="st58" d="M6.137,8.438h1.539V6.766H6.137V8.438z"/>
				<path class="st62" d="M6.665,7.152H6.637V7.125h-0.05v0.111h0.05v0.076H6.53v0.222h0.057v0.444H6.474v0.229h0.872V7.977H7.232
					V7.534h0.057V7.312H7.182V7.235h0.05V7.125h-0.05v0.028H7.154V7.125H7.105v0.028H7.069V7.125h-0.05v0.111h0.05v0.076H6.963
					V7.069h0.056V6.958H6.963v0.028H6.934V6.958h-0.05v0.028H6.856V6.958H6.8v0.111h0.057v0.243H6.75V7.235H6.8V7.125H6.75v0.028
					H6.722V7.125H6.665L6.665,7.152L6.665,7.152z M6.474,8.206h0.872 M6.474,8.151h0.872 M6.474,8.095h0.872 M6.474,8.04h0.872
					 M6.474,7.977h0.872 M6.587,7.929h0.645 M6.587,7.873h0.645 M6.587,7.811h0.645 M6.587,7.756h0.645 M6.587,7.7h0.645
					 M6.587,7.645h0.645 M6.587,7.589h0.645 M6.53,7.534h0.758 M6.53,7.478h0.758 M6.53,7.423h0.758 M6.53,7.367h0.758 M6.637,7.312
					h0.546 M6.856,7.256h0.106 M6.856,7.201h0.106 M6.856,7.145h0.106 M6.856,7.09h0.106 M6.8,7.021h0.22 M6.637,7.256H6.75
					 M6.587,7.187H6.8 M6.587,8.206V8.151 M6.587,8.095V8.04 M6.53,8.095v0.056 M6.637,8.151V8.095 M6.693,8.206V8.151 M6.693,8.095
					V8.04 M6.693,7.977V7.929 M6.693,7.873V7.811 M6.637,8.04V7.977 M6.53,8.04V7.977 M6.75,7.977V8.04 M6.8,7.977V7.929
					 M6.637,7.873v0.056 M6.75,7.873v0.056 M6.856,7.873v0.056 M6.8,7.873V7.811 M6.856,7.756v0.055 M6.856,7.645V7.7 M6.8,7.589
					v0.056 M6.856,7.534v0.056 M6.75,7.534v0.056 M6.637,7.534v0.056 M6.587,7.478v0.056 M6.693,7.478v0.056 M6.8,7.478v0.056
					 M6.856,7.423v0.056 M6.75,7.423v0.056 M6.637,7.423v0.056 M6.587,7.367v0.055 M6.8,7.367v0.055 M6.693,7.256v0.056
					 M7.182,7.256H7.069 M7.232,7.187H7.019 M7.232,8.206V8.151 M7.232,8.095V8.04 M7.289,8.095v0.056 M7.182,8.151V8.095
					 M7.126,8.206V8.151 M7.126,8.095V8.04 M7.126,7.977V7.929 M7.126,7.873V7.811 M7.182,8.04V7.977 M7.289,8.04V7.977
					 M7.069,7.977V8.04 M7.019,7.977V7.929 M7.182,7.873v0.056 M7.069,7.873v0.056 M6.963,7.873v0.056 M7.019,7.873V7.811
					 M6.963,7.756v0.055 M6.963,7.645V7.7 M7.019,7.589v0.056 M6.963,7.534v0.056 M7.069,7.534v0.056 M7.182,7.534v0.056
					 M7.232,7.478v0.056 M7.126,7.478v0.056 M7.019,7.478v0.056 M6.963,7.423v0.056 M7.069,7.423v0.056 M7.182,7.423v0.056
					 M7.232,7.367v0.055 M7.019,7.367v0.055 M7.126,7.256v0.056 M6.906,7.873V7.811 M6.906,7.645V7.589 M6.906,7.756V7.7
					 M6.906,7.534V7.478 M6.906,7.423V7.367 M6.906,7.256V7.201 M6.906,7.145V7.09 M6.637,7.235H6.75 M6.856,7.069h0.106
					 M7.069,7.235h0.113"/>
				<path class="st62" d="M7.055,8.206V8.06c0-0.028-0.014-0.111-0.149-0.111c-0.128,0-0.142,0.083-0.142,0.111v0.146H7.055z"/>
				<path class="st62" d="M6.814,8.067L6.743,8.06c0-0.028,0.007-0.069,0.029-0.083l0.064,0.049
					C6.828,8.033,6.814,8.054,6.814,8.067z"/>
				<path class="st62" d="M6.934,7.998L6.97,7.936C6.956,7.929,6.927,7.922,6.906,7.922c-0.014,0-0.043,0.007-0.057,0.014
					l0.035,0.062H6.934L6.934,7.998z"/>
				<path class="st62" d="M7.005,8.067L7.076,8.06c0-0.028-0.007-0.069-0.028-0.083L6.984,8.026
					C6.991,8.033,7.005,8.054,7.005,8.067z"/>
				<path class="st62" d="M6.8,7.825V7.672c0-0.041-0.028-0.076-0.078-0.076c-0.05,0-0.078,0.035-0.078,0.076v0.153H6.8L6.8,7.825z"
					/>
				<path class="st62" d="M7.019,7.825V7.672c0-0.041,0.029-0.076,0.078-0.076c0.049,0,0.078,0.035,0.078,0.076v0.153H7.019z"/>
				<path class="st62" d="M6.75,7.451l0.007-0.139H6.622l0.014,0.139H6.75z"/>
				<path class="st62" d="M6.963,7.451l0.014-0.139H6.842l0.007,0.139H6.963z"/>
				<path class="st62" d="M7.069,7.451L7.055,7.312h0.142L7.182,7.451H7.069L7.069,7.451z"/>
				<g>
					<path class="st63" d="M7.005,8.206V8.081c0-0.021-0.014-0.083-0.099-0.083c-0.078,0-0.092,0.062-0.092,0.083v0.125H7.005
						L7.005,8.206z"/>
					<path class="st63" d="M6.786,7.811V7.679c0-0.034-0.021-0.069-0.064-0.069c-0.043,0-0.064,0.035-0.064,0.069v0.132H6.786z"/>
					<path class="st63" d="M7.034,7.811V7.679c0-0.034,0.021-0.069,0.064-0.069c0.042,0,0.064,0.035,0.064,0.069v0.132H7.034z"/>
				</g>
			</g>
			<g id="Leon">
				<path class="st55" d="M7.675,8.438h1.543V6.766H7.675V8.438z"/>
				<path class="st64" d="M8.462,7.178l0.002-0.019l0.003-0.01c0,0-0.049,0.004-0.075-0.003S8.341,7.128,8.317,7.108
					c-0.024-0.02-0.034-0.033-0.051-0.035C8.224,7.066,8.192,7.085,8.192,7.085s0.031,0.011,0.055,0.039
					C8.27,7.152,8.296,7.166,8.307,7.17c0.018,0.005,0.082,0.002,0.099,0.002C8.423,7.173,8.462,7.178,8.462,7.178L8.462,7.178z"/>
				<g>
					<path class="st65" d="M8.693,7.11c0,0,0,0.022,0.002,0.042C8.697,7.172,8.688,7.189,8.692,7.2
						c0.003,0.011,0.005,0.02,0.009,0.028c0.004,0.008,0.006,0.028,0.006,0.028S8.696,7.248,8.685,7.24
						C8.674,7.232,8.666,7.227,8.666,7.227s0.002,0.022,0.003,0.031c0.001,0.009,0.007,0.027,0.016,0.037
						c0.009,0.01,0.027,0.027,0.032,0.04c0.006,0.013,0.004,0.043,0.004,0.043S8.707,7.356,8.695,7.352
						C8.683,7.347,8.656,7.333,8.656,7.333s0.024,0.024,0.024,0.047c0,0.023-0.01,0.048-0.01,0.048S8.66,7.407,8.645,7.394
						C8.631,7.38,8.611,7.367,8.611,7.367s0.016,0.035,0.016,0.058c0,0.024-0.005,0.074-0.005,0.074S8.61,7.48,8.598,7.471
						C8.585,7.461,8.571,7.453,8.566,7.447C8.562,7.441,8.581,7.466,8.583,7.482c0.002,0.015,0.01,0.07,0.059,0.141
						c0.029,0.041,0.073,0.113,0.169,0.089c0.095-0.023,0.06-0.149,0.04-0.208C8.83,7.446,8.82,7.381,8.822,7.358
						c0.001-0.023,0.018-0.089,0.016-0.102C8.835,7.244,8.83,7.197,8.842,7.158c0.012-0.04,0.022-0.056,0.029-0.072
						c0.006-0.017,0.012-0.026,0.014-0.04c0.002-0.014,0.002-0.041,0.002-0.041s0.018,0.032,0.022,0.043
						C8.914,7.06,8.914,7.093,8.914,7.093s0.003-0.034,0.03-0.05C8.97,7.027,9.001,7.009,9.009,7c0.008-0.009,0.01-0.015,0.01-0.015
						S9.017,7.042,9,7.065C8.989,7.079,8.946,7.127,8.946,7.127s0.022-0.008,0.038-0.009c0.016-0.001,0.027,0,0.027,0
						S8.991,7.133,8.967,7.168C8.942,7.202,8.953,7.205,8.935,7.234C8.917,7.263,8.903,7.264,8.88,7.282
						c-0.033,0.026-0.015,0.13-0.011,0.146C8.874,7.443,8.931,7.57,8.933,7.601c0.001,0.031,0.006,0.1-0.049,0.144
						C8.848,7.774,8.789,7.774,8.776,7.782c-0.013,0.008-0.04,0.034-0.04,0.087c0,0.054,0.02,0.062,0.035,0.075
						c0.016,0.013,0.036,0.006,0.04,0.016c0.005,0.01,0.007,0.016,0.013,0.023C8.831,7.99,8.836,7.997,8.834,8.008
						C8.831,8.02,8.806,8.045,8.797,8.064C8.788,8.082,8.77,8.131,8.77,8.138s-0.002,0.03,0.006,0.041c0,0,0.028,0.032,0.009,0.038
						c-0.012,0.004-0.024-0.008-0.03-0.006C8.738,8.215,8.73,8.225,8.725,8.224C8.714,8.222,8.714,8.217,8.713,8.201
						c-0.001-0.015,0-0.022-0.005-0.022c-0.007,0-0.01,0.005-0.011,0.014C8.695,8.201,8.695,8.22,8.687,8.22
						S8.669,8.207,8.662,8.204C8.655,8.201,8.636,8.198,8.635,8.189C8.634,8.181,8.646,8.164,8.658,8.16
						c0.012-0.003,0.023-0.009,0.016-0.015c-0.008-0.006-0.016-0.006-0.023,0C8.643,8.151,8.627,8.146,8.627,8.137
						C8.629,8.128,8.631,8.116,8.63,8.111C8.629,8.106,8.615,8.096,8.633,8.087c0.018-0.009,0.026,0.008,0.044,0.005
						c0.018-0.003,0.026-0.009,0.033-0.019c0.007-0.01,0.006-0.032-0.007-0.045C8.691,8.014,8.678,8.012,8.674,8.003
						C8.669,7.995,8.663,7.976,8.663,7.976s0.003,0.036,0.001,0.041S8.663,8.043,8.663,8.043S8.651,8.03,8.641,8.02
						c-0.01-0.01-0.02-0.041-0.02-0.041S8.62,8.007,8.62,8.019c0,0.011,0.013,0.022,0.009,0.026
						C8.624,8.048,8.603,8.023,8.597,8.019C8.592,8.015,8.574,8.001,8.566,7.987S8.553,7.952,8.551,7.945
						C8.549,7.937,8.545,7.905,8.549,7.897c0.006-0.012,0.014-0.034,0.014-0.034H8.52c-0.023,0-0.04-0.007-0.049,0.008
						C8.462,7.887,8.466,7.918,8.477,7.958c0.011,0.04,0.018,0.059,0.015,0.067C8.489,8.032,8.474,8.048,8.469,8.051
						C8.463,8.055,8.448,8.054,8.441,8.051C8.435,8.048,8.424,8.042,8.402,8.042S8.368,8.043,8.36,8.042
						C8.352,8.039,8.333,8.03,8.324,8.032C8.316,8.034,8.3,8.042,8.305,8.054c0.007,0.018-0.006,0.023-0.016,0.022
						C8.28,8.074,8.273,8.071,8.261,8.068c-0.011-0.003-0.028,0-0.025-0.013c0.002-0.012,0.007-0.013,0.012-0.022
						c0.006-0.01,0.008-0.016,0.001-0.016C8.242,8.017,8.234,8.016,8.228,8.021C8.222,8.025,8.212,8.036,8.205,8.032
						C8.197,8.028,8.19,8.019,8.19,8c0-0.019-0.021-0.036-0.002-0.035c0.019,0.001,0.043,0.014,0.048,0.004
						c0.004-0.011,0.002-0.015-0.009-0.023c-0.01-0.008-0.023-0.013-0.01-0.023c0.014-0.01,0.017-0.01,0.023-0.016
						C8.246,7.9,8.254,7.882,8.263,7.886c0.019,0.009,0.001,0.022,0.02,0.043C8.302,7.95,8.314,7.957,8.347,7.954
						c0.032-0.003,0.041-0.007,0.041-0.016c0-0.009-0.003-0.025-0.004-0.031C8.383,7.9,8.388,7.877,8.388,7.877
						S8.374,7.886,8.369,7.895C8.365,7.903,8.356,7.919,8.356,7.919S8.353,7.901,8.354,7.886c0.001-0.009,0.004-0.024,0.003-0.027
						C8.356,7.851,8.35,7.831,8.35,7.831S8.345,7.853,8.341,7.859C8.338,7.865,8.336,7.891,8.336,7.891S8.316,7.874,8.322,7.845
						c0.004-0.023-0.004-0.052,0.003-0.062c0.007-0.01,0.023-0.049,0.063-0.051c0.04-0.001,0.071,0.001,0.085,0.001
						c0.014-0.001,0.063-0.01,0.063-0.01S8.445,7.678,8.425,7.664C8.404,7.65,8.372,7.615,8.361,7.599
						c-0.01-0.016-0.02-0.047-0.02-0.047S8.325,7.552,8.31,7.56C8.295,7.568,8.281,7.58,8.272,7.59C8.263,7.6,8.25,7.622,8.25,7.622
						s0.002-0.028,0.002-0.037S8.25,7.559,8.25,7.559S8.24,7.597,8.219,7.612C8.198,7.626,8.174,7.646,8.174,7.646
						S8.177,7.625,8.177,7.62c0-0.005,0.005-0.03,0.005-0.03S8.167,7.612,8.145,7.616C8.122,7.62,8.089,7.619,8.086,7.633
						C8.084,7.646,8.093,7.665,8.087,7.674S8.071,7.691,8.071,7.691S8.058,7.68,8.047,7.679C8.036,7.678,8.025,7.684,8.025,7.684
						s-0.01-0.012-0.006-0.02c0.003-0.008,0.021-0.02,0.017-0.025C8.031,7.634,8.017,7.641,8.009,7.645
						C8,7.649,7.982,7.653,7.983,7.639C7.985,7.625,7.99,7.617,7.985,7.608c-0.004-0.01-0.002-0.016,0.006-0.018
						C7.997,7.587,8.025,7.59,8.028,7.584C8.03,7.577,8.021,7.569,8.002,7.565C7.984,7.561,7.975,7.551,7.985,7.542
						c0.01-0.009,0.012-0.011,0.017-0.019C8.006,7.515,8.008,7.5,8.024,7.508c0.016,0.007,0.013,0.025,0.03,0.03
						c0.017,0.006,0.058-0.002,0.067-0.007c0.009-0.005,0.036-0.025,0.046-0.03c0.01-0.004,0.049-0.034,0.049-0.034
						S8.193,7.451,8.184,7.443C8.176,7.435,8.16,7.416,8.152,7.412C8.145,7.408,8.106,7.394,8.094,7.393
						C8.081,7.392,8.041,7.378,8.041,7.378s0.018-0.006,0.024-0.011c0.006-0.005,0.02-0.017,0.027-0.016
						C8.098,7.352,8.1,7.352,8.1,7.352S8.063,7.351,8.055,7.349c-0.008-0.002-0.03-0.016-0.039-0.016
						c-0.009,0-0.026,0.003-0.026,0.003s0.023-0.014,0.042-0.018c0.019-0.003,0.034-0.002,0.034-0.002S8.037,7.307,8.03,7.298
						c-0.007-0.01-0.014-0.024-0.019-0.031C8.006,7.261,8.002,7.251,7.993,7.25C7.983,7.249,7.967,7.261,7.957,7.26
						S7.941,7.254,7.94,7.24c-0.001-0.014,0-0.009-0.003-0.016C7.933,7.217,7.919,7.2,7.932,7.196
						c0.013-0.004,0.041,0.002,0.044-0.002c0.002-0.005-0.015-0.02-0.026-0.025C7.938,7.163,7.92,7.154,7.93,7.145
						c0.01-0.008,0.019-0.011,0.024-0.018S7.965,7.1,7.977,7.106c0.011,0.006,0.027,0.038,0.036,0.035
						C8.021,7.139,8.021,7.117,8.02,7.107c-0.002-0.01,0-0.026,0.009-0.025s0.016,0.013,0.029,0.014
						c0.014,0.001,0.035-0.003,0.033,0.006c-0.002,0.01-0.01,0.021-0.019,0.032C8.063,7.145,8.058,7.166,8.064,7.179
						C8.07,7.193,8.086,7.215,8.1,7.223s0.04,0.015,0.056,0.026c0.016,0.011,0.055,0.04,0.067,0.043s0.026,0.01,0.026,0.01
						s0.015-0.006,0.035-0.006c0.02,0,0.066,0.003,0.083-0.004c0.017-0.007,0.04-0.019,0.033-0.035
						C8.393,7.242,8.355,7.228,8.359,7.216C8.362,7.204,8.376,7.203,8.4,7.202c0.023-0.001,0.055,0.004,0.061-0.028
						c0.006-0.032,0.008-0.05-0.025-0.058C8.403,7.109,8.379,7.109,8.373,7.085C8.366,7.062,8.361,7.056,8.367,7.05
						c0.007-0.006,0.019-0.01,0.043-0.011c0.025-0.002,0.052-0.002,0.06-0.008C8.478,7.026,8.48,7.011,8.489,7.004
						c0.01-0.006,0.047-0.012,0.047-0.012s0.045,0.021,0.086,0.051C8.659,7.07,8.693,7.11,8.693,7.11"/>
					<path class="st31" d="M8.249,7.302c0,0-0.025,0.007-0.034,0.02c-0.011,0.016-0.01,0.032-0.01,0.032s0.021-0.017,0.048-0.01
						c0.027,0.007,0.029,0.01,0.041,0.009s0.039-0.01,0.039-0.01S8.31,7.368,8.313,7.386C8.315,7.403,8.319,7.411,8.318,7.42
						C8.316,7.442,8.3,7.469,8.3,7.469s0.01-0.006,0.032-0.01c0.022-0.005,0.042-0.015,0.054-0.024
						c0.012-0.009,0.028-0.031,0.028-0.031s-0.005,0.03,0,0.043c0.005,0.013,0.007,0.05,0.007,0.05s0.014-0.013,0.026-0.019
						c0.006-0.003,0.021-0.011,0.028-0.021c0.004-0.007,0.01-0.032,0.01-0.032s0.003,0.027,0.012,0.04
						c0.009,0.013,0.021,0.052,0.021,0.052s0.009-0.026,0.018-0.036c0.01-0.011,0.021-0.024,0.021-0.032
						c0.001-0.008-0.002-0.026-0.002-0.026l0.012,0.026 M8.217,7.467c0,0,0.015-0.025,0.029-0.033
						C8.259,7.426,8.278,7.412,8.283,7.41c0.005-0.002,0.028-0.014,0.028-0.014 M8.341,7.551c0,0,0.033-0.016,0.043-0.022
						C8.405,7.517,8.42,7.495,8.42,7.495"/>
					<path class="st6" d="M8.665,7.227c0,0-0.01-0.014-0.013-0.019C8.65,7.203,8.646,7.193,8.646,7.193"/>
					<path class="st31" d="M8.535,7.722c0,0,0.063,0.038,0.061,0.069C8.594,7.823,8.562,7.864,8.562,7.864"/>
				</g>
				<path class="st66" d="M8.374,7.087c0,0-0.005-0.014-0.006-0.019C8.366,7.065,8.364,7.06,8.364,7.06s0.027,0,0.026,0.008
					c-0.001,0.008-0.009,0.008-0.01,0.011C8.378,7.082,8.374,7.087,8.374,7.087L8.374,7.087z"/>
				<path class="st67" d="M8.497,7.046L8.495,7.033c0,0,0.024,0,0.035,0.008c0.017,0.012,0.029,0.031,0.028,0.032
					C8.554,7.075,8.541,7.064,8.531,7.061c0,0-0.007,0.002-0.014,0.002c-0.007,0-0.01-0.003-0.011-0.006
					C8.505,7.052,8.507,7.047,8.507,7.047L8.497,7.046z"/>
				<g>
					<path class="st66" d="M8.374,7.204l0.01-0.016l0.01,0.015L8.374,7.204"/>
					<path class="st66" d="M8.399,7.204l0.012-0.016l0.013,0.014L8.399,7.204"/>
					<path class="st66" d="M8.388,7.105l0.025,0.009L8.391,7.125L8.388,7.105"/>
					<path class="st66" d="M8.419,7.113l0.022,0.005L8.423,7.132L8.419,7.113"/>
				</g>
				<g>
					<path class="st64" d="M8.031,7.082c0,0,0.015,0.01,0.026,0.012C8.068,7.096,8.08,7.096,8.082,7.096
						c0.002,0,0.005-0.016,0.003-0.027c-0.006-0.036-0.04-0.044-0.04-0.044s0.01,0.022,0.005,0.032
						C8.044,7.071,8.031,7.082,8.031,7.082L8.031,7.082z"/>
					<path class="st64" d="M7.961,7.114c0,0-0.013-0.023-0.041-0.02C7.892,7.097,7.874,7.118,7.874,7.118s0.031-0.001,0.038,0.004
						c0.011,0.007,0.015,0.026,0.015,0.026s0.017-0.01,0.022-0.016C7.954,7.125,7.961,7.114,7.961,7.114L7.961,7.114z"/>
					<path class="st64" d="M7.927,7.207c0,0-0.024,0.003-0.036,0.018C7.877,7.24,7.879,7.267,7.879,7.267s0.015-0.016,0.029-0.016
						c0.014,0,0.036,0.005,0.036,0.005S7.937,7.239,7.937,7.232S7.927,7.207,7.927,7.207L7.927,7.207z"/>
					<path class="st64" d="M8.006,7.511c0,0-0.013-0.013-0.036-0.01C7.948,7.506,7.933,7.531,7.933,7.531s0.019-0.005,0.031-0.002
						c0.011,0.002,0.019,0.013,0.019,0.013s0.01-0.009,0.014-0.013C8,7.523,8.006,7.511,8.006,7.511L8.006,7.511z"/>
					<path class="st64" d="M7.98,7.6c0,0-0.019-0.003-0.036,0.01C7.928,7.623,7.927,7.648,7.927,7.648s0.016-0.013,0.028-0.011
						c0.012,0.002,0.027,0.008,0.027,0.008s0.002-0.015,0.003-0.019C7.988,7.614,7.98,7.6,7.98,7.6L7.98,7.6z"/>
					<path class="st64" d="M8.024,7.682c0,0-0.002,0.024,0.01,0.038c0.012,0.015,0.035,0.018,0.035,0.018S8.062,7.723,8.06,7.714
						c-0.002-0.012,0.01-0.023,0.01-0.023S8.06,7.681,8.048,7.681C8.037,7.681,8.024,7.682,8.024,7.682L8.024,7.682z"/>
					<path class="st64" d="M8.249,7.894c0,0-0.016-0.019-0.037-0.019C8.19,7.876,8.168,7.896,8.168,7.896s0.027-0.002,0.034,0.007
						c0.007,0.009,0.014,0.02,0.014,0.02s0.012-0.006,0.017-0.01C8.238,7.908,8.249,7.894,8.249,7.894L8.249,7.894z"/>
					<path class="st64" d="M8.183,7.978c0,0-0.029-0.004-0.043,0.011C8.126,8.003,8.127,8.029,8.127,8.029S8.144,8.011,8.16,8.012
						c0.016,0.001,0.033,0.01,0.033,0.01S8.19,8.006,8.189,7.999C8.187,7.991,8.183,7.978,8.183,7.978L8.183,7.978z"/>
					<path class="st64" d="M8.244,8.067c0,0-0.014,0.019-0.004,0.035c0.01,0.015,0.032,0.023,0.032,0.023S8.265,8.113,8.269,8.1
						c0.003-0.01,0.021-0.024,0.021-0.024L8.244,8.067L8.244,8.067z"/>
					<path class="st64" d="M8.625,8.103c0,0-0.025-0.006-0.039,0.002C8.572,8.113,8.561,8.147,8.561,8.147S8.583,8.129,8.6,8.131
						C8.616,8.134,8.628,8.14,8.628,8.14s0.002-0.014,0.001-0.023C8.628,8.111,8.625,8.103,8.625,8.103L8.625,8.103z"/>
					<path class="st64" d="M8.637,8.193c0,0-0.019,0.019-0.012,0.035c0.007,0.016,0.019,0.033,0.019,0.033S8.643,8.237,8.651,8.231
						C8.662,8.221,8.683,8.22,8.683,8.22S8.666,8.205,8.661,8.204C8.656,8.202,8.637,8.193,8.637,8.193z"/>
					<path class="st64" d="M8.732,8.221c0,0-0.01,0.023,0.009,0.038c0.018,0.016,0.034,0.017,0.034,0.017S8.761,8.252,8.765,8.24
						C8.77,8.226,8.782,8.218,8.782,8.218S8.759,8.211,8.756,8.212C8.752,8.212,8.732,8.221,8.732,8.221L8.732,8.221z"/>
				</g>
				<g>
					<path class="st3" d="M8.675,6.981L8.666,6.982c0,0.001-0.004,0.007-0.008,0.011C8.65,7,8.638,7.001,8.632,6.995
						C8.628,6.991,8.627,6.987,8.627,6.982c-0.005,0.003-0.011,0.003-0.016,0c-0.008-0.004-0.01-0.015-0.004-0.024
						c0.001-0.002,0.002-0.004,0.003-0.005L8.61,6.943L8.6,6.946L8.596,6.951C8.59,6.959,8.58,6.961,8.575,6.956
						C8.573,6.954,8.571,6.949,8.571,6.948c0,0-0.003,0.003-0.005,0.003C8.549,6.956,8.543,6.92,8.542,6.911L8.537,6.919
						c0,0,0.005,0.021,0.002,0.039C8.537,6.975,8.531,6.993,8.531,6.993c0.023,0.006,0.057,0.024,0.091,0.049
						c0.034,0.025,0.061,0.053,0.072,0.073c0,0,0.018-0.01,0.036-0.015s0.042-0.006,0.042-0.006l0.007-0.006
						C8.768,7.089,8.73,7.091,8.73,7.075c0-0.002,0.002-0.005,0.002-0.005c0,0-0.006,0-0.009-0.002
						C8.718,7.064,8.718,7.055,8.724,7.047L8.73,7.043l0-0.01l-0.01,0.002C8.719,7.036,8.716,7.037,8.715,7.038
						c-0.008,0.007-0.02,0.007-0.026,0.001C8.684,7.036,8.683,7.031,8.685,7.025C8.68,7.027,8.675,7.026,8.671,7.024
						C8.663,7.019,8.662,7.008,8.668,7c0.003-0.004,0.009-0.009,0.01-0.01L8.675,6.981L8.675,6.981L8.675,6.981z"/>
					<g>
						<path class="st67" d="M8.606,7.002C8.608,7,8.611,7,8.613,7.002c0.002,0.002,0.003,0.005,0.002,0.006
							c-0.002,0.002-0.005,0.002-0.007,0C8.605,7.007,8.604,7.004,8.606,7.002L8.606,7.002z"/>
						<path class="st67" d="M8.635,7.026l-0.01-0.008C8.623,7.017,8.623,7.015,8.624,7.013c0.001-0.001,0.004-0.001,0.006,0
							l0.01,0.008l0.01,0.008C8.651,7.03,8.652,7.032,8.651,7.033c-0.001,0.001-0.004,0.001-0.006,0L8.635,7.026"/>
						<path class="st67" d="M8.582,6.99L8.574,6.986C8.572,6.984,8.571,6.982,8.572,6.98C8.573,6.979,8.575,6.979,8.577,6.98
							l0.008,0.005l0.008,0.004C8.595,6.99,8.596,6.992,8.595,6.994C8.594,6.995,8.592,6.996,8.59,6.995L8.582,6.99"/>
						<path class="st67" d="M8.55,6.969c0.002-0.002,0.005-0.002,0.007,0C8.56,6.971,8.56,6.973,8.559,6.975
							c-0.002,0.002-0.005,0.002-0.007,0S8.549,6.97,8.55,6.969L8.55,6.969z"/>
						<path class="st67" d="M8.667,7.048c0.002-0.002,0.001-0.004-0.002-0.006c-0.002-0.002-0.006-0.002-0.007,0
							C8.657,7.043,8.658,7.046,8.66,7.048C8.663,7.049,8.666,7.049,8.667,7.048L8.667,7.048z"/>
						<path class="st67" d="M8.685,7.067l0.007,0.006c0.002,0.002,0.004,0.002,0.006,0.001c0.001-0.001,0.001-0.003,0-0.005
							L8.69,7.063L8.684,7.057C8.682,7.056,8.679,7.055,8.678,7.056c-0.002,0.001-0.001,0.003,0,0.005L8.685,7.067"/>
						<path class="st67" d="M8.714,7.092C8.715,7.09,8.715,7.087,8.712,7.085c-0.002-0.002-0.006-0.002-0.007,0
							C8.704,7.087,8.704,7.09,8.707,7.092C8.709,7.093,8.712,7.094,8.714,7.092z"/>
					</g>
					<path class="st3" d="M8.63,6.911l-0.018,0L8.608,6.937L8.61,6.941l0.005,0l0.023-0.015L8.63,6.911"/>
					<path class="st3" d="M8.63,6.911l-0.018,0L8.608,6.937L8.61,6.941l0.005,0l0.023-0.015L8.63,6.911"/>
					<path class="st3" d="M8.581,6.925L8.58,6.941l0.028,0.004l0.005-0.002L8.612,6.938L8.596,6.917L8.581,6.925"/>
					<path class="st3" d="M8.639,6.958L8.624,6.966L8.607,6.944l0-0.004l0.004-0.002L8.64,6.941L8.639,6.958"/>
					<path class="st3" d="M8.602,6.938C8.605,6.934,8.61,6.932,8.614,6.935C8.619,6.937,8.62,6.942,8.617,6.946
						S8.609,6.951,8.605,6.949C8.601,6.946,8.6,6.941,8.602,6.938z"/>
					<path class="st3" d="M8.536,6.911c-0.001,0-0.004-0.014-0.008-0.021C8.526,6.884,8.516,6.876,8.516,6.876
						c0.001-0.002,0.013-0.006,0.027,0.003c0.012,0.009-0.001,0.026-0.001,0.026S8.539,6.909,8.536,6.911L8.536,6.911z"/>
					<path class="st3" d="M8.568,6.92L8.555,6.931L8.534,6.913L8.536,6.91l0.001-0.004l0.028-0.002L8.568,6.92"/>
					<path class="st3" d="M8.533,6.909c0.002-0.004,0.006-0.007,0.009-0.006c0.003,0.001,0.005,0.005,0.003,0.01
						C8.543,6.917,8.539,6.919,8.535,6.919C8.532,6.917,8.531,6.913,8.533,6.909z"/>
					<path class="st3" d="M8.699,6.953L8.681,6.951L8.673,6.977l0.002,0.004l0.005,0l0.025-0.012L8.699,6.953"/>
					<path class="st3" d="M8.648,6.961L8.645,6.977l0.028,0.007l0.005-0.001l0-0.004L8.665,6.955L8.648,6.961"/>
					<path class="st3" d="M8.701,7.001L8.685,7.007L8.672,6.983l0-0.004l0.005-0.001l0.027,0.007L8.701,7.001"/>
					<path class="st3" d="M8.668,6.976C8.671,6.973,8.677,6.972,8.68,6.975c0.004,0.003,0.005,0.008,0.002,0.011
						C8.679,6.99,8.673,6.99,8.669,6.988C8.665,6.985,8.665,6.98,8.668,6.976L8.668,6.976z"/>
					<path class="st3" d="M8.76,7.008l0.003,0.017L8.736,7.034L8.731,7.033l0-0.004l0.011-0.024L8.76,7.008"/>
					<path class="st3" d="M8.755,7.056L8.738,7.06l-0.01-0.025L8.73,7.031L8.734,7.03L8.76,7.04L8.755,7.056"/>
					<path class="st3" d="M8.708,7.01L8.703,7.025l0.026,0.01l0.005-0.001l0.001-0.004L8.726,7.006L8.708,7.01"/>
					<path class="st3" d="M8.737,7.039c0.004-0.003,0.004-0.008,0.001-0.012C8.734,7.024,8.729,7.024,8.725,7.027
						c-0.003,0.003-0.004,0.008,0,0.012C8.728,7.042,8.734,7.042,8.737,7.039L8.737,7.039z"/>
					<path class="st3" d="M8.78,7.093c0,0,0.015,0.001,0.024,0.003C8.81,7.097,8.82,7.104,8.82,7.104
						C8.822,7.102,8.823,7.091,8.811,7.08C8.799,7.072,8.784,7.087,8.784,7.087S8.78,7.09,8.78,7.093L8.78,7.093z"/>
					<path class="st3" d="M8.763,7.066L8.754,7.08l0.023,0.015L8.78,7.093l0.004-0.001L8.78,7.065L8.763,7.066"/>
					<path class="st3" d="M8.782,7.096c0.004-0.002,0.006-0.007,0.005-0.009C8.785,7.084,8.78,7.084,8.776,7.086
						C8.771,7.088,8.769,7.093,8.771,7.095C8.773,7.098,8.778,7.098,8.782,7.096z"/>
				</g>
			</g>
			<g id="inescutcheon">
				<ellipse class="st68" cx="7.68" cy="8.43" rx="0.499" ry="0.549"/>
				<ellipse class="st69" cx="7.68" cy="8.429" rx="0.351" ry="0.403"/>
				<g id="fdl">
					<path class="st70" d="M7.514,8.152c0,0-0.041,0.044-0.041,0.086c0,0.042,0.017,0.076,0.017,0.076
						C7.484,8.298,7.467,8.286,7.447,8.286c-0.025,0-0.046,0.019-0.046,0.043c0,0.007,0.004,0.017,0.007,0.023l0.015,0.03
						C7.428,8.37,7.44,8.364,7.454,8.364c0.018,0,0.033,0.014,0.033,0.03c0,0.003,0,0.005-0.001,0.008l-0.037,0v0.031h0.033
						L7.457,8.482l0.033-0.013l0.025,0.027L7.54,8.469l0.033,0.013L7.548,8.433h0.033V8.402l-0.037,0
						C7.543,8.4,7.543,8.397,7.543,8.395c0-0.017,0.014-0.03,0.033-0.03c0.013,0,0.025,0.006,0.03,0.017l0.015-0.03
						c0.003-0.006,0.007-0.016,0.007-0.023c0-0.024-0.021-0.043-0.046-0.043c-0.02,0-0.037,0.012-0.043,0.028
						c0,0,0.017-0.035,0.017-0.076C7.557,8.197,7.514,8.152,7.514,8.152L7.514,8.152z"/>
					<path class="st71" d="M7.448,8.433h0.134V8.402H7.448V8.433z"/>
				</g>
				<g>
					<g id="fdl_00000006679679506012287580000005438269010890637979_">
						<path class="st70" d="M7.84,8.152c0,0-0.041,0.044-0.041,0.086c0,0.042,0.017,0.076,0.017,0.076
							C7.81,8.298,7.793,8.286,7.773,8.286c-0.025,0-0.046,0.019-0.046,0.043c0,0.007,0.004,0.017,0.007,0.023l0.015,0.03
							C7.754,8.37,7.766,8.364,7.78,8.364c0.018,0,0.033,0.014,0.033,0.03c0,0.003,0,0.005-0.001,0.008l-0.037,0v0.031h0.033
							L7.783,8.482l0.033-0.013L7.84,8.496l0.026-0.027l0.033,0.013L7.874,8.433h0.033V8.402l-0.037,0
							C7.869,8.4,7.869,8.397,7.869,8.395c0-0.017,0.014-0.03,0.033-0.03c0.013,0,0.025,0.006,0.03,0.017l0.015-0.03
							C7.95,8.346,7.954,8.335,7.954,8.329c0-0.024-0.021-0.043-0.046-0.043c-0.02,0-0.037,0.012-0.043,0.028
							c0,0,0.017-0.035,0.017-0.076C7.883,8.197,7.84,8.152,7.84,8.152L7.84,8.152z"/>
						<path class="st71" d="M7.774,8.433h0.134V8.402H7.774V8.433z"/>
					</g>
				</g>
				<g>
					<g id="fdl_00000181765850669828353290000011983763621304441761_">
						<path class="st70" d="M7.677,8.426c0,0-0.041,0.044-0.041,0.086c0,0.042,0.017,0.076,0.017,0.076
							C7.647,8.572,7.63,8.56,7.61,8.56c-0.025,0-0.046,0.019-0.046,0.043c0,0.007,0.004,0.017,0.007,0.023l0.015,0.03
							c0.005-0.011,0.017-0.017,0.03-0.017c0.018,0,0.033,0.014,0.033,0.03c0,0.003,0,0.005-0.001,0.007l-0.037,0v0.031h0.033
							L7.619,8.756l0.033-0.013L7.677,8.77l0.026-0.027l0.033,0.013L7.711,8.707h0.033V8.677l-0.037,0
							C7.706,8.674,7.706,8.671,7.706,8.669c0-0.017,0.014-0.03,0.033-0.03c0.013,0,0.025,0.006,0.03,0.017l0.015-0.03
							C7.787,8.62,7.791,8.609,7.791,8.603c0-0.024-0.021-0.043-0.046-0.043c-0.02,0-0.037,0.012-0.043,0.028
							c0,0,0.017-0.035,0.017-0.076C7.72,8.471,7.677,8.426,7.677,8.426L7.677,8.426z"/>
						<path class="st71" d="M7.611,8.707h0.134V8.677H7.611V8.707z"/>
					</g>
				</g>
			</g>
		</g>
	</g>
</g>
</svg>
