<svg xmlns="http://www.w3.org/2000/svg" viewBox="0 0 24 24"><defs><style>.cls-1{fill:#fff}</style></defs><g id="Ebene_2" data-name="Ebene 2"><g id="Rand_weiß" data-name="Rand weiß"><rect width="24" height="24" class="cls-1" rx="5.75"/><rect width="24" height="24" class="cls-1" rx="5.75" transform="rotate(90 12 12)"/></g><rect id="Flächen_aktiv" width="20" height="20" x="2" y="2" data-name="Flächen aktiv" rx="3.75" style="fill:#92a525"/><path id="Symbole_weiß" d="m19 11.056-1.283-3.675a2.5 2.5 0 0 0-2.36-1.674H8.643a2.5 2.5 0 0 0-2.36 1.674L5 11.056a2.5 2.5 0 0 0-1.122 2.091v4.435a1.25 1.25 0 0 0 2.5 0v-.788s3.3.163 5.625.163 5.625-.163 5.625-.163v.788a1.25 1.25 0 0 0 2.5 0v-4.435A2.5 2.5 0 0 0 19 11.056ZM6.747 9.84l.716-2.046a1.25 1.25 0 0 1 1.18-.837h6.714a1.25 1.25 0 0 1 1.18.837l.716 2.046a.447.447 0 0 1-.492.592 29.905 29.905 0 0 0-4.761-.35 29.905 29.905 0 0 0-4.761.35.447.447 0 0 1-.492-.592Zm-.06 4.617a.938.938 0 1 1 .938-.938.938.938 0 0 1-.938.938Zm7.188-.625h-3.75a.625.625 0 0 1 0-1.25h3.75a.625.625 0 0 1 0 1.25Zm3.437.625a.938.938 0 1 1 .938-.938.938.938 0 0 1-.938.938Z" class="cls-1" data-name="Symbole weiß"/></g></svg>