<?xml version="1.0" encoding="UTF-8"?><svg id="Ebene_2" xmlns="http://www.w3.org/2000/svg" viewBox="0 0 32 32"><defs><style>.cls-1{fill:#fff;}.cls-2{fill:#afadac;}</style></defs><g id="Ebene_1-2"><g id="Ebene_2-2"><g id="deaktiviert"><rect class="cls-2" width="32" height="32" rx="6" ry="6"/></g><g id="Icons"><path class="cls-1" d="M27.21,14.06l-2.06-5.88c-.562-1.606-2.078-2.682-3.78-2.68H10.63c-1.702-.002-3.218,1.074-3.78,2.68l-2,5.88c-1.143,.728-1.839,1.985-1.85,3.34v7.1c0,1.105,.895,2,2,2s2-.895,2-2v-1.26s5.28,.26,9,.26,9-.26,9-.26v1.26c0,1.105,.895,2,2,2s2-.895,2-2v-7.1c.002-1.343-.67-2.598-1.79-3.34ZM7.59,12.06l1.15-3.22c.281-.803,1.039-1.341,1.89-1.34h10.74c.851,0,1.609,.537,1.89,1.34l1.14,3.27c.168,.354,.016,.778-.338,.945-.138,.065-.292,.084-.442,.055-2.519-.408-5.068-.612-7.62-.61-2.551-.019-5.099,.169-7.62,.56-.393,.061-.761-.208-.822-.601-.018-.117-.007-.237,.032-.349v-.05Zm-.09,7.44c-.828,0-1.5-.672-1.5-1.5s.672-1.5,1.5-1.5,1.5,.672,1.5,1.5-.672,1.5-1.5,1.5Zm11.5-1h-6c-.552,0-1-.448-1-1s.448-1,1-1h6c.552,0,1,.448,1,1s-.448,1-1,1Zm5.5,1c-.828,0-1.5-.672-1.5-1.5s.672-1.5,1.5-1.5,1.5,.672,1.5,1.5-.672,1.5-1.5,1.5Z"/></g></g></g></svg>