<?xml version="1.0" encoding="utf-8"?>
<!-- Generator: Adobe Illustrator 26.5.0, SVG Export Plug-In . SVG Version: 6.00 Build 0)  -->
<svg version="1.1" id="Ebene_2_00000023979268089934918260000002111597256007597979_"
	 xmlns="http://www.w3.org/2000/svg" xmlns:xlink="http://www.w3.org/1999/xlink" x="0px" y="0px" viewBox="0 0 32 32"
	 style="enable-background:new 0 0 32 32;" xml:space="preserve">
<style type="text/css">
	.st0{fill:#AFADAC;}
	.st1{fill:#FFFFFF;}
	.st2{fill:#FF332E;}
</style>
<g id="deaktiviert_mit_Ecke">
	<path class="st0" d="M16,32H6c-3.3,0-6-2.7-6-6V6c0-3.3,2.7-6,6-6h20c3.3,0,6,2.7,6,6v10L16,32z"/>
</g>
<g id="Icons_Rätsel_spezial">
	<path class="st1" d="M27.21,14.06l-2.06-5.88c-0.562-1.606-2.078-2.682-3.78-2.68H10.63C8.928,5.498,7.412,6.574,6.85,8.18l-2,5.88
		C3.707,14.788,3.011,16.045,3,17.4v7.1c0,1.105,0.895,2,2,2s2-0.895,2-2v-1.26c0,0,5.28,0.26,9,0.26s9-0.26,9-0.26v1.26
		c0,1.105,0.895,2,2,2s2-0.895,2-2v-7.1C29.002,16.057,28.33,14.802,27.21,14.06z M7.59,12.06l1.15-3.22
		c0.281-0.803,1.039-1.341,1.89-1.34h10.74c0.851,0,1.609,0.537,1.89,1.34l1.14,3.27c0.168,0.354,0.016,0.778-0.338,0.945
		c-0.138,0.065-0.292,0.084-0.442,0.055c-2.519-0.408-5.068-0.612-7.62-0.61c-2.551-0.019-5.099,0.169-7.62,0.56
		c-0.393,0.061-0.761-0.208-0.822-0.601C7.54,12.342,7.551,12.222,7.59,12.11C7.59,12.11,7.59,12.06,7.59,12.06z M7.5,19.5
		C6.672,19.5,6,18.828,6,18s0.672-1.5,1.5-1.5S9,17.172,9,18S8.328,19.5,7.5,19.5z M19,18.5h-6c-0.552,0-1-0.448-1-1s0.448-1,1-1h6
		c0.552,0,1,0.448,1,1S19.552,18.5,19,18.5z M24.5,19.5c-0.828,0-1.5-0.672-1.5-1.5s0.672-1.5,1.5-1.5S26,17.172,26,18
		S25.328,19.5,24.5,19.5z"/>
</g>
<g id="Ecke">
	<path class="st1" d="M16,16v16h10c3.3,0,6-2.7,6-6V16H16z"/>
</g>
<polygon class="st2" points="24,19.4 18.8,28.4 29.2,28.4 "/>
</svg>
