<svg xmlns="http://www.w3.org/2000/svg" viewBox="0 0 24 24"><defs><style>.cls-1{fill:#fff;}.cls-2{fill:#92a525;}</style></defs><g id="Ebene_2" data-name="Ebene 2"><g id="Rand_weiß" data-name="Rand weiß"><rect class="cls-1" width="24" height="24" rx="5.75"/><rect class="cls-1" width="24" height="24" rx="5.75" transform="translate(24) rotate(90)"/></g><g id="Flächen_aktiv" data-name="Flächen aktiv"><rect class="cls-2" x="2" y="2" width="20" height="20" rx="3.75"/></g><g id="Symbole_weiß" data-name="Symbole weiß"><path class="cls-1" d="M19,11.056,17.717,7.381a2.5,2.5,0,0,0-2.36-1.674H8.643a2.5,2.5,0,0,0-2.36,1.674L5,11.056a2.5,2.5,0,0,0-1.122,2.091v4.435a1.25,1.25,0,0,0,2.5,0v-.788s3.3.163,5.625.163,5.625-.163,5.625-.163v.788a1.25,1.25,0,0,0,2.5,0V13.147A2.5,2.5,0,0,0,19,11.056ZM6.747,9.84l.716-2.046a1.25,1.25,0,0,1,1.18-.837h6.714a1.25,1.25,0,0,1,1.18.837l.716,2.046a.447.447,0,0,1-.492.592A29.905,29.905,0,0,0,12,10.082a29.905,29.905,0,0,0-4.761.35A.447.447,0,0,1,6.747,9.84Zm-.06,4.617a.938.938,0,1,1,.938-.938A.938.938,0,0,1,6.687,14.457Zm7.188-.625h-3.75a.625.625,0,0,1,0-1.25h3.75a.625.625,0,0,1,0,1.25Zm3.437.625a.938.938,0,1,1,.938-.938A.938.938,0,0,1,17.312,14.457Z"/></g></g></svg>