<svg xmlns="http://www.w3.org/2000/svg" viewBox="0 0 24 24"><defs><style>.cls-1{fill:#fff;}.cls-2{fill:#14c4df;}</style></defs><g id="Ebene_2" data-name="Ebene 2"><g id="Rand_weiß" data-name="Rand weiß"><rect class="cls-1" width="24" height="24" rx="5.75"/><rect class="cls-1" width="24" height="24" rx="5.75" transform="translate(24) rotate(90)"/></g><g id="Flächen_aktiv" data-name="Flächen aktiv"><rect class="cls-2" x="2" y="2" width="20" height="20" rx="3.75"/></g><g id="Symbole_weiß" data-name="Symbole weiß"><path class="cls-1" d="M4.366,11.011c0,2.881,2.343,5.305,5.54,6.057l3.278,3.755-.132-3.576c3.717-.424,6.582-3.05,6.582-6.236,0-3.481-3.418-6.3-7.634-6.3S4.366,7.53,4.366,11.011Zm6.48-.787a.625.625,0,0,1-1.25,0V8.582a.625.625,0,1,1,1.25,0Zm3.767,0a.625.625,0,0,1-1.25,0V8.582a.625.625,0,1,1,1.25,0ZM8.973,12.2a.623.623,0,0,1,.822.322C10.108,13.237,10.85,13.6,12,13.6s1.893-.362,2.2-1.076a.625.625,0,0,1,1.146.5c-.363.834-1.24,1.827-3.35,1.827s-2.986-.993-3.35-1.826A.625.625,0,0,1,8.973,12.2Z"/></g></g></svg>