<svg xmlns="http://www.w3.org/2000/svg" viewBox="0 0 24 24"><defs><style>.cls-1{fill:#fff}</style></defs><g id="Ebene_2" data-name="Ebene 2"><g id="Rand_weiß" data-name="Rand weiß"><rect width="24" height="24" class="cls-1" rx="5.75"/><rect width="24" height="24" class="cls-1" rx="5.75" transform="rotate(90 12 12)"/></g><rect id="Flächen_aktiv" width="20" height="20" x="2" y="2" data-name="Flächen aktiv" rx="3.75" style="fill:#14c4df"/><path id="Symbole_weiß" d="M4.366 11.011c0 2.881 2.343 5.305 5.54 6.057l3.278 3.755-.132-3.576c3.717-.424 6.582-3.05 6.582-6.236 0-3.481-3.418-6.3-7.634-6.3s-7.634 2.819-7.634 6.3Zm6.48-.787a.625.625 0 0 1-1.25 0V8.582a.625.625 0 1 1 1.25 0Zm3.767 0a.625.625 0 0 1-1.25 0V8.582a.625.625 0 1 1 1.25 0ZM8.973 12.2a.623.623 0 0 1 .822.322c.313.715 1.055 1.078 2.205 1.078s1.893-.362 2.2-1.076a.625.625 0 0 1 1.146.5c-.363.834-1.24 1.827-3.35 1.827s-2.986-.993-3.35-1.826a.625.625 0 0 1 .327-.825Z" class="cls-1" data-name="Symbole weiß"/></g></svg>