<?xml version="1.0" encoding="utf-8"?>
<!-- Generator: Adobe Illustrator 26.5.0, SVG Export Plug-In . SVG Version: 6.00 Build 0)  -->
<svg version="1.1" id="Ebene_1" xmlns="http://www.w3.org/2000/svg" xmlns:xlink="http://www.w3.org/1999/xlink" x="0px" y="0px"
	 viewBox="0 0 32 32" style="enable-background:new 0 0 32 32;" xml:space="preserve">
<style type="text/css">
	.st0{fill:#14C4DF;}
	.st1{fill:#FFFFFF;}
	.st2{fill:#A35B21;}
</style>
<g id="aktiv_mit_Ecke">
	<path class="st0" d="M16,32H6c-3.3,0-6-2.7-6-6V6c0-3.3,2.7-6,6-6h20c3.3,0,6,2.7,6,6v10L16,32z"/>
</g>
<g id="Icons_Rätsel_spezial">
	<path class="st1" d="M3.9,14.4c0,4.6,3.8,8.5,8.9,9.7l5.2,6l-0.2-5.7c5.9-0.7,10.5-4.9,10.5-10c0-5.6-5.5-10.1-12.2-10.1
		S3.9,8.9,3.9,14.4z M14.2,13.2c0,0.6-0.4,1-1,1s-1-0.4-1-1v-2.6c0-0.6,0.4-1,1-1s1,0.4,1,1V13.2z M20.2,13.2c0,0.6-0.4,1-1,1
		s-1-0.4-1-1v-2.6c0-0.6,0.4-1,1-1s1,0.4,1,1V13.2z M11.2,16.3c0.5-0.2,1.1,0,1.3,0.5l0,0c0.5,1.1,1.7,1.7,3.5,1.7s3-0.6,3.5-1.7
		c0.2-0.5,0.8-0.8,1.3-0.6c0.5,0.2,0.8,0.8,0.6,1.3v0.1c-0.6,1.3-2,2.9-5.4,2.9s-4.8-1.6-5.4-2.9C10.5,17.2,10.7,16.6,11.2,16.3
		L11.2,16.3z"/>
</g>
<g id="Ecke">
	<path class="st1" d="M16,16v16h10c3.3,0,6-2.7,6-6V16H16z"/>
</g>
<path class="st2" d="M28.8,24.1l-4.6-4.6c-0.1-0.1-0.3-0.1-0.5,0L19.1,24c-0.1,0.1-0.1,0.3,0,0.5c0.1,0.1,0.1,0.1,0.2,0.1H20v3.7
	c0,0.3,0.2,0.5,0.5,0.5l0,0h6.8c0.3,0,0.5-0.2,0.5-0.5v-3.7h0.8c0.2,0,0.3-0.1,0.3-0.3C28.9,24.2,28.9,24.1,28.8,24.1z"/>
</svg>
