<svg xmlns="http://www.w3.org/2000/svg" viewBox="0 0 24 24"><defs><style>.cls-1{fill:#fff;}.cls-2{fill:#58c6a2;}</style></defs><g id="Ebene_2" data-name="Ebene 2"><g id="Rand_weiß" data-name="Rand weiß"><rect class="cls-1" width="24" height="24" rx="5.75"/><rect class="cls-1" width="24" height="24" rx="5.75" transform="translate(24) rotate(90)"/></g><g id="Flächen_aktiv" data-name="Flächen aktiv"><rect class="cls-2" x="2" y="2" width="20" height="20" rx="3.75"/></g><g id="Symbole_weiß" data-name="Symbole weiß"><path class="cls-1" d="M5.2,9.7c.045-.088.55-1.388.825-1.971a2.434,2.434,0,0,1,.784-.93c.486-.365,1.293-.589,3.75-.641,4.227-.091,7.978,0,7.978,0V7.976H15.4s-.415,4.524-.446,4.866c-.379,4.167,3.011,3.434,3.056,1.535h.551s-.107,2.5-1.893,3.256c-1.289.548-3.886.184-3.753-2.521.144-2.895.583-7.136.583-7.136s-2.563,0-2.911,0a62.01,62.01,0,0,1-.9,7.78c-.4,2.1-1.924,2.608-3.023,1.683-.926-.808-.286-1.532.383-2.332a9.671,9.671,0,0,0,1.786-3.291,16.4,16.4,0,0,0,.514-3.84,5.166,5.166,0,0,0-2.363.309A2.842,2.842,0,0,0,5.871,9.477c-.127.205-.142.269-.33.241A1.739,1.739,0,0,0,5.2,9.7Z"/></g></g></svg>