<?xml version="1.0" encoding="utf-8"?>
<!-- Generator: Adobe Illustrator 26.5.0, SVG Export Plug-In . SVG Version: 6.00 Build 0)  -->
<svg version="1.1" id="Ebene_2_00000153692623870123739450000010639795275611421860_"
	 xmlns="http://www.w3.org/2000/svg" xmlns:xlink="http://www.w3.org/1999/xlink" x="0px" y="0px" viewBox="0 0 32 32"
	 style="enable-background:new 0 0 32 32;" xml:space="preserve">
<style type="text/css">
	.st0{fill:#AFADAC;}
	.st1{fill:#FFFFFF;}
	.st2{fill:#FF332E;}
	.st3{fill:#6B6C6D;}
</style>
<path class="st0" d="M16,32H6c-3.3,0-6-2.7-6-6V6c0-3.3,2.7-6,6-6h20c3.3,0,6,2.7,6,6v10L16,32z"/>
<path class="st1" d="M5.064,12.131c0.072-0.143,0.88-2.225,1.321-3.159c0.308-0.651,0.741-1.104,1.256-1.49
	C8.42,6.898,9.714,6.54,13.648,6.454C20.419,6.308,26.43,6.451,26.43,6.451v2.921h-5.022c0,0-0.665,7.248-0.714,7.795
	c-0.606,6.676,4.823,5.501,4.896,2.458h0.882c0,0-0.172,4-3.034,5.216c-2.065,0.877-6.227,0.294-6.011-4.039
	c0.23-4.635,0.935-11.43,0.935-11.43s-4.105,0.004-4.664,0c-0.285,4.543-0.887,10.062-1.448,12.465
	c-0.634,3.359-3.081,4.18-4.843,2.696c-1.484-1.295-0.459-2.456,0.613-3.737c0.518-0.62,2.103-2.659,2.862-5.273
	c0.81-2.791,0.825-6.151,0.825-6.151s-2.21-0.248-3.788,0.494c-0.741,0.349-1.241,1.035-1.781,1.911
	c-0.202,0.328-0.226,0.431-0.528,0.387C5.268,12.115,5.064,12.131,5.064,12.131z"/>
<path class="st1" d="M16,16v16h10c3.3,0,6-2.7,6-6V16H16z"/>
<polygon class="st2" points="24,19.4 18.8,28.4 29.2,28.4 "/>
<g id="Archiviert">
	<path class="st3" d="M29.039,0.84L0.84,29.039c0.518,0.874,1.247,1.603,2.121,2.121l28.2-28.2
		C30.643,2.086,29.913,1.357,29.039,0.84z"/>
</g>
</svg>
