<svg xmlns="http://www.w3.org/2000/svg" viewBox="0 0 24 24"><defs><style>.cls-1{fill:#fff}</style></defs><g id="Ebene_2" data-name="Ebene 2"><g id="Rand_weiß" data-name="Rand weiß"><rect width="24" height="24" class="cls-1" rx="5.75"/><rect width="24" height="24" class="cls-1" rx="5.75" transform="rotate(90 12 12)"/></g><rect id="Flächen_aktiv" width="20" height="20" x="2" y="2" data-name="Flächen aktiv" rx="3.75" style="fill:#58c6a2"/><path id="Symbole_weiß" d="M5.2 9.7c.045-.088.55-1.388.825-1.971a2.434 2.434 0 0 1 .784-.93c.486-.365 1.293-.589 3.75-.641 4.227-.091 7.978 0 7.978 0v1.818H15.4l-.446 4.866c-.379 4.167 3.011 3.434 3.056 1.535h.551s-.107 2.5-1.893 3.256c-1.289.548-3.886.184-3.753-2.521.144-2.895.583-7.136.583-7.136h-2.911a62.01 62.01 0 0 1-.9 7.78c-.4 2.1-1.924 2.608-3.023 1.683-.926-.808-.286-1.532.383-2.332a9.671 9.671 0 0 0 1.786-3.291 16.4 16.4 0 0 0 .514-3.84 5.166 5.166 0 0 0-2.363.309 2.842 2.842 0 0 0-1.113 1.192c-.127.205-.142.269-.33.241A1.739 1.739 0 0 0 5.2 9.7Z" class="cls-1" data-name="Symbole weiß"/></g></svg>