<svg xmlns="http://www.w3.org/2000/svg" viewBox="0 0 24 24"><defs><style>.cls-1{fill:#fff;}.cls-2{fill:#7c8cd1;}</style></defs><g id="Ebene_2" data-name="Ebene 2"><g id="Rand_weiß" data-name="Rand weiß"><rect class="cls-1" width="24" height="24" rx="5.75"/><rect class="cls-1" width="24" height="24" rx="5.75" transform="translate(24) rotate(90)"/></g><g id="Flächen_aktiv" data-name="Flächen aktiv"><rect class="cls-2" x="2" y="2" width="20" height="20" rx="3.75"/></g><g id="Symbole_weiß" data-name="Symbole weiß"><path class="cls-1" d="M5.482,12.879a1.739,1.739,0,0,0,1.725,1.742h9.586a1.739,1.739,0,0,0,1.725-1.742V9.5H5.482ZM17.73,6.332H6.27A1.739,1.739,0,0,0,4.545,8.074v.581h14.91V8.074A1.739,1.739,0,0,0,17.73,6.332Zm-1.951,9.286a1.428,1.428,0,1,0,1.415,1.428A1.421,1.421,0,0,0,15.779,15.618Zm-7.558,0a1.428,1.428,0,1,0,1.414,1.428A1.421,1.421,0,0,0,8.221,15.618Z"/></g></g></svg>