<?xml version="1.0" encoding="utf-8"?>
<!-- Generator: Adobe Illustrator 26.5.0, SVG Export Plug-In . SVG Version: 6.00 Build 0)  -->
<svg version="1.1" id="Ebene_1" xmlns="http://www.w3.org/2000/svg" xmlns:xlink="http://www.w3.org/1999/xlink" x="0px" y="0px"
	 viewBox="0 0 32 32" style="enable-background:new 0 0 32 32;" xml:space="preserve">
<style type="text/css">
	.st0{fill:#AFADAC;}
	.st1{fill:#FFFFFF;}
	.st2{fill:#6B6C6D;}
</style>
<g id="Ebene_2_00000096779575401709716840000012056080647303820688_">
	<g id="deaktiviert">
		<path class="st0" d="M6,0h20c3.3,0,6,2.7,6,6v20c0,3.3-2.7,6-6,6H6c-3.3,0-6-2.7-6-6V6C0,2.7,2.7,0,6,0z"/>
	</g>
	<g id="Icons">
		<path class="st1" d="M27.9,9.7v0.9H4.1V9.7c0-1.5,1.2-2.8,2.8-2.8h18.3C26.7,6.9,27.9,8.2,27.9,9.7z"/>
		<path class="st1" d="M26.4,12v5.4c0,1.5-1.2,2.8-2.8,2.8H8.3c-1.5,0-2.8-1.3-2.8-2.8V12H26.4z"/>
		<ellipse class="st1" cx="9.9" cy="24.1" rx="2.3" ry="2.3"/>
		<ellipse class="st1" cx="22" cy="24.1" rx="2.3" ry="2.3"/>
	</g>
</g>
<g id="Archiviert">
	<path class="st2" d="M29.039,0.84L0.84,29.039c0.518,0.874,1.247,1.603,2.121,2.121l28.2-28.2
		C30.643,2.086,29.913,1.357,29.039,0.84z"/>
</g>
</svg>
