<svg xmlns="http://www.w3.org/2000/svg" viewBox="0 0 24 24"><defs><style>.cls-1{fill:#fff}</style></defs><g id="Ebene_2" data-name="Ebene 2"><g id="Rand_weiß" data-name="Rand weiß"><rect width="24" height="24" class="cls-1" rx="5.75"/><rect width="24" height="24" class="cls-1" rx="5.75" transform="rotate(90 12 12)"/></g><rect id="Flächen_aktiv" width="20" height="20" x="2" y="2" data-name="Flächen aktiv" rx="3.75" style="fill:#7c8cd1"/><path id="Symbole_weiß" d="M5.482 12.879a1.739 1.739 0 0 0 1.725 1.742h9.586a1.739 1.739 0 0 0 1.725-1.742V9.5H5.482ZM17.73 6.332H6.27a1.739 1.739 0 0 0-1.725 1.742v.581h14.91v-.581a1.739 1.739 0 0 0-1.725-1.742Zm-1.951 9.286a1.428 1.428 0 1 0 1.415 1.428 1.421 1.421 0 0 0-1.415-1.428Zm-7.558 0a1.428 1.428 0 1 0 1.414 1.428 1.421 1.421 0 0 0-1.414-1.428Z" class="cls-1" data-name="Symbole weiß"/></g></svg>