<?xml version="1.0" encoding="utf-8"?>
<!-- Generator: Adobe Illustrator 26.5.0, SVG Export Plug-In . SVG Version: 6.00 Build 0)  -->
<svg version="1.1" id="Ebene_1" xmlns="http://www.w3.org/2000/svg" xmlns:xlink="http://www.w3.org/1999/xlink" x="0px" y="0px"
	 viewBox="0 0 32 32" style="enable-background:new 0 0 32 32;" xml:space="preserve">
<style type="text/css">
	.st0{fill:#7C8CD1;}
	.st1{fill:#FFFFFF;}
	.st2{fill:#51B70F;}
	.st3{fill:none;}
</style>
<g id="Ebene_2_00000013174898278961036890000012811143478928392088_">
	<g id="aktiv">
		<path class="st0" d="M6,0h20c3.3,0,6,2.7,6,6v20c0,3.3-2.7,6-6,6H6c-3.3,0-6-2.7-6-6V6C0,2.7,2.7,0,6,0z"/>
	</g>
	<g id="Icons_Rätsel_spezial">
		<path class="st1" d="M27.9,9.7v0.9H4.1V9.7c0-1.5,1.2-2.8,2.8-2.8h18.3C26.7,6.9,27.9,8.2,27.9,9.7z"/>
		<path class="st1" d="M26.4,12v5.4c0,1.5-1.2,2.8-2.8,2.8H8.3c-1.5,0-2.8-1.3-2.8-2.8V12H26.4z"/>
		<ellipse class="st1" cx="9.9" cy="24.1" rx="2.3" ry="2.3"/>
		<ellipse class="st1" cx="22" cy="24.1" rx="2.3" ry="2.3"/>
	</g>
	<g id="Ecke">
		<path class="st1" d="M16,16v16h10c3.3,0,6-2.7,6-6V16H16z"/>
	</g>
	<g id="Found">
		<path class="st2" d="M29.9,21.3c0,0.2-0.1,0.4-0.2,0.5l-5.5,5.5l-1,1c-0.3,0.3-0.7,0.3-1,0l-1-1l-2.7-2.7c-0.3-0.3-0.3-0.7,0-1
			c0,0,0,0,0,0l1-1c0.3-0.3,0.7-0.3,1,0l2.2,2.2l5-5c0.3-0.3,0.7-0.3,1,0l1,1C29.8,20.9,29.9,21.1,29.9,21.3z"/>
	</g>
	<g id="Boxen_32x32_transparent">
		<polyline class="st3" points="32,0 32,32 0,32 		"/>
	</g>
</g>
</svg>
