<svg xmlns="http://www.w3.org/2000/svg" viewBox="0 0 24 24"><defs><style>.cls-1{fill:#fff;}.cls-2{fill:#f48939;}</style></defs><g id="Ebene_2" data-name="Ebene 2"><g id="Rand_weiß" data-name="Rand weiß"><rect class="cls-1" width="24" height="24" rx="5.75"/><rect class="cls-1" width="24" height="24" rx="5.75" transform="translate(24) rotate(90)"/></g><g id="Flächen_aktiv" data-name="Flächen aktiv"><rect class="cls-2" x="2" y="2" width="20" height="20" rx="3.75"/></g><g id="Symbole_weiß" data-name="Symbole weiß"><path class="cls-1" d="M14.691,13.166v.575H4.156v-.575a1.728,1.728,0,0,1,1.723-1.723h7.089A1.728,1.728,0,0,1,14.691,13.166Z"/><path class="cls-1" d="M13.755,14.576v3.342a1.728,1.728,0,0,1-1.723,1.723H6.815a1.728,1.728,0,0,1-1.723-1.723V14.576Z"/><path class="cls-1" d="M10.245,10.193h2.723a2.976,2.976,0,0,1,2.973,2.973v.143h1.244a1.727,1.727,0,0,0,1.723-1.722V8.244H10.245Zm7.876-5.081H11.032A1.728,1.728,0,0,0,9.309,6.835v.574H19.844V6.835A1.728,1.728,0,0,0,18.121,5.112Z"/></g></g></svg>