<?xml version="1.0" encoding="utf-8"?>
<!-- Generator: Adobe Illustrator 26.5.0, SVG Export Plug-In . SVG Version: 6.00 Build 0)  -->
<svg version="1.1" id="Ebene_1" xmlns="http://www.w3.org/2000/svg" xmlns:xlink="http://www.w3.org/1999/xlink" x="0px" y="0px"
	 viewBox="0 0 32 32" style="enable-background:new 0 0 32 32;" xml:space="preserve">
<style type="text/css">
	.st0{fill:#AFADAC;}
	.st1{fill:#FFFFFF;}
	.st2{fill:#A35B21;}
</style>
<g id="deaktiviert_mit_Ecke">
	<path class="st0" d="M16,32H6c-3.3,0-6-2.7-6-6V6c0-3.3,2.7-6,6-6h20c3.3,0,6,2.7,6,6v10L16,32z"/>
</g>
<g id="Icons">
	<path class="st1" d="M20.306,17.876v0.918H3.449v-0.918c0.004-1.52,1.236-2.752,2.757-2.755H17.55
		C19.07,15.125,20.302,16.356,20.306,17.876z"/>
	<path class="st1" d="M18.808,20.129v5.344c-0.004,1.52-1.236,2.751-2.756,2.755H7.7c-1.521-0.003-2.753-1.235-2.757-2.755v-5.344
		H18.808z"/>
	<path class="st1" d="M13.192,13.122h4.358c2.625,0.002,4.753,2.129,4.756,4.754V18.1H24.3c1.52-0.003,2.752-1.234,2.757-2.754
		v-5.341H13.192V13.122z M25.794,5H14.45c-1.52,0.004-2.752,1.235-2.756,2.755V8.67h16.857V7.752
		C28.544,6.233,27.313,5.004,25.794,5z"/>
</g>
<g id="Ecke">
	<path class="st1" d="M16,16v16h10c3.3,0,6-2.7,6-6V16H16z"/>
</g>
<path class="st2" d="M28.8,24.1l-4.6-4.6c-0.1-0.1-0.3-0.1-0.5,0L19.1,24c-0.1,0.1-0.1,0.3,0,0.5c0.1,0.1,0.1,0.1,0.2,0.1H20v3.7
	c0,0.3,0.2,0.5,0.5,0.5l0,0h6.8c0.3,0,0.5-0.2,0.5-0.5v-3.7h0.8c0.2,0,0.3-0.1,0.3-0.3C28.9,24.2,28.9,24.1,28.8,24.1z"/>
</svg>
