<?xml version="1.0" encoding="utf-8"?>
<!-- Generator: Adobe Illustrator 26.5.0, SVG Export Plug-In . SVG Version: 6.00 Build 0)  -->
<svg version="1.1" id="Ebene_1" xmlns="http://www.w3.org/2000/svg" xmlns:xlink="http://www.w3.org/1999/xlink" x="0px" y="0px"
	 viewBox="0 0 32 32" style="enable-background:new 0 0 32 32;" xml:space="preserve">
<style type="text/css">
	.st0{fill:#AFADAC;}
	.st1{fill:#FFFFFF;}
	.st2{fill:#51B70F;}
	.st3{fill:#6B6C6D;}
</style>
<g id="Ebene_2_00000026129736273566852820000005063945885500228999_">
	<g id="deaktiviert_mit_Ecke">
		<path class="st0" d="M16,32H6c-3.31-0.01-5.99-2.69-6-6V6c0.01-3.31,2.69-5.99,6-6h20c3.31,0.01,5.99,2.69,6,6v10.011L16,32z"/>
	</g>
	<g id="Icons">
		<path class="st1" d="M20.306,17.876v0.918H3.449v-0.918c0.004-1.52,1.236-2.752,2.757-2.755H17.55
			C19.07,15.125,20.302,16.356,20.306,17.876z"/>
		<path class="st1" d="M18.808,20.129v5.344c-0.004,1.52-1.236,2.751-2.756,2.755H7.7c-1.521-0.003-2.753-1.235-2.757-2.755v-5.344
			H18.808z"/>
		<path class="st1" d="M13.192,13.122h4.358c2.625,0.002,4.753,2.129,4.756,4.754V18.1H24.3c1.52-0.003,2.752-1.234,2.757-2.754
			v-5.341H13.192V13.122z M25.794,5H14.45c-1.52,0.004-2.752,1.235-2.756,2.755V8.67h16.857V7.752
			C28.544,6.233,27.313,5.004,25.794,5z"/>
	</g>
	<g id="Ecke">
		<path class="st1" d="M16,16v16h10c3.31-0.01,5.99-2.69,6-6V16H16z"/>
	</g>
	<g id="Found">
		<path class="st2" d="M29.866,21.262c0.003,0.193-0.073,0.379-0.212,0.514l-5.48,5.477l-1.029,1.028
			c-0.285,0.282-0.745,0.282-1.03,0l-1.029-1.028l-2.74-2.739c-0.283-0.284-0.283-0.744,0-1.028l1.029-1.029
			c0.285-0.282,0.745-0.282,1.03,0l2.225,2.231l4.97-4.969c0.285-0.282,0.745-0.282,1.03,0l1.029,1.028
			C29.796,20.883,29.871,21.069,29.866,21.262z"/>
	</g>
</g>
<g id="Archiviert">
	<path class="st3" d="M29.039,0.84L0.84,29.039c0.518,0.874,1.247,1.603,2.121,2.121l28.2-28.2
		C30.643,2.086,29.913,1.357,29.039,0.84z"/>
</g>
</svg>
