<?xml version="1.0" encoding="UTF-8"?>
<!-- Generator: Adobe Illustrator 26.0.1, SVG Export Plug-In . SVG Version: 6.00 Build 0)  -->
<svg version="1.1" id="Ebene_1" xmlns="http://www.w3.org/2000/svg" xmlns:xlink="http://www.w3.org/1999/xlink" x="0px" y="0px" viewBox="0 0 32 32" style="enable-background:new 0 0 32 32;" xml:space="preserve">
<style type="text/css">
	.st0{fill:#2A8FD3;}
	.st1{fill:#FFFFFF;}
	.st2{fill:#51B70F;}
</style>
<g>
	<path class="st0" d="M16,32H6c-3.3,0-6-2.7-6-6V6c0-3.3,2.7-6,6-6h20c3.3,0,6,2.7,6,6v10.011L16,32z"/>
</g>
<path class="st1" d="M6.465,14.903c0.643,0,1.238,0.199,1.731,0.538l0.001-0.001c0,0,0.72,0.49,1.494,1.021V9.575h7.056  c-0.531-0.774-1.021-1.494-1.021-1.494l0.001-0.001c-0.339-0.492-0.538-1.088-0.538-1.731c0-1.689,1.369-3.057,3.057-3.057  s3.057,1.369,3.057,3.057c0,0.643-0.199,1.238-0.538,1.731l0.001,0.001c0,0-0.49,0.72-1.021,1.494h6.886v16.941H9.69V19.46  c-0.774,0.531-1.494,1.021-1.494,1.021L8.196,20.48c-0.492,0.339-1.088,0.538-1.731,0.538c-1.689,0-3.057-1.369-3.057-3.057  S4.776,14.903,6.465,14.903z"/>
<g>
	<path class="st1" d="M16,16v16h10c3.3,0,6-2.7,6-6V16H16z"/>
</g>
<g>
	<path class="st2" d="M29.866,21.262c0,0.202-0.071,0.373-0.212,0.514l-5.48,5.477l-1.029,1.029   c-0.141,0.141-0.313,0.212-0.515,0.212s-0.373-0.071-0.515-0.212l-1.029-1.029l-2.74-2.738c-0.141-0.141-0.212-0.313-0.212-0.514   s0.071-0.373,0.212-0.514l1.029-1.029c0.141-0.141,0.313-0.212,0.515-0.212s0.373,0.071,0.515,0.212l2.225,2.231l4.965-4.97   c0.141-0.141,0.313-0.212,0.515-0.212s0.373,0.071,0.515,0.212l1.029,1.029C29.796,20.889,29.866,21.06,29.866,21.262z"/>
</g>
</svg>