<svg xmlns="http://www.w3.org/2000/svg" viewBox="0 0 24 24"><defs><style>.cls-1{fill:#fff}</style></defs><g id="Ebene_2" data-name="Ebene 2"><g id="Rand_weiß" data-name="Rand weiß"><rect width="24" height="24" class="cls-1" rx="5.75"/><rect width="24" height="24" class="cls-1" rx="5.75" transform="rotate(90 12 12)"/></g><rect id="Flächen_deaktiviert" width="20" height="20" x="2" y="2" data-name="Flächen deaktiviert" rx="3.75" style="fill:#afadac"/><path id="Symbole_weiß" d="M6.1 11.582a1.9 1.9 0 0 1 1.077.335l.93.635V8.266H12.5l-.634-.93a1.9 1.9 0 1 1 3.137 0s-.3.448-.635.93h4.286v4.3l-.945-.645a1.9 1.9 0 1 0 0 3.137s.457-.311.944-.645v4.4H8.11v-4.395c-.482.331-.93.635-.93.635a1.9 1.9 0 1 1-1.08-3.471Z" class="cls-1" data-name="Symbole weiß"/></g></svg>