<svg xmlns="http://www.w3.org/2000/svg" viewBox="0 0 24 24"><defs><style>.cls-1{fill:#fff;}.cls-2{fill:#2a8fd3;}</style></defs><g id="Ebene_2" data-name="Ebene 2"><g id="Rand_weiß" data-name="Rand weiß"><rect class="cls-1" width="24" height="24" rx="5.75"/><rect class="cls-1" width="24" height="24" rx="5.75" transform="translate(24) rotate(90)"/></g><g id="Flächen_aktiv" data-name="Flächen aktiv"><rect class="cls-2" x="2" y="2" width="20" height="20" rx="3.75"/></g><g id="Symbole_weiß" data-name="Symbole weiß"><path class="cls-1" d="M6.1,11.582a1.9,1.9,0,0,1,1.077.335h0l.93.635V8.266H12.5l-.634-.93h0a1.9,1.9,0,1,1,3.137,0h0s-.3.448-.635.93h4.286v4.3l-.945-.645h0a1.9,1.9,0,1,0,0,3.137h0s.457-.311.944-.645v4.4H8.11V14.418c-.482.331-.93.635-.93.635h0A1.9,1.9,0,1,1,6.1,11.582Z"/></g></g></svg>