<?xml version="1.0" encoding="utf-8"?>
<!-- Generator: Adobe Illustrator 26.5.0, SVG Export Plug-In . SVG Version: 6.00 Build 0)  -->
<svg version="1.1" id="Ebene_1" xmlns="http://www.w3.org/2000/svg" xmlns:xlink="http://www.w3.org/1999/xlink" x="0px" y="0px"
	 viewBox="0 0 32 32" style="enable-background:new 0 0 32 32;" xml:space="preserve">
<style type="text/css">
	.st0{fill:#AFADAC;}
	.st1{fill:#FFFFFF;}
	.st2{fill:#51B70F;}
	.st3{fill:#6B6C6D;}
</style>
<g id="Ebene_2_00000147912377948020512050000001356508584463722129_">
	<g id="deaktiviert_mit_Ecke">
		<path class="st0" d="M16,32H6c-3.3,0-6-2.7-6-6V6c0-3.3,2.7-6,6-6h20c3.3,0,6,2.7,6,6v10L16,32z"/>
	</g>
	<g id="Icons_Rätsel_spezial">
		<path class="st1" d="M29,12.4v1H3v-1c0-1.7,1.3-3,3-3h20C27.7,9.4,29,10.7,29,12.4z"/>
		<path class="st1" d="M27.3,14.9v5.8c0,1.7-1.3,3-3,3H7.7c-1.7,0-3-1.3-3-3v-5.8C4.7,14.9,27.3,14.9,27.3,14.9z"/>
	</g>
	<g id="Ecke">
		<path class="st1" d="M16,16v16h10c3.3,0,6-2.7,6-6V16H16z"/>
	</g>
	<g id="Found">
		<path class="st2" d="M29.9,21.3c0,0.2-0.1,0.4-0.2,0.5l-5.5,5.5l-1,1c-0.3,0.3-0.7,0.3-1,0l-1-1l-2.7-2.7c-0.3-0.3-0.3-0.7,0-1
			l0,0l1-1c0.3-0.3,0.7-0.3,1,0l2.2,2.2l5-5c0.3-0.3,0.7-0.3,1,0l1,1C29.8,20.9,29.9,21.1,29.9,21.3z"/>
	</g>
</g>
<g id="Archiviert">
	<path class="st3" d="M29.039,0.84L0.84,29.039c0.518,0.874,1.247,1.603,2.121,2.121l28.2-28.2
		C30.643,2.086,29.913,1.357,29.039,0.84z"/>
</g>
</svg>
