<?xml version="1.0" encoding="utf-8"?>
<!-- Generator: Adobe Illustrator 26.5.0, SVG Export Plug-In . SVG Version: 6.00 Build 0)  -->
<svg version="1.1" id="Ebene_1" xmlns="http://www.w3.org/2000/svg" xmlns:xlink="http://www.w3.org/1999/xlink" x="0px" y="0px"
	 viewBox="0 0 32 32" style="enable-background:new 0 0 32 32;" xml:space="preserve">
<style type="text/css">
	.st0{fill:#AFADAC;}
	.st1{fill:#FFFFFF;}
	.st2{fill:#A35B21;}
	.st3{fill:#6B6C6D;}
</style>
<g id="deaktiviert_mit_Ecke">
	<path class="st0" d="M16,32H6c-3.3,0-6-2.7-6-6V6c0-3.3,2.7-6,6-6h20c3.3,0,6,2.7,6,6v10L16,32z"/>
</g>
<g id="Icons_Rätsel_spezial">
	<path class="st1" d="M29,12.4v1H3v-1c0-1.7,1.3-3,3-3h20C27.7,9.4,29,10.7,29,12.4z"/>
	<path class="st1" d="M27.3,14.9v5.8c0,1.7-1.3,3-3,3H7.7c-1.7,0-3-1.3-3-3v-5.8C4.7,14.9,27.3,14.9,27.3,14.9z"/>
</g>
<g id="Ecke">
	<path class="st1" d="M16,16v16h10c3.3,0,6-2.7,6-6V16H16z"/>
</g>
<path class="st2" d="M28.8,24.1l-4.6-4.6c-0.1-0.1-0.3-0.1-0.5,0L19.1,24c-0.1,0.1-0.1,0.3,0,0.5c0.1,0.1,0.1,0.1,0.2,0.1H20v3.7
	c0,0.3,0.2,0.5,0.5,0.5l0,0h6.8c0.3,0,0.5-0.2,0.5-0.5v-3.7h0.8c0.2,0,0.3-0.1,0.3-0.3C28.9,24.2,28.9,24.1,28.8,24.1z"/>
<g id="Archiviert">
	<path class="st3" d="M29.039,0.84L0.84,29.039c0.518,0.874,1.247,1.603,2.121,2.121l28.2-28.2
		C30.643,2.086,29.913,1.357,29.039,0.84z"/>
</g>
</svg>
