<?xml version="1.0" encoding="utf-8"?>
<!-- Generator: Adobe Illustrator 26.5.0, SVG Export Plug-In . SVG Version: 6.00 Build 0)  -->
<svg version="1.1" id="Ebene_1" xmlns="http://www.w3.org/2000/svg" xmlns:xlink="http://www.w3.org/1999/xlink" x="0px" y="0px"
	 viewBox="0 0 32 32" style="enable-background:new 0 0 32 32;" xml:space="preserve">
<style type="text/css">
	.st0{fill:#AFADAC;}
	.st1{fill:#FFFFFF;}
</style>
<g id="Ebene_2_00000102525069165417041610000013184145852756390061_">
	<g id="deaktiviert">
		<path class="st0" d="M6,0h20c3.3,0,6,2.7,6,6v20c0,3.3-2.7,6-6,6H6c-3.3,0-6-2.7-6-6V6C0,2.7,2.7,0,6,0z"/>
	</g>
	<g id="Icons">
		<path class="st1" d="M17.9,10.5c0-1.3-1-2-2.4-2c-1.3,0-2.5,0.6-3.3,1.5L9.5,7.5c1.6-1.8,3.9-2.9,6.3-2.9c3.7,0,6.6,1.7,6.6,5.3
			c0,4.3-5.3,4.8-4.9,8.6h-4.2C12.7,14.1,17.9,12.9,17.9,10.5z M12.4,23.9c-0.1-1.7,1.3-3.2,3-3.2c0.1,0,0.2,0,0.2,0
			c1.7-0.1,3.2,1.3,3.2,3c0,0.1,0,0.2,0,0.2c0,1.8-1.5,3.2-3.2,3.2S12.4,25.7,12.4,23.9z"/>
	</g>
</g>
</svg>
