<svg xmlns="http://www.w3.org/2000/svg" viewBox="0 0 24 24"><defs><style>.cls-1{fill:#fff;}.cls-2{fill:#31a5a8;}</style></defs><g id="Ebene_2" data-name="Ebene 2"><g id="Rand_weiß" data-name="Rand weiß"><rect class="cls-1" width="24" height="24" rx="5.75"/><rect class="cls-1" width="24" height="24" rx="5.75" transform="translate(24) rotate(90)"/></g><g id="Flächen_aktiv" data-name="Flächen aktiv"><rect class="cls-2" x="2" y="2" width="20" height="20" rx="3.75"/></g><g id="Symbole_weiß" data-name="Symbole weiß"><path class="cls-1" d="M13.189,8.573c0-.832-.655-1.275-1.5-1.275A3.06,3.06,0,0,0,9.6,8.236L7.95,6.721a5.259,5.259,0,0,1,3.943-1.836c2.326,0,4.157,1.078,4.157,3.316,0,2.674-3.309,3.008-3.066,5.35H10.373C9.943,10.842,13.189,10.088,13.189,8.573Zm-3.455,8.34a1.955,1.955,0,0,1,2.03-2.033,1.954,1.954,0,0,1,2.03,2.033,2.03,2.03,0,1,1-4.06,0Z"/></g></g></svg>