<svg xmlns="http://www.w3.org/2000/svg" viewBox="0 0 28 28"><defs><style>.cls-1{fill:#043eb2;}.cls-2{fill:#31a5a8;}.cls-3{fill:#fff;}</style></defs><g id="Ebene_2" data-name="Ebene 2"><g id="Rand_blau" data-name="Rand blau"><rect class="cls-1" x="4" y="4" width="24" height="24" rx="5.75"/><rect class="cls-1" x="4" y="4" width="24" height="24" rx="5.75" transform="translate(32) rotate(90)"/></g><g id="Flächen_aktiv" data-name="Flächen aktiv"><rect class="cls-2" x="6" y="6" width="20" height="20" rx="3.75"/></g><g id="Symbole_weiß" data-name="Symbole weiß"><path class="cls-3" d="M17.189,12.573c0-.832-.655-1.275-1.5-1.275a3.06,3.06,0,0,0-2.083.938L11.95,10.721a5.259,5.259,0,0,1,3.943-1.836c2.326,0,4.157,1.078,4.157,3.316,0,2.674-3.309,3.008-3.066,5.35H14.373C13.943,14.842,17.189,14.088,17.189,12.573Zm-3.455,8.34a2.03,2.03,0,1,1,4.06,0,2.03,2.03,0,1,1-4.06,0Z"/></g><g id="OC_Logo_größer" data-name="OC Logo größer"><circle class="cls-1" cx="7.5" cy="7.5" r="7.5"/><path class="cls-3" d="M1.548,7.352A2.868,2.868,0,0,1,2.307,5.23a2.855,2.855,0,0,1,2.115-.76,2.913,2.913,0,0,1,2.141.746,2.814,2.814,0,0,1,.751,2.09,3.425,3.425,0,0,1-.328,1.6,2.345,2.345,0,0,1-.949.972,3.141,3.141,0,0,1-1.547.347,3.555,3.555,0,0,1-1.558-.3,2.35,2.35,0,0,1-1-.949A3.153,3.153,0,0,1,1.548,7.352Zm1.72.007A1.864,1.864,0,0,0,3.581,8.57a1.062,1.062,0,0,0,.852.368,1.062,1.062,0,0,0,.858-.36,2.064,2.064,0,0,0,.3-1.295,1.721,1.721,0,0,0-.317-1.148,1.084,1.084,0,0,0-.86-.363,1.043,1.043,0,0,0-.835.369A1.87,1.87,0,0,0,3.268,7.359Z"/><path class="cls-3" d="M11.945,7.853l1.507.455a2.764,2.764,0,0,1-.478,1.059,2.08,2.08,0,0,1-.811.642,3.032,3.032,0,0,1-1.231.216,3.577,3.577,0,0,1-1.483-.264,2.347,2.347,0,0,1-.993-.927,3.145,3.145,0,0,1-.417-1.7,2.887,2.887,0,0,1,.735-2.123,2.8,2.8,0,0,1,2.078-.742,2.817,2.817,0,0,1,1.653.426A2.5,2.5,0,0,1,13.4,6.2l-1.518.338a1.287,1.287,0,0,0-.168-.372,1,1,0,0,0-.352-.3,1.028,1.028,0,0,0-.467-.106,1.01,1.01,0,0,0-.9.47,2,2,0,0,0-.235,1.1,2.088,2.088,0,0,0,.28,1.269.967.967,0,0,0,.79.343.959.959,0,0,0,.746-.278A1.714,1.714,0,0,0,11.945,7.853Z"/></g></g></svg>