<svg xmlns="http://www.w3.org/2000/svg" viewBox="0 0 24 24"><defs><style>.cls-1{fill:#fff}</style></defs><g id="Ebene_2" data-name="Ebene 2"><g id="Rand_weiß" data-name="Rand weiß"><rect width="24" height="24" class="cls-1" rx="5.75"/><rect width="24" height="24" class="cls-1" rx="5.75" transform="rotate(90 12 12)"/></g><rect id="Flächen_deaktiviert" width="20" height="20" x="2" y="2" data-name="Flächen deaktiviert" rx="3.75" style="fill:#afadac"/><path id="Symbole_weiß" d="M13.189 8.573c0-.832-.655-1.275-1.5-1.275a3.06 3.06 0 0 0-2.089.938L7.95 6.721a5.259 5.259 0 0 1 3.943-1.836c2.326 0 4.157 1.078 4.157 3.316 0 2.674-3.309 3.008-3.066 5.35h-2.611c-.43-2.709 2.816-3.463 2.816-4.978Zm-3.455 8.34a1.955 1.955 0 0 1 2.03-2.033 1.954 1.954 0 0 1 2.03 2.033 2.03 2.03 0 1 1-4.06 0Z" class="cls-1" data-name="Symbole weiß"/></g></svg>