<svg xmlns="http://www.w3.org/2000/svg" viewBox="0 0 24 24"><defs><style>.cls-1{fill:#fff}</style></defs><g id="Ebene_2" data-name="Ebene 2"><g id="Rand_weiß" data-name="Rand weiß"><rect width="24" height="24" class="cls-1" rx="5.75"/><rect width="24" height="24" class="cls-1" rx="5.75" transform="rotate(90 12 12)"/></g><rect id="Flächen_deaktiviert" width="20" height="20" x="2" y="2" data-name="Flächen deaktiviert" rx="3.75" style="fill:#afadac"/><path id="Symbole_weiß" d="m19 11.854-6.711-6.716a.473.473 0 0 0-.668 0L5 11.764a.471.471 0 0 0 .33.805l1.008.007v5.44a.715.715 0 0 0 .715.715h2.78v-4.107a1 1 0 0 1 1-1.005h2.234a1 1 0 0 1 1.005 1.005v4.107h2.788a.716.716 0 0 0 .716-.715v-5.364l1.091.008a.472.472 0 0 0 .333-.806Z" class="cls-1" data-name="Symbole weiß"/></g></svg>