<svg xmlns="http://www.w3.org/2000/svg" viewBox="0 0 28 28"><defs><style>.cls-1{fill:#043eb2;}.cls-2{fill:#ff332e;}.cls-3{fill:red;}.cls-4{fill:#fff;}</style></defs><g id="Ebene_2" data-name="Ebene 2"><g id="Rand_blau" data-name="Rand blau"><rect class="cls-1" x="4" y="4" width="24" height="24" rx="5.75"/></g><g id="Flächen_aktiv" data-name="Flächen aktiv"><rect class="cls-2" x="6" y="6" width="20" height="20" rx="3.75"/><rect class="cls-3" x="6" y="6" width="20" height="20" rx="3.75"/></g><g id="Symbole_weiß" data-name="Symbole weiß"><path class="cls-4" d="M23.844,21.206l0,0L16.707,8.816a1.235,1.235,0,0,0-.22-.306.69.69,0,0,0-.974,0,.715.715,0,0,0-.11.144l-.357.613h0L8.173,21.178l0,.006a.7.7,0,0,0-.08.186.689.689,0,0,0,.487.843.7.7,0,0,0,.181.023H23.246a.688.688,0,0,0,.6-1.03Zm-7.955-.191A1.163,1.163,0,0,1,14.7,19.8a1.191,1.191,0,1,1,2.381,0A1.163,1.163,0,0,1,15.889,21.015Zm.715-3.184H15.073c-.252-1.588,1.652-2.031,1.652-2.919,0-.488-.384-.748-.881-.748a1.8,1.8,0,0,0-1.222.55l-.969-.888a3.084,3.084,0,0,1,2.311-1.076c1.365,0,2.438.632,2.438,1.944C18.4,16.262,16.462,16.458,16.6,17.831Z"/></g><g id="OC_Logo_größer" data-name="OC Logo größer"><circle class="cls-1" cx="7.5" cy="7.5" r="7.5"/><path class="cls-4" d="M1.548,7.352A2.868,2.868,0,0,1,2.307,5.23a2.855,2.855,0,0,1,2.115-.76,2.913,2.913,0,0,1,2.141.746,2.814,2.814,0,0,1,.751,2.09,3.425,3.425,0,0,1-.328,1.6,2.345,2.345,0,0,1-.949.972,3.141,3.141,0,0,1-1.547.347,3.555,3.555,0,0,1-1.558-.3,2.35,2.35,0,0,1-1-.949A3.153,3.153,0,0,1,1.548,7.352Zm1.72.007A1.864,1.864,0,0,0,3.581,8.57a1.062,1.062,0,0,0,.852.368,1.062,1.062,0,0,0,.858-.36,2.064,2.064,0,0,0,.3-1.295,1.721,1.721,0,0,0-.317-1.148,1.084,1.084,0,0,0-.86-.363,1.043,1.043,0,0,0-.835.369A1.87,1.87,0,0,0,3.268,7.359Z"/><path class="cls-4" d="M11.945,7.853l1.507.455a2.764,2.764,0,0,1-.478,1.059,2.08,2.08,0,0,1-.811.642,3.032,3.032,0,0,1-1.231.216,3.577,3.577,0,0,1-1.483-.264,2.347,2.347,0,0,1-.993-.927,3.145,3.145,0,0,1-.417-1.7,2.887,2.887,0,0,1,.735-2.123,2.8,2.8,0,0,1,2.078-.742,2.817,2.817,0,0,1,1.653.426A2.5,2.5,0,0,1,13.4,6.2l-1.518.338a1.287,1.287,0,0,0-.168-.372,1,1,0,0,0-.352-.3,1.028,1.028,0,0,0-.467-.106,1.01,1.01,0,0,0-.9.47,2,2,0,0,0-.235,1.1,2.088,2.088,0,0,0,.28,1.269.967.967,0,0,0,.79.343.959.959,0,0,0,.746-.278A1.714,1.714,0,0,0,11.945,7.853Z"/></g></g></svg>