<?xml version="1.0" encoding="UTF-8"?><svg id="Ebene_2" xmlns="http://www.w3.org/2000/svg" viewBox="0 0 28 28"><defs><style>.cls-1{fill:#61c620;}.cls-2{fill:#fff;}.cls-3{fill:#043eb2;}</style></defs><g id="Ebene_2-2"><g id="Ebene_1-2"><g id="Rand_blau"><rect class="cls-3" x="4" y="4" width="24" height="24" rx="5.75" ry="5.75"/><rect class="cls-3" x="4" y="4" width="24" height="24" rx="5.75" ry="5.75"/></g><rect class="cls-1" x="6" y="6" width="20" height="20" rx="3.75" ry="3.75"/><g id="OC_Logo_größer"><circle class="cls-3" cx="7.5" cy="7.5" r="7.5"/><path class="cls-2" d="M1.548,7.352c-.047-.781,.227-1.548,.759-2.122,.571-.532,1.336-.806,2.115-.76,.785-.051,1.557,.218,2.141,.746,.526,.564,.798,1.32,.751,2.09,.021,.552-.091,1.101-.328,1.6-.214,.411-.544,.749-.949,.972-.478,.246-1.01,.366-1.547,.347-.535,.019-1.068-.084-1.558-.3-.421-.209-.769-.54-1-.949-.272-.497-.404-1.058-.384-1.624Zm1.72,.007c-.038,.428,.072,.855,.313,1.211,.213,.247,.527,.382,.852,.368,.326,.018,.643-.114,.858-.36,.24-.387,.346-.842,.3-1.295,.034-.408-.078-.815-.317-1.148-.217-.245-.533-.378-.86-.363-.32-.012-.628,.124-.835,.369-.241,.358-.351,.788-.311,1.218Z"/><path class="cls-2" d="M11.945,7.853l1.507,.455c-.083,.383-.245,.744-.478,1.059-.212,.279-.491,.5-.811,.642-.391,.157-.81,.23-1.231,.216-.507,.018-1.013-.072-1.483-.264-.415-.204-.761-.527-.993-.927-.297-.516-.442-1.105-.417-1.7-.052-.778,.213-1.544,.735-2.123,.562-.521,1.313-.79,2.078-.742,.582-.032,1.159,.116,1.653,.426,.432,.327,.746,.785,.895,1.305l-1.518,.338c-.036-.132-.093-.258-.168-.372-.092-.126-.213-.229-.352-.3-.145-.072-.305-.108-.467-.106-.363-.016-.706,.163-.9,.47-.182,.337-.264,.718-.235,1.1-.044,.442,.054,.887,.28,1.269,.195,.232,.487,.359,.79,.343,.277,.02,.549-.082,.746-.278,.192-.233,.32-.513,.369-.811Z"/></g><g id="Symbole_weiß"><polyline class="cls-2" points="22.602 12.65 22.602 12.65 13.902 21.25 9.402 16.75 11.402 14.85 13.902 17.35 20.602 10.65 22.602 12.65"/></g></g></g></svg>