<?xml version="1.0" encoding="utf-8"?>
<!-- Generator: Adobe Illustrator 26.5.0, SVG Export Plug-In . SVG Version: 6.00 Build 0)  -->
<svg version="1.1" id="Ebene_1" xmlns="http://www.w3.org/2000/svg" xmlns:xlink="http://www.w3.org/1999/xlink" x="0px" y="0px"
	 viewBox="0 0 24 24" style="enable-background:new 0 0 24 24;" xml:space="preserve">
<style type="text/css">
	.st0{fill:#FFFFFF;}
	.st1{fill:#A35B21;}
</style>
<g id="Rand_weiß_00000062895129007156333940000008573953206469975951_">
	<path class="st0" d="M5.75,0h12.5C21.426,0,24,2.574,24,5.75v12.5c0,3.176-2.574,5.75-5.75,5.75H5.75C2.574,24,0,21.426,0,18.25
		V5.75C0,2.574,2.574,0,5.75,0z"/>
</g>
<path class="st1" d="M5.75,2h12.5C20.321,2,22,3.679,22,5.75v12.5c0,2.071-1.679,3.75-3.75,3.75H5.75C3.679,22,2,20.321,2,18.25
	V5.75C2,3.679,3.679,2,5.75,2z"/>
<g id="Ebene_1-2">
	<g id="Ebene_2-2">
		<g id="Icons">
			<path class="st0" d="M19.192,11.339l-6.825-6.825c-0.189-0.186-0.493-0.186-0.682,0l-6.77,6.72c-0.188,0.188-0.189,0.494,0,0.682
				c0.09,0.09,0.211,0.141,0.337,0.141H6.28v5.551c0,0.402,0.326,0.728,0.728,0.728h2.839v-4.186c0-0.566,0.458-1.024,1.024-1.024
				h2.275c0.566,0,1.024,0.458,1.024,1.024v4.186h2.839c0.402,0,0.728-0.326,0.728-0.728l0,0v-5.46h1.11
				c0.266-0.005,0.479-0.224,0.474-0.49C19.319,11.54,19.273,11.426,19.192,11.339z"/>
		</g>
	</g>
</g>
</svg>
