<svg xmlns="http://www.w3.org/2000/svg" viewBox="0 0 24 24"><defs><style>.cls-1{fill:#fff;}.cls-2{fill:#afadac;}</style></defs><g id="Ebene_2" data-name="Ebene 2"><g id="Rand_weiß" data-name="Rand weiß"><rect class="cls-1" width="24" height="24" rx="5.75"/><rect class="cls-1" width="24" height="24" rx="5.75" transform="translate(24) rotate(90)"/></g><g id="Flächen_deaktiviert" data-name="Flächen deaktiviert"><rect class="cls-2" x="2" y="2" width="20" height="20" rx="3.75"/></g><g id="Symbole_weiß" data-name="Symbole weiß"><path class="cls-1" d="M19,11.854,12.289,5.138a.473.473,0,0,0-.668,0L5,11.764a.471.471,0,0,0,.33.805l1.008.007v5.44a.715.715,0,0,0,.715.715H9.833V14.624a1,1,0,0,1,1-1.005h2.234a1,1,0,0,1,1.005,1.005v4.107H16.86a.716.716,0,0,0,.716-.715V12.652l1.091.008A.472.472,0,0,0,19,11.854Z"/></g></g></svg>