<svg xmlns="http://www.w3.org/2000/svg" viewBox="0 0 24 24"><defs><style>.cls-1{fill:#fff}</style></defs><g id="Ebene_2" data-name="Ebene 2"><rect id="Rand_weiß" width="24" height="24" class="cls-1" data-name="Rand weiß" rx="5.75"/><rect id="Flächen_deaktiviert" width="20" height="20" x="2" y="2" data-name="Flächen deaktiviert" rx="3.75" style="fill:#afadac"/><path id="Symbole_weiß" d="m19.844 17.206-7.137-12.39a1.235 1.235 0 0 0-.22-.306.69.69 0 0 0-.974 0 .715.715 0 0 0-.11.144l-.357.613-6.873 11.911v.006a.7.7 0 0 0-.08.186.689.689 0 0 0 .487.843.7.7 0 0 0 .181.023h14.485a.688.688 0 0 0 .6-1.03Zm-7.955-.191A1.163 1.163 0 0 1 10.7 15.8a1.191 1.191 0 1 1 2.381 0 1.163 1.163 0 0 1-1.192 1.215Zm.715-3.184h-1.531c-.252-1.588 1.652-2.031 1.652-2.919 0-.488-.384-.748-.881-.748a1.8 1.8 0 0 0-1.222.55l-.969-.888a3.084 3.084 0 0 1 2.311-1.076c1.365 0 2.438.632 2.438 1.944-.002 1.568-1.94 1.764-1.802 3.137Z" class="cls-1" data-name="Symbole weiß"/></g></svg>