<svg xmlns="http://www.w3.org/2000/svg" id="Ebene_2" viewBox="0 0 28 28"><defs><style>.cls-2{fill:#fff}.cls-3{fill:#043eb2}</style></defs><g id="Ebene_2-2"><g id="Ebene_1-2"><g id="Rand_blau"><rect width="24" height="24" x="4" y="4" class="cls-3" rx="5.75" ry="5.75"/><rect width="24" height="24" x="4" y="4" class="cls-3" rx="5.75" ry="5.75"/></g><rect width="20" height="20" x="6" y="6" rx="3.75" ry="3.75" style="fill:#61c620"/><g id="OC_Logo_größer"><circle cx="7.5" cy="7.5" r="7.5" class="cls-3"/><path d="M1.548 7.352a2.869 2.869 0 0 1 .759-2.122 2.856 2.856 0 0 1 2.115-.76 2.91 2.91 0 0 1 2.141.746c.526.564.798 1.32.751 2.09a3.425 3.425 0 0 1-.328 1.6 2.346 2.346 0 0 1-.949.972 3.137 3.137 0 0 1-1.547.347 3.552 3.552 0 0 1-1.558-.3 2.348 2.348 0 0 1-1-.949 3.15 3.15 0 0 1-.384-1.624Zm1.72.007c-.038.428.072.855.313 1.211.213.247.527.382.852.368.326.018.643-.114.858-.36.24-.387.346-.842.3-1.295a1.723 1.723 0 0 0-.317-1.148 1.082 1.082 0 0 0-.86-.363 1.042 1.042 0 0 0-.835.369 1.87 1.87 0 0 0-.311 1.218ZM11.945 7.853l1.507.455a2.763 2.763 0 0 1-.478 1.059c-.212.279-.491.5-.811.642-.391.157-.81.23-1.231.216a3.587 3.587 0 0 1-1.483-.264 2.344 2.344 0 0 1-.993-.927 3.143 3.143 0 0 1-.417-1.7 2.883 2.883 0 0 1 .735-2.123 2.8 2.8 0 0 1 2.078-.742 2.817 2.817 0 0 1 1.653.426A2.5 2.5 0 0 1 13.4 6.2l-1.518.338a1.301 1.301 0 0 0-.168-.372 1 1 0 0 0-.352-.3 1.021 1.021 0 0 0-.467-.106 1.011 1.011 0 0 0-.9.47 1.995 1.995 0 0 0-.235 1.1c-.044.442.054.887.28 1.269a.965.965 0 0 0 .79.343.96.96 0 0 0 .746-.278c.192-.233.32-.513.369-.811Z" class="cls-2"/></g><path id="Symbole_weiß" d="m22.602 12.65-8.7 8.6-4.5-4.5 2-1.9 2.5 2.5 6.7-6.7 2 2" class="cls-2"/></g></g></svg>