<svg xmlns="http://www.w3.org/2000/svg" xml:space="preserve" id="Ebene_1" x="0" y="0" style="enable-background:new 0 0 24 24" version="1.1" viewBox="0 0 24 24"><style>.st0{fill:#fff}</style><path id="Rand_weiß_00000062895129007156333940000008573953206469975951_" d="M5.75 0h12.5A5.75 5.75 0 0 1 24 5.75v12.5A5.75 5.75 0 0 1 18.25 24H5.75A5.75 5.75 0 0 1 0 18.25V5.75A5.75 5.75 0 0 1 5.75 0z" class="st0"/><path d="M5.75 2h12.5A3.75 3.75 0 0 1 22 5.75v12.5A3.75 3.75 0 0 1 18.25 22H5.75A3.75 3.75 0 0 1 2 18.25V5.75A3.75 3.75 0 0 1 5.75 2z" style="fill:#a35b21"/><g id="Ebene_1-2"><g id="Ebene_2-2"><path id="Icons" d="m19.192 11.339-6.825-6.825a.487.487 0 0 0-.682 0l-6.77 6.72a.482.482 0 0 0 .337.823H6.28v5.551c0 .402.326.728.728.728h2.839V14.15c0-.566.458-1.024 1.024-1.024h2.275c.566 0 1.024.458 1.024 1.024v4.186h2.839a.728.728 0 0 0 .728-.728v-5.46h1.11a.482.482 0 0 0 .345-.809z" class="st0"/></g></g></svg>