<svg xmlns="http://www.w3.org/2000/svg" viewBox="0 0 24 24"><defs><style>.cls-1{fill:#fff;}.cls-2{fill:#afadac;}</style></defs><g id="Ebene_2" data-name="Ebene 2"><g id="Rand_weiß" data-name="Rand weiß"><rect class="cls-1" width="24" height="24" rx="5.75"/></g><g id="Flächen_deaktiviert" data-name="Flächen deaktiviert"><rect class="cls-2" x="2" y="2" width="20" height="20" rx="3.75"/></g><g id="Symbole_weiß" data-name="Symbole weiß"><path class="cls-1" d="M19.844,17.206l0,0L12.707,4.816a1.235,1.235,0,0,0-.22-.306.69.69,0,0,0-.974,0,.715.715,0,0,0-.11.144l-.357.613h0L4.173,17.178l0,.006a.7.7,0,0,0-.08.186.689.689,0,0,0,.487.843.7.7,0,0,0,.181.023H19.246a.688.688,0,0,0,.6-1.03Zm-7.955-.191A1.163,1.163,0,0,1,10.7,15.8a1.191,1.191,0,1,1,2.381,0A1.163,1.163,0,0,1,11.889,17.015Zm.715-3.184H11.073c-.252-1.588,1.652-2.031,1.652-2.919,0-.488-.384-.748-.881-.748a1.8,1.8,0,0,0-1.222.55l-.969-.888A3.084,3.084,0,0,1,11.964,8.75c1.365,0,2.438.632,2.438,1.944C14.4,12.262,12.462,12.458,12.6,13.831Z"/></g></g></svg>