<svg xmlns="http://www.w3.org/2000/svg" viewBox="0 0 24 24"><defs><style>.cls-1{fill:#fff;}.cls-2{fill:#afadac;}</style></defs><g id="Ebene_2" data-name="Ebene 2"><g id="Rand_weiß" data-name="Rand weiß"><rect class="cls-1" width="24" height="24" rx="5.75"/><rect class="cls-1" width="24" height="24" rx="5.75" transform="translate(24) rotate(90)"/></g><g id="Flächen_deaktiviert" data-name="Flächen deaktiviert"><rect class="cls-2" x="2" y="2" width="20" height="20" rx="3.75"/></g><g id="Symbole_weiß" data-name="Symbole weiß"><path class="cls-1" d="M12.312,8.062l2.75,2.749a4.068,4.068,0,0,0,1.249-2.874,3.845,3.845,0,0,0-3.874-4,4.055,4.055,0,0,0-4.124,4,3.85,3.85,0,0,0,1.25,2.874Z"/><path class="cls-1" d="M17.061,14.435,12.437,9.812l-4.5,4.623h2.624v1.5c0,1.75,0,3-3.624,1.125a4.226,4.226,0,0,0,4.249,3c3.624.125,3.374-4.124,3.374-5.624Z"/></g></g></svg>