<?xml version="1.0" encoding="utf-8"?>
<!-- Generator: Adobe Illustrator 26.5.0, SVG Export Plug-In . SVG Version: 6.00 Build 0)  -->
<svg version="1.1" id="Ebene_1" xmlns="http://www.w3.org/2000/svg" xmlns:xlink="http://www.w3.org/1999/xlink" x="0px" y="0px"
	 viewBox="0 0 32 32" style="enable-background:new 0 0 32 32;" xml:space="preserve">
<style type="text/css">
	.st0{fill:#AFADAC;}
	.st1{fill:#FFFFFF;}
	.st2{fill:#6B6C6D;}
</style>
<g>
	<path class="st0" d="M26,32H6c-3.3,0-6-2.7-6-6V6c0-3.3,2.7-6,6-6h20c3.3,0,6,2.7,6,6v20C32,29.3,29.3,32,26,32z"/>
</g>
<path class="st1" d="M16.52,3.123c-3.546,0-6.42,2.875-6.42,6.42c0,1.852,0.789,3.516,2.043,4.688l4.378-4.376l4.378,4.376
	c1.254-1.172,2.043-2.836,2.043-4.688C22.94,5.997,20.066,3.123,16.52,3.123z"/>
<path class="st1" d="M24.054,19.956l-7.36-7.358l-7.36,7.358h4.284c0,1.709,0.008,1.58,0,2.348
	c-0.031,2.822-0.017,4.822-5.847,1.728c0,0,1.233,4.781,6.811,4.887c5.731,0.109,5.316-6.578,5.437-8.964L24.054,19.956z"/>
<g id="Archiviert">
	<path class="st2" d="M29.039,0.84L0.84,29.039c0.518,0.874,1.247,1.603,2.121,2.121l28.2-28.2
		C30.643,2.086,29.913,1.357,29.039,0.84z"/>
</g>
</svg>
