<?xml version="1.0" encoding="utf-8"?>
<!-- Generator: Adobe Illustrator 26.5.0, SVG Export Plug-In . SVG Version: 6.00 Build 0)  -->
<svg version="1.1" id="Ebene_1" xmlns="http://www.w3.org/2000/svg" xmlns:xlink="http://www.w3.org/1999/xlink" x="0px" y="0px"
	 viewBox="0 0 24 24" style="enable-background:new 0 0 24 24;" xml:space="preserve">
<style type="text/css">
	.st0{fill:#FFFFFF;}
	.st1{fill:#AFADAC;}
</style>
<g id="Rand_weiß">
	<path class="st0" d="M5.8,0h12.5C21.4,0,24,2.6,24,5.7v12.5c0,3.2-2.6,5.8-5.8,5.8H5.8C2.6,24,0,21.4,0,18.2V5.7C0,2.6,2.6,0,5.8,0
		z"/>
	<path class="st0" d="M24,5.7v12.5c0,3.2-2.6,5.8-5.8,5.8H5.8C2.6,24,0,21.4,0,18.2V5.7C0,2.6,2.6,0,5.8,0h12.5
		C21.4,0,24,2.6,24,5.7z"/>
</g>
<g id="Flächen_deaktiviert">
	<path class="st1" d="M5.8,2h12.5C20.3,2,22,3.7,22,5.7v12.5c0,2.1-1.7,3.8-3.8,3.8H5.8C3.7,22,2,20.3,2,18.2V5.7C2,3.7,3.7,2,5.8,2
		z"/>
</g>
<g id="Symbole_weiß">
	<g id="Layer_2">
		<path class="st0" d="M11.2,16.7v1.6H8.9v1.5h6.1v-1.5h-2.3v-1.6c3.4-0.4,5.7-3.5,5.3-6.8c-0.4-3.4-3.5-5.7-6.8-5.3S5.5,8,5.9,11.4
			C6.3,14.2,8.5,16.4,11.2,16.7z M12,7.6c1.7,0,3.1,1.4,3.1,3.1s-1.4,3.1-3.1,3.1s-3.1-1.4-3.1-3.1l0,0C8.9,8.9,10.3,7.6,12,7.6z"/>
		<circle class="st0" cx="12" cy="10.6" r="1.5"/>
	</g>
</g>
</svg>
