<svg xmlns="http://www.w3.org/2000/svg" xml:space="preserve" id="Ebene_1" x="0" y="0" style="enable-background:new 0 0 24 24" version="1.1" viewBox="0 0 24 24"><style>.st0{fill:#fff}</style><g id="Rand_weiß"><path d="M5.8 0h12.5C21.4 0 24 2.6 24 5.7v12.5c0 3.2-2.6 5.8-5.8 5.8H5.8C2.6 24 0 21.4 0 18.2V5.7C0 2.6 2.6 0 5.8 0z" class="st0"/><path d="M24 5.7v12.5c0 3.2-2.6 5.8-5.8 5.8H5.8C2.6 24 0 21.4 0 18.2V5.7C0 2.6 2.6 0 5.8 0h12.5C21.4 0 24 2.6 24 5.7z" class="st0"/></g><path id="Flächen_deaktiviert" d="M5.8 2h12.5c2 0 3.7 1.7 3.7 3.7v12.5c0 2.1-1.7 3.8-3.8 3.8H5.8C3.7 22 2 20.3 2 18.2V5.7C2 3.7 3.7 2 5.8 2z" style="fill:#afadac"/><g id="Symbole_weiß"><g id="Layer_2"><path d="M11.2 16.7v1.6H8.9v1.5H15v-1.5h-2.3v-1.6c3.4-.4 5.7-3.5 5.3-6.8-.4-3.4-3.5-5.7-6.8-5.3S5.5 8 5.9 11.4c.4 2.8 2.6 5 5.3 5.3zm.8-9.1c1.7 0 3.1 1.4 3.1 3.1s-1.4 3.1-3.1 3.1-3.1-1.4-3.1-3.1c0-1.8 1.4-3.1 3.1-3.1z" class="st0"/><circle cx="12" cy="10.6" r="1.5" class="st0"/></g></g></svg>