<?xml version="1.0" encoding="UTF-8"?><svg id="Ebene_2" xmlns="http://www.w3.org/2000/svg" viewBox="0 0 88 31"><defs><style>.cls-1{fill:#fff;}.cls-2{fill:#aab2ab;}.cls-3{fill-rule:evenodd;}</style></defs><g id="Ebene_1-2"><g id="Ebene_2-2"><g id="Icons"><g id="layer1"><g id="g2370"><path id="path3817" class="cls-2" d="M2.5,.33l83.13,.15c1.16,0,2.19-.18,2.19,2.33l-.1,27.55H.4V2.71C.4,1.47,.52,.33,2.5,.33Z"/><path id="path364" d="M86.35,0H1.65C.739,0,0,.739,0,1.65c0,.003,0,.007,0,.01V30.66c.02,.19,.179,.336,.37,.34H87.63c.202-.005,.365-.168,.37-.37V1.63C87.989,.727,87.254,0,86.35,0ZM1.65,.75H86.35c.503,0,.91,.407,.91,.91h0V21.75H26.71c-3.451,6.296-11.352,8.603-17.648,5.152-2.173-1.191-3.961-2.979-5.152-5.152H.74V1.66c0-.503,.407-.91,.91-.91Z"/><g id="g5908"><path id="path5906" class="cls-1" d="M25.32,14.43c0,5.523-4.477,10-10,10S5.32,19.953,5.32,14.43h0c0-5.523,4.477-10,10-10s10,4.477,10,10Z"/><g id="g5706"><path id="path5708" d="M23.45,6.23c2.185,2.162,3.385,5.127,3.32,8.2,.077,3.039-1.106,5.975-3.27,8.11-2.142,2.231-5.107,3.483-8.2,3.46-3.024,.02-5.92-1.215-8-3.41-2.201-2.128-3.427-5.069-3.39-8.13-.032-3.081,1.192-6.041,3.39-8.2,2.08-2.19,4.979-3.415,8-3.38,3.064-.062,6.015,1.152,8.15,3.35Zm-14.71,1.5c-1.813,1.755-2.829,4.176-2.81,6.7-.023,2.501,.982,4.901,2.78,6.64,1.724,1.815,4.127,2.829,6.63,2.8,2.521,.003,4.931-1.036,6.66-2.87,1.79-1.725,2.771-4.125,2.7-6.61,.046-2.498-.929-4.907-2.7-6.67-1.745-1.793-4.158-2.779-6.66-2.72-2.486-.058-4.881,.933-6.6,2.73Zm4.93,5.57c-.18-.556-.696-.934-1.28-.94-1,0-1.52,.68-1.52,2.05s.5,2.06,1.52,2.06c.642,.01,1.219-.393,1.43-1l1.4,.75c-.567,1.129-1.737,1.827-3,1.79-.927,.027-1.823-.335-2.47-1-.655-.714-.995-1.662-.94-2.63-.038-.973,.323-1.92,1-2.62,.622-.653,1.488-1.016,2.39-1,1.243-.076,2.415,.581,3,1.68l-1.53,.86Zm6.6,0c-.182-.55-.69-.927-1.27-.94-1,0-1.54,.68-1.54,2.05s.54,2.06,1.54,2.06c.64,.017,1.215-.39,1.41-1l1.43,.75c-.567,1.129-1.737,1.827-3,1.79-.927,.027-1.823-.335-2.47-1-.648-.718-.983-1.664-.93-2.63-.051-.964,.288-1.908,.94-2.62,.622-.658,1.495-1.021,2.4-1,1.243-.076,2.415,.581,3,1.68l-1.51,.86Z"/></g></g><g id="g370"><path id="path372" class="cls-1" d="M35.27,24.17c.212-.002,.423,.018,.63,.06,.175,.034,.341,.102,.49,.2,.137,.098,.247,.228,.32,.38,.078,.18,.115,.374,.11,.57,.013,.22-.047,.438-.17,.62-.124,.176-.293,.314-.49,.4,.272,.067,.51,.23,.67,.46,.156,.23,.237,.502,.23,.78,.006,.223-.046,.443-.15,.64-.087,.177-.218,.328-.38,.44-.159,.123-.338,.218-.53,.28-.209,.052-.424,.079-.64,.08h-2.36v-4.91h2.27Zm-.14,2c.171-.003,.337-.063,.47-.17,.131-.107,.202-.271,.19-.44,.007-.098-.018-.196-.07-.28-.034-.072-.09-.132-.16-.17-.072-.04-.15-.07-.23-.09h-1.28v1.14l1.08,.01Zm.06,2.07c.1,.011,.2,.011,.3,0,.092-.017,.18-.051,.26-.1,.074-.05,.133-.119,.17-.2,.044-.097,.065-.203,.06-.31,.019-.203-.059-.403-.21-.54-.163-.116-.36-.173-.56-.16h-1.16v1.34l1.14-.03Z"/><path id="path374" class="cls-1" d="M37.24,24.17h1.2l1.14,1.93,1.13-1.93h1.19l-1.8,3v1.88h-1.1v-1.9l-1.76-2.98Z"/></g><g id="g376"><path id="path378" class="cls-1" d="M53.18,24.17l2,3.28h0v-3.28h1v4.89h-1.03l-2-3.27h0v3.27h-1v-4.89h1.03Z"/><path id="path380" class="cls-1" d="M60.28,25.47c-.082-.101-.176-.192-.28-.27-.098-.08-.21-.141-.33-.18-.119-.04-.244-.06-.37-.06-.215-.009-.43,.039-.62,.14-.163,.087-.3,.215-.4,.37-.109,.165-.187,.348-.23,.54-.049,.203-.072,.411-.07,.62-.003,.202,.021,.404,.07,.6,.044,.186,.122,.363,.23,.52,.102,.156,.239,.286,.4,.38,.192,.096,.405,.145,.62,.14,.284,.013,.561-.096,.76-.3,.197-.223,.317-.503,.34-.8h1c-.015,.288-.087,.57-.21,.83-.103,.24-.256,.455-.45,.63-.184,.18-.406,.317-.65,.4-.263,.094-.541,.142-.82,.14-.343,.002-.684-.066-1-.2-.285-.126-.54-.31-.75-.54-.208-.233-.368-.505-.47-.8-.11-.322-.164-.66-.16-1-.004-.34,.05-.678,.16-1,.102-.301,.262-.58,.47-.82,.207-.236,.463-.424,.75-.55,.316-.134,.657-.202,1-.2,.258-.002,.515,.039,.76,.12,.232,.073,.449,.189,.64,.34,.189,.15,.346,.337,.46,.55,.125,.232,.204,.487,.23,.75h-1c-.007-.12-.034-.239-.08-.35Z"/></g><g id="g382"><path id="path384" class="cls-1" d="M72.13,24.17l2,3.28h0v-3.28h1v4.89h-1.03l-2-3.27h0v3.27h-1v-4.89h1.03Z"/><path id="path386" class="cls-1" d="M78.2,24.17c.3-.003,.598,.048,.88,.15,.263,.097,.502,.251,.7,.45,.207,.217,.364,.476,.46,.76,.119,.341,.176,.699,.17,1.06,.003,.338-.044,.675-.14,1-.079,.286-.219,.552-.41,.78-.187,.224-.423,.402-.69,.52-.314,.14-.656,.205-1,.19h-2.06v-4.91h2.09Zm-.07,4c.153,.001,.305-.022,.45-.07,.145-.057,.278-.142,.39-.25,.119-.134,.211-.29,.27-.46,.074-.219,.108-.449,.1-.68,.004-.225-.019-.45-.07-.67-.043-.185-.125-.359-.24-.51-.112-.144-.26-.254-.43-.32-.21-.082-.435-.119-.66-.11h-.76v3.07h.95Z"/></g><g id="g6394"><path id="path6396" class="cls-1" d="M84.09,11.06c0,4.286-3.474,7.76-7.76,7.76s-7.76-3.474-7.76-7.76h0c0-4.286,3.474-7.76,7.76-7.76s7.76,3.474,7.76,7.76Z"/><g id="g6398"><path id="path6400" d="M76.21,2.5c-2.258-.044-4.432,.855-6,2.48-1.626,1.603-2.532,3.797-2.51,6.08-.019,2.259,.888,4.427,2.51,6,1.564,1.637,3.736,2.553,6,2.53,2.291,.021,4.49-.901,6.08-2.55,1.605-1.578,2.484-3.75,2.43-6,.038-2.267-.855-4.45-2.47-6.04-1.58-1.635-3.767-2.54-6.04-2.5Zm0,1.54c1.854-.034,3.638,.71,4.92,2.05,1.331,1.317,2.056,3.128,2,5,.05,1.841-.676,3.619-2,4.9-1.308,1.355-3.117,2.111-5,2.09-1.822-.011-3.562-.762-4.82-2.08-1.334-1.287-2.079-3.067-2.06-4.92-.021-1.881,.731-3.688,2.08-5,1.267-1.353,3.047-2.108,4.9-2.08l-.02,.04Z"/><g id="g6402"><path id="path6404" d="M79.43,9h-6.18v1.5h6.18v-1.5Zm0,2.75h-6.18v1.47h6.18v-1.47Z"/></g></g></g><g id="g398"><ellipse id="circle400" class="cls-1" cx="37.96" cy="11.23" rx="7.88" ry="7.93"/><g id="g402"><path id="path404" d="M40.24,8.94c0-.304-.246-.55-.55-.55h-3.48c-.304,0-.55,.246-.55,.55v3.5h1v4.14h2.64v-4.14h1v-3.5h-.06Z"/><ellipse id="circle406" cx="37.95" cy="6.73" rx="1.19" ry="1.2"/></g><path id="path408" class="cls-3" d="M37.94,2.5c-2.241-.024-4.391,.881-5.94,2.5-1.63,1.6-2.537,3.796-2.51,6.08-.024,2.26,.884,4.43,2.51,6,1.562,1.639,3.736,2.556,6,2.53,2.261-.003,4.424-.919,6-2.54,1.602-1.579,2.478-3.751,2.42-6,.056-2.269-.818-4.462-2.42-6.07-1.587-1.636-3.781-2.541-6.06-2.5Zm.06,1.5c1.854-.034,3.638,.71,4.92,2.05,1.331,1.317,2.056,3.128,2,5,.055,1.842-.672,3.622-2,4.9-1.306,1.357-3.116,2.114-5,2.09-1.851,.027-3.631-.711-4.92-2.04-1.313-1.305-2.036-3.089-2-4.94-.017-1.882,.739-3.689,2.09-5,1.271-1.351,3.055-2.1,4.91-2.06Z"/></g><g id="g2366"><path id="path6372" class="cls-1" d="M64.39,11.06c.149,4.034-3,7.426-7.035,7.575-4.034,.149-7.426-3-7.575-7.035-.007-.18-.007-.36,0-.541h0c-.149-4.034,3-7.426,7.035-7.575,4.034-.149,7.426,3,7.575,7.035,.007,.18,.007,.36,0,.541Z"/><path id="path45" d="M63.12,5c-1.573-1.618-3.744-2.515-6-2.48-2.259-.051-4.436,.849-6,2.48-1.626,1.603-2.532,3.797-2.51,6.08-.019,2.259,.888,4.427,2.51,6,1.564,1.637,3.736,2.553,6,2.53,2.293,.019,4.494-.902,6.09-2.55,1.605-1.578,2.484-3.75,2.43-6,.027-2.28-.884-4.471-2.52-6.06Zm-1.07,11c-1.306,1.358-3.116,2.115-5,2.09-1.842,.005-3.604-.752-4.87-2.09-1.337-1.286-2.085-3.065-2.07-4.92-.003-.776,.125-1.547,.38-2.28l2.25,1h-.16v1h.8v.67h-.78v1h.92c.106,.677,.381,1.317,.8,1.86,.819,1.073,2.1,1.693,3.45,1.67,.778,0,1.544-.192,2.23-.56l-.35-1.59c-.506,.243-1.059,.373-1.62,.38-.69,.031-1.36-.234-1.84-.73-.233-.292-.394-.634-.47-1h3.1l4.4,2c-.316,.553-.71,1.058-1.17,1.5Zm-2.88-5.16h.13v-1h-2.41l-1-.43c.074-.181,.175-.35,.3-.5,.433-.553,1.108-.863,1.81-.83,.544,.008,1.081,.123,1.58,.34l.4-1.63c-.676-.289-1.405-.435-2.14-.43-1.257-.018-2.46,.516-3.29,1.46-.177,.215-.334,.446-.47,.69l-2.8-1.24c.294-.425,.629-.82,1-1.18,1.277-1.324,3.051-2.049,4.89-2,1.816-.022,3.561,.701,4.83,2,1.331,1.317,2.056,3.128,2,5,.003,.613-.067,1.224-.21,1.82l-4.62-2.07Z"/></g></g></g></g></g></g></svg>