<svg xmlns="http://www.w3.org/2000/svg" id="Ebene_2" viewBox="0 0 88 31"><defs><style>.cls-1{fill:#fff}</style></defs><g id="Ebene_1-2"><g id="Ebene_2-2"><g id="Icons"><g id="layer1"><g id="g2370"><path id="path3817" d="m2.5.33 83.13.15c1.16 0 2.19-.18 2.19 2.33l-.1 27.55H.4V2.71C.4 1.47.52.33 2.5.33Z" style="fill:#aab2ab"/><path id="path364" d="M86.35 0H1.65A1.65 1.65 0 0 0 0 1.65v29.01a.38.38 0 0 0 .37.34h87.26a.38.38 0 0 0 .37-.37v-29A1.65 1.65 0 0 0 86.35 0ZM1.65.75h84.7a.91.91 0 0 1 .91.91v20.09H26.71c-3.451 6.296-11.352 8.603-17.648 5.152A13.002 13.002 0 0 1 3.91 21.75H.74V1.66a.91.91 0 0 1 .91-.91Z"/><g id="g5908"><path id="path5906" d="M25.32 14.43c0 5.523-4.477 10-10 10s-10-4.477-10-10 4.477-10 10-10 10 4.477 10 10Z" class="cls-1"/><g id="g5706"><path id="path5708" d="M23.45 6.23a11.202 11.202 0 0 1 3.32 8.2 11 11 0 0 1-3.27 8.11A11.252 11.252 0 0 1 15.3 26a10.921 10.921 0 0 1-8-3.41 11.121 11.121 0 0 1-3.39-8.13 11.328 11.328 0 0 1 3.39-8.2 10.86 10.86 0 0 1 8-3.38 11.05 11.05 0 0 1 8.15 3.35ZM8.74 7.73a9.228 9.228 0 0 0-2.81 6.7 9.12 9.12 0 0 0 2.78 6.64 9 9 0 0 0 6.63 2.8A9.138 9.138 0 0 0 22 21a8.83 8.83 0 0 0 2.7-6.61A9.173 9.173 0 0 0 22 7.72 8.998 8.998 0 0 0 15.34 5a8.848 8.848 0 0 0-6.6 2.73Zm4.93 5.57a1.36 1.36 0 0 0-1.28-.94c-1 0-1.52.68-1.52 2.05s.5 2.06 1.52 2.06a1.49 1.49 0 0 0 1.43-1l1.4.75a3.25 3.25 0 0 1-3 1.79 3.31 3.31 0 0 1-2.47-1 3.59 3.59 0 0 1-.94-2.63 3.569 3.569 0 0 1 1-2.62 3.221 3.221 0 0 1 2.39-1 3.179 3.179 0 0 1 3 1.68l-1.53.86Zm6.6 0a1.37 1.37 0 0 0-1.27-.94c-1 0-1.54.68-1.54 2.05S18 16.47 19 16.47a1.44 1.44 0 0 0 1.41-1l1.43.75a3.25 3.25 0 0 1-3 1.79 3.31 3.31 0 0 1-2.47-1 3.628 3.628 0 0 1-.93-2.63 3.598 3.598 0 0 1 .94-2.62 3.201 3.201 0 0 1 2.4-1 3.179 3.179 0 0 1 3 1.68l-1.51.86Z"/></g></g><g id="g370"><path id="path372" d="M35.27 24.17c.212-.002.423.018.63.06.175.034.341.102.49.2a.998.998 0 0 1 .32.38c.078.18.115.374.11.57.013.22-.047.438-.17.62a1.173 1.173 0 0 1-.49.4c.272.067.51.23.67.46.156.23.237.502.23.78.006.223-.046.443-.15.64a1.154 1.154 0 0 1-.38.44A1.74 1.74 0 0 1 36 29a2.704 2.704 0 0 1-.64.08H33v-4.91h2.27Zm-.14 2a.773.773 0 0 0 .47-.17.52.52 0 0 0 .19-.44.47.47 0 0 0-.07-.28.376.376 0 0 0-.16-.17.948.948 0 0 0-.23-.09h-1.28v1.14l1.08.01Zm.06 2.07c.1.011.2.011.3 0a.763.763 0 0 0 .26-.1.485.485 0 0 0 .17-.2.674.674 0 0 0 .06-.31.648.648 0 0 0-.21-.54.868.868 0 0 0-.56-.16h-1.16v1.34l1.14-.03Z" class="cls-1"/><path id="path374" d="M37.24 24.17h1.2l1.14 1.93 1.13-1.93h1.19l-1.8 3v1.88H39v-1.9l-1.76-2.98Z" class="cls-1"/></g><g id="g376"><path id="path378" d="m53.18 24.17 2 3.28v-3.28h1v4.89h-1.03l-2-3.27v3.27h-1v-4.89h1.03Z" class="cls-1"/><path id="path380" d="M60.28 25.47a1.59 1.59 0 0 0-.28-.27 1.021 1.021 0 0 0-.33-.18 1.161 1.161 0 0 0-.37-.06 1.215 1.215 0 0 0-.62.14c-.163.087-.3.215-.4.37a1.624 1.624 0 0 0-.23.54 2.537 2.537 0 0 0-.07.62c-.003.202.021.404.07.6.044.186.122.363.23.52.102.156.239.286.4.38.192.096.405.145.62.14a.999.999 0 0 0 .76-.3c.197-.223.317-.503.34-.8h1a2.21 2.21 0 0 1-.21.83c-.103.24-.256.455-.45.63-.184.18-.406.317-.65.4a2.388 2.388 0 0 1-.82.14 2.526 2.526 0 0 1-1-.2 2.244 2.244 0 0 1-1.22-1.34 2.984 2.984 0 0 1-.16-1c-.004-.34.05-.678.16-1 .102-.301.262-.58.47-.82.207-.236.463-.424.75-.55a2.526 2.526 0 0 1 1-.2c.258-.002.515.039.76.12.232.073.449.189.64.34.189.15.346.337.46.55.125.232.204.487.23.75h-1a1.081 1.081 0 0 0-.08-.35Z" class="cls-1"/></g><g id="g382"><path id="path384" d="m72.13 24.17 2 3.28v-3.28h1v4.89H74.1l-2-3.27v3.27h-1v-4.89h1.03Z" class="cls-1"/><path id="path386" d="M78.2 24.17c.3-.003.598.048.88.15.263.097.502.251.7.45.207.217.364.476.46.76.119.341.176.699.17 1.06.003.338-.044.675-.14 1a2.076 2.076 0 0 1-.41.78 1.899 1.899 0 0 1-.69.52c-.314.14-.656.205-1 .19h-2.06v-4.91h2.09Zm-.07 4c.153.001.305-.022.45-.07.145-.057.278-.142.39-.25.119-.134.211-.29.27-.46.074-.219.108-.449.1-.68a2.75 2.75 0 0 0-.07-.67 1.345 1.345 0 0 0-.24-.51 1.003 1.003 0 0 0-.43-.32 1.635 1.635 0 0 0-.66-.11h-.76v3.07h.95Z" class="cls-1"/></g><g id="g6394"><path id="path6396" d="M84.09 11.06c0 4.286-3.474 7.76-7.76 7.76s-7.76-3.474-7.76-7.76 3.474-7.76 7.76-7.76 7.76 3.474 7.76 7.76Z" class="cls-1"/><g id="g6398"><path id="path6400" d="M76.21 2.5a8.118 8.118 0 0 0-6 2.48 8.424 8.424 0 0 0-2.51 6.08 8.261 8.261 0 0 0 2.51 6 8.183 8.183 0 0 0 6 2.53 8.34 8.34 0 0 0 6.08-2.55 8.14 8.14 0 0 0 2.43-6A8.281 8.281 0 0 0 82.25 5a8.198 8.198 0 0 0-6.04-2.5Zm0 1.54a6.642 6.642 0 0 1 4.92 2.05 6.75 6.75 0 0 1 2 5 6.57 6.57 0 0 1-2 4.9 6.844 6.844 0 0 1-5 2.09A6.72 6.72 0 0 1 71.31 16a6.741 6.741 0 0 1-2.06-4.92 6.868 6.868 0 0 1 2.08-5A6.577 6.577 0 0 1 76.23 4l-.02.04Z"/><g id="g6402"><path id="path6404" d="M79.43 9h-6.18v1.5h6.18V9Zm0 2.75h-6.18v1.47h6.18v-1.47Z"/></g></g></g><g id="g398"><ellipse id="circle400" cx="37.96" cy="11.23" class="cls-1" rx="7.88" ry="7.93"/><g id="g402"><path id="path404" d="M40.24 8.94a.55.55 0 0 0-.55-.55h-3.48a.55.55 0 0 0-.55.55v3.5h1v4.14h2.64v-4.14h1v-3.5h-.06Z"/><ellipse id="circle406" cx="37.95" cy="6.73" rx="1.19" ry="1.2"/></g><path id="path408" d="M37.94 2.5A8.1 8.1 0 0 0 32 5a8.381 8.381 0 0 0-2.51 6.08 8.22 8.22 0 0 0 2.51 6 8.16 8.16 0 0 0 6 2.53 8.383 8.383 0 0 0 6-2.54 8.13 8.13 0 0 0 2.42-6A8.31 8.31 0 0 0 44 5a8.236 8.236 0 0 0-6.06-2.5ZM38 4a6.642 6.642 0 0 1 4.92 2.05 6.75 6.75 0 0 1 2 5 6.531 6.531 0 0 1-2 4.9 6.82 6.82 0 0 1-5 2.09A6.717 6.717 0 0 1 33 16a6.779 6.779 0 0 1-2-4.94 6.882 6.882 0 0 1 2.09-5A6.547 6.547 0 0 1 38 4Z" style="fill-rule:evenodd"/></g><g id="g2366"><path id="path6372" d="M64.39 11.06a7.31 7.31 0 1 1-14.61-.001 7.31 7.31 0 1 1 14.61.001Z" class="cls-1"/><path id="path45" d="M63.12 5a8.191 8.191 0 0 0-6-2.48 8.061 8.061 0 0 0-6 2.48 8.424 8.424 0 0 0-2.51 6.08 8.261 8.261 0 0 0 2.51 6 8.183 8.183 0 0 0 6 2.53 8.38 8.38 0 0 0 6.09-2.55 8.14 8.14 0 0 0 2.43-6A8.31 8.31 0 0 0 63.12 5Zm-1.07 11a6.812 6.812 0 0 1-5 2.09A6.68 6.68 0 0 1 52.18 16a6.75 6.75 0 0 1-2.07-4.92 6.858 6.858 0 0 1 .38-2.28l2.25 1h-.16v1h.8v.67h-.78v1h.92c.106.677.381 1.317.8 1.86A4.25 4.25 0 0 0 57.77 16c.778 0 1.544-.192 2.23-.56l-.35-1.59a3.854 3.854 0 0 1-1.62.38 2.409 2.409 0 0 1-1.84-.73 2.377 2.377 0 0 1-.47-1h3.1l4.4 2a6.669 6.669 0 0 1-1.17 1.5Zm-2.88-5.16h.13v-1h-2.41l-1-.43a1.91 1.91 0 0 1 .3-.5A2.17 2.17 0 0 1 58 8.08a4.113 4.113 0 0 1 1.58.34l.4-1.63a5.353 5.353 0 0 0-2.14-.43 4.3 4.3 0 0 0-3.29 1.46 4.636 4.636 0 0 0-.47.69l-2.8-1.24c.294-.425.629-.82 1-1.18a6.55 6.55 0 0 1 4.89-2 6.64 6.64 0 0 1 4.83 2 6.75 6.75 0 0 1 2 5 7.64 7.64 0 0 1-.21 1.82l-4.62-2.07Z"/></g></g></g></g></g></g></svg>