<svg xmlns="http://www.w3.org/2000/svg" viewBox="0 0 14 14"><circle cx="7" cy="7" r="7" style="fill:#af4314"/><path d="M5.81 11.22a3.913 3.913 0 0 1-1.36-.85A3.81 3.81 0 0 1 3.56 9a5.253 5.253 0 0 1-.33-1.93 5.22 5.22 0 0 1 .33-1.92c.2-.541.51-1.035.91-1.45.387-.39.85-.697 1.36-.9a4.462 4.462 0 0 1 1.64-.3c.559-.017 1.115.1 1.62.34.409.204.783.47 1.11.79l-1 1.25a3.723 3.723 0 0 0-.71-.49 1.933 1.933 0 0 0-.93-.2 2.16 2.16 0 0 0-.92.19c-.282.13-.531.322-.73.56a2.59 2.59 0 0 0-.47.87A3.913 3.913 0 0 0 5.24 7c-.048.744.168 1.48.61 2.08a2.231 2.231 0 0 0 1.83.74c.176.002.351-.022.52-.07.15-.034.291-.103.41-.2v-1.5H7.17v-1.6h3.17v4c-.35.322-.757.576-1.2.75a4.363 4.363 0 0 1-1.66.3 4.8 4.8 0 0 1-1.67-.28Z" style="fill:#fff"/></svg>