<?xml version="1.0" encoding="UTF-8"?><svg id="Ebene_2" xmlns="http://www.w3.org/2000/svg" viewBox="0 0 14 14"><defs><style>.cls-1{fill:#fff;}.cls-2{fill:#af4314;}</style></defs><g id="Ebene_1-2"><g id="Ebene_2-2"><g id="Ebene_2-2"><circle class="cls-2" cx="7" cy="7" r="7"/><path class="cls-1" d="M5.81,11.22c-.507-.186-.97-.476-1.36-.85-.392-.387-.696-.854-.89-1.37-.23-.617-.342-1.272-.33-1.93-.011-.655,.1-1.306,.33-1.92,.2-.541,.51-1.035,.91-1.45,.387-.39,.85-.697,1.36-.9,.523-.202,1.079-.304,1.64-.3,.559-.017,1.115,.1,1.62,.34,.409,.204,.783,.47,1.11,.79l-1,1.25c-.217-.19-.455-.355-.71-.49-.289-.143-.608-.212-.93-.2-.317-.005-.631,.06-.92,.19-.282,.13-.531,.322-.73,.56-.211,.257-.371,.553-.47,.87-.128,.384-.195,.785-.2,1.19-.048,.744,.168,1.48,.61,2.08,.462,.518,1.138,.791,1.83,.74,.176,.002,.351-.022,.52-.07,.15-.034,.291-.103,.41-.2v-1.5h-1.44v-1.6h3.17v4c-.35,.322-.757,.576-1.2,.75-.529,.207-1.092,.309-1.66,.3-.569,.006-1.134-.088-1.67-.28Z"/></g></g></g></svg>