<svg xmlns="http://www.w3.org/2000/svg" id="Ebene_2" viewBox="0 0 120.3 42.821"><defs><linearGradient id="Unbenannter_Verlauf" x1="59.914" x2="59.914" y1="42.285" y2="20.285" gradientTransform="matrix(1 0 0 -1 0 43.286)" gradientUnits="userSpaceOnUse"><stop offset="0" stop-color="#fff"/><stop offset=".262" stop-color="#ffe6bf"/><stop offset=".71" stop-color="#ffb23c"/><stop offset=".927" stop-color="#fff"/></linearGradient><style>.cls-1{fill:#fff}.cls-6,.cls-7,.cls-8{fill-rule:evenodd}.cls-6{fill:#e53212}.cls-14{fill:#274c89}.cls-7{fill:#1d1d1b}.cls-16{fill:#016fd0}.cls-8{fill:#0069b3}.cls-17{fill:#00579f}</style></defs><g id="Ebene_1-2"><path d="M3.501 42.268v-.995c0-.381-.232-.63-.63-.63a.652.652 0 0 0-.564.282.582.582 0 0 0-.532-.282.535.535 0 0 0-.464.232v-.199H.963v1.593h.348v-.88c0-.282.149-.416.381-.416s.348.149.348.416v.88h.348v-.88c0-.282.166-.416.381-.416.232 0 .348.149.348.416v.88h.384Zm5.161-1.594h-.564v-.481H7.75v.481h-.316v.315h.315v.731c0 .365.149.58.547.58.149 0 .315-.05.431-.116l-.101-.3a.554.554 0 0 1-.3.083c-.166 0-.232-.101-.232-.265v-.713h.564v-.315h.004Zm2.953-.035a.474.474 0 0 0-.416.232v-.199h-.348v1.593h.348v-.897c0-.265.116-.416.332-.416.066 0 .149.017.216.033l.101-.332c-.068-.014-.167-.014-.233-.014Zm-4.463.166c-.166-.116-.398-.166-.648-.166-.398 0-.663.199-.663.514 0 .265.199.416.547.464l.166.017c.182.033.282.083.282.166 0 .116-.133.199-.365.199s-.416-.083-.532-.166l-.165.265c.182.133.431.199.68.199.464 0 .731-.216.731-.514 0-.282-.216-.431-.547-.481l-.166-.017c-.149-.017-.265-.05-.265-.149 0-.116.116-.182.3-.182.199 0 .398.083.499.133l.146-.282Zm9.257-.166a.474.474 0 0 0-.416.232v-.199h-.348v1.593h.348v-.897c0-.265.116-.416.332-.416.066 0 .149.017.216.033l.101-.329c-.067-.017-.165-.017-.233-.017Zm-4.446.831c0 .481.332.829.847.829.232 0 .398-.05.564-.182l-.166-.282a.662.662 0 0 1-.416.149c-.282 0-.481-.199-.481-.514 0-.3.199-.499.481-.514a.68.68 0 0 1 .416.149l.166-.282c-.166-.133-.332-.182-.564-.182-.514-.002-.847.348-.847.829Zm3.219 0v-.796h-.348v.199a.6.6 0 0 0-.499-.232c-.448 0-.796.348-.796.829s.348.829.796.829c.232 0 .398-.083.499-.232v.199h.348v-.796Zm-1.278 0c0-.282.182-.514.481-.514.282 0 .481.216.481.514 0 .282-.199.514-.481.514a.49.49 0 0 1-.481-.514Zm-4.164-.831c-.464 0-.796.332-.796.829s.332.829.814.829c.232 0 .464-.066.648-.216l-.166-.249a.787.787 0 0 1-.464.166c-.216 0-.431-.101-.481-.381h1.177v-.133c.014-.513-.285-.845-.732-.845Zm0 .3c.216 0 .365.133.398.381h-.829c.033-.215.182-.381.431-.381Zm8.645.531v-1.427h-.348v.829a.6.6 0 0 0-.499-.232c-.448 0-.796.348-.796.829s.348.829.796.829c.232 0 .398-.083.499-.232v.199h.348v-.795Zm-1.278 0c0-.282.182-.514.481-.514.282 0 .481.216.481.514 0 .282-.199.514-.481.514-.299-.017-.481-.234-.481-.514Zm-11.648 0v-.796h-.348v.199a.6.6 0 0 0-.499-.232c-.448 0-.796.348-.796.829s.348.829.796.829c.232 0 .398-.083.499-.232v.199h.348v-.796Zm-1.294 0c0-.282.182-.514.481-.514.282 0 .481.216.481.514 0 .282-.199.514-.481.514-.299-.017-.481-.234-.481-.514Z"/><path id="rect19" d="M7.036 28.578h5.227v9.39H7.036z" style="fill:#ff5a00"/><path d="M7.384 33.273a5.99 5.99 0 0 1 2.273-4.695A5.969 5.969 0 0 0 0 33.273a5.969 5.969 0 0 0 9.657 4.695 5.96 5.96 0 0 1-2.273-4.695Z" style="fill:#eb001b"/><path id="path22" d="M19.314 33.273a5.969 5.969 0 0 1-9.657 4.695c1.394-1.096 2.273-2.787 2.273-4.695s-.897-3.601-2.273-4.695a5.934 5.934 0 0 1 3.682-1.278 5.98 5.98 0 0 1 5.975 5.973Z" style="fill:#f79e1b"/><g id="g4158"><path id="polygon9" d="M33.156 38.793h-2.06l1.289-7.96h2.06l-1.289 7.96z" class="cls-17"/><path id="path11" d="M40.62 31.028a5.122 5.122 0 0 0-1.847-.341c-2.033 0-3.464 1.085-3.473 2.636-.018 1.143 1.023 1.776 1.803 2.162.797.39 1.068.642 1.068.992-.009.532-.642.78-1.236.78-.824 0-1.263-.128-1.931-.425l-.27-.128-.288 1.785c.483.221 1.373.416 2.295.425 2.162 0 3.566-1.068 3.584-2.72.009-.908-.54-1.599-1.728-2.166-.722-.363-1.161-.611-1.161-.983.009-.337.372-.687 1.187-.687a3.437 3.437 0 0 1 1.533.306l.186.084.279-1.719Z" class="cls-17"/><path id="path13" d="m43.353 35.971.824-2.228c-.009.018.168-.465.27-.762l.142.687s.39 1.905.474 2.304h-1.71Zm2.543-5.139h-1.59c-.492 0-.864.142-1.076.66l-3.057 7.301h2.162s.354-.983.434-1.196h2.645c.058.279.244 1.196.244 1.196h1.905l-1.666-7.961Z" class="cls-17"/><path id="path15" d="m29.377 30.833-2.016 5.431-.221-1.103c-.372-1.271-1.542-2.649-2.844-3.336l1.847 6.964h2.175l3.234-7.952h-2.175v-.004Z" class="cls-17"/><path id="path17" d="M25.492 30.833h-3.314l-.035.159c2.583.66 4.293 2.255 4.997 4.169l-.722-3.659c-.115-.509-.478-.651-.926-.669Z" style="fill:#faa61a"/></g><g id="layer1"><path id="path3078" d="M51.033 27.316h14.97v8.081l-.741 1.158.741 1.03v4.701h-14.97v-7.618l.463-.533-.463-.509v-6.31Z" class="cls-16"/><path id="path3082" d="M53.939 37.747v-2.35h2.489l.267.348.276-.348h9.033v2.188s-.236.16-.509.162h-5.002l-.301-.37v.37h-.986v-.632s-.135.088-.426.088h-.336v.544H56.95l-.267-.355-.271.355h-2.473Z" class="cls-1"/><path id="path3080" d="m51.033 33.625.561-1.308h.97l.318.733v-.733h1.206l.19.53.184-.53h5.416v.266s.285-.266.753-.266l1.757.006.313.723v-.729h1.01l.278.416v-.416h1.019v2.35h-1.019l-.266-.417v.417H62.24l-.149-.37h-.399l-.147.37h-1.006c-.403 0-.66-.261-.66-.261v.261h-1.517l-.301-.37v.37h-5.64l-.149-.37h-.397l-.148.37h-.693v-1.042Z" class="cls-1"/><path id="path3046" d="m51.793 32.607-.757 1.76h.493l.14-.352h.812l.139.352h.504l-.756-1.76h-.575Zm.28.409.247.616h-.496l.249-.616Z" class="cls-16"/><path id="path3048" d="M53.175 34.366v-1.76l.7.003.407 1.135.398-1.137h.695v1.76h-.44V33.07l-.466 1.297h-.386l-.468-1.297v1.297h-.44Z" class="cls-16"/><path id="path3050" d="M55.676 34.366v-1.76h1.436V33h-.991v.301h.968v.37h-.968v.313h.991v.382h-1.436Z" class="cls-16"/><path id="path3052" d="M57.366 32.607v1.76h.44v-.625h.185l.528.625h.538l-.579-.648a.536.536 0 0 0 .483-.541c0-.37-.291-.571-.615-.571h-.98Zm.44.394h.503c.121 0 .208.094.208.185 0 .117-.114.185-.202.185h-.509v-.37Z" class="cls-16"/><path id="path3054" d="M59.589 34.366h-.449v-1.76h.449v1.76Z" class="cls-16"/><path id="path3056" d="M60.654 34.366h-.097c-.469 0-.754-.37-.754-.873 0-.516.282-.887.874-.887h.486v.417h-.504c-.241 0-.411.188-.411.475 0 .341.194.484.475.484h.116l-.185.384Z" class="cls-16"/><path id="path3058" d="m61.611 32.607-.757 1.76h.493l.14-.352h.812l.139.352h.504l-.756-1.76h-.575Zm.28.409.247.616h-.496l.249-.616Z" class="cls-16"/><path id="path3060" d="M62.993 34.366v-1.76h.559l.714 1.106v-1.106h.44v1.76h-.541l-.732-1.135v1.135h-.44Z" class="cls-16"/><path id="path3062" d="M54.24 37.446v-1.76h1.436v.394h-.991v.301h.968v.37h-.968v.313h.991v.382H54.24Z" class="cls-16"/><path id="path3064" d="M61.275 37.446v-1.76h1.436v.394h-.991v.301h.963v.37h-.963v.313h.991v.382h-1.436Z" class="cls-16"/><path id="path3066" d="m55.731 37.446.699-.869-.716-.891h.554l.426.551.428-.551h.533l-.706.88.7.88h-.554l-.414-.542-.404.542h-.546Z" class="cls-16"/><path id="path3068" d="M57.702 35.687v1.76h.452v-.556h.463c.392 0 .689-.208.689-.612 0-.335-.233-.592-.632-.592h-.972Zm.451.398h.488c.127 0 .217.078.217.203 0 .117-.09.203-.219.203h-.486v-.406Z" class="cls-16"/><path id="path3072" d="M59.496 35.686v1.76h.44v-.625h.185l.528.625h.538l-.579-.648a.536.536 0 0 0 .483-.541c0-.37-.291-.571-.615-.571h-.98Zm.44.394h.503c.121 0 .208.094.208.185 0 .117-.114.185-.202.185h-.509v-.37Z" class="cls-16"/><path id="path3074" d="M62.914 37.446v-.382h.881c.13 0 .187-.07.187-.148 0-.074-.056-.149-.187-.149h-.398c-.346 0-.538-.211-.538-.527 0-.282.176-.554.69-.554h.857l-.185.396h-.741c-.142 0-.185.074-.185.145 0 .073.054.153.162.153h.417c.386 0 .553.219.553.505 0 .308-.186.56-.574.56h-.939Z" class="cls-16"/><path id="path3076" d="M64.529 37.446v-.382h.88c.13 0 .187-.07.187-.148 0-.074-.056-.149-.187-.149h-.398c-.346 0-.538-.211-.538-.527 0-.282.176-.554.69-.554h.857l-.185.396h-.741c-.142 0-.185.074-.185.145 0 .073.054.153.162.153h.417c.386 0 .553.219.553.505 0 .308-.186.56-.574.56h-.938Z" class="cls-16"/></g><g id="layer1-2"><path id="_92653320" d="M69.436 30.302a2.525 2.525 0 0 1 2.53-2.518h27.57a2.524 2.524 0 0 1 2.53 2.518v8.997a2.524 2.524 0 0 1-2.53 2.517h-27.57a2.524 2.524 0 0 1-2.53-2.517v-8.997Z" style="fill:#000268;fill-rule:evenodd"/><path id="_92186184" d="M70.474 30.388v8.825c0 .869.708 1.573 1.582 1.573H86.5V28.815H72.056c-.874 0-1.582.705-1.582 1.573Zm19.758 4.369c0 .562-.278.948-.738.948-.406 0-.745-.386-.745-.901 0-.528.298-.921.745-.921.474 0 .738.407.738.874ZM87.53 37.98h1.218v-1.916h.014c.231.42.691.575 1.118.575 1.049 0 1.611-.866 1.611-1.909 0-.853-.535-1.781-1.51-1.781-.555 0-1.069.224-1.314.718h-.013v-.636H87.53v4.949Zm5.625-2.539c0-.338.325-.466.738-.466.183 0 .359.013.515.02 0 .413-.291.833-.752.833-.285-.001-.501-.143-.501-.387Zm2.457 1.117a4.329 4.329 0 0 1-.067-.833v-1.314c0-1.076-.778-1.463-1.679-1.463-.521 0-.975.075-1.408.251l.021.826c.337-.19.731-.264 1.124-.264.439 0 .798.129.806.61a3.588 3.588 0 0 0-.569-.048c-.649 0-1.821.129-1.821 1.205 0 .765.623 1.11 1.32 1.11.501 0 .84-.196 1.117-.636h.014c0 .183.02.365.027.555h1.115Zm.549 1.423c.251.054.501.082.758.082 1.117 0 1.381-.86 1.726-1.747l1.294-3.284H98.72l-.724 2.302h-.014l-.758-2.302h-1.313l1.428 3.608c-.088.312-.318.488-.616.488-.17 0-.318-.021-.481-.075l-.081.928Z" style="fill-rule:evenodd;fill:#fff"/><path id="_47303032" d="M73.45 34.764c0-.481.237-.881.691-.881.548 0 .778.44.778.833 0 .542-.345.907-.778.907-.365 0-.691-.311-.691-.859Zm2.648-1.733h-1.104v.636h-.013c-.258-.433-.678-.718-1.199-.718-1.097 0-1.591.786-1.591 1.835 0 1.043.603 1.774 1.57 1.774.488 0 .894-.19 1.185-.603h.014v.19c0 .69-.379 1.022-1.083 1.022-.508 0-.82-.108-1.192-.291l-.061.962a4.09 4.09 0 0 0 1.347.224c1.422 0 2.125-.467 2.125-1.916v-3.115h.002Zm2.059-1.469h-1.219v.894h1.219v-.894Zm-1.218 4.996h1.218v-3.527h-1.218v3.527Zm4.612-3.568a2.626 2.626 0 0 0-.413-.041c-.528 0-.833.285-1.043.732h-.014v-.65h-1.11v3.527h1.218v-1.489c0-.691.319-1.104.887-1.104.143 0 .277 0 .413.04l.062-1.015Zm2.098 2.796c-.562 0-.792-.467-.792-.988 0-.528.23-.995.792-.995s.793.467.793.995c0 .521-.231.988-.793.988Zm0 .853c1.165 0 2.052-.676 2.052-1.841 0-1.172-.887-1.849-2.052-1.849s-2.051.677-2.051 1.849c0 1.164.886 1.841 2.051 1.841Z" style="fill:#ff0007;fill-rule:evenodd"/></g><path d="M96.914 24h-74c-6.6 0-12-5.4-12-12s5.4-12 12-12h74c6.6 0 12 5.4 12 12s-5.4 12-12 12Z" style="fill:#f93;fill-rule:evenodd"/><path d="M22.914 23.001c-6.065 0-11-4.935-11-11s4.935-11 11-11h74c6.065 0 11 4.935 11 11s-4.935 11-11 11h-74Z" style="fill:url(#Unbenannter_Verlauf);fill-rule:evenodd"/><path d="M34.599 15.687c-.565-.262-1.071-.701-1.52-1.317l1.372-1.078c.243.354.544.635.904.84.359.206.735.309 1.127.309s.71-.094.953-.28c.242-.187.364-.443.364-.771a.73.73 0 0 0-.287-.595 8.625 8.625 0 0 0-.778-.54l-.868-.532a3.318 3.318 0 0 1-.994-.917c-.243-.351-.364-.806-.364-1.366 0-.392.084-.759.252-1.1s.395-.64.68-.896c.284-.257.623-.46 1.016-.609a3.518 3.518 0 0 1 1.261-.224c.541 0 1.05.126 1.526.378s.892.588 1.247 1.009l-1.219 1.135a3.846 3.846 0 0 0-.743-.609 1.649 1.649 0 0 0-.896-.245c-.373 0-.66.096-.861.287a.924.924 0 0 0-.301.693c0 .233.103.425.308.574.206.149.486.336.841.561l.896.546c.448.271.772.567.974.89s.301.749.301 1.281a2.781 2.781 0 0 1-.938 2.108c-.298.266-.66.477-1.085.63a4.15 4.15 0 0 1-1.422.231 4.156 4.156 0 0 1-1.746-.393ZM42.643 16.611l-.351 1.877h-1.918l1.919-9.525h1.555l.015.799h.042c.317-.289.66-.522 1.029-.7s.73-.267 1.086-.267c.616 0 1.097.22 1.442.659.346.438.519 1.068.519 1.891a5.45 5.45 0 0 1-.309 1.855 5.106 5.106 0 0 1-.826 1.506 3.94 3.94 0 0 1-1.184 1.009 2.832 2.832 0 0 1-1.38.364c-.299 0-.569-.072-.812-.217s-.443-.348-.603-.609h-.027l-.197 1.358Zm1.829-6.058c-.267.126-.502.353-.708.679l-.532 2.634c.103.224.236.388.399.49s.334.154.512.154c.242 0 .476-.075.7-.225.224-.149.422-.354.595-.616s.311-.569.414-.925c.103-.354.153-.742.153-1.162s-.074-.729-.224-.925-.346-.294-.589-.294a1.704 1.704 0 0 0-.72.19ZM49.467 11.351a4.49 4.49 0 0 1 .896-1.358 4.116 4.116 0 0 1 1.24-.883c.457-.21.92-.315 1.387-.315.411 0 .761.068 1.051.203.289.136.525.322.707.561s.312.514.393.826c.079.313.119.651.119 1.016 0 .168-.015.334-.043.498-.027.163-.061.317-.098.462a3.224 3.224 0 0 1-.223.623h-3.95c-.028.579.109.999.413 1.261s.684.393 1.142.393c.215 0 .438-.052.672-.154s.439-.215.616-.336l.673 1.204c-.28.196-.631.367-1.051.512s-.901.217-1.442.217c-.421 0-.806-.067-1.156-.203s-.648-.331-.896-.588a2.76 2.76 0 0 1-.581-.932c-.14-.364-.21-.78-.21-1.247a4.335 4.335 0 0 1 .341-1.76Zm4.153.455c.047-.158.07-.331.07-.518 0-.28-.067-.521-.203-.722-.136-.201-.381-.302-.735-.302-.327 0-.645.129-.952.386-.309.257-.542.642-.701 1.155h2.521ZM57.51 8.962h1.556l-.028.925h.056c.346-.299.71-.556 1.093-.771s.799-.322 1.247-.322c.579 0 .999.152 1.261.456.261.303.392.744.392 1.323 0 .159-.009.32-.027.483s-.047.334-.084.511l-.869 4.343h-1.919l.826-4.104c.028-.14.054-.261.077-.364.023-.103.035-.2.035-.294 0-.477-.238-.714-.714-.714-.215 0-.437.072-.666.217s-.492.371-.791.68l-.896 4.58H56.14l1.37-6.949ZM69.721 8.319l.42-2.228h1.919l-1.975 9.819h-1.556l.028-.91h-.042c-.317.326-.668.588-1.051.784s-.756.294-1.12.294c-.616 0-1.098-.22-1.443-.658s-.518-1.069-.518-1.891c0-.663.103-1.282.308-1.856a5.178 5.178 0 0 1 .826-1.506 3.93 3.93 0 0 1 1.191-1.009c.448-.242.91-.364 1.387-.364.317 0 .6.077.848.231.247.154.437.357.566.609h.043l.169-1.315Zm-1.801 5.973c.257-.145.507-.413.75-.805l.49-2.466c-.112-.233-.255-.401-.428-.504a.962.962 0 0 0-.497-.154c-.242 0-.476.074-.7.224s-.423.355-.596.617a3.323 3.323 0 0 0-.413.924c-.103.355-.154.742-.154 1.163s.073.729.218.924a.7.7 0 0 0 .595.295c.233 0 .478-.072.735-.218ZM72.622 11.351a4.49 4.49 0 0 1 .896-1.358 4.116 4.116 0 0 1 1.24-.883c.457-.21.92-.315 1.387-.315.411 0 .761.068 1.051.203.289.136.525.322.707.561s.312.514.393.826c.079.313.119.651.119 1.016 0 .168-.015.334-.042.498-.028.163-.062.317-.099.462a3.224 3.224 0 0 1-.223.623h-3.95c-.028.579.109.999.413 1.261s.684.393 1.142.393c.215 0 .438-.052.672-.154s.439-.215.616-.336l.673 1.204c-.28.196-.631.367-1.051.512s-.901.217-1.442.217c-.421 0-.806-.067-1.156-.203s-.648-.331-.896-.588a2.76 2.76 0 0 1-.581-.932c-.14-.364-.21-.78-.21-1.247a4.335 4.335 0 0 1 .341-1.76Zm4.153.455c.047-.158.07-.331.07-.518 0-.28-.067-.521-.203-.722s-.381-.302-.735-.302c-.327 0-.645.129-.952.386-.309.257-.542.642-.701 1.155h2.521ZM80.664 8.962h1.556l-.028.925h.056c.346-.299.71-.556 1.093-.771s.799-.322 1.247-.322c.579 0 .999.152 1.261.456.261.303.392.744.392 1.323 0 .159-.009.32-.027.483s-.047.334-.084.511l-.869 4.343h-1.919l.826-4.104c.028-.14.054-.261.077-.364.023-.103.035-.2.035-.294 0-.477-.238-.714-.714-.714-.215 0-.437.072-.666.217-.229.145-.492.371-.791.68l-.896 4.58h-1.919l1.37-6.949Z" class="cls-14"/><path d="M107.331 26.658h11.339c.78 0 1.417.595 1.417 1.322v13.306c0 .727-.638 1.322-1.417 1.322h-11.339c-.78 0-1.417-.595-1.417-1.322V27.98c0-.727.638-1.322 1.417-1.322Z" style="stroke:#0069b3;stroke-miterlimit:2.613;stroke-width:.427px;fill-rule:evenodd;fill:#fff"/><path d="M108.21 40.589h-.473v.275c.005.061.005.107.051.148.01.005.025.02.056.02.01 0 .031-.005.051-.02.056-.041.056-.097.051-.158v-.117h.26c.005.107.005.265-.036.361-.041.087-.132.158-.336.158-.112 0-.239-.031-.3-.127-.071-.112-.066-.285-.066-.422V40.3c0-.02 0-.142.02-.229.056-.239.285-.249.356-.249.046 0 .076.005.092.005a.334.334 0 0 1 .209.117c.066.102.066.255.066.372v.273h-.001Zm-.265-.209v-.204c-.005-.046-.01-.087-.041-.117a.085.085 0 0 0-.061-.025.124.124 0 0 0-.056.02c-.041.025-.041.066-.051.117v.209h.209Z" class="cls-8"/><path d="M108.637 39.387v1.858h-.274v-1.858h.274zM109.554 40.589h-.473v.275c.005.061.01.107.051.148.01.005.025.02.056.02.01 0 .031-.005.056-.02.051-.041.051-.097.046-.158v-.117h.265c0 .107 0 .265-.041.361-.041.087-.132.158-.336.158-.112 0-.239-.031-.3-.127-.071-.112-.066-.285-.066-.422V40.3c0-.02 0-.142.02-.229.056-.239.285-.249.356-.249.046 0 .076.005.097.005a.336.336 0 0 1 .204.117c.066.102.066.255.066.372v.273Zm-.265-.209v-.204c-.005-.046-.01-.087-.041-.117a.085.085 0 0 0-.061-.025.147.147 0 0 0-.056.02c-.041.025-.041.066-.051.117v.209h.209ZM110.165 40.329c0-.117 0-.214-.025-.255-.01-.015-.025-.031-.071-.031a.184.184 0 0 0-.051.01c-.031.025-.041.066-.051.107-.005.127-.005.254-.005.382 0 .122.005.244.01.367 0 .015.005.031.005.041.005.03.015.081.097.081.092 0 .097-.081.097-.168v-.188l.27.005v.199c-.005.102-.01.188-.076.27-.031.046-.066.061-.087.076-.031.01-.107.036-.204.036-.036 0-.214 0-.305-.122-.071-.092-.076-.209-.076-.321-.005-.148-.01-.29-.005-.438l.015-.219c.005-.066.01-.081.02-.117a.299.299 0 0 1 .229-.204c.056-.015.122-.015.137-.015.173 0 .265.092.3.148.046.071.041.168.046.356h-.27ZM110.612 39.84v-.367h.275v.367h.107v.239h-.107v.799c0 .061 0 .102.02.122.015.01.036.01.056.015.01 0 .02.005.036.005l-.005.224h-.173c-.061.005-.117.005-.158-.041-.015-.02-.025-.031-.036-.056a.324.324 0 0 1-.01-.092v-.977h-.112v-.239h.107ZM111.371 39.84l-.01.27a.464.464 0 0 1 .066-.168c.066-.107.148-.117.265-.127l-.005.336c-.097-.005-.188-.01-.249.066-.046.056-.051.107-.051.178v.85h-.28V39.84h.264ZM111.758 40.278c.005-.107 0-.193.056-.29.046-.076.127-.158.316-.158.193 0 .27.071.311.158.056.112.046.255.046.514 0 .081.005.163.005.244 0 .01.005.224-.041.331-.061.148-.188.188-.336.188-.132 0-.26-.051-.316-.183-.046-.117-.041-.346-.041-.468v-.336Zm.463.143c0-.071 0-.137-.005-.209 0-.005 0-.071-.02-.117-.02-.041-.051-.046-.066-.046-.036 0-.081.031-.092.107-.01.051-.01.148-.01.285v.316c0 .112.005.193.025.234.015.031.041.051.071.051.02 0 .041-.005.051-.02.046-.041.041-.112.046-.234v-.367ZM112.923 39.84l.005.122c.015-.01.025-.031.041-.041a.299.299 0 0 1 .214-.097c.025 0 .071 0 .122.036.087.056.097.132.107.229v1.155h-.275v-1.018c0-.051-.005-.092-.046-.122-.02-.015-.036-.015-.046-.015-.036 0-.061.025-.071.031-.056.061-.056.148-.051.219v.906h-.265V39.84h.265ZM113.87 39.84v1.405h-.27V39.84h.27Zm.005-.453v.27h-.27v-.27h.27ZM114.517 40.329c0-.117 0-.214-.026-.255-.01-.015-.03-.031-.071-.031a.187.187 0 0 0-.056.01c-.031.025-.041.066-.046.107-.005.127-.01.254-.01.382 0 .122.005.244.01.367 0 .015.005.031.005.041.005.03.02.081.097.081.097 0 .097-.081.097-.168v-.188l.27.005v.199c-.005.102-.01.188-.071.27-.036.046-.071.061-.092.076-.03.01-.107.036-.198.036-.041 0-.214 0-.305-.122-.071-.092-.076-.209-.081-.321 0-.148-.01-.29 0-.438 0-.071.005-.143.01-.219.005-.066.01-.081.02-.117a.299.299 0 0 1 .229-.204c.056-.015.127-.015.143-.015.168 0 .265.092.295.148.046.071.046.168.046.356h-.266Z" class="cls-7"/><path d="M115.733 40.329c0-.117 0-.214-.025-.255-.01-.015-.025-.031-.071-.031a.184.184 0 0 0-.051.01c-.031.025-.041.066-.051.107-.005.127-.005.254-.005.382 0 .122.005.244.01.367 0 .015.005.031.005.041.005.03.015.081.097.081.092 0 .097-.081.097-.168v-.188l.27.005v.199c-.005.102-.01.188-.076.27-.031.046-.066.061-.087.076-.031.01-.107.036-.204.036-.036 0-.214 0-.305-.122-.071-.092-.076-.209-.076-.321-.005-.148-.01-.29-.005-.438l.015-.219c.005-.066.01-.081.02-.117a.299.299 0 0 1 .229-.204c.056-.015.122-.015.137-.015.173 0 .265.092.3.148.046.071.041.168.046.356h-.27Z" class="cls-6"/><path d="M116.135 40.278c-.005-.168.005-.265.046-.336.081-.117.275-.122.3-.122.01 0 .178.005.255.076.056.051.066.132.076.295v1.059h-.26v-.112a.395.395 0 0 1-.041.066c-.041.041-.117.056-.173.056a.201.201 0 0 1-.198-.132c-.036-.081-.031-.209-.031-.29v-.087c.01-.117.031-.193.122-.26.031-.031.158-.107.183-.127.076-.041.117-.051.127-.142.005-.025.005-.036.005-.051s0-.061-.036-.092c-.01 0-.031-.01-.051-.01-.025 0-.036.005-.046.025-.031.036-.036.092-.031.183h-.247Zm.341.312c0 .005-.036.031-.056.056-.025.025-.041.081-.041.178 0 .031.005.066.01.097 0 .041 0 .071.031.097.01.005.02.015.041.015a.099.099 0 0 0 .041-.01.091.091 0 0 0 .041-.081c.01-.061.01-.214.005-.412-.021.019-.046.039-.072.06ZM117.194 40.711c-.005.143-.005.244.025.29.015.031.056.046.097.046.102 0 .112-.127.112-.153 0-.01 0-.041-.01-.066-.02-.061-.051-.087-.132-.173a2.066 2.066 0 0 1-.148-.148c-.015-.015-.031-.025-.046-.046a.378.378 0 0 1-.137-.295c0-.025.005-.097.036-.163.036-.092.112-.178.316-.178.183 0 .254.056.3.127.061.102.056.219.056.336l-.244-.005c.005-.087.01-.249-.112-.249-.056 0-.097.056-.097.112 0 .071.071.132.127.183l.087.102c.031.025.061.051.092.081.107.107.163.204.163.351 0 .02 0 .204-.066.29-.041.056-.148.107-.316.107-.229 0-.311-.127-.341-.234a.564.564 0 0 1-.01-.122v-.193h.248ZM118.095 39.387v.555c.076-.066.148-.122.244-.122.071 0 .117.031.137.046.097.071.097.188.097.3v1.084h-.27v-1.023c0-.005.01-.148-.092-.148-.01 0-.046 0-.066.025-.046.046-.051.132-.051.183v.957h-.27v-1.858h.271Z" class="cls-7"/><path d="M118.597 38.664h-5.783c-.474 0-.795-.474-.795-.811 0-.313.008-8.61 0-8.931s.554-.819.932-.819c.378.008 5.638 0 5.638 0v4.184h-3.068v-1.984s-.201-.008-.458 0c-.129.008-.345.137-.345.345-.008.434 0 5.445 0 5.574 0 .12.08.281.345.289.265.016.466 0 .466 0v-2.144h3.068v4.297Z" class="cls-6"/><path d="M108.429 28.103c.635.008 5.261 0 5.261 0v6.265l-3.502-.008v1.839c0 .032.088.305.402.321h.434v-1.55h2.674l-.008 3.695h-5.285s-.795-.128-.867-.9c.008-.289 0-8.714 0-8.859 0-.137.304-.803.891-.803Zm2.602 2.184s-.233-.016-.442-.008c-.217.008-.402.217-.402.345v1.663h.843v-2Z" class="cls-8"/><path d="M113.697 34.969h-1.679v2.883c0 .329.321.803.787.811h.883l.009-3.694ZM113.689 34.367v-6.265h-.739c-.377 0-.94.498-.932.819v5.445h1.671Z" class="cls-7"/></g></svg>