<?xml version="1.0" encoding="UTF-8"?><svg id="Ebene_2" xmlns="http://www.w3.org/2000/svg" viewBox="0 0 16 16"><defs><style>.cls-1{fill:#fff;}.cls-1,.cls-2{fill-rule:evenodd;}.cls-2{fill:#1777f2;}</style></defs><g id="Ebene_1-2"><polygon class="cls-1" points="13.635 1 11 1 6 1 3 1 3 16 13.635 16 13.635 1"/><path class="cls-2" d="M13.812,0H2.188C.979,0,0,.979,0,2.188V13.813c0,1.208,.979,2.187,2.188,2.187H7.927v-6.029h-2.268v-2.582h2.268v-1.967c0-2.239,1.333-3.475,3.374-3.475,.977,0,1.999,.174,1.999,.174v2.198h-1.126c-1.11,0-1.456,.689-1.456,1.395v1.676h2.477l-.396,2.582h-2.081v6.028h3.094c1.209,0,2.188-.979,2.188-2.188V2.188c0-1.209-.979-2.188-2.188-2.188Z"/></g></svg>