<svg xmlns="http://www.w3.org/2000/svg" viewBox="0 0 16 16"><path d="M13.635 1H3v15h10.635V1z" style="fill-rule:evenodd;fill:#fff"/><path d="M13.812 0H2.188A2.187 2.187 0 0 0 0 2.188v11.625C0 15.021.979 16 2.188 16h5.739V9.971H5.659V7.389h2.268V5.422c0-2.239 1.333-3.475 3.374-3.475.977 0 1.999.174 1.999.174v2.198h-1.126c-1.11 0-1.456.689-1.456 1.395V7.39h2.477l-.396 2.582h-2.081V16h3.094A2.187 2.187 0 0 0 16 13.812V2.188A2.187 2.187 0 0 0 13.812 0Z" style="fill:#1777f2;fill-rule:evenodd"/></svg>