<svg xmlns="http://www.w3.org/2000/svg" viewBox="0 0 20.774 15.789"><path d="M15.896 15.608s-1.257-7.11-.441-9.235c.816-2.125 1.125-2.721.882-3.426-.243-.706-4.017-4.853-8.12-1.434-4.103 3.419-3.086 3.59-4.917 4.86-.671.466-2.537 2.86-3.066 4.206 0 0 4.601 1.274 5.976 2.356 3.199 2.514 9.686 2.673 9.686 2.673Z" style="fill:#767777"/><path d="m16.105 15.789-.214-.005c-.267-.006-6.582-.189-9.789-2.711-1.333-1.047-5.87-2.312-5.916-2.325L0 10.696l.071-.181C.609 9.147 2.51 6.708 3.2 6.229c.767-.532 1.01-.854 1.379-1.34.497-.655 1.177-1.553 3.526-3.511C9.613.12 11.229-.278 12.905.19c2.033.569 3.447 2.263 3.596 2.7.232.675.007 1.253-.595 2.797l-.29.749c-.79 2.055.438 9.071.45 9.142l.039.211ZM.472 10.465c.898.257 4.604 1.356 5.846 2.332 2.793 2.196 8.226 2.572 9.369 2.628-.207-1.227-1.149-7.153-.396-9.114l.291-.75c.584-1.498.78-2.003.59-2.557-.12-.349-1.444-1.94-3.359-2.476C11.255.09 9.746.468 8.331 1.647c-2.32 1.932-2.987 2.811-3.473 3.454-.375.495-.646.853-1.458 1.416-.615.426-2.332 2.625-2.928 3.948Z"/><path d="M10.3 3.413a.175.175 0 0 1-.165-.117.177.177 0 0 1 .106-.224c.185-.065.458-.242.772-.447.202-.131.424-.275.664-.417.652-.387 1.045.046 1.212.231.024.027.044.05.062.064a.176.176 0 0 1-.224.27 1.163 1.163 0 0 1-.097-.099c-.201-.222-.398-.387-.774-.165-.235.14-.454.281-.651.41-.348.226-.622.404-.846.483a.205.205 0 0 1-.059.011Z"/><path d="M16.91 2.086c-.99-.077-2.051-.309-2.36-.309s-1.015.287-.993.816-.044.794-.64 1.324c-.596.529-1.61 1.346-1.324 2.36.287 1.015.662 2.051 1.434 2.625.772.574.926.904 1.434.574.507-.331 1.301-1.103 1.346-1.765.044-.662 1.037-1.963 1.588-2.382.551-.419 2.007-1.412 2.471-1.632.463-.221.684-.794.728-1.368s-.176-2.36-1.301-1.5c-1.125.86-.878 1.374-2.383 1.257Z" style="fill:#e2bfa1"/><path d="M14.106 9.781c-.262 0-.482-.179-.766-.41-.117-.096-.252-.207-.417-.328-.811-.603-1.199-1.663-1.498-2.718-.3-1.062.644-1.894 1.269-2.444l.107-.095c.558-.496.601-.707.581-1.185a.787.787 0 0 1 .236-.584c.249-.259.669-.414.932-.414.149 0 .421.043.797.103.458.073 1.028.164 1.577.207.953.072 1.112-.097 1.497-.511a5.66 5.66 0 0 1 .765-.711c.36-.275.681-.338.959-.188.55.299.658 1.389.623 1.841-.056.737-.358 1.289-.827 1.512-.43.204-1.856 1.169-2.44 1.613-.53.402-1.481 1.668-1.52 2.255-.049.738-.9 1.557-1.425 1.899-.17.111-.316.158-.45.158Zm.444-7.829c-.161 0-.487.107-.679.307a.44.44 0 0 0-.139.327c.025.599-.077.909-.698 1.461l-.108.096c-.592.522-1.403 1.237-1.163 2.086.282.996.643 1.992 1.37 2.532.169.125.309.24.429.338.442.361.524.413.804.23.488-.319 1.229-1.057 1.267-1.63.051-.761 1.12-2.102 1.657-2.51.547-.416 2.019-1.421 2.501-1.651.347-.165.582-.622.629-1.222.033-.424-.09-1.315-.442-1.506-.144-.08-.339-.025-.579.159-.337.257-.55.487-.722.671-.445.478-.703.706-1.781.621-.563-.043-1.141-.136-1.605-.209-.332-.054-.62-.1-.741-.1Z"/><path d="M19.096 3.161a.25.25 0 0 1-.139-.458c.338-.225.46-.524.396-.969a.25.25 0 1 1 .495-.071c.091.634-.115 1.124-.614 1.456a.248.248 0 0 1-.138.042ZM11.106 4.473c.093-.269.329-.808.464-.389.135.42.36 1.026.757 1.345.396.319 1.974.971 2.619.645s.964-.365.995-.28.047.171-.093.381-.945 1.862-1.147 2.088c-.202.225-.747.816-1.182-.241s-.197-1.21-.826-1.738c-.631-.529-1.02-.404-1.393-.723s-.294-.8-.194-1.088Z"/><path d="M13.539 6.665c.466.023 1.718-.078 1.85-.194 0 0-.583 1.119-.676 1.127-.093.008-.738 0-.863 0s-.155 0-.218-.288a6.191 6.191 0 0 1-.093-.645Z" style="fill:#fff"/></svg>