<svg xmlns="http://www.w3.org/2000/svg" viewBox="0 0 16.026 15.607"><path d="M8.002 0a8 8 0 0 0-2.53 15.59c.4.07.55-.17.55-.39s-.02-.69-.02-1.4c-2.22.53-2.69-1-2.69-1a2.118 2.118 0 0 0-.89-1.17c-.72-.5.06-.49.06-.49.513.074.963.38 1.22.83a1.7 1.7 0 0 0 2.3.63 1.71 1.71 0 0 1 .51-1.07c-1.78-.2-3.64-.89-3.64-3.95a3.108 3.108 0 0 1 .82-2.15 2.848 2.848 0 0 1 .11-2.11s.67-.22 2.2.82a7.542 7.542 0 0 1 4 0c1.53-1 2.2-.82 2.2-.82.296.667.324 1.422.08 2.11.538.585.832 1.355.82 2.15 0 3.07-1.87 3.75-3.65 4 .378.377.578.897.55 1.43v2.19c0 .26.15.47.55.39A8 8 0 0 0 8.002 0Z" style="fill:#221e1b;fill-rule:evenodd"/></svg>