<?xml version="1.0" encoding="UTF-8"?><svg id="Ebene_2" xmlns="http://www.w3.org/2000/svg" viewBox="0 0 16.026 15.607"><defs><style>.cls-1{fill:#221e1b;fill-rule:evenodd;}</style></defs><g id="Ebene_1-2"><g id="Ebene_2-2"><g id="Icons"><path class="cls-1" d="M8.002,0C3.584,0,0,3.58,0,7.998c0,3.445,2.204,6.503,5.472,7.592,.4,.07,.55-.17,.55-.39s-.02-.69-.02-1.4c-2.22,.53-2.69-1-2.69-1-.148-.484-.463-.899-.89-1.17-.72-.5,.06-.49,.06-.49,.513,.074,.963,.38,1.22,.83,.466,.803,1.49,1.083,2.3,.63,.037-.406,.218-.786,.51-1.07-1.78-.2-3.64-.89-3.64-3.95-.012-.795,.282-1.565,.82-2.15-.235-.691-.196-1.447,.11-2.11,0,0,.67-.22,2.2,.82,1.309-.36,2.691-.36,4,0,1.53-1,2.2-.82,2.2-.82,.296,.667,.324,1.422,.08,2.11,.538,.585,.832,1.355,.82,2.15,0,3.07-1.87,3.75-3.65,4,.378,.377,.578,.897,.55,1.43v2.19c0,.26,.15,.47,.55,.39,4.192-1.396,6.458-5.926,5.062-10.118C14.523,2.197,11.454-.009,8.002,0Z"/></g></g></g></svg>