<svg xmlns="http://www.w3.org/2000/svg" xmlns:xlink="http://www.w3.org/1999/xlink" viewBox="0 0 32 32"><defs><radialGradient id="a" cx=".205" cy="405.896" r="46.27" fx=".205" fy="405.896" gradientTransform="matrix(.99975 -.04998 .04 .85006 -17.285 -315.595)" gradientUnits="userSpaceOnUse"><stop offset="0" stop-color="#fed576"/><stop offset=".26" stop-color="#f47133"/><stop offset=".61" stop-color="#bc3081"/><stop offset="1" stop-color="#4c63d2"/></radialGradient><radialGradient xlink:href="#a" id="b" cx="-14.535" cy="621.936" r="23.76" fx="-14.535" fy="621.936" gradientTransform="matrix(.99975 -.04998 .04 .85006 -4.675 -506.145)"/></defs><rect width="27.93" height="27.93" x="2.03" y="2.03" rx="5.63" ry="5.63" style="fill:#fff"/><path d="M5.52.84a7.871 7.871 0 0 0-2.83 1.85A7.802 7.802 0 0 0 .84 5.52 11.644 11.644 0 0 0 .1 9.4C0 11.1 0 11.65 0 16s0 4.89.1 6.59c.03 1.329.28 2.643.74 3.89a7.871 7.871 0 0 0 1.85 2.83 7.871 7.871 0 0 0 2.83 1.85c1.242.465 2.554.715 3.88.74 1.71.08 2.26.1 6.6.1s4.89 0 6.6-.1a12.02 12.02 0 0 0 3.88-.74 8.246 8.246 0 0 0 4.68-4.68c.466-1.245.716-2.561.74-3.89.08-1.7.1-2.25.1-6.59s0-4.9-.1-6.6a11.905 11.905 0 0 0-.74-3.88 7.898 7.898 0 0 0-1.84-2.83A7.819 7.819 0 0 0 26.48.84 11.59 11.59 0 0 0 22.6.1C20.9 0 20.35 0 16 0s-4.89 0-6.6.1C8.074.12 6.761.371 5.52.84ZM22.47 3a8.52 8.52 0 0 1 3 .56c.695.253 1.324.66 1.84 1.19a5.001 5.001 0 0 1 1.19 1.84c.364.959.554 1.975.56 3 .08 1.68.09 2.19.09 6.46s0 4.78-.09 6.47a8.453 8.453 0 0 1-.56 3 5.285 5.285 0 0 1-3 3 8.834 8.834 0 0 1-3 .55c-1.69.08-2.2.09-6.47.09s-4.78 0-6.47-.09a8.834 8.834 0 0 1-3-.55 4.935 4.935 0 0 1-1.84-1.2 4.915 4.915 0 0 1-1.19-1.84 8.453 8.453 0 0 1-.56-3c-.08-1.69-.09-2.19-.09-6.47s0-4.78.09-6.46a8.596 8.596 0 0 1 .56-3 4.997 4.997 0 0 1 1.19-1.83 4.915 4.915 0 0 1 1.84-1.19 8.52 8.52 0 0 1 3-.56c1.69-.08 2.2-.09 6.47-.09s4.75.01 6.44.12Z" style="fill:url(#a)"/><path d="M7.79 16A8.21 8.21 0 1 0 16 7.79 8.22 8.22 0 0 0 7.79 16Zm13.54 0A5.33 5.33 0 1 1 16 10.67 5.33 5.33 0 0 1 21.33 16Z" style="fill:url(#b)"/><circle cx="24.55" cy="7.46" r="1.92" style="fill:#654c9f"/></svg>