<?xml version="1.0" encoding="UTF-8"?><svg id="Ebene_2" xmlns="http://www.w3.org/2000/svg" xmlns:xlink="http://www.w3.org/1999/xlink" viewBox="0 0 32 32"><defs><style>.cls-1{fill:url(#Unbenannter_Verlauf_2-2);}.cls-2{fill:#fff;}.cls-3{fill:url(#Unbenannter_Verlauf_2);}.cls-4{fill:#654c9f;}</style><radialGradient id="Unbenannter_Verlauf_2" cx=".205" cy="405.896" fx=".205" fy="405.896" r="46.27" gradientTransform="translate(-17.285 -315.595) rotate(-2.862) scale(1.001 .851) skewX(-.143)" gradientUnits="userSpaceOnUse"><stop offset="0" stop-color="#fed576"/><stop offset=".26" stop-color="#f47133"/><stop offset=".61" stop-color="#bc3081"/><stop offset="1" stop-color="#4c63d2"/></radialGradient><radialGradient id="Unbenannter_Verlauf_2-2" cx="-14.535" cy="621.936" fx="-14.535" fy="621.936" r="23.76" gradientTransform="translate(-4.675 -506.145) rotate(-2.862) scale(1.001 .851) skewX(-.143)" xlink:href="#Unbenannter_Verlauf_2"/></defs><g id="Ebene_1-2"><g id="Ebene_2-2"><g id="_16x16_transparent"><rect class="cls-2" x="2.03" y="2.03" width="27.93" height="27.93" rx="5.63" ry="5.63"/><g id="Symbol"><path class="cls-3" d="M5.52,.84c-1.066,.404-2.032,1.036-2.83,1.85-.816,.797-1.448,1.763-1.85,2.83C.374,6.762,.124,8.074,.1,9.4c-.1,1.7-.1,2.25-.1,6.6s0,4.89,.1,6.59c.03,1.329,.28,2.643,.74,3.89,.404,1.066,1.036,2.032,1.85,2.83,.798,.814,1.764,1.446,2.83,1.85,1.242,.465,2.554,.715,3.88,.74,1.71,.08,2.26,.1,6.6,.1s4.89,0,6.6-.1c1.325-.031,2.636-.281,3.88-.74,2.145-.838,3.842-2.535,4.68-4.68,.466-1.245,.716-2.561,.74-3.89,.08-1.7,.1-2.25,.1-6.59s0-4.9-.1-6.6c-.029-1.326-.279-2.637-.74-3.88-.402-1.065-1.03-2.03-1.84-2.83-.8-.817-1.769-1.448-2.84-1.85-1.241-.467-2.554-.717-3.88-.74-1.7-.1-2.25-.1-6.6-.1s-4.89,0-6.6,.1c-1.326,.02-2.639,.271-3.88,.74ZM22.47,3c1.026,.005,2.042,.194,3,.56,.695,.253,1.324,.66,1.84,1.19,.528,.518,.934,1.146,1.19,1.84,.364,.959,.554,1.975,.56,3,.08,1.68,.09,2.19,.09,6.46s0,4.78-.09,6.47c-.003,1.026-.193,2.042-.56,3-.537,1.375-1.625,2.463-3,3-.961,.356-1.976,.542-3,.55-1.69,.08-2.2,.09-6.47,.09s-4.78,0-6.47-.09c-1.024-.008-2.039-.194-3-.55-.696-.257-1.325-.667-1.84-1.2-.53-.516-.937-1.145-1.19-1.84-.367-.958-.557-1.974-.56-3-.08-1.69-.09-2.19-.09-6.47s0-4.78,.09-6.46c.006-1.025,.196-2.041,.56-3,.257-.69,.663-1.315,1.19-1.83,.516-.53,1.145-.937,1.84-1.19,.958-.366,1.974-.555,3-.56,1.69-.08,2.2-.09,6.47-.09s4.75,.01,6.44,.12Z"/><path class="cls-1" d="M7.79,16c0,4.534,3.676,8.21,8.21,8.21s8.21-3.676,8.21-8.21-3.676-8.21-8.21-8.21c-4.532,.006-8.204,3.678-8.21,8.21Zm13.54,0c0,2.944-2.386,5.33-5.33,5.33s-5.33-2.386-5.33-5.33,2.386-5.33,5.33-5.33h0c2.944,0,5.33,2.386,5.33,5.33Z"/><circle class="cls-4" cx="24.55" cy="7.46" r="1.92"/></g></g></g></g></svg>