<?xml version="1.0" encoding="UTF-8"?><svg id="Ebene_2" xmlns="http://www.w3.org/2000/svg" viewBox="0 0 32 32"><defs><style>.cls-1{fill:#fff;}.cls-2{fill:#ea7819;}</style></defs><g id="Ebene_1-2"><g id="Ebene_2-2"><g id="Ebene_2-2"><g id="g2989"><rect id="rect2989" class="cls-2" width="32" height="32" rx="4.38" ry="4.38"/><path id="path3844" class="cls-1" d="M5.07,16.69c2.714-.008,5.319,1.073,7.23,3,1.93,1.93,3.01,4.55,3,7.28h4.2c.006-7.982-6.449-14.462-14.43-14.49v4.21Zm0-7.46c9.783,.033,17.688,7.987,17.66,17.77h4.21c.033-12.113-9.757-21.961-21.87-22v4.23Zm5.82,14.77c.022,1.613-1.267,2.938-2.88,2.96-1.613,.022-2.938-1.267-2.96-2.88-.022-1.613,1.267-2.938,2.88-2.96,.023,0,.046,0,.07,0,1.588,.011,2.874,1.292,2.89,2.88Z"/></g></g></g></g></svg>