<svg xmlns="http://www.w3.org/2000/svg" viewBox="0 0 32 32.001"><path d="M11.73.001a3.2 3.2 0 0 0 0 6.4h3.2v-3.2a3.2 3.2 0 0 0-3.2-3.2m0 8.53H3.2a3.2 3.2 0 0 0 0 6.4h8.53a3.2 3.2 0 0 0 0-6.4Z" style="fill:#36c5f0;fill-rule:evenodd"/><path d="M32 11.731a3.2 3.2 0 1 0-6.4-.002v3.203h3.2a3.2 3.2 0 0 0 3.2-3.2Zm-8.53 0v-8.53a3.2 3.2 0 1 0-6.4-.002v8.532a3.2 3.2 0 0 0 6.4 0Z" style="fill-rule:evenodd;fill:#2eb67d"/><path d="M20.27 32.001a3.2 3.2 0 0 0 0-6.4h-3.2v3.2a3.2 3.2 0 0 0 3.2 3.2Zm0-8.53h8.53a3.2 3.2 0 0 0 0-6.4h-8.53a3.2 3.2 0 1 0-.002 6.4h.003Z" style="fill:#ecb22e;fill-rule:evenodd"/><path d="M0 20.271a3.2 3.2 0 0 0 6.4 0v-3.2H3.2a3.2 3.2 0 0 0-3.2 3.2Zm8.53 0v8.53a3.2 3.2 0 0 0 6.4 0v-8.53a3.2 3.2 0 1 0-6.4-.002v.003" style="fill:#e01e5a;fill-rule:evenodd"/></svg>