<?xml version="1.0" encoding="UTF-8"?><svg id="Ebene_2" xmlns="http://www.w3.org/2000/svg" viewBox="0 0 32 32.001"><defs><style>.cls-1{fill:#2eb67d;}.cls-1,.cls-2,.cls-3,.cls-4{fill-rule:evenodd;}.cls-2{fill:#e01e5a;}.cls-3{fill:#ecb22e;}.cls-4{fill:#36c5f0;}</style></defs><g id="Ebene_1-2"><g id="Ebene_2-2"><g id="_16x16_transparent"><path class="cls-4" d="M11.73,.001c-1.767,0-3.2,1.433-3.199,3.201,0,1.767,1.433,3.199,3.199,3.199h3.2V3.201C14.93,1.434,13.497,.001,11.73,.001h0m0,8.53H3.2c-1.767,0-3.2,1.433-3.2,3.2s1.433,3.2,3.2,3.2H11.73c1.767,0,3.199-1.434,3.199-3.201,0-1.766-1.432-3.198-3.199-3.199Z"/><path class="cls-1" d="M32,11.731c0-1.767-1.431-3.201-3.199-3.201-1.767,0-3.201,1.431-3.201,3.199v3.203h3.2c1.767,0,3.2-1.433,3.2-3.2Zm-8.53,0V3.201C23.471,1.434,22.039,0,20.271,0c-1.767,0-3.201,1.431-3.201,3.199V11.731c0,1.767,1.434,3.199,3.201,3.199,1.766,0,3.198-1.432,3.199-3.199Z"/><path class="cls-3" d="M20.27,32.001c1.767,0,3.199-1.434,3.199-3.201,0-1.766-1.432-3.198-3.199-3.199h-3.2v3.2c0,1.767,1.433,3.2,3.2,3.2Zm0-8.53h8.53c1.767,0,3.199-1.434,3.199-3.201,0-1.766-1.432-3.198-3.199-3.199h-8.53c-1.767,0-3.201,1.431-3.201,3.199s1.431,3.201,3.199,3.201h.003Z"/><path class="cls-2" d="M0,20.271c0,1.767,1.433,3.2,3.201,3.199,1.767,0,3.199-1.433,3.199-3.199v-3.2H3.2C1.433,17.071,0,18.504,0,20.271h0Zm8.53,0v8.53c0,1.767,1.433,3.2,3.2,3.2s3.2-1.433,3.2-3.2v-8.53c0-1.767-1.431-3.201-3.199-3.201s-3.201,1.431-3.201,3.199v.003h0"/></g></g></g></svg>