<?xml version="1.0" encoding="UTF-8"?><svg id="Ebene_2" xmlns="http://www.w3.org/2000/svg" xmlns:xlink="http://www.w3.org/1999/xlink" viewBox="0 0 32 32"><defs><style>.cls-1{fill:#fff;}.cls-2{fill:url(#Unbenannter_Verlauf);}</style><linearGradient id="Unbenannter_Verlauf" x1="16" y1="33.37" x2="16" y2="1.61" gradientTransform="translate(0 33.37) scale(1 -1)" gradientUnits="userSpaceOnUse"><stop offset="0" stop-color="#2aabee"/><stop offset="1" stop-color="#229ed9"/></linearGradient></defs><g id="Ebene_1-2"><g id="Ebene_2-2"><g id="Icons"><rect id="rect2989" class="cls-2" width="32" height="32" rx="4.38" ry="4.38"/><path class="cls-1" d="M5.63,15.2c6.16-2.667,10.263-4.437,12.31-5.31,5.87-2.43,7.06-2.89,7.88-2.89,.291-.003,.576,.081,.82,.24,.167,.151,.273,.357,.3,.58,.028,.276,.028,.554,0,.83-.32,3.33-1.69,11.44-2.39,15.17-.3,1.59-.88,2.12-1.44,2.17-1.23,.11-2.16-.81-3.35-1.59-1.86-1.22-2.91-2-4.71-3.16-2.08-1.38-.73-2.13,.46-3.37,.31-.32,5.71-5.23,5.81-5.68,.034-.132-.004-.273-.1-.37-.135-.069-.295-.069-.43,0-.193,.04-3.163,2-8.91,5.88-.656,.515-1.457,.812-2.29,.85-1.119-.139-2.218-.401-3.28-.78-1.31-.45-2.31-.68-2.25-1.41,.05-.36,.57-.77,1.57-1.16Z"/></g></g></g></svg>