<svg xmlns="http://www.w3.org/2000/svg" viewBox="0 0 32 32"><defs><linearGradient id="a" x1="16" x2="16" y1="33.37" y2="1.61" gradientTransform="matrix(1 0 0 -1 0 33.37)" gradientUnits="userSpaceOnUse"><stop offset="0" stop-color="#2aabee"/><stop offset="1" stop-color="#229ed9"/></linearGradient></defs><rect width="32" height="32" rx="4.38" ry="4.38" style="fill:url(#a)"/><path d="M5.63 15.2a3082.94 3082.94 0 0 1 12.31-5.31C23.81 7.46 25 7 25.82 7c.291-.003.576.081.82.24a.932.932 0 0 1 .3.58c.028.276.028.554 0 .83-.32 3.33-1.69 11.44-2.39 15.17-.3 1.59-.88 2.12-1.44 2.17-1.23.11-2.16-.81-3.35-1.59-1.86-1.22-2.91-2-4.71-3.16-2.08-1.38-.73-2.13.46-3.37.31-.32 5.71-5.23 5.81-5.68a.389.389 0 0 0-.1-.37.472.472 0 0 0-.43 0c-.193.04-3.163 2-8.91 5.88a4.004 4.004 0 0 1-2.29.85 15.406 15.406 0 0 1-3.28-.78C5 17.32 4 17.09 4.06 16.36c.05-.36.57-.77 1.57-1.16Z" style="fill:#fff"/></svg>