<?xml version="1.0" encoding="UTF-8"?><svg id="Ebene_2" xmlns="http://www.w3.org/2000/svg" xmlns:xlink="http://www.w3.org/1999/xlink" viewBox="0 0 32 32"><defs><style>.cls-1{fill:#fff;fill-rule:evenodd;}.cls-2{fill:url(#Unbenannter_Verlauf);}</style><linearGradient id="Unbenannter_Verlauf" x1="16" y1="1.37" x2="16" y2="33.13" gradientTransform="translate(0 33.37) scale(1 -1)" gradientUnits="userSpaceOnUse"><stop offset="0" stop-color="#26d044"/><stop offset="1" stop-color="#61fd7d"/></linearGradient></defs><g id="Ebene_1-2"><g id="Ebene_2-2"><g id="Icons"><rect id="rect2989" class="cls-2" width="32" height="32" rx="4.38" ry="4.38"/><path class="cls-1" d="M16.52,26.7c-1.961,.004-3.89-.488-5.61-1.43l-6.42,2,2.09-6.18c-1.087-1.79-1.661-3.845-1.66-5.94-.028-6.406,5.143-11.622,11.55-11.65,6.406-.028,11.622,5.143,11.65,11.55,.028,6.406-5.143,11.622-11.55,11.65-.017,0-.033,0-.05,0Zm0-21.19c-5.362-.011-9.722,4.318-9.75,9.68-.002,2.039,.646,4.025,1.85,5.67l-1.21,3.6,3.74-1.19c4.446,2.999,10.481,1.825,13.48-2.621,2.999-4.446,1.825-10.481-2.621-13.48-1.621-1.093-3.534-1.672-5.489-1.66Zm5.85,12.33c-.07-.12-.26-.19-.54-.33s-1.68-.82-1.94-.92-.45-.14-.64,.15-.74,.91-.9,1.1-.34,.21-.62,.07c-.838-.332-1.612-.806-2.29-1.4-.62-.587-1.152-1.261-1.58-2-.16-.28,0-.44,.13-.58s.28-.33,.42-.49c.116-.133,.214-.281,.29-.44,.085-.156,.085-.344,0-.5-.07-.14-.64-1.52-.87-2.09s-.48-.47-.64-.47h-.55c-.29,.009-.565,.135-.76,.35-.651,.606-1.015,1.46-1,2.35,.082,1.061,.471,2.076,1.12,2.92,1.185,1.851,2.87,3.328,4.86,4.26,2.89,1.13,2.89,.75,3.41,.7,.802-.151,1.501-.639,1.92-1.34,.192-.419,.248-.888,.16-1.34h.02Z"/></g></g></g></svg>