<svg xmlns="http://www.w3.org/2000/svg" viewBox="0 0 32 32"><defs><linearGradient id="a" x1="16" x2="16" y1="1.37" y2="33.13" gradientTransform="matrix(1 0 0 -1 0 33.37)" gradientUnits="userSpaceOnUse"><stop offset="0" stop-color="#26d044"/><stop offset="1" stop-color="#61fd7d"/></linearGradient></defs><rect width="32" height="32" rx="4.38" ry="4.38" style="fill:url(#a)"/><path d="M16.52 26.7a11.628 11.628 0 0 1-5.61-1.43l-6.42 2 2.09-6.18a11.433 11.433 0 0 1-1.66-5.94C4.892 8.744 10.063 3.528 16.47 3.5c6.406-.028 11.622 5.143 11.65 11.55.028 6.406-5.143 11.622-11.55 11.65h-.05Zm0-21.19c-5.362-.011-9.722 4.318-9.75 9.68a9.584 9.584 0 0 0 1.85 5.67l-1.21 3.6 3.74-1.19c4.446 2.999 10.481 1.825 13.48-2.621a9.712 9.712 0 0 0-8.11-15.14Zm5.85 12.33c-.07-.12-.26-.19-.54-.33s-1.68-.82-1.94-.92-.45-.14-.64.15-.74.91-.9 1.1-.34.21-.62.07a7.88 7.88 0 0 1-2.29-1.4 8.889 8.889 0 0 1-1.58-2c-.16-.28 0-.44.13-.58s.28-.33.42-.49a1.95 1.95 0 0 0 .29-.44.522.522 0 0 0 0-.5c-.07-.14-.64-1.52-.87-2.09s-.48-.47-.64-.47h-.55c-.29.009-.565.135-.76.35a3.139 3.139 0 0 0-1 2.35A5.484 5.484 0 0 0 12 15.56a11.625 11.625 0 0 0 4.86 4.26c2.89 1.13 2.89.75 3.41.7a2.852 2.852 0 0 0 1.92-1.34c.192-.419.248-.888.16-1.34h.02Z" style="fill:#fff;fill-rule:evenodd"/></svg>