<svg xmlns="http://www.w3.org/2000/svg" viewBox="0 0 26 26"><circle cx="13" cy="13" r="13" style="fill:#898686"/><circle cx="13" cy="13" r="11" style="fill:#fff"/><path d="M8.38 20V6h4.536c1.719 0 2.84.07 3.362.21.802.21 1.474.667 2.015 1.37s.812 1.613.812 2.726c0 .859-.156 1.582-.468 2.168-.312.586-.708 1.046-1.189 1.38a4.115 4.115 0 0 1-1.466.664c-.674.134-1.652.201-2.932.201h-1.843V20H8.38Zm2.827-11.632v3.973h1.547c1.114 0 1.859-.073 2.235-.22.376-.147.67-.376.883-.688.214-.312.32-.674.32-1.089 0-.51-.149-.93-.449-1.261s-.678-.538-1.136-.621c-.338-.063-1.016-.095-2.034-.095h-1.366Z" style="fill:#5887b7"/></svg>