<svg xmlns="http://www.w3.org/2000/svg" id="Ebene_2" viewBox="0 0 26 26"><defs><style>.cls-2{fill:#5887b7}</style></defs><g id="Ebene_1-2"><circle cx="13" cy="13" r="13" style="fill:#898686"/><circle cx="13" cy="13" r="11" style="fill:#fff"/><path d="M13.488 13.908c-.031.113-.056.199-.071.25a2.43 2.43 0 0 0-.033.122c-.649 2.803 1.12 3.098 1.12 3.098 1.428.228 2.126-1.035 2.377-1.647.086-.209.174-.417.265-.623l-3.658-1.2ZM14.035 11.377a9.472 9.472 0 0 1-.13 1.372l3.892 1.275c2.432-5.706.965-7.862-.173-8.649a2.081 2.081 0 0 0-2.408.017c-1.067.78-1.313 2.306-1.313 2.306-.179 1.117-.033 2.245.056 2.761.054.303.081.61.076.918ZM10.531 14.972c.008.482.061.955.13 1.372l-3.892 1.275c-2.432-5.706-.965-7.862.173-8.649a2.081 2.081 0 0 1 2.408.017c1.067.78 1.313 2.306 1.313 2.306.179 1.117.033 2.245-.056 2.761a4.87 4.87 0 0 0-.076.918ZM10.911 17.503c.031.113.056.199.071.25.012.04.023.081.033.122.649 2.803-1.12 3.098-1.12 3.098-1.428.228-2.126-1.035-2.377-1.647a26.456 26.456 0 0 0-.265-.623l3.658-1.2Z" class="cls-2"/></g></svg>