<svg xmlns="http://www.w3.org/2000/svg" viewBox="0 0 26 26"><circle cx="13" cy="13" r="13" style="fill:#898686"/><circle cx="13" cy="13" r="11" style="fill:#fff"/><path d="M17.33 14.661h-1.042v-3.323h1.042c1.472 0 2.67-1.198 2.67-2.67S18.802 6 17.33 6s-2.669 1.197-2.669 2.669v1.043h-3.323V8.669C11.338 7.197 10.141 6 8.669 6S6 7.197 6 8.669s1.198 2.67 2.67 2.67h1.042v3.323H8.67c-1.472 0-2.67 1.197-2.67 2.669s1.198 2.67 2.67 2.67 2.669-1.198 2.669-2.67v-1.042h3.323v1.042c0 1.472 1.197 2.67 2.669 2.67S20 18.802 20 17.33s-1.198-2.669-2.67-2.669Zm-1.042-5.992a1.043 1.043 0 1 1 1.042 1.043h-1.042V8.669ZM9.712 17.33a1.043 1.043 0 0 1-2.085 0c0-.575.468-1.042 1.043-1.042h1.042v1.042Zm0-7.618H8.67a1.043 1.043 0 1 1 1.042-1.043v1.043Zm4.949 4.949h-3.323v-3.323h3.323v3.323Zm2.669 3.713a1.043 1.043 0 0 1-1.042-1.043v-1.042h1.042a1.043 1.043 0 0 1 0 2.085Z" style="fill:#5887b7"/></svg>