<?xml version="1.0" encoding="UTF-8"?><svg id="Ebene_2" xmlns="http://www.w3.org/2000/svg" viewBox="0 0 26 26"><defs><style>.cls-1{fill:#fff;}.cls-2{fill:#5887b7;}.cls-3{fill:#898686;}</style></defs><g id="Ebene_1-2"><circle class="cls-3" cx="13" cy="13" r="13"/><circle class="cls-1" cx="13" cy="13" r="11"/><path class="cls-2" d="M17.33,14.661h-1.042v-3.323h1.042c1.472,0,2.67-1.198,2.67-2.67s-1.198-2.668-2.67-2.668-2.669,1.197-2.669,2.669v1.043h-3.323v-1.043c0-1.472-1.197-2.669-2.669-2.669s-2.669,1.197-2.669,2.669,1.198,2.67,2.67,2.67h1.042v3.323h-1.042c-1.472,0-2.67,1.197-2.67,2.669s1.198,2.67,2.67,2.67,2.669-1.198,2.669-2.67v-1.042h3.323v1.042c0,1.472,1.197,2.67,2.669,2.67s2.669-1.199,2.669-2.671-1.198-2.669-2.67-2.669Zm-1.042-5.992c0-.575,.467-1.042,1.042-1.042s1.043,.467,1.043,1.042-.468,1.043-1.043,1.043h-1.042v-1.043Zm-6.576,8.661c0,.575-.467,1.043-1.042,1.043s-1.043-.468-1.043-1.043,.468-1.042,1.043-1.042h1.042v1.042Zm0-7.618h-1.042c-.575,0-1.043-.468-1.043-1.043s.468-1.042,1.043-1.042,1.042,.467,1.042,1.042v1.043Zm4.949,4.949h-3.323v-3.323h3.323v3.323Zm2.669,3.713c-.575,0-1.042-.468-1.042-1.043v-1.042h1.042c.575,0,1.043,.467,1.043,1.042,.001,.575-.467,1.043-1.043,1.043Z"/></g></svg>