<?xml version="1.0" encoding="UTF-8"?><svg id="Ebene_2" xmlns="http://www.w3.org/2000/svg" viewBox="0 0 26 26"><defs><style>.cls-1{fill:#fff;}.cls-2{fill:#5887b7;}.cls-3{fill:#898686;}</style></defs><g id="Ebene_1-2"><circle class="cls-3" cx="13" cy="13" r="13"/><circle class="cls-1" cx="13" cy="13" r="11"/><g><circle class="cls-2" cx="13" cy="13" r="2.735"/><g><g><rect class="cls-2" x="15.808" y="8.693" width="4.738" height="1.465" transform="translate(-1.341 15.614) rotate(-45)"/><rect class="cls-2" x="14.207" y="7.09" width="4.738" height="1.465" transform="translate(-.677 14.012) rotate(-45)"/></g><g><rect class="cls-2" x="7.056" y="17.444" width="4.738" height="1.465" transform="translate(-10.092 11.988) rotate(-45)"/><rect class="cls-2" x="5.454" y="15.843" width="4.738" height="1.465" transform="translate(-9.429 10.387) rotate(-45)"/></g></g><g><g><rect class="cls-2" x="15.843" y="15.808" width="1.465" height="4.738" transform="translate(-7.998 17.044) rotate(-45)"/><rect class="cls-2" x="17.444" y="14.206" width="1.465" height="4.738" transform="translate(-6.397 17.708) rotate(-45)"/></g><g><rect class="cls-2" x="7.091" y="7.055" width="1.465" height="4.738" transform="translate(-4.372 8.292) rotate(-45)"/><rect class="cls-2" x="8.692" y="5.454" width="1.465" height="4.738" transform="translate(-2.772 8.956) rotate(-45)"/></g></g></g></g></svg>