<svg xmlns="http://www.w3.org/2000/svg" id="Ebene_2" viewBox="0 0 26 26"><defs><style>.cls-2{fill:#5887b7}</style></defs><g id="Ebene_1-2"><circle cx="13" cy="13" r="13" style="fill:#898686"/><circle cx="13" cy="13" r="11" style="fill:#fff"/><circle cx="13" cy="13" r="2.735" class="cls-2"/><path d="m15.984 10.583 3.35-3.35 1.036 1.036-3.35 3.35zM14.382 8.98l3.35-3.35 1.036 1.035-3.35 3.35zM7.232 19.333l3.35-3.35 1.036 1.036-3.35 3.35zM5.63 17.733l3.35-3.35 1.036 1.036-3.35 3.35zM14.383 17.02l1.036-1.037 3.35 3.35-1.036 1.037zM15.983 15.418l1.036-1.036 3.35 3.35-1.036 1.037zM5.63 8.267 6.668 7.23l3.35 3.35-1.036 1.036zM7.23 6.666 8.268 5.63l3.35 3.35-1.036 1.037z" class="cls-2"/></g></svg>