<?xml version="1.0" encoding="UTF-8"?><svg id="Ebene_2" xmlns="http://www.w3.org/2000/svg" viewBox="0 0 24 30"><defs><style>.cls-1{fill:#9d9d9e;}</style></defs><g id="Ebene_1-2"><g id="Ebene_2-2"><g id="Ebene_2-2"><path class="cls-1" d="M0,28c0,1.105,.895,2,2,2H22c1.105,0,2-.895,2-2V15.35H0v12.65Zm6.76-7.14h2v1.64h6.48v-1.64h2v1.72c0,1.06-.86,1.92-1.92,1.92h-6.64c-1.06,0-1.92-.86-1.92-1.92h0v-1.72ZM22,0H2C.895,0,0,.895,0,2V14.35H24V2c0-1.105-.895-2-2-2Zm-4.76,7.08c-.005,1.058-.862,1.915-1.92,1.92h-6.64c-1.058-.005-1.915-.862-1.92-1.92v-1.73h2v1.65h6.48v-1.65h2v1.73Z"/></g></g></g></svg>