<?xml version="1.0" encoding="UTF-8"?><svg id="Ebene_2" xmlns="http://www.w3.org/2000/svg" viewBox="0 0 15.991 15.34"><defs><style>.cls-1{fill:#fb9e3b;}</style></defs><g id="Ebene_1-2"><g id="Ebene_2-2"><g id="Icons"><path class="cls-1" d="M5.52,5.86h.11c-.015-.203-.015-.407,0-.61-.015-1.627,.902-3.119,2.36-3.84C7.151,.027,5.349-.414,3.966,.426c-1.383,.839-1.824,2.641-.985,4.025,.532,.877,1.484,1.412,2.51,1.41h.03Z"/><circle class="cls-1" cx="9.82" cy="5.25" r="3.25"/><path class="cls-1" d="M12.65,8.46c-1.611,1.437-4.043,1.442-5.66,.01-2.073,1.153-3.347,3.348-3.32,5.72-.002,.386,.032,.771,.1,1.15H15.89c.068-.379,.102-.764,.1-1.15,.027-2.379-1.256-4.581-3.34-5.73Z"/><path class="cls-1" d="M6.38,7.74c-.215-.31-.39-.646-.52-1h-.34c-.926,.012-1.824-.311-2.53-.91C.816,7.072-.344,9.545,.09,12.01H3.09c.437-1.828,1.634-3.382,3.29-4.27Z"/></g></g></g></svg>