<?xml version="1.0" encoding="UTF-8"?><svg id="Ebene_2" xmlns="http://www.w3.org/2000/svg" viewBox="0 0 15.986 14"><defs><style>.cls-1{fill:#fff;}.cls-2{fill:#ff332e;}.cls-3{fill:red;}</style></defs><g id="Ebene_1-2"><g id="Ebene_2-2"><g id="Icons"><g id="path4201"><path class="cls-2" d="M7.986,0c-.183,0-.359,.072-.49,.2l-.11,.15-.4,.65h0L.096,13H.096c-.033,.061-.059,.124-.08,.19-.078,.354,.132,.708,.48,.81H15.296c.381,0,.69-.309,.69-.69,.002-.123-.029-.244-.09-.35h0L8.696,.49c-.056-.115-.13-.219-.22-.31C8.342,.059,8.167-.005,7.986,0Z"/><path class="cls-3" d="M7.986,0c-.183,0-.359,.072-.49,.2l-.11,.15-.4,.65h0L.096,13H.096c-.033,.061-.059,.124-.08,.19-.078,.354,.132,.708,.48,.81H15.296c.381,0,.69-.309,.69-.69,.002-.123-.029-.244-.09-.35h0L8.696,.49c-.056-.115-.13-.219-.22-.31C8.342,.059,8.167-.005,7.986,0Z"/></g><path class="cls-1" d="M8.686,6.64c-.007-.431-.363-.774-.793-.766-.029,0-.058,.003-.087,.006-.47,.018-.915,.219-1.24,.56l-1-.9c.592-.687,1.454-1.081,2.36-1.08,1.37,0,2.45,.63,2.45,2,0,1.58-2,1.78-1.81,3.16h-1.58c-.22-1.62,1.7-2.09,1.7-2.98Zm-2,4.93c-.028-.634,.463-1.172,1.098-1.2,.034-.002,.068-.002,.102,0,.634-.028,1.172,.463,1.2,1.098,.002,.034,.002,.068,0,.102,0,.663-.537,1.2-1.2,1.2s-1.2-.537-1.2-1.2h0Z"/></g></g></g></svg>