<?xml version="1.0" encoding="UTF-8"?><svg id="Ebene_2" xmlns="http://www.w3.org/2000/svg" viewBox="0 0 16.053 15"><defs><style>.cls-1{fill:#ff332e;fill-rule:evenodd;}.cls-2{fill:#5381a9;}</style></defs><g id="Ebene_1-2"><g><path id="location1" class="cls-2" d="M5.191,13.841c-.025,.035-.055,.066-.09,.09-.17,.12-.404,.079-.524-.09h0c-.937-1.328-1.6-2.299-1.988-2.912C.863,8.208,0,6.193,0,4.884,0,2.186,2.186,0,4.884,0s4.884,2.186,4.884,4.884c0,1.307-.86,3.317-2.579,6.031-.391,.615-1.057,1.591-1.998,2.926Zm-.294-5.808c1.66,0,3.005-1.346,3.005-3.005s-1.346-3.005-3.005-3.005S1.891,3.368,1.891,5.028s1.346,3.005,3.006,3.005Zm-.013-1.167c-1.037,0-1.878-.841-1.878-1.878s.84-1.878,1.878-1.878,1.878,.841,1.878,1.878-.841,1.878-1.878,1.878Z"/><path class="cls-1" d="M16.053,11l-4-4v2.333h-3.062c-.39,.718-.845,1.489-1.37,2.318-.173,.272-.406,.624-.67,1.016h5.102v2.333l4-4Z"/></g></g></svg>