<?xml version="1.0" encoding="UTF-8"?><svg id="Ebene_2" xmlns="http://www.w3.org/2000/svg" viewBox="0 0 15.998 14.929"><defs><style>.cls-1{fill:#ff332e;}</style></defs><g id="Ebene_1-2"><g><path class="cls-1" d="M15.74,2.369l-2.18,2.19c-.445,.425-1.145,.425-1.59,0l-.52-.53c-.436-.431-.441-1.133-.01-1.57,.003-.003,.007-.007,.01-.01L13.63,.259c-1.918-.752-4.082,.192-4.835,2.11-.752,1.918,.192,4.082,2.11,4.835,1.918,.752,4.082-.192,4.835-2.11,.344-.876,.344-1.849,0-2.725Z"/><path class="cls-1" d="M1.73,11.219c-.844,.787-.891,2.109-.104,2.954,.015,.016,.029,.031,.044,.046l.1,.09c.396,.406,.943,.63,1.51,.62,.566-.015,1.103-.257,1.49-.67l2.11-2.27-2.88-2.87-2.27,2.1Z"/><path class="cls-1" d="M7.93,5.679c-.101-.094-.232-.147-.37-.15-.138-.001-.272,.053-.37,.15l-.82,.82L2.9,3.029v-.59c.01-.049,.01-.101,0-.15-.029-.047-.066-.087-.11-.12L.79,.919l-.79,.79L1.25,3.709c.033,.044,.073,.081,.12,.11,.048,.017,.099,.024,.15,.02h.59l3.47,3.45-.82,.82c-.095,.096-.149,.225-.15,.36,.003,.138,.056,.269,.15,.37l5.43,5.43c.875,.875,2.295,.875,3.17,0s.875-2.295,0-3.17L7.93,5.679Z"/></g></g></svg>