<?xml version="1.0" encoding="UTF-8"?><svg id="Ebene_2" xmlns="http://www.w3.org/2000/svg" viewBox="0 0 16 15.67"><defs><style>.cls-1{fill:#fb9e3b;}.cls-2{fill:#a5a6a5;}</style></defs><g id="Ebene_1-2"><g id="Ebene_2-2"><g id="Icons"><circle class="cls-1" cx="9.83" cy="5.58" r="3.25"/><path class="cls-1" d="M12.66,8.79c-1.611,1.437-4.043,1.442-5.66,.01-2.073,1.153-3.347,3.348-3.32,5.72-.002,.386,.032,.771,.1,1.15H15.9c.068-.379,.102-.764,.1-1.15,.027-2.379-1.256-4.581-3.34-5.73Z"/><polygon class="cls-2" points="6.29 2.2 4.09 2.2 4.09 0 2.2 0 2.2 2.2 0 2.2 0 4.09 2.2 4.09 2.2 6.29 4.09 6.29 4.09 4.09 6.29 4.09 6.29 2.2"/></g></g></g></svg>