<?xml version="1.0" encoding="UTF-8"?><svg id="Ebene_2" xmlns="http://www.w3.org/2000/svg" viewBox="0 0 72.001 89.641"><defs><style>.cls-1{fill:#093;}.cls-2{fill:#c30;}</style></defs><g id="Ebene_1-2"><g><path id="Nordpfeil" class="cls-2" d="M24.743,0l7.634,12.291,7.633,12.292-8.813,2.129-8.813,2.129,1.179-14.421L24.743,0h0Z"/><path id="Mittelpunkt" class="cls-1" d="M38.09,42.916c4.895,0,8.887,3.992,8.887,8.886s-3.992,8.887-8.887,8.887-8.886-3.992-8.886-8.887,3.991-8.886,8.886-8.886Z"/><path id="Symbol" d="M22.329,52.876c3.856-.595,8.347-1.518,12.982-2.605-1.128-4.245-2.399-8.429-3.856-12.592,1.846-.246,3.651-.636,5.373-1.333,.677,4.327,1.497,8.634,2.523,12.921,5.291-1.354,10.541-2.871,15.032-4.369l6.071-1.907c.369,.964,.697,1.948,.943,2.974,3.24,12.982-4.696,26.21-17.658,29.451-12.982,3.24-26.21-4.697-29.45-17.679-3.24-12.961,4.696-26.19,17.679-29.43,10.48-2.604,21.144,2.072,26.558,10.829l-5.373,1.333c-4.532-7.281-12.654-11.3-20.488-9.331-10.008,2.501-15.852,13.842-13.002,25.265,2.85,11.423,13.351,18.683,23.359,16.181,9.311-2.317,15.012-12.285,13.495-22.847-4.819,.82-10.521,2.072-16.181,3.548,1.128,4.266,2.42,8.511,3.917,12.736-1.907,.082-3.671,.615-5.394,1.354-.676-4.389-1.518-8.737-2.543-13.023-4.553,1.251-8.942,2.605-12.633,3.897-.062-1.887-.595-3.65-1.354-5.373Z"/><path id="Westen" d="M3.153,64.82l-.553-1.13L.085,58.182c-.179-.402-.075-.694,.312-.878,.113-.054,.247-.102,.4-.145l.305-.085,.34-.086c.287-.076,.501-.082,.642-.018,.129,.06,.249,.205,.358,.435,.012,.025,.023,.05,.034,.072l.212,.477,.107,.252,.311,.728,1.004,2.583-.068-1.194-.058-.593-.034-.525-.018-.325-.016-.192-.042-.661-.051-.973c-.023-.446-.016-.751,.014-.915,.066-.306,.254-.532,.559-.677,.181-.086,.343-.148,.49-.185l.282-.076,.226-.062c.287-.076,.483-.046,.588,.086,.062,.072,.156,.239,.282,.502l.405,.819,.134,.314,.528,1.142,.159,.393,.269,.629,.249,.624c.018-.45,.003-1.013-.046-1.689l-.087-1.139,.01-.138-.018-.732-.061-1.472c-.018-.415,.085-.676,.309-.783,.099-.047,.234-.091,.407-.131l.447-.109,.329-.035c.422-.047,.677,.024,.768,.213,.047,.099,.081,.256,.108,.476l.06,.577,.034,.576,.086,1.455,.05,2.111-.012,.808,.002,.922-.023,.525-.031,1.468c-.008,.387-.032,.666-.073,.834-.075,.31-.232,.522-.47,.635-.033,.016-.084,.035-.154,.058-.078,.027-.133,.048-.166,.064-.62,.204-1.018,.267-1.197,.188-.185-.071-.425-.396-.72-.973l-.27-.535-.148-.311-.392-.855-.47-1.154-.277-.61,.013,.282,.011,.219v.152s.039,.498,.039,.498l.002,.196,.011,.406-.019,1.296,.019,1.124c.024,1.112-.129,1.744-.459,1.901-.066,.031-.234,.086-.502,.16-.433,.125-.719,.18-.858,.169-.253-.023-.462-.197-.624-.523l-.483-.952h0Z"/><path id="Sueden" d="M45.4,86.587l.035,.163c.057-.007,.131-.032,.222-.075,.461-.219,.605-.505,.437-.859-.051-.107-.115-.205-.195-.288l-.292-.295-1.112-.778-.629-.395c-.475-.299-.818-.676-1.034-1.129-.192-.403-.25-.855-.176-1.357l.063-.408c.062-.4,.244-.82,.552-1.259,.407-.587,.924-1.05,1.548-1.387,.155-.084,.342-.178,.565-.284l.173-.082c.412-.196,.718-.306,.917-.332,.35-.045,.602,.092,.755,.416,.031,.086,.09,.275,.18,.565l.029,.093,.125,.518c.08,.343,.102,.59,.062,.74-.05,.185-.211,.368-.482,.547l-.559,.284c-.024,.012-.045,.021-.064,.03-.428,.204-.681,.223-.76,.058-.017-.035-.031-.109-.043-.224l-.2,.095c-.36,.235-.474,.495-.338,.781,.078,.165,.226,.317,.441,.456,.099,.054,.28,.17,.546,.346l.314,.214c.881,.601,1.462,1.197,1.744,1.79,.668,1.406,.52,2.601-.445,3.585-.374,.38-.879,.72-1.515,1.023-.294,.14-.522,.233-.682,.279l-.078,.022-.465,.143c-.29,.09-.524,.075-.701-.042-.137-.097-.276-.295-.422-.602l-.08-.265-.164-.6-.102-.469c-.086-.393-.115-.647-.087-.761,.043-.179,.222-.345,.533-.493l.051-.024,.444-.18c.078-.027,.218-.083,.417-.168,.141-.027,.248,.039,.321,.193,.048,.098,.098,.236,.151,.415h0Z"/><path id="Osten" d="M67.605,40.185l.205,.495,.319-.699,.077-.188,.16-.333c.131-.261,.264-.426,.402-.491,.38-.181,.826,.067,1.338,.739,.322,.422,.625,.932,.907,1.525,.411,.864,.693,1.755,.843,2.67,.234,1.383,.186,2.561-.147,3.537-.404,1.194-.988,1.971-1.754,2.335-.13,.062-.288,.122-.473,.177-.872,.273-1.723,.128-2.553-.434-.553-.373-1.012-.945-1.376-1.71-.376-.79-.654-1.844-.835-3.163,.01-.063,.014-.171,.012-.324-.024-1.51,.305-2.691,.983-3.538,.431-.538,.817-.888,1.162-1.052,.299-.142,.501-.097,.61,.132,.02,.043,.04,.094,.059,.156,.03,.085,.048,.139,.061,.166h0Zm.296,1.254l.013,.097,.024,.203c.004,.099,.008,.181,.01,.25l.002,.062c-.045,.039-.135,.188-.272,.447-.43,.777-.504,1.811-.223,3.103,.067,.311,.179,.632,.335,.961,.125,.264,.248,.447,.367,.549,.276,.235,.527,.297,.756,.189,.29-.138,.46-.577,.509-1.317,.063-.908-.063-1.762-.381-2.559l-.315-.789-.071-.117-.154-.293c-.16-.296-.361-.559-.6-.786h0Z"/><path id="Norden" d="M30.531,18.532l-.216-.576-.152-.606-.323-1.226-.233-1.189-.19-1.063c.017-.24,.132-.411,.349-.514,.138-.066,.273-.11,.407-.131l.193-.034,.466-.07c.427-.062,.707,.048,.841,.33,.062,.13,.115,.296,.158,.498l.356,1.572,.434,2.155,.182,1.019,.262,1.601c.017,.184,.059,.542,.128,1.072,.04,.274,.074,.442,.101,.5,.004,.008,.008,.016,.012,.025l.043,.052,.138,.164c.046,.059,.076,.1,.087,.125,.097,.204-.04,.395-.408,.57-.025,.012-.053,.026-.088,.042-.027,.023-.066,.047-.118,.071-.091,.043-.228,.094-.413,.151-.094,.037-.223,.063-.386,.08l-.128,.013-.275,.027c-.29,.027-.539-.062-.747-.265-.064-.071-.233-.298-.506-.683l-.193-.274-.485-.703-.309-.431-1.558-2.257,.12,.412,.074,.22,.311,1.036,.219,.88,.266,1.191,.336,1.763c.07,.358-.048,.611-.35,.754-.051,.024-.138,.056-.259,.093-.475,.147-.77,.227-.885,.239-.371,.048-.619-.061-.745-.325-.043-.091-.094-.283-.154-.578l-.012-.057-.092-.544-.219-1.034-1.241-6.871c-.039-.214,.032-.363,.213-.449,.156-.074,.327-.13,.51-.169l.443-.087c.698-.14,1.204-.063,1.518,.232l.3,.281,.34,.338c.325,.317,.682,.771,1.07,1.354l.034,.072,.774,1.204h0Z"/></g></g></svg>