<?xml version="1.0" encoding="UTF-8"?><svg id="Ebene_2" xmlns="http://www.w3.org/2000/svg" xmlns:xlink="http://www.w3.org/1999/xlink" viewBox="0 0 63 32.713"><defs><style>.cls-1{fill:#fff;}.cls-2{clip-path:url(#clippath-2);}.cls-3{clip-path:url(#clippath-6);}.cls-4{fill:#441e0e;}.cls-5{clip-path:url(#clippath-7);}.cls-6{clip-path:url(#clippath-4);}.cls-7{fill:url(#Unbenannter_Verlauf_2);}.cls-7,.cls-8{isolation:isolate;opacity:.75;}.cls-9{clip-path:url(#clippath-9);}.cls-10{fill:#043eb2;}.cls-11,.cls-12{fill:none;}.cls-13{clip-path:url(#clippath-3);}.cls-14{clip-path:url(#clippath-8);}.cls-15{opacity:.55;}.cls-16{clip-path:url(#clippath-5);}.cls-12{clip-path:url(#clippath-1);}.cls-17{fill:url(#Unbenannter_Verlauf_3);}.cls-8{fill:url(#Unbenannter_Verlauf_2-2);}</style><radialGradient id="Unbenannter_Verlauf_2" cx="44.381" cy="-84.549" fx="44.381" fy="-84.549" r="13.595" gradientTransform="translate(0 11.009) scale(1 -.2)" gradientUnits="userSpaceOnUse"><stop offset="0" stop-color="#1a1a1a"/><stop offset=".15" stop-color="#1e1e1e" stop-opacity=".85"/><stop offset=".284" stop-color="#282828" stop-opacity=".716"/><stop offset=".413" stop-color="#3b3b3b" stop-opacity=".587"/><stop offset=".537" stop-color="#545454" stop-opacity=".463"/><stop offset=".659" stop-color="#767676" stop-opacity=".341"/><stop offset=".779" stop-color="#9e9e9e" stop-opacity=".221"/><stop offset=".896" stop-color="#cecece" stop-opacity=".105"/><stop offset="1" stop-color="#fff" stop-opacity="0"/></radialGradient><radialGradient id="Unbenannter_Verlauf_2-2" cx="18.619" fx="18.619" xlink:href="#Unbenannter_Verlauf_2"/><clipPath id="clippath-1"><rect class="cls-11" x="4.844" width="27.55" height="27.55"/></clipPath><clipPath id="clippath-2"><rect class="cls-12" x="4.844" width="27.55" height="27.55"/></clipPath><clipPath id="clippath-3"><rect class="cls-11" x="4.844" width="27.55" height="27.55"/></clipPath><clipPath id="clippath-4"><rect class="cls-11" x="4.844" width="27.55" height="27.55"/></clipPath><clipPath id="clippath-5"><rect class="cls-11" x="4.844" width="27.55" height="27.55"/></clipPath><clipPath id="clippath-6"><rect class="cls-11" x="4.844" width="27.55" height="27.55"/></clipPath><clipPath id="clippath-7"><rect class="cls-11" x="4.844" width="27.55" height="27.55"/></clipPath><clipPath id="clippath-8"><rect class="cls-11" x="4.844" width="27.55" height="27.55"/></clipPath><clipPath id="clippath-9"><rect class="cls-11" x="4.844" width="27.55" height="27.55"/></clipPath><radialGradient id="Unbenannter_Verlauf_3" cx="-12062.745" cy="11136.703" fx="-12062.745" fy="11136.703" r="1029.501" gradientTransform="translate(243.236 190.732) scale(.016 -.016)" gradientUnits="userSpaceOnUse"><stop offset="0" stop-color="#ff0"/><stop offset=".202" stop-color="#fffb00"/><stop offset=".383" stop-color="#fff100"/><stop offset=".556" stop-color="#ffde00"/><stop offset=".723" stop-color="#ffc500"/><stop offset=".886" stop-color="#ffa400"/><stop offset="1" stop-color="#f80"/></radialGradient></defs><g id="Ebene_1-2"><g><ellipse class="cls-7" cx="44.381" cy="27.919" rx="18.619" ry="4.794"/><ellipse class="cls-8" cx="18.619" cy="27.919" rx="18.619" ry="4.794"/><g class="cls-2"><g><g class="cls-13"><path class="cls-10" d="M32.358,13.912c0,7.513-6.09,13.603-13.602,13.603S5.153,21.425,5.153,13.912,11.243,.309,18.755,.309s13.603,6.09,13.603,13.603h0Z"/></g><g class="cls-6"><path class="cls-1" d="M10.181,9.995c0-1.295,.37-2.313,1.08-3.023s1.727-1.08,3.023-1.08,2.344,.37,3.054,1.08c.709,.709,1.08,1.696,1.08,2.992,.03,.787-.129,1.569-.463,2.283-.31,.583-.781,1.064-1.357,1.388-.684,.357-1.45,.527-2.221,.494-.763,.022-1.522-.126-2.221-.432-.599-.299-1.093-.772-1.419-1.357-.39-.72-.581-1.529-.556-2.345h0Zm2.437,0c0,.802,.154,1.388,.432,1.727,.305,.343,.745,.535,1.203,.524,.469,.017,.92-.176,1.234-.524,.278-.339,.432-.956,.432-1.851,0-.74-.154-1.296-.463-1.635-.313-.349-.765-.541-1.234-.524-.458-.01-.898,.182-1.203,.524-.299,.536-.438,1.146-.401,1.759h0Z"/></g><g class="cls-16"><path class="cls-1" d="M25.017,10.704l2.159,.648c-.118,.546-.35,1.06-.679,1.511-.31,.399-.713,.716-1.172,.925-.557,.228-1.157,.333-1.758,.308-.727,.025-1.452-.101-2.128-.37-.598-.286-1.094-.749-1.419-1.326-.424-.739-.628-1.585-.586-2.437,0-1.326,.339-2.313,1.049-3.023,.709-.709,1.696-1.049,2.961-1.049,.836-.037,1.663,.178,2.375,.617,.616,.459,1.061,1.11,1.265,1.851l-2.159,.494c-.037-.192-.122-.373-.247-.524-.126-.183-.295-.332-.494-.432-.212-.101-.444-.154-.679-.154-.515-.029-1.004,.233-1.265,.679-.255,.483-.373,1.027-.339,1.573,0,.895,.123,1.481,.401,1.82,.596,.62,1.575,.661,2.221,.093,.272-.349,.443-.765,.494-1.204h0Z"/></g><g class="cls-3"><path class="cls-1" d="M11.045,19.526c-.014-.519,.187-1.022,.555-1.388,.418-.386,.974-.587,1.542-.555,.625-.047,1.237,.191,1.666,.648,.31,.347,.475,.799,.463,1.265,.014,.519-.187,1.022-.555,1.388-.418,.386-.974,.587-1.542,.555-.514,.028-1.02-.137-1.419-.463-.464-.335-.731-.879-.71-1.45h0Zm1.387-.031c-.018,.26,.047,.519,.185,.74,.119,.152,.3,.243,.494,.247,.195,.003,.379-.089,.493-.247,.142-.22,.207-.48,.185-.74,.018-.25-.047-.5-.185-.709-.119-.152-.3-.243-.493-.247-.202,.003-.393,.093-.524,.247-.155,.154-.155,.4-.155,.709h0Z"/></g><g class="cls-5"><path class="cls-1" d="M15.949,17.675h1.326v.586c.154-.216,.354-.395,.586-.524,.232-.108,.485-.161,.74-.154,.342-.017,.676,.105,.925,.339,.244,.305,.366,.69,.339,1.08v2.344h-1.419v-2.036c.019-.174-.024-.349-.123-.494-.097-.1-.231-.155-.37-.154-.156-.011-.308,.059-.401,.185-.119,.217-.173,.463-.154,.709v1.758h-1.418v-3.64h-.031Z"/></g><g class="cls-14"><polygon class="cls-1" points="20.73 16.256 22.148 16.256 22.148 21.346 20.73 21.346 20.73 16.256"/></g><g class="cls-9"><path class="cls-1" d="M22.734,17.675h1.481l.771,2.437,.709-2.437h1.388l-1.45,3.917c-.094,.332-.263,.638-.494,.895-.317,.244-.711,.365-1.11,.339-.32-.01-.64-.041-.956-.093l-.123-.987c.221,.063,.449,.094,.679,.093,.145,.012,.288-.033,.401-.123,.12-.106,.206-.246,.247-.401l-1.543-3.64Z"/></g></g></g><circle class="cls-17" cx="44.381" cy="13.794" r="13.775"/><g class="cls-15"><path class="cls-1" d="M44.518,18.849c-5.135,0-6.718-4.107-6.782-4.259-.106-.248,.009-.534,.256-.64,.245-.105,.532,.008,.639,.254h0c.055,.128,1.417,3.118,5.887,3.118s5.832-2.99,5.888-3.118c.108-.246,.396-.355,.64-.252,.247,.106,.361,.392,.254,.638-.064,.152-1.647,4.259-6.782,4.259Z"/></g><path class="cls-4" d="M44.518,18.35c-5.135,0-6.718-4.107-6.782-4.259-.106-.248,.009-.534,.256-.64,.245-.105,.532,.008,.639,.254h0c.055,.128,1.417,3.118,5.887,3.118s5.832-2.99,5.888-3.118c.108-.246,.396-.355,.64-.252,.247,.106,.361,.392,.254,.638-.064,.152-1.647,4.259-6.782,4.259Z"/><ellipse class="cls-4" cx="37.952" cy="13.588" rx="1.195" ry=".421" transform="translate(-.612 25.329) rotate(-36.633)"/><ellipse class="cls-4" cx="50.969" cy="13.69" rx=".421" ry="1.195" transform="translate(9.571 46.423) rotate(-53.367)"/><g><path d="M41.61,9.266c0,.658-.447,1.191-1,1.191s-1-.533-1-1.191v-3.129c0-.658,.447-1.191,1-1.191s1,.533,1,1.191v3.129Z"/><path d="M48.594,9.266c0,.658-.447,1.191-1,1.191s-1-.533-1-1.191v-3.129c0-.658,.447-1.191,1-1.191s1,.533,1,1.191v3.129Z"/></g></g></g></svg>