<svg xmlns="http://www.w3.org/2000/svg" xmlns:xlink="http://www.w3.org/1999/xlink" id="Ebene_2" viewBox="0 0 63 32.713"><defs><clipPath id="clippath-1"><path d="M4.844 0h27.55v27.55H4.844z" class="cls-11"/></clipPath><clipPath id="clippath-2"><path d="M4.844 0h27.55v27.55H4.844z" style="clip-path:url(#clippath-1);fill:none"/></clipPath><clipPath id="clippath-3"><path d="M4.844 0h27.55v27.55H4.844z" class="cls-11"/></clipPath><clipPath id="clippath-4"><path d="M4.844 0h27.55v27.55H4.844z" class="cls-11"/></clipPath><clipPath id="clippath-5"><path d="M4.844 0h27.55v27.55H4.844z" class="cls-11"/></clipPath><clipPath id="clippath-6"><path d="M4.844 0h27.55v27.55H4.844z" class="cls-11"/></clipPath><clipPath id="clippath-7"><path d="M4.844 0h27.55v27.55H4.844z" class="cls-11"/></clipPath><clipPath id="clippath-8"><path d="M4.844 0h27.55v27.55H4.844z" class="cls-11"/></clipPath><clipPath id="clippath-9"><path d="M4.844 0h27.55v27.55H4.844z" class="cls-11"/></clipPath><radialGradient id="Unbenannter_Verlauf_2" cx="44.381" cy="-84.549" r="13.595" fx="44.381" fy="-84.549" gradientTransform="matrix(1 0 0 -.2 0 11.009)" gradientUnits="userSpaceOnUse"><stop offset="0" stop-color="#1a1a1a"/><stop offset=".15" stop-color="#1e1e1e" stop-opacity=".85"/><stop offset=".284" stop-color="#282828" stop-opacity=".716"/><stop offset=".413" stop-color="#3b3b3b" stop-opacity=".587"/><stop offset=".537" stop-color="#545454" stop-opacity=".463"/><stop offset=".659" stop-color="#767676" stop-opacity=".341"/><stop offset=".779" stop-color="#9e9e9e" stop-opacity=".221"/><stop offset=".896" stop-color="#cecece" stop-opacity=".105"/><stop offset="1" stop-color="#fff" stop-opacity="0"/></radialGradient><radialGradient xlink:href="#Unbenannter_Verlauf_2" id="Unbenannter_Verlauf_2-2" cx="18.619" fx="18.619"/><radialGradient id="Unbenannter_Verlauf_3" cx="-12062.745" cy="11136.703" r="1029.501" fx="-12062.745" fy="11136.703" gradientTransform="matrix(.016 0 0 -.016 243.236 190.732)" gradientUnits="userSpaceOnUse"><stop offset="0" stop-color="#ff0"/><stop offset=".202" stop-color="#fffb00"/><stop offset=".383" stop-color="#fff100"/><stop offset=".556" stop-color="#ffde00"/><stop offset=".723" stop-color="#ffc500"/><stop offset=".886" stop-color="#ffa400"/><stop offset="1" stop-color="#f80"/></radialGradient><style>.cls-1{fill:#fff}.cls-4{fill:#441e0e}.cls-11{fill:none}</style></defs><g id="Ebene_1-2"><ellipse cx="44.381" cy="27.919" rx="18.619" ry="4.794" style="isolation:isolate;opacity:.75;fill:url(#Unbenannter_Verlauf_2)"/><ellipse cx="18.619" cy="27.919" rx="18.619" ry="4.794" style="fill:url(#Unbenannter_Verlauf_2-2);isolation:isolate;opacity:.75"/><g style="clip-path:url(#clippath-2)"><g style="clip-path:url(#clippath-3)"><path d="M32.358 13.912c0 7.513-6.09 13.603-13.602 13.603S5.153 21.425 5.153 13.912 11.243.309 18.755.309s13.603 6.09 13.603 13.603Z" style="fill:#043eb2"/></g><path d="M10.181 9.995c0-1.295.37-2.313 1.08-3.023s1.727-1.08 3.023-1.08 2.344.37 3.054 1.08c.709.709 1.08 1.696 1.08 2.992a4.942 4.942 0 0 1-.463 2.283 3.453 3.453 0 0 1-1.357 1.388 4.393 4.393 0 0 1-2.221.494 5.17 5.17 0 0 1-2.221-.432 3.324 3.324 0 0 1-1.419-1.357 4.625 4.625 0 0 1-.556-2.345Zm2.437 0c0 .802.154 1.388.432 1.727a1.56 1.56 0 0 0 1.203.524c.469.017.92-.176 1.234-.524.278-.339.432-.956.432-1.851 0-.74-.154-1.296-.463-1.635a1.58 1.58 0 0 0-1.234-.524 1.567 1.567 0 0 0-1.203.524 3.212 3.212 0 0 0-.401 1.759Z" class="cls-1" style="clip-path:url(#clippath-4)"/><path d="m25.017 10.704 2.159.648a3.996 3.996 0 0 1-.679 1.511c-.31.399-.713.716-1.172.925a4.183 4.183 0 0 1-1.758.308 5.268 5.268 0 0 1-2.128-.37A3.226 3.226 0 0 1 20.02 12.4a4.457 4.457 0 0 1-.586-2.437c0-1.326.339-2.313 1.049-3.023.709-.709 1.696-1.049 2.961-1.049a4.173 4.173 0 0 1 2.375.617 3.45 3.45 0 0 1 1.265 1.851l-2.159.494a1.17 1.17 0 0 0-.247-.524 1.32 1.32 0 0 0-.494-.432 1.58 1.58 0 0 0-.679-.154 1.377 1.377 0 0 0-1.265.679 2.973 2.973 0 0 0-.339 1.573c0 .895.123 1.481.401 1.82.596.62 1.575.661 2.221.093a2.41 2.41 0 0 0 .494-1.204Z" class="cls-1" style="clip-path:url(#clippath-5)"/><path d="M11.045 19.526a1.887 1.887 0 0 1 .555-1.388 2.1 2.1 0 0 1 1.542-.555 2.071 2.071 0 0 1 1.666.648c.31.347.475.799.463 1.265a1.887 1.887 0 0 1-.555 1.388 2.1 2.1 0 0 1-1.542.555 2.065 2.065 0 0 1-1.419-.463 1.712 1.712 0 0 1-.71-1.45Zm1.387-.031c-.018.26.047.519.185.74.119.152.3.243.494.247a.596.596 0 0 0 .493-.247c.142-.22.207-.48.185-.74a1.14 1.14 0 0 0-.185-.709.644.644 0 0 0-.493-.247.702.702 0 0 0-.524.247c-.155.154-.155.4-.155.709Z" class="cls-1" style="clip-path:url(#clippath-6)"/><path d="M15.949 17.675h1.326v.586c.154-.216.354-.395.586-.524.232-.108.485-.161.74-.154.342-.017.676.105.925.339.244.305.366.69.339 1.08v2.344h-1.419V19.31a.734.734 0 0 0-.123-.494.51.51 0 0 0-.37-.154.46.46 0 0 0-.401.185 1.27 1.27 0 0 0-.154.709v1.758H15.98v-3.64h-.031Z" class="cls-1" style="clip-path:url(#clippath-7)"/><path d="M20.73 16.256h1.418v5.09H20.73v-5.09z" class="cls-1" style="clip-path:url(#clippath-8)"/><path d="M22.734 17.675h1.481l.771 2.437.709-2.437h1.388l-1.45 3.917a2.26 2.26 0 0 1-.494.895 1.644 1.644 0 0 1-1.11.339c-.32-.01-.64-.041-.956-.093l-.123-.987c.221.063.449.094.679.093a.569.569 0 0 0 .401-.123.813.813 0 0 0 .247-.401l-1.543-3.64Z" class="cls-1" style="clip-path:url(#clippath-9)"/></g><circle cx="44.381" cy="13.794" r="13.775" style="fill:url(#Unbenannter_Verlauf_3)"/><path d="M44.518 18.849c-5.135 0-6.718-4.107-6.782-4.259a.488.488 0 0 1 .895-.386c.055.128 1.417 3.118 5.887 3.118s5.832-2.99 5.888-3.118a.491.491 0 0 1 .64-.252.484.484 0 0 1 .254.638c-.064.152-1.647 4.259-6.782 4.259Z" class="cls-1" style="opacity:.55"/><path d="M44.518 18.35c-5.135 0-6.718-4.107-6.782-4.259a.488.488 0 0 1 .895-.386c.055.128 1.417 3.118 5.887 3.118s5.832-2.99 5.888-3.118a.491.491 0 0 1 .64-.252.484.484 0 0 1 .254.638c-.064.152-1.647 4.259-6.782 4.259Z" class="cls-4"/><ellipse cx="37.952" cy="13.588" class="cls-4" rx="1.195" ry=".421" transform="rotate(-36.633 37.951 13.589)"/><ellipse cx="50.969" cy="13.69" class="cls-4" rx=".421" ry="1.195" transform="rotate(-53.367 50.97 13.69)"/><path d="M41.61 9.266c0 .658-.447 1.191-1 1.191s-1-.533-1-1.191V6.137c0-.658.447-1.191 1-1.191s1 .533 1 1.191v3.129ZM48.594 9.266c0 .658-.447 1.191-1 1.191s-1-.533-1-1.191V6.137c0-.658.447-1.191 1-1.191s1 .533 1 1.191v3.129Z"/></g></svg>