<?xml version="1.0" encoding="UTF-8"?><svg id="Ebene_2" xmlns="http://www.w3.org/2000/svg" viewBox="0 0 15 13"><defs><style>.cls-1{fill:#fff;}.cls-2{fill:#c46112;}</style></defs><g id="Ebene_1-2"><rect class="cls-2" width="15" height="13"/><polygon class="cls-1" points="9 10 3 10 3 3 9 3 9 3 9 2 2 2 2 11 9 11 9 10"/><path class="cls-1" d="M11.275,7.216s-.474,.503-1.081,1.109c-.165,.165-.317,.318-.457,.459h1.882l.814-.814c.804-.804,1.461-1.465,1.461-1.47s-.658-.666-1.462-1.47l-.82-.819h-1.88c.139,.14,.29,.291,.454,.455,.602,.602,1.073,1.085,1.073,1.101,0,.027-4.364,0-4.364,0v1.449s4.38,0,4.38,0Z"/></g></svg>