<svg xmlns="http://www.w3.org/2000/svg" id="Ebene_2" viewBox="0 0 68 68"><defs><style>.cls-1{fill:#fff}</style></defs><g id="Ebene_1-2"><circle cx="34" cy="34" r="34" style="fill:#043eb2"/><path d="M15.764 45.688c-1.021 0-1.531-.692-1.531-2.078 0-.198.01-.401.031-.609.083-.854.213-1.823.391-2.906h-.938c-1.448 0-2.917.13-4.406.391-.823.146-1.578.219-2.266.219-.781 0-1.172-.37-1.172-1.109 0-.073.005-.151.016-.234.052-.573.37-1.62.953-3.141 1.281-3.239 2.974-6.901 5.078-10.984.906-1.76 1.786-2.641 2.641-2.641.812 0 1.219.448 1.219 1.344 0 .104-.005.214-.016.328-.042.448-.203.958-.484 1.531a134.345 134.345 0 0 0-4.937 11.203 26.738 26.738 0 0 1 3.547-.234h1.344c.698-3.562 1.698-7.713 3-12.453.552-2.052 1.359-3.078 2.422-3.078.854 0 1.281.609 1.281 1.828 0 .167-.011.349-.031.547a7.633 7.633 0 0 1-.203 1.125c-1.396 5.386-2.37 9.521-2.922 12.406 1.489.292 2.234.849 2.234 1.672v.141c-.083.938-1.021 1.406-2.812 1.406-.136.896-.266 1.781-.391 2.656-.23 1.78-.912 2.67-2.048 2.67ZM31.865 45.548a6.126 6.126 0 0 1-3.406-1.016c-1.406-.906-2.386-2.224-2.938-3.953-.417-1.302-.625-2.692-.625-4.172 0-.479.021-.963.062-1.453.177-2.031.672-3.977 1.484-5.836s1.885-3.385 3.219-4.578c1.333-1.192 2.875-1.789 4.625-1.789 1.812 0 3.198.544 4.156 1.633.958 1.089 1.588 2.451 1.891 4.086.208 1.104.312 2.219.312 3.344 0 .542-.026 1.083-.078 1.625-.271 3.104-1.109 5.859-2.516 8.266a7.95 7.95 0 0 1-2.625 2.734c-1.145.739-2.332 1.109-3.561 1.109Zm.421-3.328c.823 0 1.552-.427 2.188-1.281.552-.729 1.005-1.578 1.359-2.547.604-1.625.995-3.453 1.172-5.484.031-.364.047-.724.047-1.078 0-1.531-.292-2.932-.875-4.203-.511-1.104-1.198-1.656-2.062-1.656-.375 0-.792.115-1.25.344-.99.5-1.833 1.391-2.531 2.672-.969 1.781-1.552 3.802-1.75 6.062a15.76 15.76 0 0 0-.062 1.375c0 2.136.51 3.74 1.531 4.812.624.656 1.369.984 2.233.984ZM53.168 45.688c-1.021 0-1.531-.692-1.531-2.078 0-.198.01-.401.031-.609.083-.854.213-1.823.391-2.906h-.938c-1.448 0-2.917.13-4.406.391-.823.146-1.578.219-2.266.219-.781 0-1.172-.37-1.172-1.109 0-.073.005-.151.016-.234.052-.573.37-1.62.953-3.141 1.281-3.239 2.974-6.901 5.078-10.984.906-1.76 1.786-2.641 2.641-2.641.812 0 1.219.448 1.219 1.344 0 .104-.005.214-.016.328-.042.448-.203.958-.484 1.531a134.351 134.351 0 0 0-4.938 11.203 26.738 26.738 0 0 1 3.547-.234h1.344c.698-3.562 1.698-7.713 3-12.453.552-2.052 1.359-3.078 2.422-3.078.854 0 1.281.609 1.281 1.828 0 .167-.011.349-.031.547a7.633 7.633 0 0 1-.203 1.125c-1.396 5.386-2.37 9.521-2.922 12.406 1.489.292 2.234.849 2.234 1.672v.141c-.083.938-1.021 1.406-2.812 1.406-.136.896-.266 1.781-.391 2.656-.23 1.78-.912 2.67-2.047 2.67Z" class="cls-1"/></g></svg>