<svg xmlns="http://www.w3.org/2000/svg" id="Ebene_2" viewBox="0 0 39 34"><defs><style>.cls-2{fill:#adadad;fill-rule:evenodd}</style></defs><g id="Ebene_1-2"><path id="path5502" d="M19.5 0c-.42-.003-.882.211-1.108.611L.151 32.094c-.105.214-.15.4-.151.613 0 .382.17.744.463.989.258.2.503.304.833.304h36.443a1.14 1.14 0 0 0 .647-.184c.381-.229.614-.639.614-1.083-.011-.229-.067-.47-.17-.64L20.599.606l-.005-.008-.006-.009A1.298 1.298 0 0 0 19.5 0ZM1.296 34Z" class="cls-2"/><path d="m19.481 6.24 13.902 24H5.56l13.921-24z" style="fill:#fff"/><path d="M22.655 22.315c-2.068.121-3.981 2.094-5.932 1.217-.567-.282-1.052-.902-1.257-1.543-.301-1.109 1.251-2.251 2.302-1.706.87.461 1.492 1.13 2.558 1.257 2.017.441 3.989-1.215 3.709-3.343-.206-1.255-1.05-2.005-1.948-2.696.017-.502-.208-1.111-.657-1.639-.7-.825-1.678-1.145-2.25-.765l-.827-1.554.107 1.044-1.089-.105 1.557.861c-.344.533-.157 1.464.49 2.226.498.587 1.137.915 1.672.923 1.083.899 1.638 1.858 1.036 2.669-.346.638-.893.728-1.556.678-.86-.067-1.434-.8-2.273-1.053-2.149-.83-4.793 1.203-4.121 3.594.536 2.081 2.968 3.295 4.943 2.592 1.491-.342 3.268-1.648 4.611-1.097 1.899 1.646.181 4.594-2.194 4.358-2.001-.184-4.196-2.687-6.333-1.318-.401.259-.697.619-.978.972l.151.119c1.274-1.639 3.016-.937 4.436.094 1.177.849 2.673 1.599 4.175 1.117 1.555-.501 2.821-1.775 2.925-3.543.035-1.836-1.289-3.699-3.257-3.359Z" class="cls-2"/><path d="M4.398 34 3 32.57 35.602 0 37 1.43 4.398 34z" style="fill:#c1121c"/></g></svg>