<?xml version="1.0" encoding="UTF-8"?><svg id="Ebene_2" xmlns="http://www.w3.org/2000/svg" viewBox="0 0 34 34"><defs><style>.cls-1{fill:#fff;}.cls-2{fill:#adadad;}</style></defs><g id="Ebene_1-2"><circle class="cls-2" cx="17" cy="17" r="17"/><path class="cls-1" d="M18.438,14.557l.412,1.383c.748-.378,1.49-.756,2.232-1.126v7.29h1.767V12.837l-.856-.054-3.555,1.774Zm-14.033,0l.412,1.383c.748-.378,1.49-.756,2.232-1.126v7.29h1.767V12.837l-.856-.054-3.555,1.774Zm10.447,2.724v-2.596h-1.538v2.596h-2.502v1.497h2.502v2.589h1.538v-2.589h2.509v-1.497h-2.489s-.02,0-.02,0Zm12.392,1.482h-1.995v1.497h4.939v-1.497h-2.944Zm.943-3.17h-2.939v1.49h4.939v-1.49h-2Z"/></g></svg>