<svg xmlns="http://www.w3.org/2000/svg" viewBox="0 0 34 34"><circle cx="17" cy="17" r="17" style="fill:#adadad"/><path d="M17 7.617c-6.072 0-10.994 3.725-10.994 8.319 0 3.379 2.667 6.281 6.491 7.584.257.942.074 2.582-2.982 4.409 0 0 5.215-.396 7.486-3.674 6.072 0 10.994-3.725 10.994-8.319 0-4.595-4.923-8.319-10.995-8.319Zm-.06 14.575c-.867 0-1.479-.611-1.479-1.444s.611-1.445 1.479-1.445 1.479.612 1.479 1.445-.611 1.444-1.479 1.444Zm2.584-6.136c-.918.527-1.411 1.055-1.411 2.312h-2.346c0-1.802.578-2.669 1.7-3.434.68-.459 1.343-.918 1.343-1.734 0-.9-.748-1.598-1.734-1.598-1.139 0-1.955.935-2.107 2.21l-2.566-.477c.237-2.294 2.142-3.96 4.776-3.96 2.516 0 4.419 1.513 4.419 3.62 0 1.497-.884 2.364-2.074 3.061Z" style="fill:#fff"/></svg>