<?xml version="1.0" encoding="UTF-8"?><svg id="Ebene_2" xmlns="http://www.w3.org/2000/svg" viewBox="0 0 34 34"><defs><style>.cls-1{fill:#fff;}.cls-2{fill:#adadad;}</style></defs><g id="Ebene_1-2"><circle class="cls-2" cx="17" cy="17" r="17"/><path class="cls-1" d="M4.968,20.208c.595-.576,1.133-1.107,1.614-1.593s.892-.937,1.229-1.351c.338-.414,.597-.801,.776-1.161,.181-.36,.271-.703,.271-1.026,0-.459-.121-.822-.364-1.087s-.595-.398-1.054-.398c-.333,0-.637,.095-.911,.284-.275,.189-.529,.414-.764,.675l-.865-.865c.396-.423,.804-.75,1.223-.979,.418-.229,.925-.344,1.519-.344,.415,0,.788,.063,1.121,.189s.617,.304,.851,.533c.234,.23,.417,.506,.547,.831,.131,.324,.196,.684,.196,1.081,0,.378-.083,.763-.25,1.154-.166,.392-.392,.788-.675,1.188-.284,.401-.615,.812-.993,1.236-.378,.423-.778,.859-1.201,1.31,.225-.018,.468-.038,.729-.061,.262-.022,.495-.034,.702-.034h2.107v1.323H4.968v-.905Z"/><path class="cls-1" d="M15.289,18.898h-3.795v-1.053l3.403-5.32h1.85v5.172h1.08v1.202h-1.08v2.215h-1.458v-2.216Zm0-1.201v-1.945c0-.252,.007-.549,.02-.891,.014-.342,.029-.639,.048-.891h-.055c-.107,.225-.22,.446-.337,.662s-.239,.441-.365,.675l-1.566,2.39h2.255Z"/><path class="cls-1" d="M25.599,19.013c.099-.634,.24-1.24,.425-1.816s.421-1.137,.709-1.682c.288-.544,.64-1.105,1.054-1.681h-4.065v-1.31h5.767v.945c-.504,.621-.911,1.213-1.222,1.775-.311,.563-.557,1.139-.736,1.729-.18,.59-.309,1.218-.385,1.884-.076,.667-.133,1.418-.169,2.255h-1.58c.035-.764,.102-1.464,.202-2.099Z"/><path class="cls-1" d="M21.496,10.849h1.053l-3.267,12.327h-1.054l3.268-12.327Z"/></g></svg>