<svg xmlns="http://www.w3.org/2000/svg" viewBox="0 0 34 34"><circle cx="17" cy="17" r="17" style="fill:#adadad"/><path d="m16.795 19.484-1.52 4.208 1.427 3.487a1.5 1.5 0 1 0 2.776-1.136l-2.683-6.559Zm4.803-3.319L15.973 9.04a1.122 1.122 0 0 0-.883-.427s-1.5-.001-1.5-.001a1.125 1.125 0 0 0-.888.434l-2.862 3.68v4.486c0 .631.516 1.162 1.147 1.15a1.125 1.125 0 0 0 1.103-1.125v-3.739l.75-.964v6.595l-2.535 6.97a1.5 1.5 0 0 0 2.819 1.025l3.09-8.498v-5.025l-1.472-1.866a.187.187 0 0 1 .293-.233l4.795 6.057a1.12 1.12 0 0 0 1.58.186c.49-.385.572-1.094.188-1.58Zm6.176 9.307-5.896-7.661a1.49 1.49 0 0 1-.607.445l5.863 7.606a.375.375 0 0 0 .515.126.377.377 0 0 0 .125-.516ZM14.386 8.009a2.062 2.062 0 1 0 0-4.124 2.062 2.062 0 0 0 0 4.124Z" style="fill:#fff"/><path d="M1.398 34 0 32.57 32.602 0 34 1.43 1.398 34z" style="fill:#c1121c"/></svg>