<?xml version="1.0" encoding="UTF-8"?><svg id="Ebene_2" xmlns="http://www.w3.org/2000/svg" viewBox="0 0 34 34"><defs><style>.cls-1{fill:#fff;}.cls-2{fill:#c1121c;}.cls-3{fill:#adadad;}</style></defs><g id="Ebene_1-2"><circle class="cls-3" cx="17" cy="17" r="17"/><path class="cls-1" d="M16.795,19.484l-1.52,4.208,1.427,3.487c.314,.767,1.19,1.134,1.956,.82,.767-.314,1.134-1.189,.82-1.956l-2.683-6.559Zm4.803-3.319l-5.625-7.125c-.222-.281-.551-.427-.883-.427h0s-1.5-.001-1.5-.001h0c-.335,.001-.666,.149-.888,.434l-2.862,3.68v4.486c0,.631,.516,1.162,1.147,1.15,.611-.012,1.103-.511,1.103-1.125v-3.739l.75-.964v6.595l-2.535,6.97c-.283,.779,.119,1.639,.897,1.922,.778,.283,1.639-.118,1.922-.897l3.09-8.498v-5.025l-1.472-1.866c-.064-.081-.051-.199,.03-.263,.081-.064,.199-.051,.263,.03l4.795,6.057c.429,.543,1.142,.531,1.58,.186,.49-.385,.572-1.094,.188-1.58Zm6.176,9.307l-5.896-7.661c-.161,.198-.37,.351-.607,.445l5.863,7.606c.107,.177,.338,.233,.515,.126h0c.176-.108,.232-.339,.125-.516ZM14.386,8.009c1.139,0,2.062-.923,2.062-2.062s-.923-2.062-2.062-2.062-2.062,.923-2.062,2.062,.923,2.062,2.062,2.062Z"/><polygon class="cls-2" points="1.398 34 0 32.57 32.602 0 34 1.43 1.398 34"/></g></svg>