<?xml version="1.0" encoding="UTF-8"?><svg id="Ebene_2" xmlns="http://www.w3.org/2000/svg" viewBox="0 0 34 34"><defs><style>.cls-1{fill:#fff;}.cls-2{fill:#adadad;}</style></defs><g id="Ebene_1-2"><circle class="cls-2" cx="17" cy="17" r="17"/><path class="cls-1" d="M20.264,22.522c.296,0,.539-.078,.731-.234,.191-.155,.288-.394,.288-.713,0-.168-.038-.312-.114-.432-.076-.12-.186-.23-.33-.33s-.313-.194-.51-.282c-.195-.088-.413-.184-.653-.288-.168,.16-.308,.345-.42,.552-.111,.208-.168,.428-.168,.66,0,.336,.116,.598,.348,.785,.232,.189,.508,.282,.828,.282Zm.444-3.358c.312-.359,.468-.731,.468-1.115,0-.296-.082-.533-.246-.714-.163-.18-.39-.27-.677-.27-.232,0-.433,.072-.601,.216-.167,.144-.251,.364-.251,.659,0,.312,.119,.557,.359,.732s.556,.341,.948,.492Zm3.363-10.593h-1.929v-1.285c0-.71-.575-1.286-1.286-1.286s-1.286,.576-1.286,1.286v1.286h-5.143v-1.286c0-.71-.575-1.286-1.286-1.286s-1.286,.576-1.286,1.286v1.286h-1.929c-1.063-.001-1.926,.863-1.926,1.928v1.929H26v-1.929c0-1.065-.864-1.929-1.929-1.929ZM8,24.643c0,1.065,.863,1.929,1.929,1.929h14.143c1.065,0,1.929-.864,1.929-1.929V13.714H8v10.929Zm10.141-5.664c-.191-.284-.288-.63-.288-1.038,0-.319,.061-.609,.181-.869,.119-.26,.287-.481,.503-.666,.216-.184,.474-.323,.773-.419,.3-.097,.626-.145,.978-.145,.344,0,.66,.05,.948,.15,.287,.1,.531,.239,.731,.42,.199,.18,.355,.399,.468,.659,.111,.26,.168,.546,.168,.857,0,.368-.101,.693-.3,.978-.2,.284-.432,.514-.696,.689v.048c.368,.2,.68,.456,.936,.768s.384,.72,.384,1.224c0,.304-.063,.584-.191,.84s-.311,.478-.546,.665c-.236,.188-.52,.336-.852,.444-.332,.107-.701,.162-1.109,.162-.384,0-.737-.051-1.062-.15s-.604-.242-.84-.426c-.235-.184-.419-.403-.552-.659-.132-.256-.197-.54-.197-.852,0-.464,.126-.844,.378-1.14s.558-.54,.917-.731v-.048c-.296-.224-.54-.478-.732-.761Zm-6.013-2.832c.393-.203,.86-.306,1.403-.306,.376,0,.718,.059,1.025,.174,.309,.116,.574,.28,.798,.492s.396,.466,.516,.762,.18,.627,.18,.995c0,.32-.067,.646-.203,.978-.137,.332-.318,.664-.546,.995-.229,.332-.488,.664-.779,.996-.292,.331-.594,.657-.906,.978,.192-.024,.406-.046,.642-.066s.446-.03,.63-.03h1.535v1.487h-5.361v-1.007c.488-.456,.934-.882,1.338-1.277,.403-.396,.751-.768,1.043-1.115,.292-.349,.52-.672,.684-.972s.246-.586,.246-.857c0-.376-.096-.662-.288-.857-.191-.196-.455-.294-.791-.294-.28,0-.528,.077-.744,.233s-.42,.338-.611,.546l-.96-.947c.374-.402,.758-.703,1.149-.908Z"/></g></svg>