<svg xmlns="http://www.w3.org/2000/svg" viewBox="0 0 34 34"><circle cx="17" cy="17" r="17" style="fill:#adadad"/><path d="M20.264 22.522c.296 0 .539-.078.731-.234.191-.155.288-.394.288-.713a.79.79 0 0 0-.114-.432c-.076-.12-.186-.23-.33-.33s-.313-.194-.51-.282a48.118 48.118 0 0 0-.653-.288 2.21 2.21 0 0 0-.42.552 1.384 1.384 0 0 0-.168.66c0 .336.116.598.348.785.232.189.508.282.828.282Zm.444-3.358c.312-.359.468-.731.468-1.115 0-.296-.082-.533-.246-.714-.163-.18-.39-.27-.677-.27a.894.894 0 0 0-.601.216c-.167.144-.251.364-.251.659 0 .312.119.557.359.732s.556.341.948.492Zm3.363-10.593h-1.929V7.286a1.286 1.286 0 1 0-2.572 0v1.286h-5.143V7.286a1.286 1.286 0 1 0-2.572 0v1.286H9.926A1.927 1.927 0 0 0 8 10.5v1.929h18V10.5a1.93 1.93 0 0 0-1.929-1.929ZM8 24.643c0 1.065.863 1.929 1.929 1.929h14.143a1.93 1.93 0 0 0 1.929-1.929V13.714H8v10.929Zm10.141-5.664c-.191-.284-.288-.63-.288-1.038 0-.319.061-.609.181-.869.119-.26.287-.481.503-.666.216-.184.474-.323.773-.419.3-.097.626-.145.978-.145.344 0 .66.05.948.15.287.1.531.239.731.42.199.18.355.399.468.659.111.26.168.546.168.857 0 .368-.101.693-.3.978-.2.284-.432.514-.696.689v.048c.368.2.68.456.936.768s.384.72.384 1.224c0 .304-.063.584-.191.84s-.311.478-.546.665c-.236.188-.52.336-.852.444a3.6 3.6 0 0 1-1.109.162c-.384 0-.737-.051-1.062-.15s-.604-.242-.84-.426a2.003 2.003 0 0 1-.552-.659 1.83 1.83 0 0 1-.197-.852c0-.464.126-.844.378-1.14s.558-.54.917-.731v-.048a3.228 3.228 0 0 1-.732-.761Zm-6.013-2.832c.393-.203.86-.306 1.403-.306.376 0 .718.059 1.025.174.309.116.574.28.798.492s.396.466.516.762a2.625 2.625 0 0 1-.023 1.973 5.36 5.36 0 0 1-.546.995c-.229.332-.488.664-.779.996a27.6 27.6 0 0 1-.906.978c.192-.024.406-.046.642-.066s.446-.03.63-.03h1.535v1.487h-5.361v-1.007c.488-.456.934-.882 1.338-1.277.403-.396.751-.768 1.043-1.115.292-.349.52-.672.684-.972s.246-.586.246-.857c0-.376-.096-.662-.288-.857-.191-.196-.455-.294-.791-.294-.28 0-.528.077-.744.233s-.42.338-.611.546l-.96-.947a4.348 4.348 0 0 1 1.149-.908Z" style="fill:#fff"/><path d="M1.398 34 0 32.57 32.602 0 34 1.43 1.398 34z" style="fill:#c1121c"/></svg>