<?xml version="1.0" encoding="UTF-8"?><svg id="Ebene_2" xmlns="http://www.w3.org/2000/svg" viewBox="0 0 34 34"><defs><style>.cls-1{fill:#fff;}.cls-2{fill:#039;}</style></defs><g id="Ebene_1-2"><circle class="cls-2" cx="17" cy="17" r="17"/><path class="cls-1" d="M12.013,26.739c0,1.09,.893,1.982,1.984,1.982h6.007c1.091,0,1.984-.892,1.984-1.982v-3.846H12.013s0,3.846,0,3.846Zm9.069-7.45H12.919c-1.091,0-1.984,.892-1.984,1.982v.661h12.131v-.661c0-1.09-.893-1.982-1.984-1.982Zm-11.586-6.229c-.837,0-1.515,.678-1.515,1.515s.678,1.515,1.515,1.515,1.515-.678,1.515-1.515-.679-1.515-1.515-1.515Zm19.414-.94c-.084-2.065-1.786-1.993-2.887-2.334-1.511-.469-1.816-1.733-3.982-2.422-2.064-.657-4.42-.841-6.065-.493-2.079,.44-4.009,1.687-4.966,2.493-.927,.781-1.259,.811-2.67,1.174-1.495,.385-2.729,.623-3.131,1.658-.326,.838-.217,2.001-.035,2.932h1.802c-.039-.179-.063-.363-.063-.553,0-1.426,1.156-2.583,2.583-2.583s2.583,1.156,2.583,2.583c0,.19-.024,.375-.063,.553h10.252c-.039-.179-.063-.363-.063-.553,0-1.426,1.156-2.583,2.583-2.583s2.583,1.156,2.583,2.583c0,.19-.024,.375-.063,.553h1.248c.633-.682,.426-1.242,.354-3.008Zm-11.259-3.898c-.009,.098-.229,1.734-.229,1.734-.022,.132,.012,.201-.308,.21-.227,.007-2.878,.175-3.956,.175h-.803c-.604,0-.065-.392,.08-.513,1.73-1.45,3.785-1.599,4.584-1.757,.731-.146,.64,.071,.632,.151Zm6.037,1.833c-.041,.002-4.687,.068-5.051,.07-.275,.001-.284-.065-.277-.174s.201-1.694,.225-1.851c.019-.125,.15-.109,.27-.105,3.287,.088,4.719,1.594,4.883,1.815,.165,.219-.009,.242-.05,.245Zm1.099,3.005c-.837,0-1.515,.678-1.515,1.515s.678,1.515,1.515,1.515,1.515-.678,1.515-1.515-.678-1.515-1.515-1.515Z"/></g></svg>