<svg xmlns="http://www.w3.org/2000/svg" viewBox="0 0 34 34"><circle cx="17" cy="17" r="17" style="fill:#039"/><path d="M18.177 13.398c.193 0 1.022-.132 1.234-.739.067-.192.092-.338.111-.455.06-.361.144-.452.654-.452h3.011C22.921 10.194 21.591 9 19.956 9a3.309 3.309 0 0 0-3.309 3.309c0 .384.081.747.202 1.09h1.328Zm1.824-.44c-.331.945-1.456 1.158-1.824 1.158h-.609a2.562 2.562 0 0 0 2.179 1.221 2.57 2.57 0 0 0 2.57-2.57c0-.102-.018-.199-.03-.298h-2.16c-.023.13-.056.289-.126.489Zm-2.45 2.262c-.025-.037-.062-.057-.091-.091a1.493 1.493 0 0 0-1.657-.712l-7.977 1.982c-.005 0-.009.004-.013.005-.061.016-.12.041-.18.064-.034.014-.07.023-.103.039-.039.019-.075.045-.112.068-.049.029-.099.057-.143.091l-.013.008c-.029.023-.051.051-.078.075-.043.039-.086.076-.124.119-.032.037-.058.077-.086.115-.029.04-.059.078-.083.121-.024.042-.042.086-.062.13-.021.045-.042.088-.058.135-.015.043-.023.087-.034.131-.012.05-.026.1-.033.152-.006.046-.006.091-.008.137-.002.05-.007.1-.004.151.003.056.015.112.024.168.006.036.007.072.015.108l.005.01a1.496 1.496 0 0 0 .227.485c.016.023.027.047.044.07l3.995 5.093H6.35a1.25 1.25 0 0 0 0 2.5H13.707c.009 0 .016-.005.025-.005.312-.008.624-.107.888-.313a1.501 1.501 0 0 0 .255-2.106l-3.105-3.959 4.927-1.896 4.811 7.263a1.151 1.151 0 1 0 1.918-1.269l-5.875-8.869Zm11.596-7.009-5.323 3.136 5.323 3.136a6.11 6.11 0 0 0 0-6.272ZM8.555 15.17c.108 0 .219-.016.328-.048l4.851-1.443a1.15 1.15 0 1 0-.657-2.205l-4.851 1.443a1.152 1.152 0 0 0 .329 2.253Z" style="fill:#fff"/></svg>