<?xml version="1.0" encoding="UTF-8"?><svg id="Ebene_2" xmlns="http://www.w3.org/2000/svg" viewBox="0 0 34 34"><defs><style>.cls-1{fill:#fff;}.cls-2{fill:#039;}</style></defs><g id="Ebene_1-2"><circle class="cls-2" cx="17" cy="17" r="17"/><path class="cls-1" d="M18.177,13.398c.193,0,1.022-.132,1.234-.739,.067-.192,.092-.338,.111-.455,.06-.361,.144-.452,.654-.452h3.011c-.266-1.558-1.596-2.752-3.231-2.752-1.827,0-3.309,1.481-3.309,3.309,0,.384,.081,.747,.202,1.09h1.328Zm1.824-.44c-.331,.945-1.456,1.158-1.824,1.158h-.609c.453,.73,1.256,1.221,2.179,1.221,1.419,0,2.57-1.151,2.57-2.57,0-.102-.018-.199-.03-.298h-2.16c-.023,.13-.056,.289-.126,.489Zm-2.45,2.262c-.025-.037-.062-.057-.091-.091-.325-.566-.989-.878-1.657-.712l-7.977,1.982c-.005,0-.009,.004-.013,.005-.061,.016-.12,.041-.18,.064-.034,.014-.07,.023-.103,.039-.039,.019-.075,.045-.112,.068-.049,.029-.099,.057-.143,.091-.004,.003-.009,.005-.013,.008-.029,.023-.051,.051-.078,.075-.043,.039-.086,.076-.124,.119-.032,.037-.058,.077-.086,.115-.029,.04-.059,.078-.083,.121-.024,.042-.042,.086-.062,.13-.021,.045-.042,.088-.058,.135-.015,.043-.023,.087-.034,.131-.012,.05-.026,.1-.033,.152-.006,.046-.006,.091-.008,.137-.002,.05-.007,.1-.004,.151,.003,.056,.015,.112,.024,.168,.006,.036,.007,.072,.015,.108,.001,.004,.004,.007,.005,.01,.036,.143,.1,.28,.18,.411,.015,.025,.03,.05,.047,.074,.016,.023,.027,.047,.044,.07l3.995,5.093H6.35c-.69,0-1.25,.56-1.25,1.25s.56,1.25,1.25,1.25h7.336s.006,0,.009,0c.002,0,.004,0,.006,0h.006c.009,0,.016-.005,.025-.005,.312-.008,.624-.107,.888-.313,.651-.512,.766-1.454,.255-2.106l-3.105-3.959,4.927-1.896,4.811,7.263c.222,.334,.587,.516,.96,.516,.218,0,.438-.062,.634-.191,.53-.351,.675-1.064,.324-1.594l-5.875-8.869Zm11.596-7.009l-5.323,3.136,5.323,3.136c.547-.919,.867-1.989,.867-3.136s-.32-2.217-.867-3.136ZM8.555,15.17c.108,0,.219-.016,.328-.048l4.851-1.443c.608-.182,.955-.822,.774-1.431s-.821-.955-1.431-.774l-4.851,1.443c-.608,.182-.955,.822-.774,1.431,.148,.499,.606,.822,1.103,.822Z"/></g></svg>