<?xml version="1.0" encoding="UTF-8"?><svg id="Ebene_2" xmlns="http://www.w3.org/2000/svg" viewBox="0 0 39 34"><defs><style>.cls-1{fill:#fff;}.cls-2{fill:#adadad;fill-rule:evenodd;}.cls-3{fill:#c1121c;}</style></defs><g id="Ebene_1-2"><path id="path5502" class="cls-2" d="M19.5,0c-.42-.003-.882,.211-1.108,.611L.151,32.094c-.105,.214-.15,.4-.151,.613,0,.382,.17,.744,.463,.989,.258,.2,.503,.304,.833,.304H37.739c.222,.002,.445-.051,.647-.184,.381-.229,.614-.639,.614-1.083-.011-.229-.067-.47-.17-.64L20.599,.606s-.003-.006-.005-.008c-.002-.003-.004-.006-.006-.009-.065-.103-.146-.194-.238-.272-.212-.183-.477-.292-.756-.312-.031-.003-.063-.005-.094-.005ZM1.296,34h0Z"/><polygon class="cls-1" points="19.481 6.24 33.383 30.24 5.56 30.24 19.481 6.24"/><path id="path4617" class="cls-2" d="M8.762,29.136l.585-1.012h4.65l-.506-.506h-.607l-.607-1.113,1.418-1.518,.81,.102,.607-.304,1.417,.506,.911,.81-.101,1.216-1.619,.809h3.846l.708-3.847,.507-.403-.405-4.05,.607-.404-.405-.608,.405-2.834,2.024-.993,8.171,14.151-22.416-.002Zm6.45-5.365l1.114-.709,.304-1.013-.708-.709-.405,.305-.405-.305-1.012,.81,.101,.608,.101,.709,.91,.304Zm3.746-4.352l-.911-.203-1.215,1.012-.102,1.317,.81,.708,.405-.607h.405l.861-1.012-.253-.304v-.911h0Zm1.721-3.543l-2.126,.202-.607-1.215,.708-.506,.101-.708,1.62-.304,.809,.506,.202-.101,.607,.506-1.314,1.62h0Z"/><polygon class="cls-3" points="4.398 34 3 32.57 35.602 0 37 1.43 4.398 34"/></g></svg>