<svg xmlns="http://www.w3.org/2000/svg" viewBox="0 0 39 34"><path d="M19.5 0c-.42-.003-.882.211-1.108.611L.151 32.094c-.105.214-.15.4-.151.613 0 .382.17.744.463.989.258.2.503.304.833.304h36.443a1.14 1.14 0 0 0 .647-.184c.381-.229.614-.639.614-1.083-.011-.229-.067-.47-.17-.64L20.599.606l-.005-.008-.006-.009A1.298 1.298 0 0 0 19.5 0ZM1.296 34Z" style="fill:#c0171d"/><path d="m19.481 6.24 13.902 24H5.56l13.921-24z" style="fill:#fff"/><path d="m8.762 29.136.585-1.012h4.65l-.506-.506h-.607l-.607-1.113 1.418-1.518.81.102.607-.304 1.417.506.911.81-.101 1.216-1.619.809h3.846l.708-3.847.507-.403-.405-4.05.607-.404-.405-.608.405-2.834 2.024-.993 8.171 14.151-22.416-.002Zm6.45-5.365 1.114-.709.304-1.013-.708-.709-.405.305-.405-.305-1.012.81.101.608.101.709.91.304Zm3.746-4.352-.911-.203-1.215 1.012-.102 1.317.81.708.405-.607h.405l.861-1.012-.253-.304v-.911Zm1.721-3.543-2.126.202-.607-1.215.708-.506.101-.708 1.62-.304.809.506.202-.101.607.506-1.314 1.62Z"/></svg>