<svg xmlns="http://www.w3.org/2000/svg" viewBox="0 0 34 34"><circle cx="17" cy="17" r="17" style="fill:#039"/><path d="m23.979 8.57.452 2.669-3.808 3.317-1.08 9.281-2.99.57v-5.933h-.084l-2.341-1.019v-3.144l3.101 2.219a.722.722 0 0 0 1.003-.166.722.722 0 0 0-.166-1.003l-3.937-2.818v-.723l5.465 1.462c.382.102.778-.127.88-.509s-.127-.778-.509-.88l-5.836-1.561-2.355-.001c-.676 0-1.251.435-1.472 1.037a.98.98 0 0 0-.934-.72.992.992 0 0 0-.989.989v5.028H10.2v8.954l-2.037.388-.744 1.362h19V5.847l-2.44 2.723Zm-9.288 16.193-2.631.501v-6.677l2.631 1.145v5.031ZM12.71 9.499a1.67 1.67 0 1 0 0-3.342 1.67 1.67 0 0 0 0 3.342Z" style="fill:#fff"/></svg>