<?xml version="1.0" encoding="UTF-8"?><svg id="Ebene_2" xmlns="http://www.w3.org/2000/svg" viewBox="0 0 34 34"><defs><style>.cls-1{fill:#fff;}.cls-2{fill:#adadad;}</style></defs><g id="Ebene_1-2"><circle class="cls-2" cx="17" cy="17" r="17"/><path class="cls-1" d="M23.979,8.57l.452,2.669-3.808,3.317-1.08,9.281-2.99,.57v-5.933h-.084l-2.341-1.019v-3.144l3.101,2.219c.321,.23,.773,.155,1.003-.166,.23-.321,.155-.773-.166-1.003l-3.937-2.818v-.723l5.465,1.462c.382,.102,.778-.127,.88-.509s-.127-.778-.509-.88l-5.836-1.561h0s-2.355-.001-2.355-.001c-.676,0-1.251,.435-1.472,1.037-.12-.411-.486-.72-.934-.72-.544,0-.989,.445-.989,.989v5.028h1.821v8.954l-2.037,.388-.744,1.362H26.419V5.847l-2.44,2.723ZM14.691,24.763l-2.631,.501v-6.677l2.631,1.145v5.031Zm-1.981-15.264c.923,0,1.671-.748,1.671-1.671s-.748-1.671-1.671-1.671-1.671,.748-1.671,1.671c0,.923,.748,1.671,1.671,1.671Z"/></g></svg>