<svg xmlns="http://www.w3.org/2000/svg" id="Ebene_2" viewBox="0 0 39 34"><defs><style>.cls-2{fill:#adadad;fill-rule:evenodd}</style></defs><g id="Ebene_1-2"><path id="path5502" d="M19.5 0c-.42-.003-.882.211-1.108.611L.151 32.094c-.105.214-.15.4-.151.613 0 .382.17.744.463.989.258.2.503.304.833.304h36.443a1.14 1.14 0 0 0 .647-.184c.381-.229.614-.639.614-1.083-.011-.229-.067-.47-.17-.64L20.599.606l-.005-.008-.006-.009A1.298 1.298 0 0 0 19.5 0ZM1.296 34Z" class="cls-2"/><path d="m19.481 6.24 13.902 24H5.56l13.921-24z" style="fill:#fff"/><path d="M19.5 24.365a.935.935 0 0 0 .943-.941l.944-11.045c0-1.038-.845-1.88-1.887-1.88s-1.888.842-1.888 1.88l.944 11.045c0 .52.376.942.944.941Zm0 .94c-1.042 0-1.888.842-1.888 1.88s.845 1.88 1.888 1.88 1.887-.841 1.887-1.88-.844-1.88-1.887-1.88Z" class="cls-2"/></g></svg>