<?xml version="1.0" encoding="UTF-8"?><svg id="Ebene_2" xmlns="http://www.w3.org/2000/svg" viewBox="0 0 39 34"><defs><style>.cls-1{fill:#fff;}.cls-2{fill:#adadad;fill-rule:evenodd;}.cls-3{fill:#c1121c;}</style></defs><g id="Ebene_1-2"><path id="path5502" class="cls-2" d="M19.5,0c-.42-.003-.882,.211-1.108,.611L.151,32.094c-.105,.214-.15,.4-.151,.613,0,.382,.17,.744,.463,.989,.258,.2,.503,.304,.833,.304H37.739c.222,.002,.445-.051,.647-.184,.381-.229,.614-.639,.614-1.083-.011-.229-.067-.47-.17-.64L20.599,.606s-.003-.006-.005-.008c-.002-.003-.004-.006-.006-.009-.065-.103-.146-.194-.238-.272-.212-.183-.477-.292-.756-.312-.031-.003-.063-.005-.094-.005ZM1.296,34h0Z"/><polygon class="cls-1" points="19.481 6.24 33.383 30.24 5.56 30.24 19.481 6.24"/><path class="cls-2" d="M19.5,24.365c.568,0,.943-.459,.943-.941l.944-11.045c0-1.038-.845-1.88-1.887-1.88s-1.888,.842-1.888,1.88l.944,11.045c0,.52,.376,.942,.944,.941Zm0,.94c-1.042,0-1.888,.842-1.888,1.88s.845,1.88,1.888,1.88,1.887-.841,1.887-1.88-.844-1.88-1.887-1.88Z"/><polygon class="cls-3" points="4.398 34 3 32.57 35.602 0 37 1.43 4.398 34"/></g></svg>