<svg xmlns="http://www.w3.org/2000/svg" id="Ebene_2" viewBox="0 0 34 34"><defs><style>.cls-1{fill:#fff}</style></defs><g id="Ebene_1-2"><circle cx="17" cy="17" r="17" style="fill:#adadad"/><path d="M6.664 21.726a4.435 4.435 0 0 1-1.333-.992l.853-1.147c.3.3.641.556 1.023.768s.821.317 1.317.317c.538 0 .975-.131 1.311-.395s.504-.628.504-1.093c0-.258-.047-.491-.14-.697a1.247 1.247 0 0 0-.473-.527c-.223-.145-.52-.256-.892-.333-.372-.078-.837-.116-1.396-.116v-1.303c.485 0 .892-.039 1.217-.116.326-.077.589-.186.791-.325.201-.14.346-.308.434-.504s.132-.408.132-.636c0-.414-.129-.736-.388-.969-.258-.233-.614-.349-1.069-.349a2.19 2.19 0 0 0-1.062.256c-.315.17-.623.396-.923.674l-.915-1.101a5.84 5.84 0 0 1 1.356-.899 3.713 3.713 0 0 1 1.604-.341c.476 0 .91.057 1.303.17.393.114.729.282 1.008.504s.496.496.651.822c.154.326.232.695.232 1.108 0 .558-.152 1.023-.458 1.396-.305.372-.726.661-1.263.868v.062a3.008 3.008 0 0 1 1.465.853c.388.413.581.946.581 1.597 0 .455-.09.858-.271 1.209s-.429.648-.744.891a3.43 3.43 0 0 1-1.101.558 4.524 4.524 0 0 1-1.341.194c-.804-.001-1.475-.135-2.013-.404ZM15.753 21.842a3.082 3.082 0 0 1-1.14-.876c-.325-.393-.584-.894-.775-1.504s-.287-1.328-.287-2.155c0-.961.109-1.783.326-2.465.217-.682.504-1.24.86-1.674.356-.435.768-.755 1.232-.961s.951-.31 1.457-.31c.6 0 1.114.108 1.543.326.429.217.793.48 1.093.791l-.961 1.085c-.176-.217-.406-.395-.69-.535s-.576-.209-.876-.209c-.31 0-.602.062-.876.187a1.838 1.838 0 0 0-.721.612c-.206.284-.374.659-.504 1.124-.129.465-.204 1.039-.225 1.721.289-.362.628-.646 1.016-.853s.762-.311 1.124-.311c.424 0 .813.062 1.17.187.357.124.662.312.915.565s.449.571.589.954.21.832.21 1.349c0 .496-.083.943-.248 1.341-.166.398-.388.736-.667 1.015s-.607.496-.984.651a3.126 3.126 0 0 1-1.201.232c-.487 0-.946-.096-1.38-.287Zm2.394-1.558c.284-.32.427-.786.427-1.396 0-.589-.135-1.028-.403-1.318-.269-.289-.651-.434-1.147-.434-.278 0-.573.085-.883.255-.311.171-.605.463-.884.876.093.878.302 1.514.628 1.907.325.393.73.589 1.217.589.413.002.761-.159 1.045-.479ZM22.79 21.718a5.209 5.209 0 0 1-1.356-.954l.821-1.147c.3.279.636.524 1.008.736s.807.317 1.303.317c.558 0 1.016-.165 1.372-.496.356-.331.534-.795.534-1.395 0-.589-.165-1.044-.496-1.364-.33-.32-.77-.48-1.317-.48-.32 0-.589.044-.806.132-.218.088-.476.23-.775.426l-.853-.543.294-4.868h5.271v1.504h-3.721l-.202 2.387a3.55 3.55 0 0 1 .612-.24c.202-.057.432-.085.69-.085.424 0 .824.062 1.201.186s.706.313.984.566c.279.253.502.574.667.961.165.388.248.845.248 1.372 0 .537-.096 1.018-.287 1.441a3.17 3.17 0 0 1-.768 1.07c-.32.29-.689.509-1.108.659-.418.15-.854.225-1.31.225-.794 0-1.463-.136-2.006-.41Z" class="cls-1"/><path d="M1.398 34 0 32.57 32.602 0 34 1.43 1.398 34z" style="fill:#c1121c"/></g></svg>