<svg xmlns="http://www.w3.org/2000/svg" viewBox="0 0 34 34"><circle cx="17" cy="17" r="17" style="fill:#adadad"/><path d="M17 10.679a6.321 6.321 0 1 0 0 12.642 6.321 6.321 0 0 0 0-12.642Zm0-1.89a.632.632 0 0 0 .632-.632V5.632a.632.632 0 0 0-1.264 0v2.526c0 .349.283.631.632.631Zm0 16.422a.632.632 0 0 0-.632.632v2.526a.632.632 0 0 0 1.264-.001v-2.526a.631.631 0 0 0-.632-.631Zm11.368-8.843h-2.526a.632.632 0 0 0 0 1.264h2.526a.632.632 0 0 0 0-1.264ZM8.789 17a.632.632 0 0 0-.632-.632H5.632a.632.632 0 0 0 0 1.264h2.526A.631.631 0 0 0 8.789 17Zm14.464-5.621a.632.632 0 0 0 .447-.185l1.785-1.785a.63.63 0 1 0-.893-.893l-1.785 1.785a.63.63 0 0 0 .446 1.078ZM10.301 22.806l-1.785 1.785a.63.63 0 1 0 .894.893l1.785-1.785a.63.63 0 1 0-.894-.893Zm13.398 0a.63.63 0 1 0-.893.893l1.785 1.785a.63.63 0 0 0 .894 0 .63.63 0 0 0 0-.893l-1.786-1.785ZM10.301 11.194a.63.63 0 0 0 .894 0 .63.63 0 0 0 0-.893L9.41 8.516a.63.63 0 1 0-.893.893l1.784 1.785Z" style="fill:#adadad;fill-rule:evenodd"/><path d="M17 10.679a6.321 6.321 0 1 0 0 12.642 6.321 6.321 0 0 0 0-12.642Zm0-1.89a.632.632 0 0 0 .632-.632V5.632a.632.632 0 0 0-1.264 0v2.526c0 .349.283.631.632.631Zm0 16.422a.632.632 0 0 0-.632.632v2.526a.632.632 0 0 0 1.264-.001v-2.526a.631.631 0 0 0-.632-.631Zm11.368-8.843h-2.526a.632.632 0 0 0 0 1.264h2.526a.632.632 0 0 0 0-1.264ZM8.789 17a.632.632 0 0 0-.632-.632H5.632a.632.632 0 0 0 0 1.264h2.526A.631.631 0 0 0 8.789 17Zm14.464-5.621a.632.632 0 0 0 .447-.185l1.785-1.785a.63.63 0 1 0-.893-.893l-1.785 1.785a.63.63 0 0 0 .446 1.078ZM10.301 22.806l-1.785 1.785a.63.63 0 1 0 .894.893l1.785-1.785a.63.63 0 1 0-.894-.893Zm13.398 0a.63.63 0 1 0-.893.893l1.785 1.785a.63.63 0 0 0 .894 0 .63.63 0 0 0 0-.893l-1.786-1.785ZM10.301 11.194a.63.63 0 0 0 .894 0 .63.63 0 0 0 0-.893L9.41 8.516a.63.63 0 1 0-.893.893l1.784 1.785Z" style="fill-rule:evenodd;fill:#fff"/></svg>