<?xml version="1.0" encoding="UTF-8"?><svg id="Ebene_2" xmlns="http://www.w3.org/2000/svg" viewBox="0 0 34 34"><defs><style>.cls-1{fill:#fff;}.cls-1,.cls-2{fill-rule:evenodd;}.cls-2,.cls-3{fill:#adadad;}.cls-4{fill:#c1121c;}</style></defs><g id="Ebene_1-2"><circle class="cls-3" cx="17" cy="17" r="17"/><path class="cls-2" d="M17,10.679c-3.491,0-6.321,2.83-6.321,6.321s2.83,6.321,6.321,6.321,6.321-2.83,6.321-6.321-2.83-6.321-6.321-6.321Zm0-1.89c.349,0,.632-.283,.632-.632v-2.525c0-.349-.283-.632-.632-.632s-.632,.283-.632,.632v2.526c0,.349,.283,.631,.632,.631Zm0,16.422c-.349,0-.632,.283-.632,.632v2.526c0,.348,.283,.631,.632,.631s.632-.283,.632-.632v-2.526c0-.349-.283-.631-.632-.631Zm11.368-8.843h-2.526c-.349,0-.632,.283-.632,.632s.283,.632,.632,.632h2.526c.349,0,.632-.283,.632-.632s-.283-.632-.632-.632Zm-19.579,.632c0-.349-.283-.632-.632-.632h-2.525c-.349,0-.632,.283-.632,.632s.283,.632,.632,.632h2.526c.349,0,.631-.283,.631-.632Zm14.464-5.621c.162,0,.323-.062,.447-.185l1.785-1.785c.247-.247,.247-.647,0-.893-.247-.247-.646-.247-.893,0l-1.785,1.785c-.247,.247-.247,.647,0,.893,.122,.123,.284,.185,.446,.185Zm-12.952,11.427l-1.785,1.785c-.247,.247-.247,.647,0,.893,.123,.123,.285,.185,.447,.185s.323-.062,.447-.185l1.785-1.785c.247-.247,.247-.647,0-.893-.248-.247-.648-.247-.894,0Zm13.398,0c-.247-.247-.646-.247-.893,0s-.247,.647,0,.893l1.785,1.785c.123,.123,.285,.185,.447,.185s.323-.062,.447-.185c.247-.247,.247-.647,0-.893l-1.786-1.785ZM10.301,11.194c.123,.123,.285,.185,.447,.185s.323-.062,.447-.185c.247-.247,.247-.647,0-.893l-1.785-1.785c-.247-.247-.646-.247-.893,0s-.247,.647,0,.893l1.784,1.785Z"/><path class="cls-1" d="M17,10.679c-3.491,0-6.321,2.83-6.321,6.321s2.83,6.321,6.321,6.321,6.321-2.83,6.321-6.321-2.83-6.321-6.321-6.321Zm0-1.89c.349,0,.632-.283,.632-.632v-2.525c0-.349-.283-.632-.632-.632s-.632,.283-.632,.632v2.526c0,.349,.283,.631,.632,.631Zm0,16.422c-.349,0-.632,.283-.632,.632v2.526c0,.348,.283,.631,.632,.631s.632-.283,.632-.632v-2.526c0-.349-.283-.631-.632-.631Zm11.368-8.843h-2.526c-.349,0-.632,.283-.632,.632s.283,.632,.632,.632h2.526c.349,0,.632-.283,.632-.632s-.283-.632-.632-.632Zm-19.579,.632c0-.349-.283-.632-.632-.632h-2.525c-.349,0-.632,.283-.632,.632s.283,.632,.632,.632h2.526c.349,0,.631-.283,.631-.632Zm14.464-5.621c.162,0,.323-.062,.447-.185l1.785-1.785c.247-.247,.247-.647,0-.893-.247-.247-.646-.247-.893,0l-1.785,1.785c-.247,.247-.247,.647,0,.893,.122,.123,.284,.185,.446,.185Zm-12.952,11.427l-1.785,1.785c-.247,.247-.247,.647,0,.893,.123,.123,.285,.185,.447,.185s.323-.062,.447-.185l1.785-1.785c.247-.247,.247-.647,0-.893-.248-.247-.648-.247-.894,0Zm13.398,0c-.247-.247-.646-.247-.893,0s-.247,.647,0,.893l1.785,1.785c.123,.123,.285,.185,.447,.185s.323-.062,.447-.185c.247-.247,.247-.647,0-.893l-1.786-1.785ZM10.301,11.194c.123,.123,.285,.185,.447,.185s.323-.062,.447-.185c.247-.247,.247-.647,0-.893l-1.785-1.785c-.247-.247-.646-.247-.893,0s-.247,.647,0,.893l1.784,1.785Z"/><polygon class="cls-4" points="1.398 34 0 32.57 32.602 0 34 1.43 1.398 34"/></g></svg>