<?xml version="1.0" encoding="UTF-8"?><svg id="Ebene_2" xmlns="http://www.w3.org/2000/svg" viewBox="0 0 34 34"><defs><style>.cls-1{fill:#fff;}.cls-2{fill:#039;}</style></defs><g id="Ebene_1-2"><circle class="cls-2" cx="17" cy="17" r="17"/><path class="cls-1" d="M18.892,19.354h-5.296c.133,1.107,.359,2.04,.681,2.797,.321,.758,.7,1.373,1.138,1.843,.437,.471,.915,.808,1.436,1.013s1.052,.307,1.594,.307c.321,0,.642-.042,.963-.125s.667-.224,1.037-.423c.371-.199,.778-.467,1.221-.805,.442-.337,.946-.761,1.511-1.27,.133,.089,.26,.23,.382,.423,.122,.194,.227,.34,.315,.44-.664,.753-1.272,1.378-1.826,1.876s-1.09,.896-1.61,1.195-1.037,.509-1.553,.631c-.514,.122-1.06,.183-1.635,.183-.841,0-1.646-.164-2.416-.49-.769-.326-1.458-.824-2.066-1.494-.608-.669-1.118-1.511-1.527-2.523s-.681-2.205-.813-3.578h-1.478l-.398-.465c.056-.166,.119-.362,.191-.589,.071-.227,.141-.429,.207-.606h1.395v-.199c0-.321,.008-.639,.025-.955,.016-.315,.035-.623,.058-.921h-.979l-.398-.465c.056-.166,.119-.362,.191-.589,.071-.227,.141-.429,.207-.606h1.195c.232-1.25,.595-2.346,1.088-3.287,.492-.94,1.093-1.724,1.801-2.349s1.517-1.096,2.424-1.411,1.893-.473,2.955-.473c.554,0,1.06,.044,1.52,.133,.459,.089,.882,.208,1.27,.357s.744,.324,1.07,.523c.327,.199,.634,.415,.922,.647,.066,.056,.044,.188-.066,.398s-.258,.448-.439,.714c-.184,.266-.374,.523-.573,.772s-.365,.44-.498,.573l-.747-.149c-.266-.31-.525-.589-.78-.838s-.528-.462-.821-.639c-.294-.177-.617-.312-.972-.407-.354-.094-.77-.141-1.245-.141-.365,0-.747,.078-1.146,.232-.398,.155-.777,.438-1.138,.847-.359,.41-.686,.977-.979,1.702-.294,.725-.513,1.658-.656,2.797h5.927l.465,.415-.465,1.245h-6.06c-.022,.222-.033,.448-.033,.681v1.395h5.429l.465,.415-.47,1.243Z"/></g></svg>