<svg xmlns="http://www.w3.org/2000/svg" viewBox="0 0 34 34"><circle cx="17" cy="17" r="17" style="fill:#adadad"/><path d="M25.383 14.119c.049 0 .1-.007.149-.022l3.987-1.247a.501.501 0 0 0-.298-.955l-3.987 1.247a.5.5 0 0 0 .149.977Zm-9.542-.142h-11a2 2 0 0 0-2 2v2a2 2 0 0 0 2 2h11l2 2h2v-10h-2l-2 2ZM15 18h-4v-2h4v2Zm14.435 3.022-3.987-1.247a.5.5 0 1 0-.298.955l3.987 1.247a.5.5 0 0 0 .298-.955Zm1.56-4.509h-5.633a.5.5 0 0 0 0 1h5.633a.5.5 0 0 0 0-1Zm-10.154 5.464h2v-10h-2v10Z" style="fill:#fff"/><path d="M1.398 34 0 32.57 32.602 0 34 1.43 1.398 34z" style="fill:#c1121c"/></svg>