<?xml version="1.0" encoding="UTF-8"?><svg id="Ebene_2" xmlns="http://www.w3.org/2000/svg" viewBox="0 0 34 34"><defs><style>.cls-1{fill:#fff;}.cls-2{fill:#adadad;}</style></defs><g id="Ebene_1-2"><circle class="cls-2" cx="17" cy="17" r="17"/><path class="cls-1" d="M25.383,14.119c.049,0,.1-.007,.149-.022l3.987-1.247c.263-.083,.41-.363,.328-.627s-.363-.411-.626-.328l-3.987,1.247c-.263,.083-.41,.363-.328,.627,.067,.213,.264,.35,.477,.35Zm-9.542-.142H4.841c-1.105,0-2,.895-2,2v2c0,1.105,.895,2,2,2H15.841l2,2h2V11.977h-2l-2,2Zm-.841,4.023h-4v-2h4v2Zm14.435,3.022l-3.987-1.247c-.266-.085-.544,.064-.626,.328-.083,.264,.064,.544,.328,.627l3.987,1.247c.05,.016,.1,.022,.149,.022,.213,0,.41-.137,.477-.351,.082-.262-.065-.543-.328-.626Zm1.56-4.509h-5.633c-.276,0-.5,.224-.5,.5s.224,.5,.5,.5h5.633c.276,0,.5-.224,.5-.5s-.224-.5-.5-.5Zm-10.154,5.464h2V11.977h-2v10Z"/></g></svg>