<svg xmlns="http://www.w3.org/2000/svg" viewBox="0 0 34 34"><circle cx="17" cy="17" r="17" style="fill:#039"/><path d="M17.719 17.67v-.24h-4.297v.24a.903.903 0 0 1-.13.47l-4.314 7.278c-.495.944-.095 2.082.911 2.581l1.533-2.583 4.149-6.996 5.07 8.551c.567.953 1.872 1.308 2.913.79l-5.706-9.622a.92.92 0 0 1-.129-.469Zm5.88-3.214c.229-.157.4-.383.426-.633a.832.832 0 0 0-.37-.769l-6.467-4.47c-.055-.038-.121-.067-.181-.101a2.293 2.293 0 0 0-1.394-.469c-.828 0-1.541.425-1.914 1.046-.006.01-.014.016-.02.026-.004.006-.006.017-.009.024a1.821 1.821 0 0 0-.123.265c-.133-.494-.597-.868-1.177-.868-.682 0-1.235.506-1.235 1.131 0 .018.01.032.011.05h-.011v5.478h2.286v1.771h4.297v-5.83l5.147 3.533 1.622 13.231.747-.076-1.635-13.339Zm-6.954-7.075a2 2 0 1 0 .001-3.999 2 2 0 0 0-.001 3.999Z" style="fill:#fff"/></svg>