<?xml version="1.0" encoding="UTF-8"?><svg id="Ebene_2" xmlns="http://www.w3.org/2000/svg" viewBox="0 0 34 34"><defs><style>.cls-1{fill:#fff;}.cls-2{fill:#c1121c;}.cls-3{fill:#adadad;}</style></defs><g id="Ebene_1-2"><circle class="cls-3" cx="17" cy="17" r="17"/><path class="cls-1" d="M23.599,14.456c.229-.157,.4-.383,.426-.633,.031-.298-.11-.59-.37-.769l-6.467-4.47c-.055-.038-.121-.067-.181-.101-.38-.289-.861-.469-1.394-.469-.828,0-1.541,.425-1.914,1.046-.006,.01-.014,.016-.02,.026-.004,.006-.006,.017-.009,.024-.048,.085-.089,.173-.123,.265-.133-.494-.597-.868-1.177-.868-.682,0-1.235,.506-1.235,1.131,0,.018,.01,.032,.011,.05h-.011v5.478h2.286v1.771h4.297v-5.83l5.147,3.533,1.622,13.231,.747-.076-1.635-13.339Zm-5.88,3.214v-.24h-4.297v.24c0,.166-.043,.325-.13,.47l-4.314,7.278c-.495,.944-.095,2.082,.911,2.581l1.533-2.583,4.149-6.996,5.07,8.551c.567,.953,1.872,1.308,2.913,.79l-5.706-9.622c-.085-.145-.129-.304-.129-.469Zm-1.074-10.289c1.105,0,2-.895,2-2s-.895-2-2-2-2,.895-2,2,.895,2,2,2Z"/><polygon class="cls-2" points="1.398 34 0 32.57 32.602 0 34 1.43 1.398 34"/></g></svg>