<?xml version="1.0" encoding="UTF-8"?><svg id="Ebene_2" xmlns="http://www.w3.org/2000/svg" viewBox="0 0 39 34"><defs><style>.cls-1{fill:#fff;}.cls-2{fill:#adadad;fill-rule:evenodd;}</style></defs><g id="Ebene_1-2"><path id="path5502" class="cls-2" d="M19.5,0c-.42-.003-.882,.211-1.108,.611L.151,32.094c-.105,.214-.15,.4-.151,.613,0,.382,.17,.744,.463,.989,.258,.2,.503,.304,.833,.304H37.739c.222,.002,.445-.051,.647-.184,.381-.229,.614-.639,.614-1.083-.011-.229-.067-.47-.17-.64L20.599,.606s-.003-.006-.005-.008c-.002-.003-.004-.006-.006-.009-.065-.103-.146-.194-.238-.272-.212-.183-.477-.292-.756-.312-.031-.003-.063-.005-.094-.005ZM1.296,34h0Z"/><polygon class="cls-1" points="19.291 6.24 33.193 30.24 5.371 30.24 19.291 6.24"/><path class="cls-2" d="M26.99,21.274h-1.233c-.243-3.19-2.786-5.732-5.976-5.975v-1.234h-1v1.234c-3.19,.244-5.732,2.785-5.976,5.975h-1.232v1h1.233c.244,3.189,2.786,5.731,5.975,5.975v1.234h1v-1.234c3.19-.243,5.733-2.785,5.976-5.975h1.233v-1Zm-7.209-4.975c2.632,.238,4.711,2.344,4.953,4.975h-3.523c-.182-.699-.729-1.248-1.43-1.429v-3.546Zm-1,0v3.546c-.7,.182-1.247,.731-1.429,1.429h-3.523c.242-2.631,2.321-4.736,4.952-4.975Zm0,10.95c-2.632-.239-4.71-2.344-4.952-4.975h3.523c.182,.698,.729,1.248,1.429,1.429,0,0,0,3.546,0,3.546Zm1,0v-3.545c.7-.181,1.247-.731,1.43-1.429h3.523c-.242,2.63-2.321,4.735-4.953,4.974Z"/></g></svg>