<svg xmlns="http://www.w3.org/2000/svg" id="Ebene_2" viewBox="0 0 39 34"><defs><style>.cls-2{fill:#adadad;fill-rule:evenodd}</style></defs><g id="Ebene_1-2"><path id="path5502" d="M19.5 0c-.42-.003-.882.211-1.108.611L.151 32.094c-.105.214-.15.4-.151.613 0 .382.17.744.463.989.258.2.503.304.833.304h36.443a1.14 1.14 0 0 0 .647-.184c.381-.229.614-.639.614-1.083-.011-.229-.067-.47-.17-.64L20.599.606l-.005-.008-.006-.009A1.298 1.298 0 0 0 19.5 0ZM1.296 34Z" class="cls-2"/><path d="m19.291 6.24 13.902 24H5.371l13.92-24z" style="fill:#fff"/><path d="M26.99 21.274h-1.233a6.493 6.493 0 0 0-5.976-5.975v-1.234h-1v1.234a6.495 6.495 0 0 0-5.976 5.975h-1.232v1h1.233a6.495 6.495 0 0 0 5.975 5.975v1.234h1v-1.234a6.493 6.493 0 0 0 5.976-5.975h1.233v-1Zm-7.209-4.975c2.632.238 4.711 2.344 4.953 4.975h-3.523a1.995 1.995 0 0 0-1.43-1.429v-3.546Zm-1 0v3.546c-.7.182-1.247.731-1.429 1.429h-3.523c.242-2.631 2.321-4.736 4.952-4.975Zm0 10.95c-2.632-.239-4.71-2.344-4.952-4.975h3.523a1.997 1.997 0 0 0 1.429 1.429v3.546Zm1 0v-3.545a2 2 0 0 0 1.43-1.429h3.523c-.242 2.63-2.321 4.735-4.953 4.974Z" class="cls-2"/></g></svg>