<?xml version="1.0" encoding="UTF-8"?><svg id="Ebene_2" xmlns="http://www.w3.org/2000/svg" viewBox="0 0 34 34"><defs><style>.cls-1{fill:#fff;}.cls-2{fill:#c1121c;}.cls-3{fill:#adadad;}</style></defs><g id="Ebene_1-2"><circle class="cls-3" cx="17" cy="17" r="17"/><path class="cls-1" d="M12.395,21.303c0,1.007,.824,1.83,1.832,1.83h5.546c1.007,0,1.832-.824,1.832-1.83v-3.551H12.395s0,3.551,0,3.551Zm8.373-6.878h-7.537c-1.007,0-1.832,.824-1.832,1.83v.61h11.2v-.61c.001-1.007-.823-1.83-1.831-1.83Zm-3.768-7.958L5,11.965l.666,1.455,2.534-1.161v13.275h1.6V11.525l7.2-3.299,7.2,3.299v14.008h1.6V12.258l2.534,1.161,.666-1.454-12-5.498Z"/><polygon class="cls-2" points="1.398 34 0 32.57 32.602 0 34 1.43 1.398 34"/></g></svg>