<?xml version="1.0" encoding="UTF-8"?><svg id="Ebene_2" xmlns="http://www.w3.org/2000/svg" viewBox="0 0 34 34"><defs><style>.cls-1{fill:#fff;}.cls-2{fill:#039;}</style></defs><g id="Ebene_1-2"><circle class="cls-2" cx="17" cy="17" r="17"/><path class="cls-1" d="M23.045,19.591h-1.727v-5.182h1.727c1.906,0,3.455-1.549,3.455-3.455s-1.549-3.454-3.455-3.454-3.455,1.549-3.455,3.455v1.727h-5.182v-1.727c0-1.906-1.549-3.455-3.455-3.455s-3.453,1.549-3.453,3.455,1.549,3.455,3.455,3.455h1.727v5.182h-1.727c-1.906,0-3.455,1.549-3.455,3.455s1.549,3.455,3.455,3.455,3.455-1.549,3.455-3.455v-1.727h5.182v1.727c0,1.906,1.549,3.455,3.455,3.455s3.455-1.549,3.455-3.455c-.002-1.907-1.551-3.456-3.457-3.456Zm-1.727-8.636c0-.952,.775-1.727,1.727-1.727s1.727,.775,1.727,1.727-.775,1.727-1.727,1.727h-1.727v-1.727Zm-12.091,0c0-.952,.775-1.727,1.727-1.727s1.727,.775,1.727,1.727v1.727h-1.727c-.952,0-1.727-.775-1.727-1.727Zm3.455,12.09c0,.952-.775,1.727-1.727,1.727s-1.727-.775-1.727-1.727,.775-1.727,1.727-1.727h1.727v1.727Zm1.727-3.454v-5.182h5.182v5.182h-5.182Zm8.636,5.182c-.952,0-1.727-.775-1.727-1.727v-1.728h1.727c.952,0,1.727,.775,1.727,1.727s-.774,1.728-1.727,1.728Z"/></g></svg>