<?xml version="1.0" encoding="UTF-8"?><svg id="Ebene_2" xmlns="http://www.w3.org/2000/svg" viewBox="0 0 34 34"><defs><style>.cls-1{fill:#fff;}.cls-2{fill:#c1121c;}.cls-3{fill:#adadad;}</style></defs><g id="Ebene_1-2"><circle class="cls-3" cx="17" cy="17" r="17"/><path class="cls-1" d="M21.333,25.078c0,1.298,1.053,2.353,2.353,2.353s2.353-1.054,2.353-2.353-1.054-2.353-2.353-2.353c-1.3,0-2.353,1.053-2.353,2.353Zm-15.371-3.451h5.394c.159,0,.304-.079,.393-.209l.801-1.203,1.646,.471v4.942c0,.881,.695,1.607,1.574,1.646l.543-12.235,2.96,2.456c.654,.543,1.615,.498,2.216-.103l-5.218-5.217c-1.087,.459-2.332,.343-3.316-.308l-3.482,.773c-.137,.028-.255,.122-.318,.249l-1.781,3.563c.814,.406,1.803,.078,2.208-.736l.849-1.617h1.649l-1.412,5.647-3.183,.241c-.859,.062-1.523,.778-1.523,1.64Zm11.292-12.704c0-1.3-1.053-2.353-2.353-2.353s-2.352,1.053-2.352,2.353,1.053,2.353,2.352,2.353c1.3-.001,2.353-1.055,2.353-2.353Z"/><polygon class="cls-2" points="1.398 34 0 32.57 32.602 0 34 1.43 1.398 34"/></g></svg>