<svg xmlns="http://www.w3.org/2000/svg" viewBox="0 0 34 34"><circle cx="17" cy="17" r="17" style="fill:#adadad"/><path d="M21.333 25.078a2.354 2.354 0 1 0 4.707-.001 2.354 2.354 0 0 0-4.707.001ZM5.962 21.627h5.394a.475.475 0 0 0 .393-.209l.801-1.203 1.646.471v4.942c0 .881.695 1.607 1.574 1.646l.543-12.235 2.96 2.456a1.647 1.647 0 0 0 2.216-.103l-5.218-5.217a3.525 3.525 0 0 1-3.316-.308l-3.482.773a.463.463 0 0 0-.318.249l-1.781 3.563a1.645 1.645 0 0 0 2.208-.736l.849-1.617h1.649l-1.412 5.647-3.183.241a1.643 1.643 0 0 0-1.523 1.64ZM17.254 8.923a2.352 2.352 0 1 0-4.705-.001 2.352 2.352 0 0 0 4.705.001Z" style="fill:#fff"/></svg>