<?xml version="1.0" encoding="UTF-8"?><svg id="Ebene_2" xmlns="http://www.w3.org/2000/svg" viewBox="0 0 34 34"><defs><style>.cls-1{fill:#fff;}.cls-2{fill:#adadad;}</style></defs><g id="Ebene_1-2"><circle class="cls-2" cx="17" cy="17" r="17"/><path class="cls-1" d="M9.876,25.803h14.249v-1.341H9.876v1.341Zm12.546-7.103H11.578c-1.693,0-3.078,1.385-3.078,3.078v1.504H25.5v-1.504c0-1.693-1.385-3.078-3.078-3.078Zm-7.477-.987h4.11c-1.197-2.132,.532-4.679,.957-5.283,.433-.614,.698-1.357,.698-2.166,0-2.049-1.661-3.71-3.71-3.71s-3.71,1.661-3.71,3.71c0,.808,.265,1.552,.698,2.166,.424,.604,2.153,3.151,.957,5.283Z"/></g></svg>