<svg xmlns="http://www.w3.org/2000/svg" viewBox="0 0 34 34"><circle cx="17" cy="17" r="17" style="fill:#adadad"/><path d="M9.876 25.803h14.249v-1.341H9.876v1.341ZM22.422 18.7H11.578A3.087 3.087 0 0 0 8.5 21.778v1.504h17v-1.504a3.087 3.087 0 0 0-3.078-3.078Zm-7.477-.987h4.11c-1.197-2.132.532-4.679.957-5.283a3.745 3.745 0 0 0 .698-2.166 3.71 3.71 0 1 0-7.42 0c0 .808.265 1.552.698 2.166.424.604 2.153 3.151.957 5.283Z" style="fill:#fff"/><path d="M1.398 34 0 32.57 32.602 0 34 1.43 1.398 34z" style="fill:#c1121c"/></svg>