<?xml version="1.0" encoding="UTF-8"?><svg id="Ebene_2" xmlns="http://www.w3.org/2000/svg" viewBox="0 0 39 34"><defs><style>.cls-1{fill:#fff;}.cls-2{fill:#c0171d;}</style></defs><g id="Ebene_1-2"><path id="path5502" class="cls-2" d="M19.5,0c-.42-.003-.882,.211-1.108,.611L.151,32.094c-.105,.214-.15,.4-.151,.613,0,.382,.17,.744,.463,.989,.258,.2,.503,.304,.833,.304H37.739c.222,.002,.445-.051,.647-.184,.381-.229,.614-.639,.614-1.083-.011-.229-.067-.47-.17-.64L20.599,.606s-.003-.006-.005-.008c-.002-.003-.004-.006-.006-.009-.065-.103-.146-.194-.238-.272-.212-.183-.477-.292-.756-.312-.031-.003-.063-.005-.094-.005ZM1.296,34h0Z"/><polygon class="cls-1" points="19.481 6.24 33.383 30.24 5.56 30.24 19.481 6.24"/><path d="M30.929,28.186l-3.326-4.298c-.051-.102-.154-.205-.256-.256-.665-.563-1.688-.512-2.251,.205l-1.279,1.484c-.154,.153-.358,.307-.563,.358l-.358,.154c-.102,0-.205,.102-.307,.153l-1.842,2.2h0c-.051,.051-.051,.153-.051,.205,0,.205,.102,.358,.307,.358h9.67c.051,0,.153-.051,.205-.102,.153-.103,.153-.307,.051-.461Zm-6.541-5.694c.061,.092,.37,.448,.37,.448,0,0,.259-.521,.241-.674-.26-2.074-1.041-3.253-1.581-3.856v-.003s-.005-.003-.005-.003c-.271-.302-.482-.459-.531-.507l-4.801-4.8c-.06-.06-.146-.097-.231-.097s-.171,.037-.232,.098l-1.303,1.302c-.128,.128-.128,.343,0,.471l3.735,2.827-8.078,8.132c-.058,.064-.092,.139-.114,.217l-.005,.005,.005-.003c-.05,.183-.008,.386,.133,.527l.563,.563c.11,.104,.245,.159,.385,.159,.184,0,.32-.099,.367-.141,.974-.858,8.266-7.906,8.266-7.906,1.932,1.945,2.797,3.217,2.816,3.241Z"/></g></svg>