<svg xmlns="http://www.w3.org/2000/svg" id="Ebene_2" viewBox="0 0 39 34"><defs><style>.cls-2{fill:#adadad;fill-rule:evenodd}</style></defs><g id="Ebene_1-2"><path id="path5502" d="M19.5 0c-.42-.003-.882.211-1.108.611L.151 32.094c-.105.214-.15.4-.151.613 0 .382.17.744.463.989.258.2.503.304.833.304h36.443a1.14 1.14 0 0 0 .647-.184c.381-.229.614-.639.614-1.083-.011-.229-.067-.47-.17-.64L20.599.606l-.005-.008-.006-.009A1.298 1.298 0 0 0 19.5 0ZM1.296 34Z" class="cls-2"/><path d="m19.481 6.24 13.902 24H5.56l13.921-24z" style="fill:#fff"/><path d="m30.929 28.186-3.326-4.298a.62.62 0 0 0-.256-.256c-.665-.563-1.688-.512-2.251.205l-1.279 1.484c-.154.153-.358.307-.563.358l-.358.154c-.102 0-.205.102-.307.153l-1.842 2.2c-.051.051-.051.153-.051.205 0 .205.102.358.307.358h9.67a.393.393 0 0 0 .205-.102c.153-.103.153-.307.051-.461Zm-6.541-5.694c.061.092.37.448.37.448s.259-.521.241-.674c-.26-2.074-1.041-3.253-1.581-3.856v-.003l-.005-.003c-.271-.302-.482-.459-.531-.507l-4.801-4.8c-.06-.06-.146-.097-.231-.097s-.171.037-.232.098L16.315 14.4a.337.337 0 0 0 0 .471l3.735 2.827-8.078 8.132a.529.529 0 0 0-.114.217l-.005.005.005-.003a.54.54 0 0 0 .133.527l.563.563c.11.104.245.159.385.159.184 0 .32-.099.367-.141.974-.858 8.266-7.906 8.266-7.906 1.932 1.945 2.797 3.217 2.816 3.241Z" class="cls-2"/><path d="M4.398 34 3 32.57 35.602 0 37 1.43 4.398 34z" style="fill:#c1121c"/></g></svg>