<svg xmlns="http://www.w3.org/2000/svg" viewBox="0 0 34 34"><circle cx="17" cy="17" r="17" style="fill:#adadad"/><path d="M24.686 9.856H9.314C8.041 9.856 7 10.908 7 12.193v.779h20v-.779c0-1.285-1.041-2.337-2.314-2.337ZM8.257 18.638c0 1.285 1.041 2.337 2.314 2.337h12.858c1.273 0 2.314-1.052 2.314-2.337v-4.534H8.257v4.534Zm3.674 3.674c-1.048 0-1.897.858-1.897 1.916s.849 1.916 1.897 1.916 1.897-.858 1.897-1.916c0-1.058-.85-1.916-1.897-1.916Zm10.138 0c-1.048 0-1.897.858-1.897 1.916s.849 1.916 1.897 1.916 1.897-.858 1.897-1.916-.849-1.916-1.897-1.916Z" style="fill:#fff"/><path d="M1.398 34 0 32.57 32.602 0 34 1.43 1.398 34z" style="fill:#c1121c"/></svg>