<?xml version="1.0" encoding="UTF-8"?><svg id="Ebene_2" xmlns="http://www.w3.org/2000/svg" viewBox="0 0 34 34"><defs><style>.cls-1{fill:#fff;}.cls-2{fill:#adadad;}</style></defs><g id="Ebene_1-2"><circle class="cls-2" cx="17" cy="17" r="17"/><path class="cls-1" d="M24.686,9.856H9.314c-1.273,0-2.314,1.052-2.314,2.337v.779H27v-.779c0-1.285-1.041-2.337-2.314-2.337ZM8.257,18.638c0,1.285,1.041,2.337,2.314,2.337h12.858c1.273,0,2.314-1.052,2.314-2.337v-4.534H8.257v4.534Zm3.674,3.674c-1.048,0-1.897,.858-1.897,1.916s.849,1.916,1.897,1.916,1.897-.858,1.897-1.916c0-1.058-.85-1.916-1.897-1.916Zm10.138,0c-1.048,0-1.897,.858-1.897,1.916s.849,1.916,1.897,1.916,1.897-.858,1.897-1.916-.849-1.916-1.897-1.916Z"/></g></svg>