<svg xmlns="http://www.w3.org/2000/svg" viewBox="0 0 34 34"><circle cx="17" cy="17" r="17" style="fill:#adadad"/><path d="M8.986 14.313c-.024 3.081 1.099 5.16 2.194 6.35.005.005.006.01.011.016.028.033.066.062.095.094.096.099.19.196.284.282 1.551 1.487 4.226 2.516 6.675 2.516 4.431 0 7.717-2.41 9.345-6.443.71-1.657 2.347-5.258 2.347-5.258s-9.17 2.709-10.331 2.631c-.939-.063-.808-2.68-1.451-4.297-.623-1.762-2.2-3.315-4.175-3.315-1.816 0-3.481.712-4.245 3.006l-4.888.225 4.28 1.852-4.374 1.327 4.233 1.014Zm3.063-4.519a.874.874 0 1 1 0 1.747.874.874 0 0 1 0-1.747Zm13.752 12.415c-2 1.802-4.591 2.785-7.556 2.785-2.765 0-5.842-1.169-7.658-2.911a7.943 7.943 0 0 1-.326-.322 1.641 1.641 0 0 1-.151-.158 9.48 9.48 0 0 1-1.414-2.131c-1.648.547-3.379 1.41-3.848 2.701 0 0 1.977-.311 3.446-.094-.951.718-1.753 2.435-1.427 3.724 0 0 3.025-1.901 4.309-1.124 0 0-.768 1.976-.552 2.927 0 0 1.861-1.804 3.028-1.976 0 0-.667 1.057.219 3.575 0 0 2.355-2.735 3.845-3.079 1.611-.372 3.67 2.893 3.67 2.893s1.297-1.961 0-3.44c1.41-.514 3.541 2.253 3.541 2.253.438-.923.197-2.62-.457-3.878 1.483.073 3.141.708 3.141.708-.142-.914-.883-1.745-1.81-2.453Z" style="fill:#fff;fill-rule:evenodd"/></svg>