<?xml version="1.0" encoding="UTF-8"?><svg id="Ebene_2" xmlns="http://www.w3.org/2000/svg" viewBox="0 0 34 34"><defs><style>.cls-1{fill:#fff;fill-rule:evenodd;}.cls-2{fill:#c1121c;}.cls-3{fill:#adadad;}</style></defs><g id="Ebene_1-2"><circle class="cls-3" cx="17" cy="17" r="17"/><polygon class="cls-1" points="13.586 9.977 18.187 11.216 13.586 12.455 12.347 17.056 11.108 12.455 6.507 11.216 11.108 9.977 12.347 5.376 13.586 9.977"/><path class="cls-1" d="M24.101,7.647c.589,1.4,.915,2.939,.915,4.553,0,6.492-5.263,11.755-11.755,11.755-2.671,0-5.127-.901-7.101-2.403,1.779,4.231,5.962,7.202,10.84,7.202,6.492,0,11.755-5.263,11.755-11.755,0-3.82-1.831-7.204-4.654-9.352Z"/><polygon class="cls-2" points="1.398 34 0 32.57 32.602 0 34 1.43 1.398 34"/></g></svg>