<svg xmlns="http://www.w3.org/2000/svg" id="Ebene_2" viewBox="0 0 34 34"><defs><style>.cls-1{fill:#fff;fill-rule:evenodd}</style></defs><g id="Ebene_1-2"><circle cx="17" cy="17" r="17" style="fill:#adadad"/><path d="m13.586 9.977 4.601 1.239-4.601 1.239-1.239 4.601-1.239-4.601-4.601-1.239 4.601-1.239 1.239-4.601 1.239 4.601z" class="cls-1"/><path d="M24.101 7.647c.589 1.4.915 2.939.915 4.553 0 6.492-5.263 11.755-11.755 11.755-2.671 0-5.127-.901-7.101-2.403 1.779 4.231 5.962 7.202 10.84 7.202 6.492 0 11.755-5.263 11.755-11.755 0-3.82-1.831-7.204-4.654-9.352Z" class="cls-1"/><path d="M1.398 34 0 32.57 32.602 0 34 1.43 1.398 34z" style="fill:#c1121c"/></g></svg>