<?xml version="1.0" encoding="UTF-8"?><svg id="Ebene_2" xmlns="http://www.w3.org/2000/svg" viewBox="0 0 34 34"><defs><style>.cls-1{fill:#fff;}.cls-2{fill:#c1121c;}.cls-3{fill:#adadad;}</style></defs><g id="Ebene_1-2"><circle class="cls-3" cx="17" cy="17" r="17"/><path class="cls-1" d="M16.349,6.632h-2.03v2.328c0,.248,.01,.506,.031,.774,.021,.268,.043,.536,.068,.805,.024,.268,.054,.53,.086,.786,.033,.256,.062,.491,.086,.705h-.049l-.767-1.807-1.783-3.591h-2.179V14.68h2.03v-2.327c0-.495-.033-1.016-.099-1.561s-.123-1.048-.173-1.511h.049l.767,1.795,1.783,3.603h2.179V6.632h0Zm2.466,7.088c.326,.359,.718,.634,1.176,.823,.458,.19,.968,.285,1.53,.285,.553,0,1.061-.095,1.523-.285,.463-.19,.856-.464,1.183-.823s.58-.8,.761-1.324c.182-.525,.273-1.117,.273-1.777s-.091-1.246-.273-1.758c-.181-.511-.435-.944-.761-1.3-.326-.355-.72-.623-1.183-.805-.462-.181-.969-.273-1.523-.273-.561,0-1.071,.091-1.53,.273-.458,.181-.849,.448-1.176,.798-.326,.351-.58,.785-.761,1.301-.182,.515-.273,1.103-.273,1.763s.091,1.253,.273,1.777c.181,.525,.435,.966,.761,1.325Zm1.56-4.804c.276-.401,.659-.6,1.145-.6s.868,.199,1.145,.6c.276,.401,.414,.968,.414,1.702s-.138,1.315-.414,1.739c-.277,.426-.659,.638-1.145,.638s-.869-.212-1.145-.638c-.276-.425-.414-1.005-.414-1.739s.138-1.301,.414-1.702Zm-9.871,14.097h1.721v2.117c-.165,.149-.378,.267-.638,.354-.26,.086-.534,.129-.823,.129-.437,0-.823-.079-1.158-.235-.334-.157-.615-.38-.842-.669-.227-.289-.401-.638-.521-1.046-.119-.408-.18-.869-.18-1.38,0-.504,.065-.958,.192-1.362,.128-.405,.307-.749,.539-1.034,.23-.285,.512-.504,.842-.656,.331-.153,.702-.23,1.114-.23s.755,.074,1.028,.223c.272,.149,.511,.331,.717,.546l.57-.669c-.116-.123-.249-.246-.402-.365-.153-.119-.326-.227-.52-.322-.194-.095-.409-.172-.644-.229-.236-.058-.494-.086-.774-.086-.536,0-1.033,.097-1.492,.29-.458,.194-.852,.473-1.183,.836-.33,.364-.588,.805-.773,1.326-.185,.518-.277,1.104-.277,1.756,0,.66,.091,1.253,.272,1.776,.182,.525,.433,.967,.755,1.326,.322,.359,.708,.634,1.158,.823,.45,.19,.943,.285,1.479,.285,.545,0,1.031-.089,1.461-.267,.429-.177,.776-.402,1.04-.674v-3.417h-2.662v.854h0Zm9.12-4.241c-.264-.186-.583-.32-.959-.402-.375-.082-.791-.123-1.245-.123h-2.315v8.122h1.027v-3.219h1.338c.445,0,.852-.052,1.219-.155,.368-.103,.684-.257,.948-.464,.264-.205,.468-.466,.613-.779,.144-.313,.217-.685,.217-1.114,0-.445-.074-.822-.223-1.127-.149-.307-.356-.553-.62-.739Zm-.699,3.133c-.343,.268-.868,.402-1.579,.402h-1.214v-3.232h1.164c.71,0,1.244,.114,1.603,.341,.359,.227,.539,.634,.539,1.22,0,.577-.17,1.001-.513,1.269Zm7.946,1.51c-.087-.227-.205-.425-.353-.594s-.326-.318-.533-.446c-.206-.128-.425-.241-.656-.341l-1.151-.495c-.165-.066-.326-.138-.483-.217-.156-.079-.301-.169-.433-.273-.132-.103-.237-.223-.315-.359-.079-.136-.118-.303-.118-.501,0-.372,.138-.663,.415-.874,.276-.211,.641-.316,1.095-.316,.38,0,.721,.069,1.022,.205,.301,.136,.576,.324,.823,.564l.556-.668c-.289-.297-.64-.538-1.052-.724-.413-.186-.863-.278-1.35-.278-.371,0-.712,.054-1.021,.161-.31,.107-.577,.257-.804,.452-.227,.193-.405,.423-.533,.687s-.193,.549-.193,.854c0,.298,.05,.559,.149,.786,.098,.227,.227,.423,.383,.589,.157,.164,.335,.305,.533,.42,.198,.116,.392,.215,.582,.298l1.164,.508c.19,.09,.368,.177,.533,.259,.166,.083,.307,.176,.427,.28,.12,.103,.215,.226,.285,.371,.07,.144,.105,.319,.105,.526,0,.396-.148,.716-.445,.96-.298,.243-.715,.365-1.251,.365-.421,0-.828-.093-1.22-.278-.392-.186-.733-.432-1.021-.737l-.62,.718c.356,.371,.776,.665,1.264,.879,.487,.215,1.015,.322,1.585,.322,.429,0,.812-.06,1.151-.18s.628-.285,.868-.495c.239-.211,.423-.457,.551-.737,.126-.281,.19-.582,.19-.904,0-.298-.043-.56-.129-.787Z"/><polygon class="cls-2" points="1.398 34 0 32.57 32.602 0 34 1.43 1.398 34"/></g></svg>