<svg xmlns="http://www.w3.org/2000/svg" viewBox="0 0 34 34"><circle cx="17" cy="17" r="17" style="fill:#039"/><path d="M16.349 6.632h-2.03V8.96c0 .248.01.506.031.774.021.268.043.536.068.805.024.268.054.53.086.786.033.256.062.491.086.705h-.049l-.767-1.807-1.783-3.591H9.812v8.048h2.03v-2.327c0-.495-.033-1.016-.099-1.561s-.123-1.048-.173-1.511h.049l.767 1.795 1.783 3.603h2.179V6.632Zm2.466 7.088c.326.359.718.634 1.176.823.458.19.968.285 1.53.285.553 0 1.061-.095 1.523-.285.463-.19.856-.464 1.183-.823s.58-.8.761-1.324c.182-.525.273-1.117.273-1.777s-.091-1.246-.273-1.758a3.753 3.753 0 0 0-.761-1.3 3.142 3.142 0 0 0-1.183-.805 4.138 4.138 0 0 0-1.523-.273c-.561 0-1.071.091-1.53.273a3.195 3.195 0 0 0-1.176.798c-.326.351-.58.785-.761 1.301-.182.515-.273 1.103-.273 1.763s.091 1.253.273 1.777c.181.525.435.966.761 1.325Zm1.56-4.804c.276-.401.659-.6 1.145-.6s.868.199 1.145.6c.276.401.414.968.414 1.702s-.138 1.315-.414 1.739c-.277.426-.659.638-1.145.638s-.869-.212-1.145-.638c-.276-.425-.414-1.005-.414-1.739s.138-1.301.414-1.702Zm-9.871 14.097h1.721v2.117a1.783 1.783 0 0 1-.638.354c-.26.086-.534.129-.823.129-.437 0-.823-.079-1.158-.235a2.3 2.3 0 0 1-.842-.669 3.082 3.082 0 0 1-.521-1.046 4.93 4.93 0 0 1-.18-1.38c0-.504.065-.958.192-1.362.128-.405.307-.749.539-1.034.23-.285.512-.504.842-.656.331-.153.702-.23 1.114-.23s.755.074 1.028.223c.272.149.511.331.717.546l.57-.669a3.532 3.532 0 0 0-.402-.365 2.975 2.975 0 0 0-.52-.322 3.15 3.15 0 0 0-1.418-.315c-.536 0-1.033.097-1.492.29a3.35 3.35 0 0 0-1.183.836c-.33.364-.588.805-.773 1.326-.185.518-.277 1.104-.277 1.756 0 .66.091 1.253.272 1.776.182.525.433.967.755 1.326.322.359.708.634 1.158.823.45.19.943.285 1.479.285.545 0 1.031-.089 1.461-.267.429-.177.776-.402 1.04-.674v-3.417h-2.662v.854Zm9.12-4.241a2.61 2.61 0 0 0-.959-.402 5.844 5.844 0 0 0-1.245-.123h-2.315v8.122h1.027V23.15h1.338c.445 0 .852-.052 1.219-.155.368-.103.684-.257.948-.464.264-.205.468-.466.613-.779.144-.313.217-.685.217-1.114 0-.445-.074-.822-.223-1.127a1.9 1.9 0 0 0-.62-.739Zm-.699 3.133c-.343.268-.868.402-1.579.402h-1.214v-3.232h1.164c.71 0 1.244.114 1.603.341.359.227.539.634.539 1.22 0 .577-.17 1.001-.513 1.269Zm7.946 1.51c-.087-.227-.205-.425-.353-.594s-.326-.318-.533-.446a5.016 5.016 0 0 0-.656-.341l-1.151-.495a6.177 6.177 0 0 1-.483-.217 2.579 2.579 0 0 1-.433-.273 1.23 1.23 0 0 1-.315-.359.983.983 0 0 1-.118-.501c0-.372.138-.663.415-.874.276-.211.641-.316 1.095-.316.38 0 .721.069 1.022.205.301.136.576.324.823.564l.556-.668a3.402 3.402 0 0 0-1.052-.724 3.249 3.249 0 0 0-1.35-.278c-.371 0-.712.054-1.021.161-.31.107-.577.257-.804.452-.227.193-.405.423-.533.687s-.193.549-.193.854a1.947 1.947 0 0 0 .532 1.375c.157.164.335.305.533.42.198.116.392.215.582.298l1.164.508c.19.09.368.177.533.259.166.083.307.176.427.28.12.103.215.226.285.371.07.144.105.319.105.526 0 .396-.148.716-.445.96-.298.243-.715.365-1.251.365-.421 0-.828-.093-1.22-.278a3.388 3.388 0 0 1-1.021-.737l-.62.718a3.906 3.906 0 0 0 2.849 1.201c.429 0 .812-.06 1.151-.18s.628-.285.868-.495c.239-.211.423-.457.551-.737.126-.281.19-.582.19-.904 0-.298-.043-.56-.129-.787Z" style="fill:#fff"/></svg>