<svg xmlns="http://www.w3.org/2000/svg" viewBox="0 0 34 34"><circle cx="17" cy="17" r="17" style="fill:#039"/><path d="M9.392 21.699a2.593 2.593 0 0 0-1.903.685 2.323 2.323 0 0 0-.685 1.713 2.116 2.116 0 0 0 .875 1.789 2.55 2.55 0 0 0 1.751.571 2.593 2.593 0 0 0 1.903-.685 2.323 2.323 0 0 0 .685-1.713 2.254 2.254 0 0 0-.571-1.561 2.556 2.556 0 0 0-2.055-.799Zm.571 3.274a.739.739 0 0 1-.609.305.795.795 0 0 1-.609-.305 1.518 1.518 0 0 1-.228-.914c0-.381 0-.685.19-.876.162-.19.398-.3.647-.305a.795.795 0 0 1 .609.305c.17.259.25.566.228.876.027.322-.053.643-.228.914Zm6.167-3.274a2.045 2.045 0 0 0-.914.19c-.286.16-.533.381-.723.647v-.723h-1.599v4.492h1.751v-2.17a1.569 1.569 0 0 1 .19-.875.564.564 0 0 1 .495-.228c.172 0 .337.067.457.19a.9.9 0 0 1 .152.609v2.512h1.751V23.45a1.922 1.922 0 0 0-.419-1.332 1.553 1.553 0 0 0-1.141-.419Zm2.626 4.644h1.751v-6.281h-1.751v6.281Zm5.253-1.522-.952-3.007H21.23l1.903 4.492a1.002 1.002 0 0 1-.305.495.696.696 0 0 1-.495.152 2.997 2.997 0 0 1-.837-.114l.152 1.218c.391.064.785.102 1.18.114.493.031.979-.118 1.37-.419.284-.317.493-.694.609-1.104l1.789-4.835h-1.713l-.874 3.008ZM8.522 16.903c.863.378 1.799.56 2.741.533a5.405 5.405 0 0 0 2.741-.609 4.261 4.261 0 0 0 1.675-1.713c.412-.88.608-1.846.571-2.817 0-1.599-.457-2.817-1.332-3.693s-2.17-1.332-3.768-1.332-2.855.457-3.73 1.332-1.332 2.132-1.332 3.731a5.709 5.709 0 0 0 .685 2.893 4.103 4.103 0 0 0 1.749 1.675Zm1.066-6.738c.376-.423.919-.66 1.485-.647a1.955 1.955 0 0 1 1.523.647c.381.419.571 1.104.571 2.018 0 1.104-.19 1.865-.533 2.284a1.95 1.95 0 0 1-1.523.647 1.928 1.928 0 0 1-1.485-.647c-.343-.419-.533-1.142-.533-2.132a3.967 3.967 0 0 1 .495-2.17Zm10.392 6.776a6.499 6.499 0 0 0 2.627.457 5.154 5.154 0 0 0 2.17-.381 3.86 3.86 0 0 0 1.447-1.142 4.946 4.946 0 0 0 .837-1.865l-2.665-.799a2.978 2.978 0 0 1-.609 1.485 1.984 1.984 0 0 1-2.741-.114c-.343-.419-.495-1.142-.495-2.246a3.667 3.667 0 0 1 .419-1.941c.322-.55.925-.873 1.561-.837.29 0 .576.065.837.19.245.124.454.307.609.533.154.187.258.41.305.647l2.665-.609a4.248 4.248 0 0 0-1.561-2.284 5.147 5.147 0 0 0-2.931-.761c-1.561 0-2.779.419-3.654 1.294-.876.876-1.294 2.094-1.294 3.731a5.5 5.5 0 0 0 .723 3.007 3.976 3.976 0 0 0 1.75 1.635Z" style="fill:#fff"/></svg>