<?xml version="1.0" encoding="UTF-8"?><svg id="Ebene_2" xmlns="http://www.w3.org/2000/svg" viewBox="0 0 34 34"><defs><style>.cls-1{fill:#fff;}.cls-2{fill:#adadad;}</style></defs><g id="Ebene_1-2"><circle class="cls-2" cx="17" cy="17" r="17"/><path class="cls-1" d="M9.392,21.699c-.701-.039-1.388,.209-1.903,.685-.455,.452-.703,1.072-.685,1.713-.025,.705,.304,1.376,.875,1.789,.492,.402,1.116,.605,1.751,.571,.701,.039,1.388-.209,1.903-.685,.455-.452,.703-1.072,.685-1.713,.016-.574-.189-1.132-.571-1.561-.529-.563-1.284-.857-2.055-.799Zm.571,3.274c-.141,.195-.368,.308-.609,.305-.238-.005-.462-.117-.609-.305-.171-.273-.251-.593-.228-.914,0-.381,0-.685,.19-.876,.162-.19,.398-.3,.647-.305,.238,.005,.462,.117,.609,.305,.17,.259,.25,.566,.228,.876,.027,.322-.053,.643-.228,.914Zm6.167-3.274c-.315-.008-.628,.057-.914,.19-.286,.16-.533,.381-.723,.647v-.723h-1.599v4.492h1.751v-2.17c-.023-.304,.043-.608,.19-.875,.115-.156,.302-.242,.495-.228,.172,0,.337,.067,.457,.19,.122,.178,.176,.394,.152,.609v2.512h1.751v-2.893c.032-.481-.117-.956-.419-1.332-.307-.289-.72-.44-1.141-.419Zm2.626,4.644h1.751v-6.281h-1.751v6.281Zm5.253-1.522l-.952-3.007h-1.827l1.903,4.492c-.051,.191-.156,.364-.305,.495-.139,.112-.316,.167-.495,.152-.283,.002-.565-.037-.837-.114l.152,1.218c.391,.064,.785,.102,1.18,.114,.493,.031,.979-.118,1.37-.419,.284-.317,.493-.694,.609-1.104l1.789-4.835h-1.713l-.874,3.008Zm-15.487-7.918c.863,.378,1.799,.56,2.741,.533,.951,.042,1.897-.168,2.741-.609,.711-.399,1.292-.994,1.675-1.713,.412-.88,.608-1.846,.571-2.817,0-1.599-.457-2.817-1.332-3.693s-2.17-1.332-3.768-1.332-2.855,.457-3.73,1.332-1.332,2.132-1.332,3.731c-.031,1.008,.205,2.006,.685,2.893,.4,.721,1.011,1.305,1.749,1.675Zm1.066-6.738c.376-.423,.919-.66,1.485-.647,.578-.021,1.136,.217,1.523,.647,.381,.419,.571,1.104,.571,2.018,0,1.104-.19,1.865-.533,2.284-.387,.431-.944,.668-1.523,.647-.566,.013-1.109-.224-1.485-.647-.343-.419-.533-1.142-.533-2.132-.045-.756,.126-1.509,.495-2.17Zm10.392,6.776c.834,.332,1.729,.488,2.627,.457,.742,.031,1.482-.099,2.17-.381,.567-.258,1.064-.65,1.447-1.142,.406-.557,.691-1.192,.837-1.865l-2.665-.799c-.063,.541-.274,1.055-.609,1.485-.797,.702-2.005,.651-2.741-.114-.343-.419-.495-1.142-.495-2.246-.042-.673,.104-1.345,.419-1.941,.322-.55,.925-.873,1.561-.837,.29,0,.576,.065,.837,.19,.245,.124,.454,.307,.609,.533,.154,.187,.258,.41,.305,.647l2.665-.609c-.251-.914-.8-1.718-1.561-2.284-.879-.542-1.9-.807-2.931-.761-1.561,0-2.779,.419-3.654,1.294-.876,.876-1.294,2.094-1.294,3.731-.051,1.051,.199,2.095,.723,3.007,.4,.711,1.012,1.282,1.75,1.635Z"/></g></svg>