<svg xmlns="http://www.w3.org/2000/svg" viewBox="0 0 34 34"><circle cx="17" cy="17" r="17" style="fill:#adadad"/><path d="M8.252 24.236a2.32 2.32 0 0 0 2.314 2.314h12.858a2.32 2.32 0 0 0 2.314-2.314v-4.489H8.252v4.489Zm18.175-9.261L13.615 6.481a2.32 2.32 0 0 0-3.207.65l-.426.643 16.669 11.052.426-.643a2.322 2.322 0 0 0-.65-3.208Zm-17.288-.59 2.888-.778-2.888-.778-.778-2.888-.778 2.888-2.889.778 2.889.778.778 2.888.778-2.888Z" style="fill:#fff;fill-rule:evenodd"/><path d="M1.398 34 0 32.57 32.602 0 34 1.43 1.398 34z" style="fill:#c1121c"/></svg>