<?xml version="1.0" encoding="UTF-8"?><svg id="Ebene_2" xmlns="http://www.w3.org/2000/svg" viewBox="0 0 34 34"><defs><style>.cls-1{fill:#fff;fill-rule:evenodd;}.cls-2{fill:#039;}</style></defs><g id="Ebene_1-2"><circle class="cls-2" cx="17" cy="17" r="17"/><path class="cls-1" d="M8.252,24.236c0,1.273,1.041,2.314,2.314,2.314h12.858c1.273,0,2.314-1.041,2.314-2.314v-4.489H8.252v4.489ZM26.427,14.975L13.615,6.481c-1.061-.703-2.504-.411-3.207,.65l-.426,.643,16.669,11.052,.426-.643c.703-1.061,.411-2.504-.65-3.208Zm-17.288-.59l2.888-.778-2.888-.778-.778-2.888-.778,2.888-2.889,.778,2.889,.778,.778,2.888,.778-2.888Z"/></g></svg>