<svg xmlns="http://www.w3.org/2000/svg" viewBox="0 0 34 34"><circle cx="17" cy="17" r="17" style="fill:#adadad"/><path d="M28.5 23.315h-2v-2h-20v2h-2v-9a1.25 1.25 0 0 1 2 0v4h16a4 4 0 0 0 4-4v-5a1.25 1.25 0 0 1 2 0v14Zm-8.75-5.5h-12a.75.75 0 0 1-.441-1.357 7.003 7.003 0 0 1 2.307-1.1 16.008 16.008 0 0 1 8.268 0c.83.222 1.612.595 2.307 1.1a.751.751 0 0 1-.441 1.357Zm5.977-4.727c.627.627.138 2.132-1.092 3.363a5.663 5.663 0 0 1-1.266.962c-1.379.752-2.438.423-2.366-.735.023-.368.161-.793.4-1.231.752-1.379 2.3-2.555 3.458-2.627.368-.024.667.069.866.268" style="fill:#fff;fill-rule:evenodd"/></svg>