<?xml version="1.0" encoding="UTF-8"?><svg id="Ebene_2" xmlns="http://www.w3.org/2000/svg" viewBox="0 0 34 34"><defs><style>.cls-1{fill:#fff;fill-rule:evenodd;}.cls-2{fill:#c1121c;}.cls-3{fill:#adadad;}</style></defs><g id="Ebene_1-2"><circle class="cls-3" cx="17" cy="17" r="17"/><path class="cls-1" d="M28.5,23.315h-2v-2H6.5v2h-2V14.315c.414-.552,1.198-.664,1.75-.25,.095,.071,.179,.155,.25,.25v4H22.5c2.209,0,4-1.791,4-4v-5c.414-.552,1.198-.664,1.75-.25,.095,.071,.179,.155,.25,.25v14Zm-8.75-5.5H7.75c-.414,0-.75-.336-.75-.75,0-.132,.035-.261,.1-.375,.053-.091,.124-.17,.209-.232h0c.695-.505,1.477-.878,2.307-1.1h0c2.708-.724,5.559-.724,8.268,0h0c.83,.222,1.612,.595,2.307,1.1h0c.335,.244,.409,.713,.166,1.048-.077,.106-.181,.191-.302,.244-.096,.043-.2,.065-.305,.065Zm5.977-4.727c.627,.627,.138,2.132-1.092,3.363-.391,.391-.828,.723-1.266,.962-1.379,.752-2.438,.423-2.366-.735,.023-.368,.161-.793,.4-1.231,.752-1.379,2.3-2.555,3.458-2.627,.368-.024,.667,.069,.866,.268"/><polygon class="cls-2" points="1.398 34 0 32.57 32.602 0 34 1.43 1.398 34"/></g></svg>