<?xml version="1.0" encoding="UTF-8"?><svg id="Ebene_2" xmlns="http://www.w3.org/2000/svg" viewBox="0 0 34 34"><defs><style>.cls-1{fill:#fff;}.cls-2{fill:#adadad;}</style></defs><g id="Ebene_1-2"><circle class="cls-2" cx="17" cy="17" r="17"/><path class="cls-1" d="M17.428,21.797c-.319-.286-2.127-2.012-2.985-3.375-.821-1.385-1.532-3.781-1.641-4.196-.084-.319-.292-.791,.45-1.202l-1.343-6.587c-.31,.129-.641,.332-.998,.669-.862,.812-2.318,2.211-1.803,5.841,.254,1.789,.205,3.458,2.491,7.203h0s.003,.005,.004,.007c.002,.003,.003,.005,.004,.007h0c2.29,3.743,3.797,4.461,5.273,5.503,2.995,2.114,4.905,1.457,6.02,1.06,.465-.165,.798-.369,1.055-.587l-5.248-4.2c-.707,.48-1.033,.077-1.279-.143Zm7.078,1.491c-.213-.202-1.949-1.72-2.776-2.554-.699-.705-1.364-.191-2.283,.6l5.089,4.072c.181-.356,.268-.705,.382-.983,.27-.657-.199-.932-.412-1.135ZM15.71,10.883c-.365-1.116-.923-3.354-1.006-3.636-.083-.282-.114-.825-.821-.885-.301-.026-.654-.108-1.055-.108l1.302,6.389c1.126-.458,1.89-.815,1.58-1.76Z"/></g></svg>