<svg xmlns="http://www.w3.org/2000/svg" id="Ebene_2" viewBox="0 0 39 34"><defs><style>.cls-2{fill:#adadad;fill-rule:evenodd}</style></defs><g id="Ebene_1-2"><path id="path5502" d="M19.5 0c-.42-.003-.882.211-1.108.611L.151 32.094c-.105.214-.15.4-.151.613 0 .382.17.744.463.989.258.2.503.304.833.304h36.443a1.14 1.14 0 0 0 .647-.184c.381-.229.614-.639.614-1.083-.011-.229-.067-.47-.17-.64L20.599.606l-.005-.008-.006-.009A1.298 1.298 0 0 0 19.5 0ZM1.296 34Z" class="cls-2"/><path d="m19.481 6.24 13.902 24H5.56l13.921-24z" style="fill:#fff"/><path d="m19.463 18.039-1.217-2.353-1.706 1.53-1.588-1.53c-1.121 5.117 2.703 5.917 4.051 6.041v4.269c-.51-.161-1.312-.472-1.685-.933-.567-.701-3.31-.808-3.31-.808s.283 1.314 1.138 2.008c.704.572 2.802.504 3.857.285v2.869h1.046v-4.424c1.059.218 3.144.282 3.845-.287.855-.695 1.138-2.008 1.138-2.008s-2.742.107-3.31.808c-.37.457-1.163.767-1.673.93v-2.72c1.447-.164 5.012-1.066 3.925-6.028l-1.588 1.53-1.706-1.53-1.217 2.351" class="cls-2"/><path d="M4.398 34 3 32.57 35.602 0 37 1.43 4.398 34z" style="fill:#c1121c"/></g></svg>