<?xml version="1.0" encoding="UTF-8"?><svg id="Ebene_2" xmlns="http://www.w3.org/2000/svg" viewBox="0 0 39 34"><defs><style>.cls-1{fill:#fff;}.cls-2{fill:#adadad;fill-rule:evenodd;}.cls-3{fill:#c1121c;}</style></defs><g id="Ebene_1-2"><path id="path5502" class="cls-2" d="M19.5,0c-.42-.003-.882,.211-1.108,.611L.151,32.094c-.105,.214-.15,.4-.151,.613,0,.382,.17,.744,.463,.989,.258,.2,.503,.304,.833,.304H37.739c.222,.002,.445-.051,.647-.184,.381-.229,.614-.639,.614-1.083-.011-.229-.067-.47-.17-.64L20.599,.606s-.003-.006-.005-.008c-.002-.003-.004-.006-.006-.009-.065-.103-.146-.194-.238-.272-.212-.183-.477-.292-.756-.312-.031-.003-.063-.005-.094-.005ZM1.296,34h0Z"/><polygon class="cls-1" points="19.481 6.24 33.383 30.24 5.56 30.24 19.481 6.24"/><path class="cls-2" d="M19.463,18.039l-1.217-2.353-1.706,1.53-1.588-1.53c-1.121,5.117,2.703,5.917,4.051,6.041v4.269c-.51-.161-1.312-.472-1.685-.933-.567-.701-3.31-.808-3.31-.808,0,0,.283,1.314,1.138,2.008,.704,.572,2.802,.504,3.857,.285v2.869h1.046v-4.424c1.059,.218,3.144,.282,3.845-.287,.855-.695,1.138-2.008,1.138-2.008,0,0-2.742,.107-3.31,.808-.37,.457-1.163,.767-1.673,.93v-2.72c1.447-.164,5.012-1.066,3.925-6.028l-1.588,1.53-1.706-1.53-1.217,2.351"/><polygon class="cls-3" points="4.398 34 3 32.57 35.602 0 37 1.43 4.398 34"/></g></svg>