<?xml version="1.0" encoding="UTF-8"?><svg id="Ebene_2" xmlns="http://www.w3.org/2000/svg" viewBox="0 0 34 34"><defs><style>.cls-1{fill:#fff;}.cls-2{fill:#039;}</style></defs><g id="Ebene_1-2"><circle class="cls-2" cx="17" cy="17" r="17"/><path class="cls-1" d="M26.125,11.265v-.005h-.663v-1.494c0-1.455-1.19-2.645-2.645-2.645H11.152c-1.455,0-2.645,1.19-2.645,2.645v1.494h-.584c-.853,0-1.543,.69-1.543,1.543v2.383c0,.853,.69,1.543,1.543,1.543h.584v7.396c0,.656,.536,1.192,1.192,1.192h.695v1.718c0,.466,.378,.843,.843,.843h1.716c.466,0,.843-.378,.843-.843v-1.718h6.376v1.716c0,.467,.378,.845,.845,.845h1.713c.467,0,.845-.378,.845-.845v-1.716h.695c.656,0,1.192-.536,1.192-1.192v-7.396h.663v-.005c.83-.026,1.495-.702,1.495-1.538v-2.383c0-.836-.665-1.512-1.495-1.538Zm-12.601-2.542h6.921c.44,0,.801,.36,.801,.801s-.36,.801-.801,.801h-6.921c-.44,0-.801-.36-.801-.801s.361-.801,.801-.801Zm-1.619,14.477c-.739,0-1.338-.599-1.338-1.338s.599-1.338,1.338-1.338,1.338,.599,1.338,1.338-.599,1.338-1.338,1.338Zm10.159,0c-.739,0-1.338-.599-1.338-1.338s.599-1.338,1.338-1.338,1.338,.599,1.338,1.338-.599,1.338-1.338,1.338Zm1.682-6.386c0,1.148-.939,2.087-2.087,2.087H12.31c-1.148,0-2.087-.939-2.087-2.087v-4.232c0-.44,.36-.801,.801-.801h11.923c.44,0,.801,.36,.801,.801v4.232h-.002Z"/></g></svg>