<svg xmlns="http://www.w3.org/2000/svg" viewBox="0 0 34 34"><circle cx="17" cy="17" r="17" style="fill:#039"/><path d="M26.125 11.265v-.005h-.663V9.766a2.652 2.652 0 0 0-2.645-2.645H11.152a2.652 2.652 0 0 0-2.645 2.645v1.494h-.584c-.853 0-1.543.69-1.543 1.543v2.383c0 .853.69 1.543 1.543 1.543h.584v7.396c0 .656.536 1.192 1.192 1.192h.695v1.718c0 .466.378.843.843.843h1.716a.843.843 0 0 0 .843-.843v-1.718h6.376v1.716c0 .467.378.845.845.845h1.713a.845.845 0 0 0 .845-.845v-1.716h.695c.656 0 1.192-.536 1.192-1.192v-7.396h.663v-.005a1.54 1.54 0 0 0 1.495-1.538v-2.383a1.54 1.54 0 0 0-1.495-1.538ZM13.524 8.723h6.921c.44 0 .801.36.801.801s-.36.801-.801.801h-6.921c-.44 0-.801-.36-.801-.801s.361-.801.801-.801ZM11.905 23.2a1.338 1.338 0 1 1 0-2.676 1.338 1.338 0 0 1 0 2.676Zm10.159 0a1.338 1.338 0 1 1 0-2.676 1.338 1.338 0 0 1 0 2.676Zm1.682-6.386a2.093 2.093 0 0 1-2.087 2.087H12.31a2.093 2.093 0 0 1-2.087-2.087v-4.232c0-.44.36-.801.801-.801h11.923c.44 0 .801.36.801.801v4.232h-.002Z" style="fill:#fff"/></svg>