<?xml version="1.0" encoding="UTF-8"?><svg id="Ebene_2" xmlns="http://www.w3.org/2000/svg" viewBox="0 0 34 34"><defs><style>.cls-1{fill:#fff;}.cls-2{fill:#adadad;}</style></defs><g id="Ebene_1-2"><circle class="cls-2" cx="17" cy="17" r="17"/><path class="cls-1" d="M21.036,17.7l-.074-.496s-.162-1.258-1.426-.61c-1.36,.697-1.738,.79-1.738,.79l.393-4.227,.776-1.37c2.667-4.823,2.667-5.518,1.471-6.854-2.03,4.016-3.477,5.715-4.173,6.968l-3.418,.351-2.826,1.263c-.573-.769-1.442-2.206-3.187-4.535-1.298,1.814-1.548,1.525,2.395,6.844l3.025-.969,.925,5.127-2.212,4.04c-2.05,3.483-1.714,3.48-.465,4.916,.978-1.602,1.645-2.69,2.131-3.483l2.267-3.329,4.237-2.626c.166,.94,.433,2.388,.975,5.394,1.973-1.041,2.068-.67,.926-7.191l-.002-.003Zm5.983-9.531c.035,3.865-.672,6.506-2.102,7.849-1.163,1.094-2.5,.995-3.001,.961l-.054,.748c.118,.009,.288,.021,.497,.021,.744,0,1.977-.154,3.071-1.183,1.589-1.492,2.375-4.319,2.338-8.401l-.749,.005ZM14.278,30.78h.548v-6.719h-.548v6.719Zm-.348-20.005c1.139,0,2.063-.923,2.063-2.062s-.923-2.063-2.063-2.063-2.062,.923-2.062,2.063,.923,2.062,2.062,2.062Z"/></g></svg>