<?xml version="1.0" encoding="UTF-8"?><svg id="Ebene_2" xmlns="http://www.w3.org/2000/svg" viewBox="0 0 34 34"><defs><style>.cls-1{fill:#fff;}.cls-2{fill:#c1121c;}.cls-3{fill:#adadad;}</style></defs><g id="Ebene_1-2"><circle class="cls-3" cx="17" cy="17" r="17"/><g id="g25527"><path id="path25529" class="cls-1" d="M29,20.149c-.426,2.401-2.719,4.003-5.12,3.576-2.109-.376-3.644-2.208-3.644-4.348v-3.754c0-2.439,1.976-4.416,4.416-4.416,2.14,0,3.974,1.536,4.348,3.643h-1.93c-.426-1.335-1.855-2.072-3.19-1.646-1.053,.337-1.767,1.315-1.767,2.42v3.754c0,1.402,1.137,2.539,2.539,2.539,1.105,0,2.084-.714,2.418-1.767h1.93Zm-20.909,3.532l-3.091-12.365h1.988l1.988,8.832,2.428-8.832h1.324l2.428,8.832,1.988-8.832h1.988l-3.091,12.366h-1.656l-2.318-8.942-2.319,8.942h-1.657Z"/></g><polygon class="cls-2" points="1.398 34 0 32.57 32.602 0 34 1.43 1.398 34"/></g></svg>