<?xml version="1.0" encoding="UTF-8"?><svg id="Ebene_2" xmlns="http://www.w3.org/2000/svg" viewBox="0 0 34 34"><defs><style>.cls-1{fill:#fff;}.cls-2{fill:#c1121c;}.cls-3{fill:#adadad;}</style></defs><g id="Ebene_1-2"><circle class="cls-3" cx="17" cy="17" r="17"/><path class="cls-1" d="M16.591,22.527c-1.093,0-1.876,.756-1.876,1.819,0,1.093,.783,1.876,1.876,1.876,1.119,0,1.903-.783,1.903-1.876,0-1.063-.784-1.819-1.903-1.819Zm.363-17.248c-3.976,0-6.916,2.688-7.336,6.412l3.08,.588c.28-2.408,1.904-4.2,4.172-4.2,2.017,0,3.557,1.428,3.557,3.304,0,1.513-1.177,2.38-2.464,3.276-1.792,1.26-2.828,2.66-2.828,5.768h2.939c0-2.184,.7-3.136,2.24-4.116,1.96-1.26,3.444-2.491,3.444-5.067,.001-3.473-2.968-5.965-6.804-5.965Zm9.045,19.206c-.468,0-.804,.324-.804,.78,0,.468,.336,.803,.804,.803,.479,0,.815-.335,.815-.803,0-.455-.335-.78-.815-.78Zm.156-7.387c-1.703,0-2.963,1.151-3.143,2.746l1.319,.252c.12-1.031,.815-1.799,1.787-1.799,.863,0,1.523,.612,1.523,1.415,0,.648-.504,1.02-1.056,1.403-.768,.54-1.212,1.14-1.212,2.471h1.26c0-.936,.3-1.343,.959-1.763,.84-.54,1.476-1.067,1.476-2.171,0-1.487-1.27-2.554-2.913-2.554ZM7.846,24.485c-.468,0-.804,.324-.804,.78,0,.468,.336,.803,.804,.803,.479,0,.815-.335,.815-.803,0-.455-.336-.78-.815-.78Zm.156-7.387c-1.703,0-2.963,1.151-3.143,2.746l1.319,.252c.12-1.031,.815-1.799,1.787-1.799,.863,0,1.523,.612,1.523,1.415,0,.648-.504,1.02-1.056,1.403-.768,.54-1.212,1.14-1.212,2.471h1.26c0-.936,.3-1.343,.959-1.763,.84-.54,1.476-1.067,1.476-2.171,.001-1.487-1.27-2.554-2.913-2.554Z"/><polygon class="cls-2" points="1.398 34 0 32.57 32.602 0 34 1.43 1.398 34"/></g></svg>