<?xml version="1.0" encoding="UTF-8"?><svg id="Ebene_2" xmlns="http://www.w3.org/2000/svg" viewBox="0 0 34 34"><defs><style>.cls-1{fill:#fff;}.cls-2{fill:#c1121c;}.cls-3{fill:#adadad;}</style></defs><g id="Ebene_2-2"><circle class="cls-3" cx="17" cy="17" r="17"/><path class="cls-1" d="M20.165,19.767c-1.142,0-2.074,.932-2.074,2.074s.932,2.059,2.074,2.059,2.074-.932,2.074-2.074-.932-2.059-2.074-2.059Zm5.26-1.998h-1.443l-.796-1.202c-.301-.451-.827-.721-1.368-.721h-3.306c-.541,0-1.067,.271-1.368,.721l-.796,1.202h-1.443c-.917,0-1.653,.736-1.653,1.653v5.831c0,.917,.736,1.653,1.653,1.653h10.52c.917,0,1.653-.736,1.653-1.653v-5.831c0-.917-.736-1.653-1.653-1.653Zm-5.26,7.784c-2.059,0-3.727-1.668-3.727-3.727s1.668-3.712,3.727-3.712,3.727,1.668,3.727,3.727c0,2.044-1.668,3.712-3.727,3.712ZM9.633,6.149c-.582,0-1.055,.472-1.055,1.055v15.467c0,.583,.472,1.055,1.055,1.055s1.055-.472,1.055-1.055V7.203c-.001-.582-.473-1.054-1.055-1.054Zm1.958,1.201v6.995l6.803-3.498s-6.803-3.497-6.803-3.497Z"/><polygon class="cls-2" points="1.398 34 0 32.57 32.602 0 34 1.43 1.398 34"/></g></svg>