<?xml version="1.0" encoding="UTF-8"?><svg id="Ebene_2" xmlns="http://www.w3.org/2000/svg" viewBox="0 0 34 34"><defs><style>.cls-1{fill:#fff;}.cls-2{fill:#c1121c;}.cls-3{fill:#adadad;}</style></defs><g id="Ebene_1-2"><circle class="cls-3" cx="17" cy="17" r="17"/><path class="cls-1" d="M21.603,19.318c-.11-.108-.242-.171-.38-.213-.14-.095-.296-.171-.47-.213l-4.914-1.196c-.057-.013-.113-.016-.169-.023l-4.089-7.117c-.005-.01-.009-.017-.009-.017,0,0-2.626-.005-5.832-3.65,0,0,1.284,4.018,3.459,4.439l.249,.435-.006,.003,4.049,7.047c.022,.064,.053,.135,.101,.219,.439,.777,.809,1.775,2.814,2.291,.068,.018,.144,.038,.215,.056,1.887,.534,4.922,1.411,6.008,1.725,.147,.044,.256,.077,.319,.096l3.702,3.652c.177,.175,.408,.263,.639,.263,.235,0,.47-.091,.647-.271,.354-.357,.35-.934-.009-1.286l-6.324-6.24Zm3.513-2.571c-1.145,0-2.074,.928-2.074,2.074s.928,2.074,2.074,2.074c.483,0,.922-.172,1.274-.449l1.042,.432,.828-1.995-1.11-.461c-.186-.954-1.025-1.675-2.034-1.675Zm.641-1.853c.621,0,1.126-.505,1.126-1.126s-.505-1.125-1.126-1.125-1.125,.505-1.125,1.125,.505,1.126,1.125,1.126Zm0-1.796c.37,0,.671,.301,.671,.67s-.301,.671-.671,.671-.67-.301-.67-.671,.301-.67,.67-.67Zm-2.906-.532c.816,0,1.481-.665,1.481-1.481s-.665-1.481-1.481-1.481-1.481,.665-1.481,1.481,.664,1.481,1.481,1.481Zm0-2.507c.566,0,1.026,.46,1.026,1.026s-.46,1.026-1.026,1.026-1.026-.46-1.026-1.026,.459-1.026,1.026-1.026Zm0-1.737c.616,0,1.118-.502,1.118-1.118s-.502-1.119-1.118-1.119-1.119,.502-1.119,1.119c0,.616,.501,1.118,1.119,1.118Zm0-1.882c.421,0,.763,.343,.763,.764s-.342,.763-.763,.763-.764-.342-.764-.763,.343-.764,.764-.764Zm-4.542,10.829l2.487,.562c.085,.02,.169,.028,.252,.028,.52,0,.989-.358,1.108-.887,.139-.613-.246-1.222-.858-1.36l-.516-.117v-.005s-3.511-.794-3.511-.794l-.502,2.219,1.514,.342c.01,.003,.016,.009,.026,.012Z"/><polygon class="cls-2" points="1.398 34 0 32.57 32.602 0 34 1.43 1.398 34"/></g></svg>