<svg xmlns="http://www.w3.org/2000/svg" viewBox="0 0 34 34"><circle cx="17" cy="17" r="17" style="fill:#adadad"/><path d="M21.603 19.318a.9.9 0 0 0-.38-.213 1.436 1.436 0 0 0-.47-.213l-4.914-1.196c-.057-.013-.113-.016-.169-.023l-4.089-7.117-.009-.017s-2.626-.005-5.832-3.65c0 0 1.284 4.018 3.459 4.439l.249.435-.006.003 4.049 7.047c.022.064.053.135.101.219.439.777.809 1.775 2.814 2.291l.215.056c1.887.534 4.922 1.411 6.008 1.725l.319.096 3.702 3.652a.907.907 0 0 0 1.286-.008.907.907 0 0 0-.009-1.286l-6.324-6.24Zm3.513-2.571a2.074 2.074 0 1 0 0 4.148c.483 0 .922-.172 1.274-.449l1.042.432.828-1.995-1.11-.461a2.073 2.073 0 0 0-2.034-1.675Zm.641-1.853a1.126 1.126 0 1 0-1.125-1.126c0 .62.505 1.126 1.125 1.126Zm0-1.796a.672.672 0 0 1 0 1.341.67.67 0 0 1 0-1.341Zm-2.906-.532c.816 0 1.481-.665 1.481-1.481s-.665-1.481-1.481-1.481-1.481.665-1.481 1.481.664 1.481 1.481 1.481Zm0-2.507a1.027 1.027 0 1 1-.002 2.054 1.027 1.027 0 0 1 .002-2.054Zm0-1.737c.616 0 1.118-.502 1.118-1.118s-.502-1.119-1.118-1.119-1.119.502-1.119 1.119a1.12 1.12 0 0 0 1.119 1.118Zm0-1.882a.764.764 0 1 1-.003 1.529.764.764 0 0 1 .003-1.529Zm-4.542 10.829 2.487.562a1.136 1.136 0 1 0 .502-2.219l-.516-.117v-.005l-3.511-.794-.502 2.219 1.514.342c.01.003.016.009.026.012Z" style="fill:#fff"/><path d="M1.398 34 0 32.57 32.602 0 34 1.43 1.398 34z" style="fill:#c1121c"/></svg>