<svg xmlns="http://www.w3.org/2000/svg" viewBox="0 0 34 34"><circle cx="17" cy="17" r="17" style="fill:#adadad"/><path d="m27.007 21.829-2.227-1.286 2.365-1.01a.857.857 0 0 0-.673-1.577l-3.547 1.515L18.643 17l4.282-2.472 3.547 1.515a.857.857 0 1 0 .673-1.577l-2.365-1.01 2.227-1.286a.858.858 0 0 0-.857-1.485l-2.227 1.286.308-2.553a.856.856 0 0 0-.749-.953.857.857 0 0 0-.954.748l-.461 3.829-4.287 2.479-.003-4.951 3.086-2.314a.857.857 0 1 0-1.029-1.371l-2.049 1.543V5.857c.002-.473-.382-.857-.855-.857s-.857.384-.857.857v2.571l-2.057-1.543a.857.857 0 1 0-1.029 1.371h.001l3.086 2.314v4.944l-4.282-2.472-.461-3.829a.857.857 0 1 0-1.702.206l.308 2.553-2.227-1.286a.857.857 0 1 0-.859 1.485l2.227 1.286-2.365 1.01a.857.857 0 1 0 .673 1.577l3.547-1.515 4.29 2.473-4.286 2.478-3.547-1.515a.857.857 0 1 0-.673 1.577l2.36 1.003-2.226 1.284a.857.857 0 1 0 .857 1.485l2.227-1.286-.308 2.553a.857.857 0 1 0 1.702.206s.461-3.83.461-3.83l4.282-2.472v4.944l-3.086 2.314a.857.857 0 1 0 1.029 1.371l2.057-1.543v2.571a.857.857 0 0 0 1.714 0v-2.571l2.057 1.543a.858.858 0 0 0 1.029-1.372l-3.086-2.314-.003-4.952 4.289 2.472.461 3.829a.857.857 0 1 0 1.702-.206l-.312-2.546 2.227 1.286a.857.857 0 0 0 .858-1.482Z" style="fill:#fff"/></svg>