<?xml version="1.0" encoding="UTF-8"?><svg id="Ebene_2" xmlns="http://www.w3.org/2000/svg" viewBox="0 0 34 34"><defs><style>.cls-1{fill:#fff;}.cls-2{fill:#adadad;}</style></defs><g id="Ebene_1-2"><circle class="cls-2" cx="17" cy="17" r="17"/><path class="cls-1" d="M27.007,21.829l-2.227-1.286,2.365-1.01c.435-.186,.638-.689,.452-1.125-.186-.435-.689-.638-1.125-.452h0l-3.547,1.515-4.282-2.471,4.282-2.472,3.547,1.515c.435,.186,.939-.016,1.125-.452,.186-.435-.016-.939-.452-1.125l-2.365-1.01,2.227-1.286c.41-.237,.55-.761,.314-1.171-.237-.41-.761-.55-1.171-.314l-2.227,1.286,.308-2.553c.022-.184-.016-.371-.109-.531-.135-.234-.372-.39-.64-.422-.47-.057-.897,.278-.954,.748l-.461,3.829-4.287,2.479-.003-4.951,3.086-2.314c.379-.284,.455-.821,.171-1.2-.284-.379-.821-.455-1.2-.171l-2.049,1.543v-2.571c.002-.473-.382-.857-.855-.857s-.857,.384-.857,.857v2.571l-2.057-1.543c-.379-.284-.916-.208-1.2,.171-.284,.379-.208,.916,.171,1.2h.001l3.086,2.314v4.944l-4.282-2.472-.461-3.829c-.057-.47-.484-.805-.954-.748s-.805,.484-.748,.954l.308,2.553-2.227-1.286c-.412-.236-.936-.096-1.173,.314-.237,.41-.096,.934,.314,1.171l2.227,1.286-2.365,1.01c-.171,.073-.313,.199-.406,.36-.135,.234-.152,.517-.046,.765,.186,.435,.69,.637,1.125,.452l3.547-1.515,4.29,2.473-4.286,2.478-3.547-1.515c-.435-.186-.939,.016-1.125,.452-.186,.435,.016,.939,.452,1.125l2.36,1.003-2.226,1.284c-.41,.237-.551,.761-.314,1.171s.761,.55,1.171,.314l2.227-1.286-.308,2.553c-.057,.47,.278,.897,.748,.954,.47,.057,.897-.278,.954-.748h0s.461-3.83,.461-3.83l4.282-2.472v4.944l-3.086,2.314c-.379,.284-.455,.821-.171,1.2,.284,.379,.821,.455,1.2,.171l2.057-1.543v2.571c0,.473,.384,.857,.857,.857s.857-.384,.857-.857v-2.571l2.057,1.543c.148,.111,.329,.171,.514,.171,.27,0,.524-.127,.686-.343,.284-.379,.207-.916-.171-1.2l-3.086-2.314-.003-4.952,4.289,2.472,.461,3.829c.057,.47,.484,.805,.954,.748,.47-.057,.805-.484,.748-.954l-.312-2.546,2.227,1.286c.41,.237,.934,.096,1.171-.314,.237-.407,.097-.931-.313-1.168Z"/></g></svg>