<?xml version="1.0" encoding="UTF-8"?><svg id="Ebene_2" xmlns="http://www.w3.org/2000/svg" viewBox="0 0 34 34"><defs><style>.cls-1{fill:#fff;}.cls-2{fill:#039;}.cls-3{fill:none;}</style></defs><g id="Ebene_1-2"><circle class="cls-2" cx="17" cy="17" r="17"/><g><path class="cls-3" d="M16.649,6.48c.186-1.009,1.153-1.673,2.159-1.487,1.007,.186,1.672,1.151,1.485,2.16-.186,1.006-1.151,1.672-2.159,1.485-1.005-.185-1.671-1.152-1.485-2.158Z"/><polygon class="cls-3" points="15.46 17.33 15.445 17.327 14.984 22.891 12.246 27.36 19.016 25.769 18.202 21.205 15.46 17.33"/><path class="cls-1" d="M18.135,8.639c1.007,.186,1.973-.479,2.159-1.485,.186-1.009-.478-1.974-1.485-2.16-1.005-.186-1.972,.478-2.159,1.487-.187,1.005,.479,1.972,1.485,2.158Z"/><path class="cls-1" d="M20.674,25.379l-.865-4.846-2.324-3.284,.917-4.962,3.164,3.457,.718,.606c.432,.12,.88-.126,1.004-.557,.077-.271,.008-.563-.182-.771l-4.721-5.155c-.729-.795-1.911-.984-2.85-.452l-3.007,1.704c-.358,.201-.608,.552-.682,.955l-.357,1.932c-.163,.88,.42,1.725,1.3,1.888l.631-3.418,1.315-.745-.976,5.285,.023,.004c-.005,.029-.021,.052-.023,.082l-.435,5.246s-3.411,5.473-3.431,5.565l-1.257,.295c.44,.329,.896,.634,1.374,.91l18.656-4.384c.303-.456,.571-.934,.82-1.425l-8.812,2.07Zm-8.428,1.981l2.738-4.469,.461-5.564,.015,.003,2.742,3.875,.814,4.564-6.77,1.591Z"/></g></g></svg>