<svg xmlns="http://www.w3.org/2000/svg" id="Ebene_2" viewBox="0 0 34 34"><defs><style>.cls-1{fill:#fff}.cls-4{fill:none}</style></defs><g id="Ebene_1-2"><circle cx="17" cy="17" r="17" style="fill:#adadad"/><path d="M16.649 6.48a1.852 1.852 0 1 1 3.644.673 1.853 1.853 0 0 1-3.644-.673ZM15.46 17.33l-.015-.003-.461 5.564-2.738 4.469 6.77-1.591-.814-4.564-2.742-3.875z" class="cls-4"/><path d="M18.135 8.639a1.853 1.853 0 1 0 .674-3.644 1.853 1.853 0 0 0-.674 3.644ZM20.674 25.379l-.865-4.846-2.324-3.284.917-4.962 3.164 3.457.718.606a.814.814 0 0 0 1.004-.557.814.814 0 0 0-.182-.771l-4.721-5.155a2.318 2.318 0 0 0-2.85-.452l-3.007 1.704a1.383 1.383 0 0 0-.682.955l-.357 1.932c-.163.88.42 1.725 1.3 1.888l.631-3.418 1.315-.745-.976 5.285.023.004c-.005.029-.021.052-.023.082l-.435 5.246s-3.411 5.473-3.431 5.565l-1.257.295c.44.329.896.634 1.374.91l18.656-4.384c.303-.456.571-.934.82-1.425l-8.812 2.07Zm-8.428 1.981 2.738-4.469.461-5.564.015.003 2.742 3.875.814 4.564-6.77 1.591Z" class="cls-1"/><path d="M1.398 34 0 32.57 32.602 0 34 1.43 1.398 34z" style="fill:#c1121c"/></g></svg>