<?xml version="1.0" encoding="UTF-8"?><svg id="Ebene_2" xmlns="http://www.w3.org/2000/svg" viewBox="0 0 34 34"><defs><style>.cls-1{fill:#fff;}.cls-2{fill:#c1121c;}.cls-3{fill:#adadad;}.cls-4{fill:none;}</style></defs><g id="Ebene_1-2"><circle class="cls-3" cx="17" cy="17" r="17"/><path class="cls-4" d="M22.331,19.253c-.561,0-1.017,.455-1.017,1.017s.456,1.017,1.017,1.017,1.017-.456,1.017-1.017-.455-1.017-1.017-1.017Z"/><path class="cls-4" d="M18.556,25.629c-3.052,0-5.718-1.608-7.202-2.984l-4.037,1.939,1.767-3.654-2.084-3.652,4.354,1.939c1.484-1.376,4.149-2.984,7.202-2.984,4.664,0,8.444,3.758,8.444,4.698s-3.781,4.698-8.444,4.698Z"/><path class="cls-1" d="M29.162,10.083c-.333-.304-.783-.595-1.482-.595-.926,0-1.415,.512-1.772,.886-.332,.348-.51,.515-.904,.515s-.572-.168-.904-.516c-.356-.373-.846-.885-1.771-.885s-1.415,.512-1.772,.886c-.332,.348-.51,.515-.904,.515-.396,0-.573-.168-.905-.516-.357-.373-.847-.885-1.772-.885s-1.414,.512-1.771,.886c-.332,.348-.509,.515-.903,.515-.396,0-.572-.168-.905-.515-.357-.374-.847-.886-1.773-.886s-1.415,.512-1.772,.885c-.332,.348-.51,.516-.905,.516s-.573-.168-.906-.516c-.357-.373-.847-.885-1.772-.885-.635,0-1.056,.244-1.379,.516-.375,.648-.697,1.329-.966,2.038,.704-.109,1.13-.516,1.439-.838,.333-.348,.51-.516,.905-.516s.572,.168,.905,.515c.357,.374,.847,.886,1.773,.886s1.415-.512,1.772-.885c.332-.348,.51-.516,.905-.516s.573,.168,.906,.516c.357,.373,.847,.885,1.772,.885s1.414-.512,1.771-.886c.332-.348,.509-.515,.903-.515,.396,0,.573,.168,.905,.516,.357,.373,.847,.885,1.772,.885s1.414-.512,1.771-.885c.332-.348,.51-.516,.905-.516s.571,.167,.903,.515c.356,.374,.846,.886,1.771,.886s1.414-.512,1.771-.885c.332-.348,.51-.516,.905-.516s.573,.168,.906,.516c.317,.331,.758,.751,1.496,.846-.256-.683-.561-1.341-.918-1.967Zm-10.606,6.15c-3.052,0-5.718,1.608-7.202,2.984l-4.354-1.939,2.083,3.653-1.767,3.654,4.037-1.939c1.484,1.376,4.15,2.984,7.202,2.984,4.664,0,8.444-3.758,8.444-4.698,0-.94-3.78-4.699-8.443-4.699Zm3.775,5.054c-.561,0-1.017-.456-1.017-1.017s.456-1.017,1.017-1.017,1.017,.455,1.017,1.017-.456,1.017-1.017,1.017Z"/><polygon class="cls-2" points="1.398 34 0 32.57 32.602 0 34 1.43 1.398 34"/></g></svg>