<?xml version="1.0" encoding="UTF-8"?><svg id="Ebene_2" xmlns="http://www.w3.org/2000/svg" viewBox="0 0 34 34"><defs><style>.cls-1{fill:#fff;}.cls-2{fill:#039;}.cls-3{fill:none;}</style></defs><g id="Ebene_1-2"><circle class="cls-2" cx="17" cy="17" r="17"/><g><path class="cls-3" d="M27.648,15.304c.72,1.471,.112,3.248-1.36,3.968-1.471,.72-3.248,.112-3.968-1.36-.72-1.471-.112-3.248,1.36-3.968s3.248-.111,3.968,1.36Zm-12.453-2.403l-.99-2.023c-.21-.43,.02-.945,.48-1.075l8.654-2.481c.239-.068,.481-.076,.71-.033,.564,.106,1.049,.52,1.215,1.11,.234,.829-.248,1.691-1.077,1.925l-5.94,1.714,4.536,9.189c-.241-.134-.528-.234-.904-.234-.833,0-1.273,.46-1.595,.796-.299,.313-.459,.463-.814,.463s-.516-.15-.815-.463c-.322-.337-.762-.796-1.595-.796s-1.273,.461-1.593,.796c-.299,.313-.458,.463-.813,.463s-.516-.15-.815-.463c-.322-.337-.762-.796-1.596-.796s-1.274,.46-1.595,.796c-.299,.313-.459,.463-.815,.463s-.516-.15-.815-.463c-.225-.235-.517-.523-.952-.68l8.38-5.654-1.251-2.554Z"/><path class="cls-1" d="M28.291,23.59c-.322-.337-.763-.796-1.596-.796s-1.273,.46-1.595,.796c-.299,.313-.459,.463-.814,.463s-.514-.15-.813-.463c-.321-.336-.761-.796-1.594-.796s-1.273,.46-1.595,.796c-.299,.313-.459,.463-.814,.463s-.516-.15-.815-.463c-.322-.337-.762-.796-1.595-.796s-1.273,.461-1.593,.796c-.299,.313-.458,.463-.813,.463s-.516-.15-.815-.463c-.322-.337-.762-.796-1.596-.796s-1.274,.46-1.595,.796c-.299,.313-.459,.463-.815,.463s-.516-.15-.815-.463c-.322-.337-.762-.796-1.596-.796s-1.274,.46-1.595,.796c-.299,.313-.459,.463-.815,.463-.037,0-.065-.009-.098-.012,.203,.348,.417,.687,.649,1.015,.493-.144,.803-.467,1.045-.72,.299-.313,.459-.463,.815-.463s.516,.151,.816,.464c.322,.336,.762,.795,1.595,.795s1.273-.46,1.595-.796c.299-.313,.459-.463,.815-.463s.516,.151,.816,.464c.322,.336,.762,.795,1.595,.795s1.273-.461,1.593-.796c.299-.313,.458-.463,.813-.463s.516,.15,.815,.463c.322,.337,.762,.796,1.595,.796s1.273-.46,1.594-.796c.299-.313,.459-.463,.815-.463s.515,.15,.814,.463c.321,.337,.761,.796,1.593,.796s1.273-.46,1.594-.796c.299-.313,.459-.463,.815-.463s.516,.15,.816,.463c.226,.236,.519,.525,.956,.681,.219-.313,.421-.637,.614-.967-.338-.008-.499-.155-.791-.46Z"/><path class="cls-1" d="M23.68,13.944c-1.471,.72-2.08,2.497-1.36,3.968s2.497,2.08,3.968,1.36,2.08-2.497,1.36-3.968c-.72-1.471-2.496-2.08-3.968-1.36Z"/><path class="cls-1" d="M9.018,21.79c.299,.313,.459,.463,.815,.463s.516-.15,.815-.463c.322-.337,.762-.796,1.595-.796s1.274,.46,1.596,.796c.299,.313,.459,.463,.815,.463s.514-.15,.813-.463c.321-.336,.761-.796,1.593-.796s1.274,.46,1.595,.796c.299,.313,.459,.463,.815,.463s.515-.15,.814-.463c.322-.337,.762-.796,1.595-.796,.376,0,.663,.1,.904,.234l-4.536-9.189,5.94-1.714c.829-.234,1.311-1.096,1.077-1.925-.167-.59-.651-1.004-1.215-1.11-.229-.043-.471-.035-.71,.033l-8.654,2.481c-.46,.13-.691,.645-.48,1.075l.99,2.023,1.251,2.555-8.38,5.654c.435,.156,.727,.444,.952,.679Z"/></g></g></svg>