<svg xmlns="http://www.w3.org/2000/svg" id="Ebene_2" viewBox="0 0 34 34"><defs><style>.cls-1{fill:#fff}</style></defs><g id="Ebene_1-2"><circle cx="17" cy="17" r="17" style="fill:#adadad"/><path d="M27.648 15.304a2.966 2.966 0 1 1-5.327 2.608 2.966 2.966 0 0 1 5.327-2.608Zm-12.453-2.403-.99-2.023a.767.767 0 0 1 .48-1.075l8.654-2.481a1.56 1.56 0 1 1 .848 3.002l-5.94 1.714 4.536 9.189a1.797 1.797 0 0 0-.904-.234c-.833 0-1.273.46-1.595.796-.299.313-.459.463-.814.463s-.516-.15-.815-.463c-.322-.337-.762-.796-1.595-.796s-1.273.461-1.593.796c-.299.313-.458.463-.813.463s-.516-.15-.815-.463c-.322-.337-.762-.796-1.596-.796s-1.274.46-1.595.796c-.299.313-.459.463-.815.463s-.516-.15-.815-.463c-.225-.235-.517-.523-.952-.68l8.38-5.654-1.251-2.554Z" style="fill:none"/><path d="M28.291 23.59c-.322-.337-.763-.796-1.596-.796s-1.273.46-1.595.796c-.299.313-.459.463-.814.463s-.514-.15-.813-.463c-.321-.336-.761-.796-1.594-.796s-1.273.46-1.595.796c-.299.313-.459.463-.814.463s-.516-.15-.815-.463c-.322-.337-.762-.796-1.595-.796s-1.273.461-1.593.796c-.299.313-.458.463-.813.463s-.516-.15-.815-.463c-.322-.337-.762-.796-1.596-.796s-1.274.46-1.595.796c-.299.313-.459.463-.815.463s-.516-.15-.815-.463c-.322-.337-.762-.796-1.596-.796s-1.274.46-1.595.796c-.299.313-.459.463-.815.463-.037 0-.065-.009-.098-.012.203.348.417.687.649 1.015.493-.144.803-.467 1.045-.72.299-.313.459-.463.815-.463s.516.151.816.464c.322.336.762.795 1.595.795s1.273-.46 1.595-.796c.299-.313.459-.463.815-.463s.516.151.816.464c.322.336.762.795 1.595.795s1.273-.461 1.593-.796c.299-.313.458-.463.813-.463s.516.15.815.463c.322.337.762.796 1.595.796s1.273-.46 1.594-.796c.299-.313.459-.463.815-.463s.515.15.814.463c.321.337.761.796 1.593.796s1.273-.46 1.594-.796c.299-.313.459-.463.815-.463s.516.15.816.463c.226.236.519.525.956.681.219-.313.421-.637.614-.967-.338-.008-.499-.155-.791-.46ZM23.68 13.944a2.966 2.966 0 1 0 2.61 5.328 2.966 2.966 0 0 0-2.61-5.328Z" class="cls-1"/><path d="M9.018 21.79c.299.313.459.463.815.463s.516-.15.815-.463c.322-.337.762-.796 1.595-.796s1.274.46 1.596.796c.299.313.459.463.815.463s.514-.15.813-.463c.321-.336.761-.796 1.593-.796s1.274.46 1.595.796c.299.313.459.463.815.463s.515-.15.814-.463c.322-.337.762-.796 1.595-.796.376 0 .663.1.904.234l-4.536-9.189 5.94-1.714a1.56 1.56 0 0 0-.848-3.002l-8.654 2.481a.766.766 0 0 0-.48 1.075l.99 2.023 1.251 2.555-8.38 5.654c.435.156.727.444.952.679Z" class="cls-1"/></g></svg>