<?xml version="1.0" encoding="UTF-8"?><svg id="Ebene_2" xmlns="http://www.w3.org/2000/svg" viewBox="0 0 39 34"><defs><style>.cls-1{fill:#fff;}.cls-2{fill:#adadad;fill-rule:evenodd;}.cls-3{fill:#c1121c;}</style></defs><g id="Ebene_1-2"><path id="path5502" class="cls-2" d="M19.5,0c-.42-.003-.882,.211-1.108,.611L.151,32.094c-.105,.214-.15,.4-.151,.613,0,.382,.17,.744,.463,.989,.258,.2,.503,.304,.833,.304H37.739c.222,.002,.445-.051,.647-.184,.381-.229,.614-.639,.614-1.083-.011-.229-.067-.47-.17-.64L20.599,.606s-.003-.006-.005-.008c-.002-.003-.004-.006-.006-.009-.065-.103-.146-.194-.238-.272-.212-.183-.477-.292-.756-.312-.031-.003-.063-.005-.094-.005ZM1.296,34h0Z"/><polygon class="cls-1" points="19.481 6.24 33.383 30.24 5.56 30.24 19.481 6.24"/><polygon class="cls-2" points="20.02 22.098 20.02 19.041 23.728 14.977 20.02 16.494 20.02 13.384 18.974 13.384 18.974 19.306 15.242 17.779 18.974 21.868 18.974 24.909 15.242 23.382 18.974 27.472 18.974 28.59 20.02 28.59 20.02 24.644 23.728 20.58 20.02 22.098"/><polygon class="cls-3" points="4.398 34 3 32.57 35.602 0 37 1.43 4.398 34"/></g></svg>