<?xml version="1.0" encoding="UTF-8"?><svg id="Ebene_2" xmlns="http://www.w3.org/2000/svg" viewBox="0 0 39 34"><defs><style>.cls-1{fill:#fff;}.cls-2{fill:#adadad;fill-rule:evenodd;}.cls-3{fill:#c1121c;}</style></defs><g id="Ebene_1-2"><path id="path5502" class="cls-2" d="M19.5,0c-.42-.003-.882,.211-1.108,.611L.151,32.094c-.105,.214-.15,.4-.151,.613,0,.382,.17,.744,.463,.989,.258,.2,.503,.304,.833,.304H37.739c.222,.002,.445-.051,.647-.184,.381-.229,.614-.639,.614-1.083-.011-.229-.067-.47-.17-.64L20.599,.606s-.003-.006-.005-.008c-.002-.003-.004-.006-.006-.009-.065-.103-.146-.194-.238-.272-.212-.183-.477-.292-.756-.312-.031-.003-.063-.005-.094-.005ZM1.296,34h0Z"/><polygon class="cls-1" points="19.481 6.24 33.383 30.24 5.56 30.24 19.481 6.24"/><path class="cls-2" d="M25.389,24.757c-.736-.444-.736-.777-1.832-2.221-.612-.806-1.11-.991-1.436-1.003-.074-.276-.154-.552-.244-.823,.437,.152,1.038,.532,1.696,.694,.867,.213,2.135-.509,2.135-.509-.629,.124-2.393,.21-3.739-.761-.132-.095-.252-.146-.365-.174-.085-.215-.174-.421-.267-.619,.074-.091,.165-.16,.29-.189,.331-.076,1.213-.485,1.643-1.544,.637-1.567-1.038-3.625-1.038-3.625,0,0,.677,1.651,.623,2.754-.049,.997-.698,1.43-1.813,2.033-.3-.523-.632-.931-.984-1.149-.115-.574-.267-1.366-.267-1.518,0-.243-.321-.337-.321-.337,0,0-.321,.094-.321,.337,0,.155-.158,.975-.273,1.551-.329,.227-.638,.624-.921,1.116-1.115-.603-1.764-1.036-1.813-2.033-.054-1.102,.623-2.754,.623-2.754,0,0-1.675,2.057-1.038,3.625,.43,1.059,1.312,1.468,1.643,1.544,.125,.029,.216,.098,.29,.189-.093,.198-.182,.405-.267,.619-.113,.028-.233,.078-.365,.174-1.346,.971-3.11,.885-3.739,.761,0,0,1.268,.721,2.135,.509,.658-.161,1.259-.542,1.696-.694-.089,.272-.169,.547-.244,.823-.326,.012-.823,.197-1.436,1.003-1.096,1.443-1.096,1.777-1.832,2.221s-.555,1.249-.555,1.638c0,0,.097-.791,.722-1.027s1.624-1.513,1.874-1.971c.198-.363,.679-.77,.969-.755-.089,.454-.151,.882-.185,1.264-.491,.429-1.513,1.451-1.491,2.528,.028,1.416,.458,2.665,.458,2.665,0,0-.125-2.956,.763-3.9,.107-.114,.195-.222,.268-.324,.153,1.95,1.459,3.479,3.067,3.479s2.914-1.529,3.067-3.479c.074,.103,.161,.21,.268,.324,.888,.944,.763,3.9,.763,3.9,0,0,.43-1.249,.458-2.665,.021-1.077-1-2.099-1.491-2.528-.034-.382-.096-.81-.185-1.264,.29-.015,.771,.393,.969,.755,.25,.458,1.249,1.735,1.874,1.971s.722,1.027,.722,1.027c.002-.388,.182-1.193-.554-1.638Z"/><polygon class="cls-3" points="4.398 34 3 32.57 35.602 0 37 1.43 4.398 34"/></g></svg>