<svg xmlns="http://www.w3.org/2000/svg" viewBox="0 0 34 34"><circle cx="17" cy="17" r="17" style="fill:#039"/><path d="M19.721 11.283a.72.72 0 1 0 1.438 0 .72.72 0 0 0-1.438 0Zm3.85.327a.96.96 0 1 0 0-1.921.96.96 0 0 0 0 1.921Zm.165 2.167a.701.701 0 1 0 1.402 0 .701.701 0 0 0-1.402 0Zm1.427 7.003c-3.312 1.209-7.018-.611-8.279-4.064-1.261-3.453.402-7.233 3.714-8.442.494-.18 1.096-.316 1.755-.415C9.813 3.923 10.391 18.352 4.245 19.494a12.91 12.91 0 0 0 1.279 3.584A2.15 2.15 0 0 1 6.093 23c.926 0 1.415.512 1.772.886.333.348.51.515.905.515s.573-.167.906-.515c.358-.375.847-.886 1.773-.886s1.415.512 1.772.886c.333.348.51.515.905.515s.573-.167.905-.515c.358-.375.848-.886 1.773-.886s1.416.512 1.773.886c.333.348.51.515.906.515s.573-.167.905-.515c.358-.375.847-.886 1.773-.886s1.416.512 1.773.885c.333.348.51.515.906.515.394 0 .571-.167.902-.514.357-.374.846-.886 1.771-.886.359 0 .638.09.884.206a12.941 12.941 0 0 0 1.573-5.611c-1.568 1.473-3.408 2.674-4.807 3.185Zm1.448 3.934c-.357.374-.846.886-1.771.886s-1.416-.512-1.773-.886c-.333-.348-.51-.515-.906-.515s-.573.167-.905.515c-.357.374-.847.886-1.772.886s-1.416-.512-1.773-.886c-.333-.348-.51-.515-.906-.515s-.573.167-.905.515c-.357.374-.847.886-1.772.886s-1.416-.512-1.772-.886c-.333-.348-.51-.515-.905-.515s-.573.167-.906.515c-.357.374-.847.886-1.773.886S7.357 25.088 7 24.714c-.298-.311-.479-.47-.796-.502C8.532 27.698 12.492 30 17 30s8.447-2.294 10.776-5.768a.997.997 0 0 0-.263-.032c-.394 0-.571.167-.902.514Z" style="fill:#fff"/></svg>