<?xml version="1.0" encoding="UTF-8"?><svg id="Ebene_2" xmlns="http://www.w3.org/2000/svg" viewBox="0 0 34.031 34"><defs><style>.cls-1{fill:#fff;}.cls-2{fill:#c1121c;}.cls-3{fill:#adadad;}</style></defs><g id="Ebene_1-2"><circle class="cls-3" cx="17" cy="17" r="17"/><path class="cls-1" d="M19.721,11.283c0,.397,.322,.719,.719,.719s.719-.322,.719-.719-.322-.719-.719-.719-.719,.322-.719,.719Zm3.85,.327c.531,0,.961-.43,.961-.961s-.43-.961-.961-.961-.961,.43-.961,.961,.431,.961,.961,.961Zm.165,2.167c0,.387,.314,.701,.701,.701s.701-.314,.701-.701-.314-.701-.701-.701-.701,.314-.701,.701Zm1.427,7.003c-3.312,1.209-7.018-.611-8.279-4.064-1.261-3.453,.402-7.233,3.714-8.442,.494-.18,1.096-.316,1.755-.415C9.813,3.923,10.391,18.352,4.245,19.494c.248,1.273,.69,2.474,1.279,3.584,.171-.046,.356-.078,.569-.078,.926,0,1.415,.512,1.772,.886,.333,.348,.51,.515,.905,.515s.573-.167,.906-.515c.358-.375,.847-.886,1.773-.886s1.415,.512,1.772,.886c.333,.348,.51,.515,.905,.515s.573-.167,.905-.515c.358-.375,.848-.886,1.773-.886s1.416,.512,1.773,.886c.333,.348,.51,.515,.906,.515s.573-.167,.905-.515c.358-.375,.847-.886,1.773-.886s1.416,.512,1.773,.885c.333,.348,.51,.515,.906,.515,.394,0,.571-.167,.902-.514,.357-.374,.846-.886,1.771-.886,.359,0,.638,.09,.884,.206,.915-1.682,1.481-3.583,1.573-5.611-1.568,1.473-3.408,2.674-4.807,3.185Zm1.448,3.934c-.357,.374-.846,.886-1.771,.886s-1.416-.512-1.773-.886c-.333-.348-.51-.515-.906-.515s-.573,.167-.905,.515c-.357,.374-.847,.886-1.772,.886s-1.416-.512-1.773-.886c-.333-.348-.51-.515-.906-.515s-.573,.167-.905,.515c-.357,.374-.847,.886-1.772,.886s-1.416-.512-1.772-.886c-.333-.348-.51-.515-.905-.515s-.573,.167-.906,.515c-.357,.374-.847,.886-1.773,.886s-1.415-.512-1.772-.886c-.298-.311-.479-.47-.796-.502,2.328,3.486,6.288,5.788,10.796,5.788s8.447-2.294,10.776-5.768c-.078-.021-.163-.032-.263-.032-.394,0-.571,.167-.902,.514Z"/><polygon class="cls-2" points="1.429 34 .031 32.57 32.633 0 34.031 1.43 1.429 34"/></g></svg>