<svg xmlns="http://www.w3.org/2000/svg" id="Ebene_2" viewBox="0 0 34 34"><defs><style>.cls-1{fill:#fff}</style></defs><g id="Ebene_1-2"><circle cx="17" cy="17" r="17" style="fill:#adadad"/><path id="path1303" d="M16.651 8.259a1.27 1.27 0 0 0-1.27 1.27v8.491c0 .338.135.662.375.901l4.485 3.112a1.27 1.27 0 1 0 1.791-1.801l-4.11-2.74V9.53a1.27 1.27 0 0 0-1.271-1.271Z" class="cls-1"/><path d="M17 5.393c6.4 0 11.607 5.207 11.607 11.607S23.4 28.607 17 28.607 5.393 23.4 5.393 17 10.6 5.393 17 5.393M17 4C9.82 4 4 9.82 4 17s5.82 13 13 13 13-5.82 13-13S24.18 4 17 4Z" class="cls-1"/><path d="M1.398 34 0 32.57 32.602 0 34 1.43 1.398 34z" style="fill:#c1121c"/></g></svg>