<?xml version="1.0" encoding="UTF-8"?><svg id="Ebene_2" xmlns="http://www.w3.org/2000/svg" viewBox="0 0 34 34"><defs><style>.cls-1{fill:#fff;}.cls-2{fill:#039;}</style></defs><g id="Ebene_1-2"><circle class="cls-2" cx="17" cy="17" r="17"/><path id="path1303" class="cls-1" d="M16.651,8.259c-.702,0-1.27,.569-1.27,1.27v8.491c0,.338,.135,.662,.375,.901l4.485,3.112c.497,.495,1.302,.492,1.796-.005,.495-.497,.492-1.302-.005-1.796l-4.11-2.74v-7.962c0-.702-.569-1.271-1.271-1.271Z"/><path class="cls-1" d="M17,5.393c6.4,0,11.607,5.207,11.607,11.607s-5.207,11.607-11.607,11.607-11.607-5.207-11.607-11.607S10.6,5.393,17,5.393m0-1.393c-7.18,0-13,5.82-13,13s5.82,13,13,13,13-5.82,13-13-5.82-13-13-13h0Z"/></g></svg>