<svg xmlns="http://www.w3.org/2000/svg" viewBox="0 0 34 34"><circle cx="17" cy="17" r="17" style="fill:#adadad"/><path d="M10.02 12.658a.532.532 0 0 0 .821.084l.58-.58 3.625 3.625c.329-.302.614-.563.827-.756.082-.075.146-.137.218-.206l-3.666-3.666.53-.53a.53.53 0 0 0 .156-.377c0-.018 0-.036-.003-.054a.532.532 0 0 0-.237-.391L9.788 7.781a.531.531 0 0 0-.668.068L8.063 8.907a.531.531 0 0 0-.068.668l2.025 3.083Zm10.715 4.135c-.406.054-.818.249-1.786 1.314-.431.476-1.176 1.286-2.039 2.22l5.886 5.886a2.09 2.09 0 0 0 1.496.598c.691 0 1.388-.303 1.908-.824l.047-.046c.526-.525.828-1.222.828-1.912 0-.579-.213-1.11-.6-1.497l-5.74-5.739Zm.227-1.003c.568-.018 2.157.024 2.279.015a4.695 4.695 0 0 0 2.966-1.366c1.254-1.254 1.632-3.035 1.177-4.627l-2.455 2.455a.875.875 0 0 1-1.238 0l-.988-.988-.988-.988a.875.875 0 0 1 0-1.238l2.455-2.455c-1.593-.455-3.373-.077-4.627 1.177a4.695 4.695 0 0 0-1.366 2.966c-.009.122.033 1.711.015 2.279-.054.94-.309 1.513-1.659 2.737-1.843 1.671-8.593 7.95-8.593 7.95s-1.53 1.35-.272 2.608 2.608-.272 2.608-.272 6.279-6.75 7.95-8.593c1.223-1.35 1.795-1.605 2.736-1.66Z" style="fill:#fff;fill-rule:evenodd"/><path d="M1.398 34 0 32.57 32.602 0 34 1.43 1.398 34z" style="fill:#c1121c"/></svg>