<?xml version="1.0" encoding="UTF-8"?><svg id="Ebene_2" xmlns="http://www.w3.org/2000/svg" viewBox="0 0 34 34"><defs><style>.cls-1{fill:#fff;fill-rule:evenodd;}.cls-2{fill:#adadad;}</style></defs><g id="Ebene_1-2"><circle class="cls-2" cx="17" cy="17" r="17"/><path class="cls-1" d="M10.02,12.658c.088,.134,.232,.221,.391,.237,.159,.017,.317-.04,.43-.153l.58-.58,3.625,3.625c.329-.302,.614-.563,.827-.756,.082-.075,.146-.137,.218-.206l-3.666-3.666,.53-.53c.101-.1,.156-.236,.156-.377,0-.018,0-.036-.003-.054-.016-.159-.103-.303-.237-.391l-3.083-2.026c-.211-.139-.49-.11-.668,.068l-1.057,1.058c-.178,.178-.207,.458-.068,.668l2.025,3.083Zm10.715,4.135c-.406,.054-.818,.249-1.786,1.314-.431,.476-1.176,1.286-2.039,2.22l5.886,5.886c.386,.386,.918,.599,1.496,.598,.691,0,1.388-.303,1.908-.824l.047-.046c.526-.525,.828-1.222,.828-1.912,0-.579-.213-1.11-.6-1.497l-5.74-5.739Zm.227-1.003c.568-.018,2.157,.024,2.279,.015,1.081-.084,2.139-.539,2.966-1.366,1.254-1.254,1.632-3.035,1.177-4.627l-2.455,2.455c-.342,.342-.896,.342-1.238,0l-.988-.988h0l-.988-.988c-.342-.342-.342-.896,0-1.238l2.455-2.455c-1.593-.455-3.373-.077-4.627,1.177-.827,.827-1.282,1.885-1.366,2.966-.009,.122,.033,1.711,.015,2.279-.054,.94-.309,1.513-1.659,2.737-1.843,1.671-8.593,7.95-8.593,7.95,0,0-1.53,1.35-.272,2.608h0c1.258,1.258,2.608-.272,2.608-.272,0,0,6.279-6.75,7.95-8.593,1.223-1.35,1.795-1.605,2.736-1.66Z"/></g></svg>