<?xml version="1.0" encoding="UTF-8"?><svg id="Ebene_2" xmlns="http://www.w3.org/2000/svg" viewBox="0 0 39 34"><defs><style>.cls-1{fill:#fff;}.cls-2{fill:#c0171d;}</style></defs><g id="Ebene_1-2"><path id="path5502" class="cls-2" d="M19.5,0c-.42-.003-.882,.211-1.108,.611L.151,32.094c-.105,.214-.15,.4-.151,.613,0,.382,.17,.744,.463,.989,.258,.2,.503,.304,.833,.304H37.739c.222,.002,.445-.051,.647-.184,.381-.229,.614-.639,.614-1.083-.011-.229-.067-.47-.17-.64L20.599,.606s-.003-.006-.005-.008c-.002-.003-.004-.006-.006-.009-.065-.103-.146-.194-.238-.272-.212-.183-.477-.292-.756-.312-.031-.003-.063-.005-.094-.005ZM1.296,34h0Z"/><polygon class="cls-1" points="19.481 6.24 33.383 30.24 5.56 30.24 19.481 6.24"/><path id="path3540" d="M20.6,13.577c-.186,.002-.382,.018-.584,.05-1.863,.429-1.464,2.658-1.464,2.658,0,0-.178,.022-.262,.137-.083,.115-.147,.26-.147,.26,0,0-.65-.398-1.445-.166-.932,.272-.827,1.402-.827,1.402,0,0-.48-.052-.804-.042-.324,.011-.87,.314-1.027,.963s.073,1.204,.073,1.204c0,0-.596,.178-.607,.774-.006,.354,.005,.508,.185,.687h-.298l.014,1.049h-1.56c-.377,0-.416,1.124-.416,1.446,0,.792,.124,1.275,.394,1.279l.648,.01c-.47,.873-.011,.009-.468,.872l-1.504-.008v1.224s.549,0,.949,0c.144,.633,.692,1.123,1.373,1.169,.026,.002,.049,.005,.075,.005h-3.957v.628H29.59v-.628h-4.888c.006,0,.013,0,.019,0,.003,0,.005,0,.008,0,.003,0,.006-.003,.01-.005,.667-.04,1.23-.52,1.378-1.169h1.994v-1.216l-2.035-.008v-3.375l.257-.342h.282v-.931h-4.27v1.033l-3.067,.007c0-.011,.002-.022,.002-.034,0-.395-.379-.715-.848-.715s-.849,.32-.849,.715c0,.013,.002,.026,.003,.039l-2.465,.005,.014-1.049h-.338c.052-.173,.19-.389,.322-.571,.251-.346,.541-.661,.608-.607,.192,.155,.679,.23,1.066,.053,.387-.178,.629-.723,.629-.723,0,0,.513,.074,.774-.01,.262-.084,.407-.377,.407-.377,0,0,.23,.292,.544,.366,.314,.073,.921-.042,1.257-.303,.335-.262,.533-.742,.533-.742,0,0,.289,.254,.418,.313,.209,.094,1.434,.258,1.958-.91,.56-1.251-.648-1.957-.648-1.957,0,0,.042-.21,.032-.545,.06-1.221-.796-1.928-2.097-1.915h0Zm-6.207,13.798h.967c.135,.592,.622,1.062,1.242,1.156,.016,.007,.032,.013,.049,.017h-3.675c.007,0,.014,0,.021,0t.002,0h.003c.674-.036,1.242-.52,1.391-1.173h0Zm3.907,0h.967c.144,.633,.692,1.123,1.373,1.169h.016s0,.004,0,.005c-1.125,0-2.442,.011-3.768,0,.683-.026,1.261-.514,1.412-1.174Zm3.909,0h.968c.144,.633,.689,1.123,1.37,1.169,.021,.002,.041,.004,.062,.005-1.231-.009-2.898-.011-3.811,0,.682-.026,1.261-.514,1.411-1.174Z"/></g></svg>