<svg xmlns="http://www.w3.org/2000/svg" id="Ebene_2" viewBox="0 0 39 34"><defs><style>.cls-2{fill:#adadad;fill-rule:evenodd}</style></defs><g id="Ebene_1-2"><path id="path5502" d="M19.5 0c-.42-.003-.882.211-1.108.611L.151 32.094c-.105.214-.15.4-.151.613 0 .382.17.744.463.989.258.2.503.304.833.304h36.443a1.14 1.14 0 0 0 .647-.184c.381-.229.614-.639.614-1.083-.011-.229-.067-.47-.17-.64L20.599.606l-.005-.008-.006-.009A1.298 1.298 0 0 0 19.5 0ZM1.296 34Z" class="cls-2"/><path d="m19.481 6.24 13.902 24H5.56l13.921-24z" style="fill:#fff"/><path id="path3540" d="M20.6 13.577a4.018 4.018 0 0 0-.584.05c-1.863.429-1.464 2.658-1.464 2.658s-.178.022-.262.137c-.083.115-.147.26-.147.26s-.65-.398-1.445-.166c-.932.272-.827 1.402-.827 1.402s-.48-.052-.804-.042c-.324.011-.87.314-1.027.963s.073 1.204.073 1.204-.596.178-.607.774c-.006.354.005.508.185.687h-.298l.014 1.049h-1.56c-.377 0-.416 1.124-.416 1.446 0 .792.124 1.275.394 1.279l.648.01c-.47.873-.011.009-.468.872l-1.504-.008v1.224h.949a1.512 1.512 0 0 0 1.373 1.169c.026.002.049.005.075.005H8.941v.628H29.59v-.628h-4.888.027c.003 0 .006-.003.01-.005a1.51 1.51 0 0 0 1.378-1.169h1.994V26.16l-2.035-.008v-3.375l.257-.342h.282v-.931h-4.27v1.033l-3.067.007.002-.034c0-.395-.379-.715-.848-.715s-.849.32-.849.715l.003.039-2.465.005.014-1.049h-.338c.052-.173.19-.389.322-.571.251-.346.541-.661.608-.607.192.155.679.23 1.066.053.387-.178.629-.723.629-.723s.513.074.774-.01c.262-.084.407-.377.407-.377s.23.292.544.366c.314.073.921-.042 1.257-.303.335-.262.533-.742.533-.742s.289.254.418.313c.209.094 1.434.258 1.958-.91.56-1.251-.648-1.957-.648-1.957s.042-.21.032-.545c.06-1.221-.796-1.928-2.097-1.915Zm-6.207 13.798h.967a1.511 1.511 0 0 0 1.242 1.156.284.284 0 0 0 .049.017h-3.675.026a1.514 1.514 0 0 0 1.391-1.173Zm3.907 0h.967a1.512 1.512 0 0 0 1.373 1.169h.016v.005c-1.125 0-2.442.011-3.768 0a1.513 1.513 0 0 0 1.412-1.174Zm3.909 0h.968a1.509 1.509 0 0 0 1.37 1.169l.062.005a241.118 241.118 0 0 0-3.811 0 1.512 1.512 0 0 0 1.411-1.174Z" class="cls-2"/></g></svg>