<svg xmlns="http://www.w3.org/2000/svg" viewBox="0 0 34 34"><circle cx="17" cy="17" r="17" style="fill:#adadad"/><path d="m18.836 24.701-2.333-4.297-2.333 4.297h-2.345l2.491-4.591c.084-.152.125-.319.125-.492v-.251h4.123v.251c0 .173.042.34.124.492l2.493 4.591h-2.345Zm-1.302-20.02c1.139 0 2.06.921 2.06 2.062s-.921 2.06-2.06 2.06-2.06-.923-2.06-2.06a2.06 2.06 0 0 1 2.06-2.062Zm-6.184 9.151c0-.456.203-.89.553-1.182l2.944-2.471a2.577 2.577 0 0 1 3.208-.081l6.204 4.684a.906.906 0 0 1 .355.806.906.906 0 0 1-.986.812l-.907-.518-4.158-3.141v6.109H14.44v-5.976l-1.287 1.081v3.865a1.802 1.802 0 0 1-1.803-1.801v-2.187Z" style="fill:none"/><path d="M14.441 19.367v.251c0 .174-.041.34-.125.492l-2.491 4.591h2.345l2.333-4.297 2.333 4.297h2.345l-2.493-4.591a1.03 1.03 0 0 1-.124-.492v-.251h-4.123Zm12.171 6.141c-.832 0-1.273.461-1.594.797-.299.313-.459.463-.815.463s-.514-.15-.813-.463c-.321-.336-.761-.797-1.594-.797s-1.273.461-1.594.797c-.299.313-.459.463-.815.463s-.516-.15-.815-.463c-.322-.336-.762-.797-1.595-.797s-1.273.461-1.593.797c-.299.312-.458.463-.812.463-.357 0-.516-.15-.816-.463-.322-.336-.763-.797-1.596-.797s-1.274.461-1.595.797c-.299.313-.459.463-.815.463s-.516-.15-.815-.463c-.322-.336-.762-.797-1.596-.797-.513 0-.866.179-1.145.391.229.278.476.54.725.799a.756.756 0 0 1 .42-.11c.357 0 .516.15.816.463.322.336.762.797 1.595.797s1.274-.461 1.595-.797c.299-.313.459-.463.815-.463s.516.15.816.463c.322.336.763.797 1.596.797s1.272-.461 1.593-.797c.299-.312.458-.463.813-.463s.516.15.815.463c.322.336.762.797 1.595.797s1.274-.461 1.595-.797c.299-.312.459-.463.814-.463s.515.15.814.463c.321.336.761.797 1.593.797s1.274-.461 1.595-.797c.299-.312.459-.463.814-.463.189 0 .323.045.451.131.25-.258.496-.521.725-.797a1.822 1.822 0 0 0-1.177-.414ZM17.534 8.804a2.061 2.061 0 0 0 0-4.122 2.06 2.06 0 0 0 0 4.122Zm-4.38 9.014v-3.865l1.287-1.081v5.976h4.123v-6.109l4.158 3.141.907.518a.907.907 0 0 0 .986-.812.904.904 0 0 0-.355-.806l-6.204-4.684a2.577 2.577 0 0 0-3.208.081l-2.944 2.471a1.54 1.54 0 0 0-.553 1.182v2.185c0 .997.808 1.803 1.803 1.803Z" style="fill:#fff"/><path d="M1.398 34 0 32.57 32.602 0 34 1.43 1.398 34z" style="fill:#c1121c"/></svg>