<?xml version="1.0" encoding="UTF-8"?><svg id="Ebene_2" xmlns="http://www.w3.org/2000/svg" viewBox="0 0 34 34"><defs><style>.cls-1{fill:#fff;}.cls-2{fill:#c1121c;}.cls-3{fill:#adadad;}.cls-4{fill:none;}</style></defs><g id="Ebene_1-2"><circle class="cls-3" cx="17" cy="17" r="17"/><g><path class="cls-4" d="M18.836,24.701l-2.333-4.297-2.333,4.297h-2.345l2.491-4.591c.084-.152,.125-.319,.125-.492v-.251h4.123v.251c0,.173,.042,.34,.124,.492l2.493,4.591h-2.345Zm-1.302-20.02c1.139,0,2.06,.921,2.06,2.062s-.921,2.06-2.06,2.06-2.06-.923-2.06-2.06c-.001-1.141,.923-2.062,2.06-2.062Zm-6.184,9.151c0-.456,.203-.89,.553-1.182l2.944-2.471c.919-.771,2.249-.804,3.208-.081l6.204,4.684c.249,.188,.384,.494,.355,.806-.048,.496-.489,.856-.986,.812l-.907-.518-4.158-3.141v6.109h-4.123v-5.976l-1.287,1.081v3.865c-.995,0-1.803-.806-1.803-1.801,0,0,0-2.187,0-2.187Z"/><path class="cls-1" d="M14.441,19.367v.251c0,.174-.041,.34-.125,.492l-2.491,4.591h2.345l2.333-4.297,2.333,4.297h2.345l-2.493-4.591c-.082-.152-.124-.319-.124-.492v-.251h-4.123Zm12.171,6.141c-.832,0-1.273,.461-1.594,.797-.299,.313-.459,.463-.815,.463s-.514-.15-.813-.463c-.321-.336-.761-.797-1.594-.797s-1.273,.461-1.594,.797c-.299,.313-.459,.463-.815,.463s-.516-.15-.815-.463c-.322-.336-.762-.797-1.595-.797s-1.273,.461-1.593,.797c-.299,.312-.458,.463-.812,.463-.357,0-.516-.15-.816-.463-.322-.336-.763-.797-1.596-.797s-1.274,.461-1.595,.797c-.299,.313-.459,.463-.815,.463s-.516-.15-.815-.463c-.322-.336-.762-.797-1.596-.797-.513,0-.866,.179-1.145,.391,.229,.278,.476,.54,.725,.799,.119-.073,.246-.11,.42-.11,.357,0,.516,.15,.816,.463,.322,.336,.762,.797,1.595,.797s1.274-.461,1.595-.797c.299-.313,.459-.463,.815-.463s.516,.15,.816,.463c.322,.336,.763,.797,1.596,.797s1.272-.461,1.593-.797c.299-.312,.458-.463,.813-.463s.516,.15,.815,.463c.322,.336,.762,.797,1.595,.797s1.274-.461,1.595-.797c.299-.312,.459-.463,.814-.463s.515,.15,.814,.463c.321,.336,.761,.797,1.593,.797s1.274-.461,1.595-.797c.299-.312,.459-.463,.814-.463,.189,0,.323,.045,.451,.131,.25-.258,.496-.521,.725-.797-.285-.222-.646-.414-1.177-.414ZM17.534,8.804c1.139,0,2.06-.923,2.06-2.06s-.921-2.062-2.06-2.062-2.06,.921-2.06,2.062c-.001,1.137,.923,2.06,2.06,2.06Zm-4.38,9.014v-3.865l1.287-1.081v5.976h4.123v-6.109l4.158,3.141,.907,.518c.497,.044,.937-.316,.986-.812,.029-.312-.105-.618-.355-.806l-6.204-4.684c-.958-.723-2.288-.69-3.208,.081l-2.944,2.471c-.351,.292-.553,.727-.553,1.182v2.185c0,.997,.808,1.803,1.803,1.803Z"/></g><polygon class="cls-2" points="1.398 34 0 32.57 32.602 0 34 1.43 1.398 34"/></g></svg>