<svg xmlns="http://www.w3.org/2000/svg" viewBox="0 0 34 34"><circle cx="17" cy="17" r="17" style="fill:#adadad"/><path d="m25.694 7.729-1.165-.106-1.715 18.737-.004.073.007.06s.018.188-.076.294c-.078.087-.254.136-.495.136H11.752c-.447 0-.554-.286-.567-.562L9.472 7.622l-1.165.106 1.711 18.693c.011.671.481 1.67 1.735 1.67h10.494c.758 0 1.172-.298 1.386-.548.359-.419.367-.925.352-1.132l1.709-18.682Zm-4.862 17.078 1.085-11.866s-2.318 1.849-4.918 0c-2.532-1.801-4.918 0-4.918 0l1.086 11.866h7.665Zm-2.205-13.631a1.1 1.1 0 1 0 2.17-.345 1.1 1.1 0 0 0-2.17.345Zm-2.251-.406a.91.91 0 1 0-.286-1.798.91.91 0 0 0 .286 1.798Zm1.986-3.319a.777.777 0 1 0-.245-1.535.777.777 0 0 0 .245 1.535Z" style="fill:#fff;fill-rule:evenodd"/><path d="M1.398 34 0 32.57 32.602 0 34 1.43 1.398 34z" style="fill:#c1121c"/></svg>