<?xml version="1.0" encoding="UTF-8"?><svg id="Ebene_2" xmlns="http://www.w3.org/2000/svg" viewBox="0 0 34 34"><defs><style>.cls-1{fill:#fff;fill-rule:evenodd;}.cls-2{fill:#adadad;}</style></defs><g id="Ebene_1-2"><circle class="cls-2" cx="17" cy="17" r="17"/><path class="cls-1" d="M25.694,7.729l-1.165-.106-1.715,18.737-.004,.073,.007,.06s.018,.188-.076,.294c-.078,.087-.254,.136-.495,.136H11.752c-.447,0-.554-.286-.567-.562l-1.713-18.739-1.165,.106,1.711,18.693c.011,.671,.481,1.67,1.735,1.67h10.494c.758,0,1.172-.298,1.386-.548,.359-.419,.367-.925,.352-1.132l1.709-18.682Zm-4.862,17.078l1.085-11.866s-2.318,1.849-4.918,0c-2.532-1.801-4.918,0-4.918,0l1.086,11.866h7.665Zm-2.205-13.631c.095,.6,.659,1.008,1.258,.913,.6-.095,1.008-.659,.913-1.258-.095-.6-.659-1.008-1.258-.913-.599,.094-1.008,.658-.913,1.258Zm-2.251-.406c.497-.079,.835-.546,.756-1.042-.079-.497-.546-.835-1.042-.756-.497,.079-.835,.546-.756,1.042,.079,.497,.545,.835,1.042,.756Zm1.986-3.319c.423-.067,.712-.465,.645-.889-.067-.423-.465-.712-.889-.645-.423,.067-.712,.465-.645,.889,.067,.423,.465,.712,.889,.645Z"/></g></svg>