<svg xmlns="http://www.w3.org/2000/svg" id="Ebene_2" viewBox="0 0 34 34"><defs><style>.cls-1{fill:#fff}.cls-3{fill:none}</style></defs><g id="Ebene_1-2"><circle cx="17" cy="17" r="17" style="fill:#adadad"/><path d="M25.049 16.593c1.424 0 2.58 1.153 2.58 2.582s-1.156 2.58-2.58 2.58a2.58 2.58 0 0 1 0-5.162Zm-9.877.392-1.403-.714 1.211-2.38 1.403.714-1.211 2.38ZM27.274 26.488l.016-.017-.016-.013v.03Z" class="cls-3"/><path d="m16.403 11.954-5.61-2.743V4.465c-.371.184-.731.384-1.082.599v3.618l-2.802-1.37a13.958 13.958 0 0 0-3.423 6.086l7.421 3.791 5.496-5.235ZM13.77 16.27l1.21-2.38 1.403.714-1.211 2.38zM26.764 23.085c-.784-.658-2.097-.71-3.237-.396l-3.515-2.887 1.911-5.868a1.176 1.176 0 0 0-2.235-.728l-2.159 6.63c-.15.46-.003.965.371 1.272l4.211 3.459v5.456a14 14 0 0 0 5.162-3.536v-.03l.016.013c.493-.536.954-1.101 1.36-1.709l-1.885-1.676Z" class="cls-1"/><path d="M25.049 21.755a2.58 2.58 0 1 0-.001-5.161 2.58 2.58 0 0 0 .001 5.161Z" class="cls-1"/></g></svg>