<?xml version="1.0" encoding="UTF-8"?><svg id="Ebene_2" xmlns="http://www.w3.org/2000/svg" viewBox="0 0 34 34"><defs><style>.cls-1{fill:#fff;}.cls-2{fill:#adadad;}.cls-3{fill:none;}</style></defs><g id="Ebene_1-2"><circle class="cls-2" cx="17" cy="17" r="17"/><g><path class="cls-3" d="M25.049,16.593c1.424,0,2.58,1.153,2.58,2.582s-1.156,2.58-2.58,2.58-2.58-1.155-2.58-2.58,1.154-2.582,2.58-2.582Zm-9.877,.392l-1.403-.714,1.211-2.38,1.403,.714-1.211,2.38Z"/><path class="cls-3" d="M27.274,26.488c.005-.006,.01-.011,.016-.017l-.016-.013v.03Z"/><path class="cls-1" d="M16.403,11.954l-5.61-2.743V4.465c-.371,.184-.731,.384-1.082,.599v3.618l-2.802-1.37c-1.615,1.682-2.806,3.765-3.423,6.086l7.421,3.791,5.496-5.235Z"/><rect class="cls-1" x="13.741" y="14.65" width="2.671" height="1.574" transform="translate(-5.52 21.871) rotate(-63.025)"/><path class="cls-1" d="M26.764,23.085c-.784-.658-2.097-.71-3.237-.396l-3.515-2.887,1.911-5.868c.201-.618-.136-1.28-.754-1.481-.615-.202-1.281,.138-1.481,.753l-2.159,6.63c-.15,.46-.003,.965,.371,1.272l4.211,3.459v5.456c1.983-.779,3.74-1.997,5.162-3.536v-.03l.016,.013c.493-.536,.954-1.101,1.36-1.709l-1.885-1.676Z"/><path class="cls-1" d="M25.049,21.755c1.424,0,2.58-1.155,2.58-2.58s-1.156-2.582-2.58-2.582-2.58,1.153-2.58,2.582,1.154,2.58,2.58,2.58Z"/></g></g></svg>