<svg xmlns="http://www.w3.org/2000/svg" viewBox="0 0 34 34"><circle cx="17" cy="17" r="17" style="fill:#adadad"/><path d="M19.174 20.106a4.977 4.977 0 0 1-9.224 3.733 4.977 4.977 0 0 1 2.571-6.553v-1.069a5.966 5.966 0 0 0-3.827 4.284 5.972 5.972 0 1 0 11.532-.395h-1.052Zm-2.173-4.728h4.977c0-.962-.78-1.742-1.742-1.742h-3.235V10.65a1.744 1.744 0 0 0-1.742-1.742c-.962 0-1.742.78-1.742 1.742v6.719c0 .962.78 1.742 1.742 1.742h5.654c.228 0 .427.155.483.376l1.717 6.828a1.99 1.99 0 0 0 2.35 1.461l-2.01-9.333a1.99 1.99 0 0 0-1.946-1.572h-4.505v-1.493ZM13.517 6.17a1.992 1.992 0 1 0 3.984-.004 1.992 1.992 0 0 0-3.984.004" style="fill:#fff;fill-rule:evenodd"/><path d="M1.398 34 0 32.57 32.602 0 34 1.43 1.398 34z" style="fill:#c1121c"/></svg>