<?xml version="1.0" encoding="UTF-8"?><svg id="Ebene_2" xmlns="http://www.w3.org/2000/svg" viewBox="0 0 34 34"><defs><style>.cls-1{fill:#fff;fill-rule:evenodd;}.cls-2{fill:#039;}</style></defs><g id="Ebene_1-2"><circle class="cls-2" cx="17" cy="17" r="17"/><path class="cls-1" d="M19.174,20.106c.274,.733,.371,1.521,.284,2.299-.098,.868-.422,1.695-.941,2.398-1.632,2.212-4.748,2.682-6.96,1.05-.703-.519-1.257-1.213-1.607-2.014-1.1-2.519,.051-5.453,2.571-6.553v-1.069c-.905,.32-1.719,.853-2.374,1.555-.716,.766-1.217,1.707-1.453,2.729-.744,3.213,1.257,6.422,4.471,7.166,1.021,.237,2.087,.2,3.09-.106,3.155-.962,4.933-4.3,3.971-7.455h-1.052Zm-2.173-4.728h4.977c0-.962-.78-1.742-1.742-1.742h-3.235v-2.986c0-.622-.332-1.197-.871-1.509-.265-.153-.565-.233-.871-.233-.962,0-1.742,.78-1.742,1.742v6.719c0,.962,.78,1.742,1.742,1.742h5.654c.228,0,.427,.155,.483,.376l1.717,6.828c.262,1.041,1.301,1.687,2.35,1.461l-2.01-9.333c-.197-.917-1.008-1.572-1.946-1.572h-4.505v-1.493h0Zm-3.484-9.208c0,.349,.092,.693,.267,.995,.55,.952,1.767,1.278,2.72,.729,.303-.175,.554-.426,.729-.729,.55-.952,.224-2.17-.729-2.72-.303-.175-.646-.267-.995-.267-1.101,.001-1.992,.892-1.992,1.992"/></g></svg>