<svg xmlns="http://www.w3.org/2000/svg" id="Ebene_2" viewBox="0 0 34 34"><defs><style>.cls-1{fill:#fff}</style></defs><g id="Ebene_1-2"><circle cx="17" cy="17" r="17" style="fill:#adadad"/><path d="M4.715 14.431h1.566l.797 3.443c.072.314.133.63.182.945.05.314.106.635.169.959h.055c.062-.324.128-.645.195-.959.067-.315.142-.631.223-.945l.864-3.443h1.418l.878 3.443c.081.314.157.63.229.945.072.314.145.635.216.959h.055c.062-.324.121-.645.175-.959.055-.315.113-.631.176-.945l.797-3.443h1.459l-1.688 6.63h-1.85l-.771-3.092c-.071-.315-.139-.628-.202-.938l-.202-.993H9.4c-.062.352-.126.685-.188.999-.063.315-.131.631-.203.945l-.756 3.079H6.471l-1.756-6.63ZM15.568 13.026c-.18-.162-.27-.374-.27-.635s.09-.476.27-.642c.181-.167.41-.25.688-.25s.509.083.689.25c.18.166.27.38.27.642s-.09.473-.27.635a.997.997 0 0 1-.689.242.989.989 0 0 1-.688-.242Zm-.094 1.405h1.554v6.63h-1.554v-6.63ZM19.011 11.527h1.526v5.955h.041l2.457-3.052h1.702l-2.27 2.7 2.499 3.93h-1.688l-1.701-2.876-1.04 1.188v1.688h-1.526v-9.533ZM26.152 13.026c-.18-.162-.27-.374-.27-.635s.09-.476.27-.642c.181-.167.41-.25.688-.25s.509.083.689.25c.18.166.27.38.27.642s-.09.473-.27.635a.997.997 0 0 1-.689.242.987.987 0 0 1-.688-.242Zm-.094 1.405h1.554v6.63h-1.554v-6.63Z" class="cls-1"/></g></svg>